<svg width="56" height="56" viewBox="0 0 56 56" fill="none" xmlns="http://www.w3.org/2000/svg">
<path fill-rule="evenodd" clip-rule="evenodd" d="M36.5498 43.896H51.2272C51.5068 43.8947 51.7747 43.7831 51.9724 43.5853C52.1702 43.3876 52.2819 43.1198 52.2832 42.8401V38.3166C52.2819 38.0369 52.1702 37.7691 51.9724 37.5714C51.7747 37.3736 51.5068 37.262 51.2272 37.2607H38.1162C38.0113 39.5506 37.4801 41.8009 36.5498 43.896ZM39.724 26.396V35.5107H38.1162C38.0913 34.9753 38.0439 34.4462 37.974 33.9232V26.396L36.3421 23.5844C36.2851 23.4853 36.2482 23.3758 36.2335 23.2623C36.2188 23.1489 36.2266 23.0337 36.2564 22.9232C36.2863 22.8128 36.3376 22.7093 36.4074 22.6186C36.4772 22.528 36.5642 22.452 36.6634 22.395C36.7626 22.338 36.8721 22.3011 36.9855 22.2864C37.099 22.2717 37.2142 22.2795 37.3247 22.3094C37.4351 22.3392 37.5386 22.3905 37.6292 22.4603C37.7198 22.5301 37.7958 22.6171 37.8528 22.7163L38.849 24.4266L39.8451 22.7163C39.9602 22.516 40.1502 22.3696 40.3733 22.3093C40.5963 22.2491 40.8342 22.2799 41.0345 22.395C41.2349 22.5101 41.3813 22.7001 41.4415 22.9232C41.5018 23.1462 41.471 23.3841 41.3559 23.5844L39.724 26.396ZM25.3823 2.84399C23.9386 5.96118 24.3297 10.5048 26.7179 14.6413C28.8507 18.3347 32.0598 20.8116 35.1584 21.5191L30.0691 12.7045C30.0121 12.6053 29.9752 12.4958 29.9605 12.3824C29.9458 12.2689 29.9536 12.1537 29.9834 12.0432C30.0437 11.8202 30.19 11.6302 30.3904 11.515C30.5907 11.3999 30.8286 11.3691 31.0516 11.4293C31.1621 11.4591 31.2656 11.5104 31.3562 11.5802C31.4468 11.6501 31.5228 11.7371 31.5798 11.8363L36.6672 20.6478C37.6038 17.6106 37.0636 13.5931 34.9312 9.89923C32.5432 5.76288 28.8037 3.15199 25.3823 2.84399ZM52.316 2.84399C53.7598 5.96118 53.3687 10.5048 50.9805 14.6413C48.8477 18.3347 45.6387 20.8116 42.54 21.5191L47.6292 12.7045C47.742 12.5043 47.7712 12.2676 47.7103 12.046C47.6495 11.8244 47.5035 11.6358 47.3043 11.5213C47.105 11.4068 46.8686 11.3756 46.6465 11.4346C46.4244 11.4936 46.2346 11.638 46.1184 11.8363L41.031 20.6479C40.0945 17.6106 40.6347 13.5926 42.767 9.89923C45.1548 5.76288 48.8942 3.15199 52.316 2.84399ZM19.6165 19.6149C16.2996 19.6149 13.0571 20.5985 10.2992 22.4413C7.54121 24.2841 5.39165 26.9033 4.12231 29.9678C2.85297 33.0323 2.52085 36.4043 3.16796 39.6575C3.81506 42.9107 5.41232 45.899 7.75776 48.2444C10.1032 50.5899 13.0915 52.1871 16.3447 52.8342C19.5979 53.4813 22.9699 53.1492 26.0344 51.8799C29.0989 50.6105 31.7181 48.461 33.5609 45.703C35.4037 42.9451 36.3873 39.7026 36.3873 36.3857C36.3873 34.1833 35.9535 32.0025 35.1107 29.9678C34.2679 27.933 33.0326 26.0842 31.4753 24.5269C29.918 22.9696 28.0692 21.7343 26.0344 20.8915C23.9997 20.0487 21.8189 19.6149 19.6165 19.6149ZM23.8527 33.5165C23.8527 33.7485 23.7605 33.9711 23.5964 34.1352C23.4323 34.2993 23.2098 34.3915 22.9777 34.3915C22.7456 34.3915 22.5231 34.2993 22.359 34.1352C22.1949 33.9711 22.1027 33.7485 22.1027 33.5165C22.1027 31.7326 19.3574 30.828 17.8073 32.1508C16.3146 33.4249 17.4514 35.5104 19.6166 35.5104C21.8186 35.5104 23.8527 37.0686 23.8527 39.2543C23.8527 41.1441 22.3156 42.5779 20.4916 42.9183V44.4522C20.4916 44.6843 20.3994 44.9068 20.2353 45.0709C20.0712 45.235 19.8487 45.3272 19.6166 45.3272C19.3846 45.3272 19.162 45.235 18.9979 45.0709C18.8338 44.9068 18.7416 44.6843 18.7416 44.4522V42.9181C16.9178 42.5782 15.3804 41.1444 15.3804 39.2541C15.3804 39.022 15.4726 38.7994 15.6367 38.6353C15.8008 38.4712 16.0233 38.3791 16.2554 38.3791C16.4875 38.3791 16.71 38.4712 16.8741 38.6353C17.0382 38.7994 17.1304 39.022 17.1304 39.2541C17.1304 41.0378 19.8757 41.9424 21.4259 40.6196C22.9186 39.3455 21.7818 37.2601 19.6166 37.2601C17.4146 37.2601 15.3804 35.7018 15.3804 33.5162C15.3804 31.6265 16.9177 30.1926 18.7416 29.8522V28.3193C18.7416 28.0872 18.8338 27.8647 18.9979 27.7006C19.162 27.5365 19.3846 27.4443 19.6166 27.4443C19.8487 27.4443 20.0712 27.5365 20.2353 27.7006C20.3994 27.8647 20.4916 28.0872 20.4916 28.3193V29.8533C22.3156 30.1931 23.8527 31.627 23.8527 33.5173V33.5165ZM19.6166 23.263C22.212 23.263 24.749 24.0326 26.907 25.4745C29.0649 26.9164 30.7469 28.9658 31.7401 31.3636C32.7333 33.7614 32.9932 36.3998 32.4869 38.9453C31.9806 41.4908 30.7308 43.829 28.8956 45.6642C27.0605 47.4994 24.7223 48.7492 22.1769 49.2556C19.6314 49.7619 16.9929 49.5021 14.5951 48.509C12.1973 47.5158 10.1479 45.8339 8.70592 43.676C7.26398 41.5181 6.49431 38.981 6.49424 36.3857C6.4943 32.9054 7.87685 29.5677 10.3378 27.1068C12.7987 24.6459 16.1364 23.2634 19.6166 23.2633V23.263ZM27.6581 28.3438C29.2486 29.9343 30.3317 31.9606 30.7705 34.1667C31.2093 36.3727 30.9841 38.6594 30.1234 40.7374C29.2626 42.8155 27.805 44.5916 25.9348 45.8413C24.0646 47.0909 21.8658 47.7579 19.6166 47.7579C17.3673 47.7579 15.1685 47.0909 13.2983 45.8413C11.4281 44.5916 9.9705 42.8155 9.10975 40.7374C8.24899 38.6594 8.02379 36.3727 8.4626 34.1667C8.90142 31.9606 9.98456 29.9343 11.575 28.3438C13.7078 26.2111 16.6004 25.013 19.6166 25.013C22.6327 25.013 25.5253 26.2111 27.6581 28.3438ZM51.2272 45.646C51.5069 45.6473 51.7747 45.759 51.9725 45.9568C52.1702 46.1545 52.2819 46.4224 52.2832 46.7021V51.2255C52.2819 51.5051 52.1702 51.773 51.9725 51.9708C51.7747 52.1685 51.5069 52.2802 51.2272 52.2815H29.1245C31.8294 50.659 34.0777 48.3757 35.6582 45.646H51.2272Z" fill="#165425"/>
<circle cx="19.7777" cy="36.4003" r="9.1" fill="url(#paint0_linear_2004_1109)"/>
<defs>
<linearGradient id="paint0_linear_2004_1109" x1="10.6777" y1="45.5003" x2="30.9066" y2="43.0504" gradientUnits="userSpaceOnUse">
<stop stop-color="#D5AE25"/>
<stop offset="0.250996" stop-color="#EDD274"/>
<stop offset="0.48" stop-color="#EBCD67"/>
<stop offset="0.812719" stop-color="#D6AD3D"/>
<stop offset="1" stop-color="#EBC12D"/>
</linearGradient>
</defs>
</svg>
