<svg width="56" height="56" viewBox="0 0 56 56" fill="none" xmlns="http://www.w3.org/2000/svg">
<path d="M23.1865 8.86401C23.8104 8.50366 24.5161 8.30848 25.2365 8.29694H33.9865C34.7173 8.30258 35.4335 8.50122 36.0628 8.87275L37.0922 4.60678C37.3789 2.36537 32.8653 4.18513 32.5559 4.40612C31.6594 4.89927 30.6473 5.14328 29.6246 5.11278C26.4562 5.07641 26.4379 3.49527 22.9945 3.5251C22.8635 3.52569 22.7343 3.5558 22.6165 3.61318C22.4987 3.67056 22.3953 3.75374 22.314 3.85655C22.2321 3.96124 22.1746 4.08299 22.1459 4.21283C22.1172 4.34267 22.1181 4.47729 22.1483 4.60678L23.1865 8.86401Z" fill="#165425"/>
<path d="M16.9578 30.5515C18.0935 29.4238 19.6235 28.7824 21.2238 28.7631H33.0445C33.7678 28.7598 34.4845 28.9008 35.1526 29.1779C35.8207 29.455 36.4268 29.8627 36.9354 30.377L41.9516 25.3434C42.6383 24.6638 43.4933 24.179 44.4291 23.9388C42.6002 19.3475 39.5014 15.8076 36.4294 12.7985C36.466 12.4078 36.4118 12.0141 36.2711 11.6478C36.1303 11.2816 35.9068 10.9529 35.6181 10.6873C35.172 10.2791 34.5913 10.0493 33.9867 10.0417H25.2629C24.9161 10.0498 24.5748 10.1292 24.2601 10.2752C23.9455 10.4212 23.6643 10.6305 23.4342 10.89C23.2042 11.1496 23.0301 11.4538 22.923 11.7837C22.8158 12.1136 22.7779 12.462 22.8115 12.8072C19.3965 16.1704 15.7466 20.3488 14.2708 25.6748C13.9227 26.81 13.8036 28.0031 13.9204 29.1847C14.0373 30.3663 14.3877 31.5129 14.9513 32.5579L16.9578 30.5515Z" fill="#165425"/>
<path d="M25.8414 38.069C25.6132 38.0644 25.3959 37.9705 25.2361 37.8075C25.0763 37.6445 24.9868 37.4253 24.9868 37.1971C24.9868 36.9688 25.0763 36.7496 25.2361 36.5866C25.3959 36.4236 25.6132 36.3297 25.8414 36.3252L29.4685 36.3165C29.7039 35.9415 29.948 35.584 30.2096 35.244C31.536 33.5484 33.2994 32.2462 35.3102 31.4774C34.643 30.9337 33.8081 30.6379 32.9474 30.6404H21.1419C18.8328 30.5642 17.3589 32.7495 15.8494 34.1629L13.8789 36.1421L23.0687 45.3406C23.4141 45.6752 23.6793 46.0836 23.8447 46.5351C25.2659 46.3434 26.7917 46.1341 28.2565 45.9248C27.4666 43.3416 27.5866 40.5656 28.5966 38.0602L25.8414 38.069Z" fill="#165425"/>
<path d="M39.1035 30.7103C41.9992 30.6156 44.8278 31.5936 47.0465 33.4567C48.1214 32.3885 49.6565 31.1051 49.5314 29.4285C49.5198 28.6873 49.293 27.9655 48.8785 27.3509C48.4639 26.7364 47.8796 26.2557 47.1967 25.9674C46.5138 25.6791 45.7618 25.5956 45.0323 25.7271C44.3028 25.8587 43.6273 26.1995 43.0881 26.7082L39.1035 30.7103Z" fill="#165425"/>
<path d="M12.6503 37.3716C12.509 37.1701 12.3259 37.0015 12.1136 36.877C11.9012 36.7526 11.6646 36.6754 11.4197 36.6506C11.1749 36.6258 10.9275 36.654 10.6945 36.7332C10.4615 36.8125 10.2484 36.941 10.0695 37.11L6.9568 40.2402C6.80131 40.3904 6.6775 40.5702 6.59267 40.7691C6.50784 40.9679 6.46372 41.1817 6.4629 41.3979C6.46209 41.6141 6.5046 41.8283 6.58792 42.0278C6.67125 42.2273 6.7937 42.408 6.94805 42.5594L16.3733 52.0021C16.5225 52.1597 16.7023 52.2851 16.9017 52.3705C17.1012 52.456 17.316 52.4998 17.5329 52.4991C17.7518 52.5006 17.9688 52.4581 18.171 52.3743C18.3731 52.2904 18.5564 52.1668 18.71 52.0108L21.8402 48.8719C22.1446 48.5663 22.3154 48.1524 22.3154 47.7211C22.3154 47.2897 22.1446 46.8758 21.8402 46.5702C20.0534 44.7851 14.4422 39.162 12.6503 37.3716Z" fill="#165425"/>
<path d="M45.8076 34.6947C38.8442 28.9246 28.1558 35.0248 29.5991 43.9894C29.9685 46.3539 31.1685 48.5094 32.9837 50.0689C34.799 51.6285 37.1107 52.49 39.5038 52.4989C48.9322 52.4892 53.0811 40.5287 45.8076 34.6947ZM43.3924 40.9114L39.0329 45.2709C38.8674 45.4324 38.6452 45.5228 38.4139 45.5228C38.1826 45.5228 37.9604 45.4324 37.7949 45.2709L35.6151 43.0912C35.4509 42.927 35.3587 42.7043 35.3587 42.4721C35.3587 42.2399 35.4509 42.0172 35.6151 41.8531C35.7793 41.6889 36.002 41.5966 36.2342 41.5966C36.4663 41.5966 36.689 41.6889 36.8532 41.853L38.414 43.4225L42.1544 39.6733C42.3196 39.5145 42.5406 39.4267 42.7698 39.429C42.9991 39.4313 43.2182 39.5233 43.3803 39.6854C43.5424 39.8475 43.6345 40.0667 43.6368 40.2959C43.639 40.5252 43.5513 40.7461 43.3924 40.9114Z" fill="url(#paint0_linear_2004_1120)"/>
<defs>
<linearGradient id="paint0_linear_2004_1120" x1="29.4668" y1="52.4989" x2="51.7454" y2="49.8029" gradientUnits="userSpaceOnUse">
<stop stop-color="#D5AE25"/>
<stop offset="0.250996" stop-color="#EDD274"/>
<stop offset="0.48" stop-color="#EBCD67"/>
<stop offset="0.812719" stop-color="#D6AD3D"/>
<stop offset="1" stop-color="#EBC12D"/>
</linearGradient>
</defs>
</svg>
