<svg width="56" height="57" viewBox="0 0 56 57" fill="none" xmlns="http://www.w3.org/2000/svg">
<path d="M42.4521 54.6333C42.4521 46.9963 35.9827 41.5667 28.0004 41.5667C20.0182 41.5667 13.5488 46.9963 13.5488 54.6333C13.5488 55.6647 14.3572 56.5 15.3553 56.5H40.6456C41.6437 56.5 42.4521 55.6647 42.4521 54.6333Z" fill="#165425"/>
<path d="M28.0003 39.7C31.4922 39.7 34.3229 36.7749 34.3229 33.1666C34.3229 29.5584 31.4922 26.6333 28.0003 26.6333C24.5085 26.6333 21.6777 29.5584 21.6777 33.1666C21.6777 36.7749 24.5085 39.7 28.0003 39.7Z" fill="#165425"/>
<path d="M55.999 54.6334C55.999 55.66 55.1861 56.5 54.1925 56.5H43.7693C44.0764 55.9494 44.257 55.3147 44.257 54.6334C44.257 50.2747 42.4235 46.4667 39.3887 43.788C40.599 43.5453 41.9267 43.4333 43.3538 43.4333C51.3383 43.4333 55.999 46.9987 55.999 54.6334Z" fill="#165425"/>
<path d="M43.3549 41.5667C46.3479 41.5667 48.7743 39.0595 48.7743 35.9667C48.7743 32.8739 46.3479 30.3667 43.3549 30.3667C40.3619 30.3667 37.9355 32.8739 37.9355 35.9667C37.9355 39.0595 40.3619 41.5667 43.3549 41.5667Z" fill="#165425"/>
<path d="M11.7419 54.6334C11.7419 55.3147 11.9226 55.9494 12.2297 56.5H1.80645C1.30968 56.5 0.858061 56.2947 0.5329 55.9493C0.198706 55.6133 0 55.1467 0 54.6334C0 46.9987 4.66065 43.4333 12.6452 43.4333C14.0723 43.4333 15.4 43.5453 16.6103 43.788C13.5755 46.4667 11.7419 50.2747 11.7419 54.6334Z" fill="#165425"/>
<path d="M12.6459 41.5667C15.6389 41.5667 18.0653 39.0595 18.0653 35.9667C18.0653 32.8739 15.6389 30.3667 12.6459 30.3667C9.65289 30.3667 7.22656 32.8739 7.22656 35.9667C7.22656 39.0595 9.65289 41.5667 12.6459 41.5667Z" fill="#165425"/>
<path d="M35.2251 20.0999H20.7734V22.8999H35.2251V20.0999Z" fill="url(#paint0_linear_2004_1075)"/>
<path d="M35.2257 19.1665L37.9354 10.7665L31.6128 14.4999L27.9999 6.09985L24.387 14.4999L18.0645 10.7665L20.7741 19.1665" fill="url(#paint1_linear_2004_1075)"/>
<path d="M28.0009 4.23333C27.5018 4.23333 27.0977 3.81567 27.0977 3.3V1.43333C27.0977 0.917667 27.5018 0.5 28.0009 0.5C28.4999 0.5 28.9041 0.917667 28.9041 1.43333V3.3C28.9041 3.81567 28.4999 4.23333 28.0009 4.23333Z" fill="url(#paint2_linear_2004_1075)"/>
<path d="M19.8698 7.96663C19.6395 7.96663 19.4069 7.87563 19.2308 7.69363L17.4243 5.82697C17.0721 5.46297 17.0721 4.87263 17.4243 4.5063C17.7766 4.13996 18.3479 4.1423 18.7024 4.5063L20.5089 6.37296C20.8611 6.73696 20.8611 7.3273 20.5089 7.69363C20.3327 7.87563 20.1024 7.96663 19.8698 7.96663Z" fill="url(#paint3_linear_2004_1075)"/>
<path d="M36.1298 7.96673C35.8995 7.96673 35.6669 7.87573 35.4908 7.69373C35.1385 7.32973 35.1385 6.7394 35.4908 6.37307L37.2972 4.5064C37.6495 4.1424 38.2208 4.1424 38.5753 4.5064C38.9298 4.8704 38.9275 5.46073 38.5753 5.82707L36.7688 7.69373C36.5927 7.87573 36.3624 7.96673 36.1298 7.96673Z" fill="url(#paint4_linear_2004_1075)"/>
<defs>
<linearGradient id="paint0_linear_2004_1075" x1="20.7734" y1="22.8999" x2="32.4928" y2="15.5745" gradientUnits="userSpaceOnUse">
<stop stop-color="#D5AE25"/>
<stop offset="0.250996" stop-color="#EDD274"/>
<stop offset="0.48" stop-color="#EBCD67"/>
<stop offset="0.812719" stop-color="#D6AD3D"/>
<stop offset="1" stop-color="#EBC12D"/>
</linearGradient>
<linearGradient id="paint1_linear_2004_1075" x1="18.0645" y1="19.1665" x2="39.7393" y2="15.1746" gradientUnits="userSpaceOnUse">
<stop stop-color="#D5AE25"/>
<stop offset="0.250996" stop-color="#EDD274"/>
<stop offset="0.48" stop-color="#EBCD67"/>
<stop offset="0.812719" stop-color="#D6AD3D"/>
<stop offset="1" stop-color="#EBC12D"/>
</linearGradient>
<linearGradient id="paint2_linear_2004_1075" x1="27.0977" y1="4.23333" x2="29.128" y2="4.11436" gradientUnits="userSpaceOnUse">
<stop stop-color="#D5AE25"/>
<stop offset="0.250996" stop-color="#EDD274"/>
<stop offset="0.48" stop-color="#EBCD67"/>
<stop offset="0.812719" stop-color="#D6AD3D"/>
<stop offset="1" stop-color="#EBC12D"/>
</linearGradient>
<linearGradient id="paint3_linear_2004_1075" x1="17.1602" y1="7.96663" x2="21.1795" y2="7.49567" gradientUnits="userSpaceOnUse">
<stop stop-color="#D5AE25"/>
<stop offset="0.250996" stop-color="#EDD274"/>
<stop offset="0.48" stop-color="#EBCD67"/>
<stop offset="0.812719" stop-color="#D6AD3D"/>
<stop offset="1" stop-color="#EBC12D"/>
</linearGradient>
<linearGradient id="paint4_linear_2004_1075" x1="35.2266" y1="7.96673" x2="39.2468" y2="7.49545" gradientUnits="userSpaceOnUse">
<stop stop-color="#D5AE25"/>
<stop offset="0.250996" stop-color="#EDD274"/>
<stop offset="0.48" stop-color="#EBCD67"/>
<stop offset="0.812719" stop-color="#D6AD3D"/>
<stop offset="1" stop-color="#EBC12D"/>
</linearGradient>
</defs>
</svg>
