<svg width="66" height="129" viewBox="0 0 66 129" fill="none" xmlns="http://www.w3.org/2000/svg">
<path d="M52.7405 16.1833C57.6202 12.9801 58.6626 7.9517 61.6109 4.86075C63.2066 3.18775 65.777 0.465331 65.777 0.465331C49.4038 -1.06611 37.7829 0.794086 33.4296 14.5454C27.367 6.16173 12.7031 -1.19013 0 0.161138C0 0.161138 3.27814 2.69406 5.0658 4.55659C6.85345 6.41912 6.62999 13.1977 11.993 16.401C15.9777 18.7806 26.7434 18.0353 32.0151 17.4948C32.2094 20.6115 32.7522 23.2497 33.288 25.8083C33.9151 28.8057 34.5083 31.637 34.5083 35.1222C34.5083 39.3667 34.1421 42.9268 33.8414 45.1426C19.5144 45.2245 8.17547 46.3067 8.17547 48.6875V54.6705C6.51417 55.1467 5.58057 55.7212 5.58057 56.4021V63.1642C5.58057 63.9411 6.79028 64.6723 8.91721 65.3099V70.2096C7.48755 70.6635 6.69317 71.2017 6.69317 71.8299V78.5921C6.69317 78.9478 6.95524 79.2941 7.43491 79.6263V85.4257C5.54196 85.9205 4.46913 86.5278 4.46913 87.2578V94.02C4.46913 94.6494 5.26352 95.2473 6.69317 95.7913V101.501C5.97366 101.854 5.58057 102.247 5.58057 102.687V109.449C5.58057 110.213 6.74933 110.931 8.80606 111.561V117.018C8.80606 117.061 8.81776 117.103 8.82595 117.144C8.09241 117.489 7.69463 117.876 7.69463 118.309V124.733C7.69463 127.087 19.3635 128.995 33.7583 128.995C48.1532 128.995 59.822 127.087 59.822 124.733V118.309C59.822 118.291 59.815 118.274 59.8139 118.256C60.5404 117.864 60.9346 117.449 60.9346 117.018V110.594C60.9346 110.294 60.7428 110.015 60.3813 109.758C60.4234 109.656 60.4526 109.553 60.4526 109.449V102.999C61.1721 102.598 61.5652 102.174 61.5652 101.734V94.9723C61.5652 94.3429 60.7709 93.8047 59.3412 93.3519V88.3341C61.2341 87.7246 62.307 87.0355 62.307 86.3055V79.5433C62.307 79.1864 62.0449 78.8612 61.5652 78.5617V72.6477C62.9949 72.1048 63.7904 71.5058 63.7904 70.8764V64.1142C63.7904 63.3374 62.5807 62.6986 60.4538 62.1873V57.3532C62.1163 56.7752 63.0487 56.1294 63.0487 55.4474V48.6852C63.0487 46.3091 51.7484 45.2257 37.4553 45.1415C37.7583 42.7934 38.0871 39.2871 38.0871 35.121C38.0871 31.2661 37.4284 28.1178 36.7908 25.0748C36.2901 22.6835 35.8127 20.3904 35.6138 17.7429C40.2819 18.1278 49.2108 18.4998 52.7405 16.1833ZM29.6577 15.3223C28.8072 15.0696 27.5788 14.7373 26.1398 14.2343C24.8903 13.799 23.4501 13.2995 21.942 12.6864C21.4226 12.6513 20.8446 12.6853 20.248 12.7566C19.4513 12.8526 18.6066 13.0748 17.7619 13.3334C16.9043 13.5533 16.0351 13.8002 15.1915 13.971C14.348 14.1465 13.5279 14.1617 12.8365 14.1219C12.1404 14.0845 11.5823 13.8915 11.2103 13.7546C10.8417 13.5943 10.6499 13.475 10.6499 13.475C10.6499 13.475 10.8698 13.5358 11.2547 13.5861C11.6373 13.6504 12.1895 13.661 12.8365 13.6189C13.487 13.5849 14.2299 13.4095 15.0219 13.2152C15.8163 13.0187 16.6575 12.7379 17.522 12.4747C18.3972 12.2512 19.2992 12.0535 20.1743 11.988C20.2141 11.9845 20.2515 11.988 20.2901 11.9857C19.718 11.7329 19.1424 11.472 18.575 11.1819C17.6741 10.749 16.7534 10.2027 15.9263 9.5826C15.5074 9.26789 15.1085 8.93678 14.7236 8.5975C14.6288 8.57411 14.5411 8.55072 14.4369 8.52849C14.0591 8.43957 13.6063 8.43257 13.1219 8.40917C12.6341 8.3846 12.1006 8.40212 11.5484 8.40563C10.9973 8.37054 10.4241 8.30269 9.90697 8.1857C9.38518 8.07573 8.93242 7.8593 8.54985 7.68732C8.16728 7.51183 7.88533 7.28952 7.68527 7.15498C7.49691 6.99938 7.38811 6.9093 7.38811 6.9093C7.38811 6.9093 7.52265 6.94091 7.75898 6.99706C7.98711 7.06492 8.32756 7.11871 8.71364 7.21114C9.10089 7.30707 9.56418 7.34922 10.045 7.42175C10.5294 7.49429 11.0406 7.51651 11.5753 7.51183C12.1076 7.54927 12.661 7.57149 13.1875 7.63701C13.4144 7.66275 13.6273 7.71891 13.8344 7.77857C13.0272 7.01929 12.2597 6.25648 11.4805 5.58728C10.7786 4.96838 10.0637 4.42086 9.35827 3.93417C8.64695 3.45801 7.94266 3.05437 7.27112 2.71743C6.59607 2.39336 5.97016 2.09155 5.40274 1.86458C4.82947 1.64932 4.34044 1.42703 3.91225 1.30418C3.07107 1.01989 2.59023 0.857248 2.59023 0.857248C2.59023 0.857248 3.08745 0.960207 3.9567 1.14038C4.39309 1.2211 4.90786 1.39658 5.51037 1.55804C6.10938 1.73235 6.77273 1.96754 7.48053 2.26821C8.18834 2.57239 8.9371 2.94326 9.70106 3.39251C10.4545 3.85581 11.2465 4.36589 11.9813 4.99064C12.9932 5.79789 13.9479 6.73265 14.9423 7.61594C14.6698 7.18073 14.4065 6.73031 14.1608 6.27053C13.8473 5.59899 13.5338 4.93914 13.1968 4.35301C12.8599 3.76921 12.5498 3.22287 12.2012 2.81223C11.8596 2.40158 11.5437 2.06932 11.284 1.87979C11.0371 1.67038 10.8757 1.56975 10.8757 1.56975C10.8757 1.56975 11.0594 1.61069 11.3717 1.73002C11.6747 1.86105 12.1263 2.06933 12.5604 2.46008C12.9897 2.8485 13.4717 3.34104 13.8567 3.94706C14.2474 4.5484 14.6089 5.21407 14.9587 5.8704C15.2688 6.53609 15.5952 7.1854 15.9508 7.75633C16.3041 8.32609 16.6434 8.85255 17.0143 9.23863C17.0201 9.24565 17.0272 9.2515 17.033 9.25852C17.6519 9.68086 18.2825 10.0728 18.9657 10.4074C19.8525 10.8602 20.7183 11.2778 21.5782 11.6791C22.5761 12.1307 23.5308 12.5612 24.4375 12.9567C24.2316 12.7929 24.0233 12.6127 23.8221 12.4056C23.4454 12.0043 23.0734 11.5481 22.7317 11.0661C22.4322 10.5572 22.1678 10.0307 21.9549 9.52412C21.7478 9.01286 21.6414 8.50511 21.5571 8.07691C21.4659 7.64872 21.4729 7.27666 21.4612 7.02512C21.4694 6.77008 21.4729 6.62503 21.4729 6.62503C21.4729 6.62503 21.5302 6.75839 21.6308 6.99121C21.7139 7.22636 21.8765 7.54693 22.038 7.93067C22.1877 8.32026 22.4428 8.74023 22.6604 9.20236C22.892 9.66097 23.1716 10.1313 23.4805 10.5805C23.7636 11.0462 24.0783 11.4943 24.4024 11.8932C24.7335 12.2828 25.0131 12.6864 25.3079 12.9812C25.5103 13.1989 25.6753 13.3872 25.8227 13.5487C25.9865 13.6177 26.1585 13.6902 26.3176 13.7546C29.1301 14.9081 31.0055 15.6768 31.0055 15.6768C31.0055 15.6768 30.5118 15.5645 29.6577 15.3223ZM9.29159 49.9545C9.42964 50.0306 9.57705 50.1066 9.7385 50.1815C9.80168 50.2049 9.97015 50.2669 10.2392 50.3664C10.5832 50.4998 11.105 50.6448 11.7683 50.8191C12.434 50.9911 13.2495 51.1678 14.1924 51.3292C14.6639 51.4123 15.1658 51.4965 15.6981 51.5667C16.2281 51.6475 16.7873 51.727 17.3711 51.7995C18.5387 51.9528 19.8093 52.078 21.1535 52.1962C22.4989 52.3073 23.9192 52.395 25.3887 52.4898C26.8593 52.574 28.379 52.6466 29.9256 52.6864C31.4746 52.732 33.0365 52.7542 34.6147 52.753C37.756 52.7928 40.9008 52.7437 43.8431 52.6056C46.7855 52.4723 49.5325 52.3167 51.8759 52.0639C53.0481 51.9434 54.121 51.8171 55.071 51.6931C56.0198 51.5655 56.8446 51.4287 57.5208 51.3047C58.8721 51.0531 59.6384 50.8554 59.6384 50.8554C59.6384 50.8554 59.45 50.9151 59.0979 51.0262C58.748 51.142 58.2251 51.2918 57.5547 51.4614C56.214 51.7902 54.2789 52.2055 51.932 52.5261C50.7598 52.6934 49.4845 52.8396 48.1344 52.9835C47.691 53.0268 47.2289 53.0678 46.7703 53.1099V58.4401C46.0426 58.4939 45.2868 58.5419 44.5077 58.5851V53.283C44.2971 53.2959 44.0935 53.3158 43.8806 53.3263C41.8472 53.4456 39.7156 53.5217 37.5559 53.558V58.8086C36.9183 58.8156 36.2725 58.8203 35.6092 58.8203C29.1535 58.8203 23.9028 58.4845 19.8291 58.0049V52.6384C18.9459 52.5214 18.0988 52.3985 17.3033 52.264C16.978 52.2125 16.6621 52.1576 16.3533 52.1014V57.5181C16.0245 57.4632 15.7098 57.4082 15.4033 57.352V51.9165C14.9576 51.8253 14.5294 51.7305 14.1292 51.6334C13.7759 51.5515 13.4472 51.4685 13.1325 51.3842V56.877C10.8722 56.3353 9.59343 55.782 9.29042 55.3596L9.29159 49.9545ZM59.333 57.7018V63.0742C59.2476 63.1923 59.0826 63.3222 58.8428 63.4579V57.9159C58.975 57.8563 59.1025 57.7954 59.2195 57.7334C59.2581 57.7229 59.2944 57.7124 59.333 57.7018ZM8.26322 55.7913C9.04941 57.4924 15.6291 58.9291 24.792 59.5726C13.7947 59.0157 7.84204 57.4152 6.79495 56.4208C7.03128 56.2312 7.5051 56.0148 8.26322 55.7913ZM6.69668 63.0742V57.6691C6.83473 57.7451 6.98214 57.8212 7.14359 57.896C7.20677 57.9194 7.37524 57.9815 7.64432 58.0809C7.98828 58.2143 8.51007 58.3593 9.17342 58.5337C9.83911 58.7056 10.6546 58.8823 11.5975 59.0438C12.069 59.1268 12.5709 59.2099 13.1032 59.2812C13.6332 59.362 14.1924 59.4415 14.7762 59.5141C15.9438 59.6673 17.2144 59.7925 18.5586 59.9107C19.904 60.0218 21.3243 60.1096 22.7938 60.2043C24.2644 60.2886 25.7841 60.3611 27.3307 60.4009C28.8797 60.4465 30.4416 60.4687 32.0198 60.4675C35.1611 60.5073 38.3059 60.4582 41.2482 60.3202C44.1906 60.1868 46.9376 60.0312 49.281 59.7785C50.4532 59.658 51.5261 59.5304 52.4761 59.4076C53.426 59.2801 54.2497 59.1444 54.9259 59.0192C56.2772 58.7677 57.0435 58.5699 57.0435 58.5699C57.0435 58.5699 56.8551 58.6296 56.503 58.7407C56.1531 58.8566 55.6302 59.0063 54.9598 59.176C53.6191 59.5047 51.684 59.92 49.3371 60.2406C48.1649 60.4079 46.8896 60.5541 45.5395 60.698C45.0961 60.7413 44.634 60.7823 44.1754 60.8244V66.1546C43.4477 66.2084 42.6919 66.2552 41.9128 66.2997V60.9975C41.7022 61.0104 41.4986 61.0303 41.2857 61.0408C39.2523 61.1602 37.1207 61.2362 34.961 61.2725V66.5231C34.3234 66.5301 33.6776 66.5348 33.0143 66.5348C26.5586 66.5348 21.3079 66.199 17.2342 65.7194V60.3529C16.3509 60.2359 15.5039 60.113 14.7084 59.9785C14.3831 59.927 14.0672 59.8721 13.7584 59.8159V65.2327C13.4296 65.1777 13.1149 65.1227 12.8084 65.0665V59.631C12.3627 59.5398 11.9345 59.445 11.5343 59.3479C11.181 59.2661 10.8523 59.183 10.5376 59.0987V64.5916C8.27843 64.0499 6.99852 63.4953 6.69668 63.0742ZM59.8396 66.4541C59.4898 66.5699 58.9668 66.7197 58.2965 66.8893C56.9557 67.218 55.0207 67.6334 52.6738 67.9539C51.5015 68.1212 50.2263 68.2675 48.8762 68.4114C48.4328 68.4547 47.9706 68.4956 47.512 68.5377V73.8679C46.7855 73.9217 46.0286 73.9697 45.2494 74.013V68.7109C45.0388 68.7238 44.8352 68.7436 44.6223 68.7542C42.589 68.8735 40.4574 68.9484 38.2988 68.9858V74.2365C37.6612 74.2435 37.0154 74.2482 36.3521 74.2482C29.8964 74.2482 24.6457 73.9124 20.5721 73.4327V68.0663C19.6888 67.9493 18.8417 67.8264 18.0462 67.6919C17.7209 67.6404 17.4051 67.5854 17.0974 67.5292V72.946C16.7686 72.891 16.4527 72.8361 16.1474 72.7799V67.3444C15.7016 67.2532 15.2734 67.1584 14.8733 67.0613C14.52 66.9794 14.1913 66.8951 13.8765 66.8121V72.3049C11.6162 71.7632 10.3363 71.2087 10.0345 70.7875V65.6129C10.4288 65.7123 10.8464 65.8083 11.2863 65.9007C11.608 66.0048 12.021 66.1183 12.5112 66.247C13.1769 66.4178 13.9924 66.5956 14.9353 66.7571C15.4068 66.8402 15.9087 66.9232 16.441 66.9946C16.971 67.0753 17.5302 67.1549 18.114 67.2274C19.2816 67.3807 20.5522 67.5058 21.8964 67.624C23.2418 67.7351 24.6621 67.8229 26.1316 67.9177C27.6022 68.0019 29.1219 68.0744 30.6686 68.1142C32.2175 68.1598 33.7782 68.1821 35.3565 68.1809C38.4977 68.2219 41.6425 68.1715 44.5849 68.0347C47.5272 67.9013 50.2742 67.7457 52.6176 67.493C53.7899 67.3725 54.8627 67.2461 55.8127 67.1221C56.7615 66.9946 57.5863 66.8577 58.2625 66.7337C59.6138 66.4822 60.3801 66.2844 60.3801 66.2844C60.3801 66.2844 60.1917 66.3429 59.8396 66.4541ZM60.4444 73.0969V78.502C60.359 78.6202 60.1941 78.75 59.9554 78.8858V73.3438C60.1332 73.2631 60.2947 73.1812 60.4444 73.0969ZM9.05058 71.321C10.0017 72.9074 16.0046 74.2517 24.3966 74.9174C14.3609 74.2973 8.90551 72.7974 7.90639 71.851C8.10762 71.6883 8.48083 71.5082 9.05058 71.321ZM7.80928 73.0969C7.94734 73.173 8.09475 73.249 8.2562 73.3239C8.31937 73.3473 8.48784 73.4093 8.75693 73.5088C9.09972 73.6421 9.62268 73.7872 10.286 73.9615C10.9505 74.1323 11.7672 74.3102 12.7101 74.4716C13.1816 74.5547 13.6835 74.6377 14.2158 74.7091C14.7458 74.7898 15.3039 74.8694 15.8888 74.9419C17.0564 75.0952 18.327 75.2204 19.6712 75.3386C21.0166 75.4497 22.4369 75.5374 23.9064 75.6322C25.377 75.7164 26.8967 75.7889 28.4433 75.8287C29.9923 75.8744 31.5542 75.8966 33.1324 75.8954C36.2737 75.9364 39.4185 75.8861 42.3608 75.748C45.3032 75.6146 48.0502 75.4591 50.3936 75.2063C51.5658 75.0858 52.6387 74.9583 53.5887 74.8355C54.5386 74.7079 55.3623 74.5722 56.0385 74.447C57.3898 74.1955 58.1561 73.9978 58.1561 73.9978C58.1561 73.9978 57.9677 74.0575 57.6167 74.1686C57.2657 74.2844 56.744 74.4342 56.0736 74.6038C54.7328 74.9326 52.7978 75.3479 50.4509 75.6684C49.2775 75.8357 48.0034 75.982 46.6533 76.1259C46.2099 76.168 45.7478 76.2101 45.2892 76.2522V81.5824C44.5626 81.6363 43.8057 81.6842 43.0265 81.7275V76.4254C42.8159 76.4383 42.6124 76.4581 42.3994 76.4687C40.3661 76.588 38.2345 76.664 36.0748 76.7003V81.951C35.4372 81.958 34.7914 81.9627 34.128 81.9627C27.6724 81.9627 22.4217 81.6269 18.348 81.1473V75.7808C17.4647 75.6638 16.6177 75.5409 15.8221 75.4064C15.4969 75.3549 15.181 75.2999 14.8722 75.2438V80.6605C14.5434 80.6056 14.2287 80.5506 13.9222 80.4944V75.0589C13.4764 74.9677 13.0482 74.8729 12.6481 74.7758C12.2948 74.6939 11.966 74.6109 11.6513 74.5266V80.0194C9.39103 79.4777 8.11113 78.9244 7.80928 78.502V73.0969ZM56.8142 82.3183C55.4734 82.6471 53.5383 83.0624 51.1915 83.383C50.018 83.5503 48.744 83.6965 47.3939 83.8404C46.9505 83.8837 46.4883 83.9247 46.0297 83.9668V89.297C45.302 89.3508 44.5463 89.3976 43.7659 89.4409V84.1387C43.5553 84.1516 43.3518 84.1715 43.1388 84.182C41.1055 84.3014 38.9739 84.3763 36.8142 84.4137V89.6643C36.1766 89.6714 35.5308 89.676 34.8674 89.676C28.4118 89.676 23.1611 89.3403 19.0874 88.8606V83.4941C18.2041 83.3771 17.3571 83.2543 16.5615 83.1197C16.2363 83.0683 15.9204 83.0133 15.6115 82.9571V88.3739C15.2828 88.3189 14.9681 88.2639 14.6616 88.2078V82.7723C14.2158 82.681 13.7876 82.5863 13.3875 82.4892C13.0342 82.4073 12.7066 82.323 12.3907 82.24V87.7328C10.1304 87.1911 8.85052 86.6366 8.54868 86.2154V80.8103C8.68673 80.8863 8.83414 80.9624 8.99559 81.0372C9.05877 81.0606 9.22724 81.1227 9.49632 81.2221C9.83911 81.3555 10.3621 81.5006 11.0254 81.6749C11.6899 81.8457 12.5066 82.0235 13.4495 82.1838C13.921 82.2669 14.4229 82.3499 14.9552 82.4213C15.4852 82.502 16.0444 82.5816 16.6282 82.6541C17.7958 82.8074 19.0664 82.9337 20.4106 83.0507C21.756 83.1619 23.1763 83.2496 24.6458 83.3444C26.1164 83.4286 27.6361 83.5011 29.1827 83.5409C30.7317 83.5865 32.2924 83.6088 33.8718 83.6064C37.0131 83.6462 40.1579 83.5971 43.1002 83.4602C46.0426 83.3268 48.7896 83.1712 51.133 82.9185C52.3052 82.798 53.3781 82.6705 54.328 82.5476C55.2769 82.4201 56.1017 82.2844 56.7779 82.1604C58.1292 81.9089 58.8955 81.7112 58.8955 81.7112C58.8955 81.7112 58.7071 81.7708 58.3549 81.882C58.0063 81.9978 57.4845 82.1475 56.8142 82.3183ZM58.2204 88.6605V93.9299C58.135 94.0481 57.97 94.1779 57.7302 94.3136V88.7845C57.8987 88.7448 58.0613 88.7027 58.2204 88.6605ZM7.47819 86.5558C8.08188 88.3517 15.1401 89.8644 24.9207 90.4868C13.1278 89.9919 6.76805 88.3084 5.68235 87.2777C5.95143 87.0624 6.52587 86.812 7.47819 86.5558ZM5.58408 93.9299V88.5248C5.72213 88.6009 5.86954 88.6769 6.03099 88.7518C6.09417 88.7752 6.26264 88.8372 6.53172 88.9366C6.87451 89.07 7.39747 89.2151 8.06082 89.3894C8.72534 89.5614 9.54195 89.738 10.4849 89.8995C10.9564 89.9826 11.4583 90.0656 11.9906 90.137C12.5206 90.2177 13.0798 90.2973 13.6636 90.3698C14.8312 90.5231 16.1017 90.6494 17.446 90.7664C18.7914 90.8764 20.2117 90.9653 21.6811 91.0601C23.1518 91.1443 24.6715 91.2168 26.2181 91.2566C27.7671 91.3022 29.3278 91.3245 30.906 91.3233C34.0473 91.3631 37.1921 91.3139 40.1345 91.1759C43.0768 91.0425 45.8238 90.8869 48.1672 90.6342C49.3395 90.5137 50.4123 90.3862 51.3623 90.2633C52.3111 90.1358 53.1359 89.9989 53.8121 89.8749C55.1634 89.6234 55.9285 89.4257 55.9285 89.4257C55.9285 89.4257 55.7413 89.4853 55.3892 89.5965C55.0382 89.7123 54.5164 89.8621 53.846 90.0317C52.5053 90.3605 50.5702 90.7758 48.2234 91.0963C47.0511 91.2636 45.7759 91.4099 44.4258 91.5538C43.9824 91.5971 43.5202 91.638 43.0616 91.6801V97.0103C42.3351 97.0641 41.5782 97.1121 40.799 97.1554V91.8533C40.5884 91.8662 40.3848 91.886 40.1719 91.8966C38.1386 92.0159 36.0069 92.0919 33.8473 92.1282V97.3789C33.2096 97.3859 32.5638 97.3906 31.9005 97.3906C25.4448 97.3906 20.1942 97.0548 16.1205 96.5751V91.2086C15.2372 91.0916 14.3901 90.9688 13.5946 90.8343C13.2693 90.7828 12.9535 90.7278 12.6446 90.6716V96.0884C12.3159 96.0334 12.0011 95.9785 11.6946 95.9223V90.4868C11.2489 90.3956 10.8207 90.3008 10.4206 90.2037C10.0673 90.1218 9.7385 90.0387 9.42379 89.9545V95.4473C7.16582 94.9068 5.88709 94.3523 5.58408 93.9299ZM59.5998 110.56C59.6302 110.579 59.6618 110.598 59.6875 110.617C59.0125 111.182 56.6878 111.942 52.7065 112.572C55.9823 112.018 58.4006 111.329 59.5998 110.56ZM58.8428 109.743V104.201C59.0218 104.119 59.1821 104.037 59.333 103.953V109.358C59.2476 109.477 59.0826 109.607 58.8428 109.743ZM57.6156 97.311C57.2646 97.4268 56.7428 97.5766 56.0724 97.7462C54.7317 98.075 52.7966 98.4903 50.4497 98.8109C49.2763 98.9781 48.0022 99.1244 46.6521 99.2683C46.2087 99.3116 45.7466 99.3525 45.288 99.3946V104.725C44.5615 104.779 43.8045 104.827 43.0254 104.87V99.5678C42.8148 99.5807 42.6112 99.6005 42.3983 99.6111C40.3649 99.7304 38.2333 99.8053 36.0736 99.8427V105.093C35.436 105.1 34.7902 105.105 34.1269 105.105C27.6712 105.105 22.4205 104.769 18.3468 104.29V98.9232C17.4635 98.8062 16.6165 98.6833 15.821 98.5488C15.4957 98.4973 15.1798 98.4423 14.871 98.3862V103.803C14.5422 103.748 14.2275 103.693 13.921 103.637V98.2013C13.4753 98.1101 13.0471 98.0153 12.6469 97.9182C12.2936 97.8363 11.9649 97.7532 11.6502 97.669V103.162C9.38986 102.62 8.10996 102.067 7.80812 101.644V96.2393C7.94617 96.3154 8.09358 96.3914 8.25503 96.4663C8.3182 96.4897 8.48667 96.5517 8.75576 96.6512C9.09855 96.7845 9.62151 96.9296 10.2849 97.1039C10.9494 97.2759 11.766 97.4525 12.709 97.614C13.1804 97.6971 13.6823 97.7801 14.2147 97.8515C14.7446 97.9322 15.3027 98.0118 15.8877 98.0843C17.0552 98.2376 18.3258 98.3639 19.67 98.4809C21.0155 98.5921 22.4358 98.6798 23.9052 98.7746C25.3758 98.8588 26.8955 98.9313 28.4422 98.9711C29.9912 99.0167 31.553 99.039 33.1313 99.0378C36.2725 99.0776 39.4173 99.0285 42.3597 98.8904C45.302 98.757 48.049 98.6014 50.3924 98.3487C51.5647 98.2282 52.6375 98.1019 53.5875 97.9779C54.5375 97.8503 55.3611 97.7146 56.0373 97.5894C57.3886 97.3379 58.1549 97.1402 58.1549 97.1402C58.1549 97.1402 57.9677 97.1998 57.6156 97.311ZM14.6908 104.9C10.0801 104.204 7.45713 103.334 6.79495 102.707C6.87334 102.644 6.97863 102.578 7.10967 102.51C8.09592 103.436 10.8066 104.263 14.6908 104.9ZM6.69668 109.359V103.954C6.83473 104.03 6.98214 104.106 7.14359 104.181C7.20677 104.204 7.37524 104.266 7.64432 104.366C7.98828 104.499 8.51007 104.644 9.17342 104.818C9.83911 104.99 10.6546 105.167 11.5975 105.329C12.069 105.412 12.5709 105.495 13.1032 105.566C13.6332 105.647 14.1924 105.726 14.7762 105.799C15.9438 105.952 17.2144 106.077 18.5586 106.195C19.904 106.307 21.3243 106.394 22.7938 106.489C24.2644 106.573 25.7841 106.646 27.3307 106.686C28.8797 106.731 30.4416 106.754 32.0198 106.752C35.1611 106.793 38.3059 106.743 41.2482 106.606C44.1906 106.473 46.9376 106.317 49.281 106.064C50.4532 105.944 51.5261 105.818 52.4761 105.694C53.426 105.566 54.2497 105.43 54.9259 105.305C56.2772 105.054 57.0435 104.856 57.0435 104.856C57.0435 104.856 56.8551 104.916 56.503 105.028C56.1531 105.144 55.6302 105.293 54.9598 105.463C53.6191 105.792 51.684 106.207 49.3371 106.528C48.1649 106.695 46.8896 106.841 45.5395 106.985C45.0961 107.028 44.634 107.069 44.1754 107.112V112.442C43.4477 112.494 42.6919 112.542 41.9128 112.586V107.283C41.7022 107.296 41.4986 107.316 41.2857 107.327C39.2523 107.446 37.1207 107.522 34.961 107.558V112.809C34.3234 112.816 33.6776 112.821 33.0143 112.821C26.5586 112.821 21.3079 112.485 17.2342 112.005V106.639C16.3509 106.522 15.5039 106.399 14.7084 106.264C14.3831 106.213 14.0672 106.158 13.7584 106.102V111.519C13.4296 111.464 13.1149 111.409 12.8084 111.353V105.917C12.3627 105.826 11.9345 105.731 11.5343 105.634C11.181 105.552 10.8523 105.468 10.5376 105.385V110.878C8.27843 110.335 6.99852 109.78 6.69668 109.359ZM9.54429 118.025C12.3123 119.892 22.5972 121.281 34.8686 121.281C41.233 121.281 47.0628 120.907 51.5892 120.287C47.4465 120.942 41.5115 121.455 33.756 121.455C18.5446 121.455 10.3153 119.485 8.93827 118.332C9.07281 118.234 9.27521 118.131 9.54429 118.025ZM56.0701 120.531C55.7378 120.641 55.2418 120.784 54.6053 120.947C53.3313 121.261 51.4945 121.66 49.2634 121.966C47.78 122.172 46.1257 122.37 44.3591 122.529V127.515C43.6676 127.565 42.9505 127.612 42.2087 127.653V122.697C42.011 122.71 41.8145 122.724 41.6144 122.737C39.6829 122.863 37.6565 122.934 35.6057 122.963V127.866C34.9996 127.873 34.3866 127.878 33.756 127.878C27.6267 127.878 22.6358 127.557 18.7657 127.1V122.074C17.9257 121.961 17.1208 121.844 16.3638 121.716C16.055 121.667 15.7566 121.615 15.463 121.561V126.636C15.1506 126.585 14.8511 126.532 14.561 126.48V121.386C14.1374 121.298 13.7303 121.208 13.3489 121.114C13.0143 121.036 12.7031 120.956 12.4036 120.877V126.029C10.3153 125.529 9.11727 125.018 8.80957 124.627V119.544C8.92423 119.606 9.04707 119.667 9.1781 119.727C9.2366 119.748 9.39688 119.808 9.65543 119.901C9.98184 120.026 10.4779 120.163 11.1085 120.328C11.7402 120.49 12.5159 120.657 13.4121 120.809C13.8602 120.887 14.3363 120.966 14.8429 121.032C15.3471 121.109 15.8771 121.183 16.4328 121.251C17.5419 121.396 18.7481 121.515 20.0257 121.624C21.3033 121.729 22.6534 121.812 24.0491 121.895C25.446 121.973 26.8908 122.026 28.3579 122.073C29.8285 122.119 31.312 122.146 32.8107 122.147C34.3024 122.167 35.7952 122.151 37.2646 122.129C38.7329 122.094 40.1789 122.07 41.577 122.006C44.3719 121.89 46.9821 121.738 49.2084 121.503C50.3222 121.389 51.3412 121.27 52.2432 121.154C53.1453 121.035 53.9279 120.906 54.5714 120.789C55.8548 120.552 56.5837 120.367 56.5837 120.367C56.5837 120.367 56.4047 120.423 56.0701 120.531ZM57.1827 112.816C56.8493 112.926 56.3544 113.07 55.7179 113.233C54.4439 113.547 52.6071 113.945 50.3772 114.252C48.8937 114.457 47.2394 114.655 45.4728 114.814V119.801C44.7814 119.851 44.0643 119.898 43.3225 119.939V114.984C43.1248 114.997 42.9282 115.011 42.7282 115.024C40.7966 115.149 38.7703 115.22 36.7194 115.25V120.153C36.1134 120.16 35.5004 120.163 34.8709 120.163C28.7417 120.163 23.7508 119.843 19.8806 119.385V114.359C19.0406 114.247 18.2357 114.13 17.4788 114.001C17.1699 113.952 16.8716 113.901 16.5779 113.847V118.922C16.2655 118.87 15.966 118.818 15.6759 118.764V113.67C15.2524 113.582 14.8452 113.492 14.4638 113.399C14.1292 113.32 13.818 113.241 13.5185 113.161V118.314C11.4302 117.813 10.2322 117.303 9.92452 116.911V111.868C9.976 111.881 10.0263 111.894 10.0789 111.908C10.148 111.943 10.2193 111.977 10.2942 112.012C10.3539 112.033 10.513 112.093 10.7715 112.187C11.098 112.312 11.594 112.449 12.2246 112.614C12.8564 112.775 13.632 112.942 14.527 113.095C14.9751 113.173 15.4513 113.251 15.9578 113.318C16.4621 113.394 16.9921 113.469 17.5478 113.537C18.6569 113.682 19.8631 113.8 21.1406 113.91C22.4182 114.014 23.7683 114.097 25.164 114.18C26.5609 114.259 28.0058 114.311 29.4741 114.358C30.9447 114.406 32.427 114.432 33.9268 114.433C35.4185 114.453 36.9113 114.436 38.3807 114.414C39.849 114.379 41.295 114.356 42.6931 114.291C45.4881 114.176 48.097 114.023 50.3245 113.788C51.4383 113.675 52.4573 113.555 53.3593 113.44C54.2614 113.32 55.044 113.192 55.6875 113.075C56.9709 112.837 57.6998 112.652 57.6998 112.652C57.6998 112.652 57.5173 112.71 57.1827 112.816ZM58.7024 124.625C58.624 124.725 58.486 124.832 58.2929 124.945V119.747C58.4392 119.68 58.5761 119.612 58.7024 119.544V124.625ZM59.815 116.911C59.7366 117.01 59.5986 117.118 59.4055 117.23V112.032C59.5518 111.966 59.6887 111.898 59.815 111.83V116.911ZM60.4444 101.644C60.359 101.763 60.1941 101.892 59.9554 102.028V96.4862C60.1332 96.4055 60.2947 96.3224 60.4444 96.2393V101.644ZM60.3473 94.9934C59.3482 95.941 53.8928 97.4397 43.8572 98.0598C52.2479 97.3941 58.252 96.051 59.2031 94.4634C59.7741 94.6506 60.1461 94.8307 60.3473 94.9934ZM57.7524 80.8723C59.2663 80.4535 60.3813 79.9913 60.999 79.5C61.0306 79.521 61.0633 79.5433 61.0891 79.5643C60.6901 79.9422 59.5799 80.409 57.7524 80.8723ZM61.1862 86.2165C61.1008 86.3347 60.9358 86.4646 60.6972 86.6003V81.0583C60.8762 80.9776 61.0364 80.8945 61.1862 80.8115V86.2165ZM62.6697 70.7875C62.5842 70.9057 62.4193 71.0355 62.1806 71.1712V65.6293C62.3584 65.5486 62.5199 65.4655 62.6697 65.3824V70.7875ZM62.5714 64.1365C61.4576 65.1929 54.7937 66.9373 42.4147 67.3807C52.6445 66.7711 60.0233 65.1929 60.4246 63.3245C61.591 63.6112 62.2719 63.8943 62.5714 64.1365ZM61.9279 55.3596C61.8425 55.4778 61.6776 55.6077 61.4389 55.7434V50.2014C61.6167 50.1195 61.7782 50.0376 61.9279 49.9534V55.3596ZM46.4205 46.4658C46.5258 46.4717 46.6264 46.4775 46.7329 46.4834C48.3988 46.5852 50.2017 46.7127 52.1005 46.8952C53.0493 46.9876 54.0239 47.0941 55.0113 47.2286C55.9929 47.3725 57.0142 47.5071 57.9689 47.768C58.073 47.7972 58.1795 47.83 58.2789 47.8651C57.9502 48.002 57.5454 48.1154 57.1593 48.2125C56.145 48.4617 55.0803 48.6419 54.0075 48.8104C51.8572 49.1356 49.6495 49.3649 47.4383 49.5392C45.2283 49.7253 43.0101 49.8539 40.8271 49.9347C38.6428 50.0107 36.4925 50.0657 34.4088 50.0657C30.2415 50.0727 26.348 50.0119 23.0184 49.8271C19.6888 49.6422 16.9137 49.4374 14.9915 49.1379C14.0321 48.9882 13.2799 48.8443 12.7885 48.6758C12.544 48.5916 12.3615 48.505 12.262 48.4161C12.1544 48.3295 12.1638 48.2441 12.1614 48.2476C12.1649 48.2441 12.1486 48.3295 12.2515 48.4278C12.3474 48.5272 12.5264 48.6279 12.7674 48.7308C13.253 48.9332 13.9959 49.1485 14.954 49.3438C16.8716 49.7311 19.6373 50.1499 22.9751 50.4307C26.3117 50.7103 30.2146 50.956 34.4018 51.0133C36.4948 51.0402 38.6627 51.0484 40.861 50.9724C43.0605 50.9034 45.2938 50.7864 47.5249 50.6097C49.7548 50.4202 51.9812 50.178 54.1666 49.834C55.2593 49.6597 56.3403 49.462 57.4085 49.1789C57.949 49.0245 58.4626 48.8969 59.0382 48.5752C59.1131 48.5273 59.1903 48.4769 59.2769 48.3974C59.3201 48.3564 59.3646 48.312 59.4126 48.2418C59.4301 48.2207 59.4652 48.1646 59.4933 48.0885C59.5062 48.0546 59.5167 48.0183 59.5249 47.9844L59.5307 47.9493L59.5342 47.9247C59.5366 47.892 59.5378 47.8732 59.5389 47.8569C60.7931 48.1552 61.5161 48.4524 61.8285 48.7039C60.5451 49.9218 51.8934 52.0534 35.608 52.0534C19.3226 52.0534 10.6721 49.9218 9.38752 48.7039C10.4919 47.8147 16.6844 46.3594 33.6776 46.2564C33.646 46.4623 33.6168 46.6425 33.5899 46.8028C32.0491 46.825 30.527 46.8706 29.0739 46.9408C27.0312 47.052 25.1243 47.1842 23.491 47.3597C21.8566 47.5176 20.4948 47.7118 19.5425 47.8604C18.589 48.009 18.045 48.126 18.045 48.126C18.045 48.126 18.5902 48.2418 19.5425 48.3915C20.496 48.5413 21.8578 48.7355 23.491 48.8923C25.1254 49.0689 27.0312 49.2 29.0739 49.3111C31.1166 49.4105 33.295 49.462 35.4746 49.4655C37.653 49.462 39.8326 49.4129 41.8753 49.3146C43.918 49.2046 45.825 49.0724 47.4582 48.8958C49.0926 48.7378 50.4544 48.5425 51.4067 48.3927C52.3602 48.243 52.9042 48.126 52.9042 48.126C52.9042 48.126 52.3591 48.009 51.4067 47.8592C50.4532 47.7095 49.0914 47.5141 47.4582 47.3562C45.8238 47.1795 43.918 47.0473 41.8753 46.9373C40.3778 46.8648 38.8054 46.8203 37.2143 46.7993C37.2401 46.632 37.2681 46.4495 37.2962 46.2552C40.7697 46.2775 43.794 46.3512 46.4205 46.4658ZM36.0877 36.8443C36.0023 38.4857 35.8174 40.009 35.6478 41.3099C35.4746 42.6109 35.2441 43.6826 35.0897 44.4313C34.9248 45.1789 34.8019 45.5977 34.8019 45.5977C34.8019 45.5977 34.8452 45.1637 34.9212 44.4044C35.0043 43.6475 35.0663 42.5594 35.1541 41.2608C35.1985 40.6115 35.2313 39.906 35.2582 39.1619C35.2746 38.4167 35.2909 37.6317 35.3085 36.8186C35.3237 35.2006 35.3272 33.4585 35.1482 31.7621C34.9973 30.0505 34.6814 28.3553 34.3585 26.763C34.0356 25.1614 33.7338 23.6674 33.4752 22.3863C32.9944 19.8019 32.9359 18.0482 32.9359 18.0482C32.9359 18.0482 33.0318 18.4741 33.1979 19.2193C33.3606 19.9646 33.6437 21.014 33.9689 22.2752C34.2907 23.5375 34.7446 24.9929 35.1295 26.5899C35.5308 28.181 35.8666 29.9172 36.035 31.6767C36.2047 33.448 36.1754 35.1982 36.0877 36.8443ZM36.4691 15.1725C35.6957 15.5902 35.2523 15.8288 35.2523 15.8288C35.2523 15.8288 35.6618 15.5364 36.3766 15.0251C36.7358 14.7712 37.1394 14.4261 37.6168 14.0529C38.0777 13.6551 38.5972 13.207 39.1646 12.718C39.5612 12.36 39.9882 11.9751 40.4269 11.5785C40.6621 11.1456 40.8598 10.6145 41.0915 10.0506C41.3301 9.46677 41.5501 8.82449 41.7747 8.17167C42.0379 7.52938 42.3175 6.88475 42.6276 6.29627C42.9329 5.70312 43.3342 5.2094 43.6864 4.80694C44.0432 4.40332 44.4269 4.15414 44.6843 3.98801C44.9534 3.83241 45.1137 3.76337 45.1137 3.76337C45.1137 3.76337 44.9873 3.8862 44.7966 4.12019C44.5907 4.33779 44.3532 4.6923 44.0865 5.11113C43.8139 5.53114 43.5846 6.06811 43.3249 6.63553C43.0663 7.20528 42.8335 7.83941 42.6112 8.48522C42.3573 9.10528 42.0988 9.73237 41.8215 10.3162C42.2006 9.97337 42.5913 9.62822 43.0055 9.28894C43.725 8.67472 44.4983 8.06872 45.2985 7.47206C46.1233 6.90698 46.9528 6.3185 47.8384 5.8166C48.7019 5.27609 49.6366 4.86428 50.5281 4.41035C51.457 4.04065 52.3509 3.61596 53.2658 3.35038C54.1678 3.0462 55.0452 2.7736 55.8993 2.59811C56.7463 2.39805 57.543 2.20033 58.2941 2.09737C59.0405 1.97219 59.7261 1.86104 60.3356 1.78968C60.9475 1.73937 61.481 1.69492 61.9197 1.65865C62.7972 1.59781 63.2979 1.56271 63.2979 1.56271C63.2979 1.56271 62.8054 1.65983 61.942 1.83181C61.5114 1.91136 60.9885 2.00847 60.3883 2.11961C59.7951 2.26001 59.1271 2.41796 58.3971 2.59111C57.6624 2.73736 56.889 2.98067 56.0712 3.22753C55.2441 3.44981 54.4064 3.77858 53.5313 4.09212C52.6433 4.37291 51.7963 4.83501 50.8908 5.19418C50.5585 5.3685 50.2181 5.53697 49.88 5.70895C50.4287 5.60015 50.9867 5.50539 51.5471 5.427C52.5825 5.3299 53.6191 5.23163 54.5901 5.14038C55.5495 5.0304 56.4468 4.95202 57.2002 4.79291C57.9525 4.63731 58.5843 4.49459 59.0125 4.34015C59.4488 4.20795 59.6934 4.10965 59.6934 4.10965C59.6934 4.10965 59.4804 4.26292 59.0826 4.49925C58.6802 4.72154 58.0894 5.03975 57.3289 5.27958C56.5708 5.51591 55.67 5.76745 54.6919 5.91018C53.722 6.03887 52.6866 6.17693 51.6524 6.31498C50.6276 6.41677 49.6132 6.56183 48.6855 6.78295C48.2468 6.88707 47.8244 6.99587 47.4255 7.1152C46.8756 7.4615 46.3339 7.81952 45.8004 8.17635C45.0154 8.7578 44.228 9.31118 43.5015 9.90082C42.3784 10.797 41.3149 11.6452 40.3497 12.415C40.1813 12.5706 40.0233 12.6958 39.8981 12.7941C39.8502 12.828 39.8092 12.8549 39.7694 12.8818C40.0748 12.7566 40.4281 12.6303 40.8317 12.5308C41.577 12.3495 42.4626 12.1681 43.4161 12.1085C44.3684 12.0453 45.3804 12.0301 46.3819 12.0125C47.381 12.0336 48.3719 12.0371 49.2938 11.9763C50.2134 11.9143 51.0733 11.8523 51.7952 11.6967C52.5147 11.5446 53.1183 11.3901 53.5231 11.2252C53.9373 11.0824 54.1689 10.976 54.1689 10.976C54.1689 10.976 53.9736 11.1351 53.6004 11.3808C53.2225 11.6124 52.6621 11.9424 51.9262 12.181C51.1938 12.4162 50.3164 12.6525 49.3605 12.7484C48.4059 12.849 47.3892 12.8865 46.3807 12.9052C45.3757 12.883 44.379 12.8584 43.4512 12.8818C42.5246 12.9064 41.66 12.9192 40.9265 13.0222C40.1988 13.1216 39.5869 13.2211 39.1669 13.3439C38.1093 14.15 37.1511 14.7596 36.4691 15.1725Z" fill="white"/>
</svg>
