<svg width="1493" height="818" viewBox="0 0 1493 818" fill="none" xmlns="http://www.w3.org/2000/svg">
<path d="M930.218 452.719C918.607 460.185 903.428 462.417 889.985 458.631C888.477 458.211 886.839 457.595 886.152 456.242C885.118 454.22 886.768 451.938 887.068 449.706C887.923 443.299 878.327 440.535 875.269 434.772C874.058 432.495 873.964 429.852 873.761 427.312C871.896 404.77 859.543 384.459 849.134 364.123C848.383 362.645 847.617 361.037 847.932 359.413C848.247 357.797 850.2 356.4 851.718 357.198C850.586 361.029 853.061 365.498 857.021 366.784C858.83 360.225 859.811 351.609 853.63 348.237C851.526 347.089 849.007 346.885 846.58 346.773C837.034 346.322 827.438 346.831 818.011 348.29C816.432 348.531 814.708 348.778 813.341 348.005C812.124 347.321 811.5 346.005 810.645 344.933C808.33 341.987 802.158 340.388 798.878 342.959C795.243 345.812 798.018 352.018 791.053 352.883C787.103 353.37 783.317 351.441 779.855 349.57C776.149 347.571 772.363 345.507 769.662 342.382C768.704 341.262 767.858 340.007 766.58 339.243C764.114 337.77 760.944 338.568 758.036 338.537C755.128 338.515 751.578 336.501 752.362 333.844C752.606 333.018 753.24 332.357 753.738 331.634C757.397 326.3 752.553 318.705 746.175 316.776C739.79 314.846 732.899 316.767 726.503 318.683C716.925 321.559 707.339 324.437 697.752 327.305C694.131 328.394 690.339 329.492 686.601 328.845C683.401 328.288 680.04 326.487 677.117 327.837C673.152 329.671 673.791 335.289 671.396 338.811C669.104 342.177 664.219 343.258 661.856 346.585C659.122 350.438 660.748 355.585 660.465 360.225C659.906 369.172 652.169 375.963 645.363 382.174C638.558 388.379 631.652 396.47 633.399 405.279C633.935 407.984 635.279 410.538 635.479 413.28C635.638 415.556 635.005 417.802 634.371 419.995C632.38 426.928 630.388 433.862 628.388 440.795C635.081 452.041 642.485 462.909 650.549 473.313C654.523 478.443 658.745 483.545 664.251 487.171C669.752 490.806 676.778 492.833 683.257 491.198C686.156 490.462 688.869 489.028 691.854 488.734C696.02 488.322 700.112 490.184 704.286 490.011C709.162 489.815 713.399 486.922 717.317 484.158C721.236 481.394 725.496 478.532 730.372 478.398C735.256 478.264 740.509 482.29 739.475 486.818C739.245 487.81 738.742 488.795 738.892 489.801C739.207 491.957 742.147 492.699 744.407 492.408C746.676 492.114 749.094 491.318 751.148 492.273C753.944 493.581 754.262 497.328 753.337 500.162C752.079 504.001 749.377 507.238 747.583 510.873C745.789 514.516 745.046 519.128 747.598 522.329C748.918 523.99 750.924 525.012 752.559 526.392C755.287 528.683 756.913 531.92 758.233 535.143C763.908 548.935 765.163 564.311 762.01 578.8C760.611 585.199 756.327 590.421 754.978 596.333C753.461 603.003 759.055 610.455 762.334 615.884C767.337 624.154 770.301 633.537 770.931 643.053C771.176 646.847 771.105 650.821 772.932 654.201C774.308 656.732 776.614 658.67 778.521 660.871C785.806 669.322 786.723 681.047 787.324 691.963C788.859 693.909 792.026 693.887 794.341 692.856C796.657 691.82 798.522 690.039 800.773 688.891C806.424 686.007 813.329 687.508 819.699 686.824C830.667 685.645 840.295 677.037 842.19 666.701C842.72 663.831 842.726 660.821 844.031 658.191C845.984 654.226 850.678 651.535 851.308 647.194C851.553 645.475 851.102 643.686 851.497 641.989C852.746 636.632 861.366 634.952 862.109 629.505C862.471 626.889 860.789 624.478 859.722 622.045C856.552 614.817 859.224 605.691 865.856 601.057C868.337 599.32 871.239 598.195 873.767 596.526C885.952 588.489 885.684 571.054 880.549 557.826C878.542 552.665 875.964 547.453 876.336 541.962C876.58 538.341 878.106 534.908 879.883 531.702C884.349 523.634 890.536 516.432 897.957 510.663C902.795 506.908 908.349 503.528 911.109 498.202C912.8 494.95 913.275 491.246 914.594 487.843C916.998 481.638 922.025 476.757 925.943 471.302C929.87 465.85 932.778 458.863 930.218 452.719ZM859.154 587.041C858.821 589.309 856.134 591.435 854.072 590.256C853.992 584.193 852.625 578.223 851.258 572.295C850.601 569.455 849.947 566.616 849.29 563.785C848.99 562.463 848.562 560.99 847.322 560.351C846.429 559.892 845.292 559.968 844.476 559.405C843.25 558.557 843.339 556.731 842.319 555.655C840.991 554.258 838.501 554.754 836.819 553.754C835.151 552.763 834.757 550.66 834.527 548.798L831.99 528.268C831.896 527.479 831.808 526.616 832.249 525.933C832.739 525.174 833.72 524.88 834.598 524.566C838.369 523.206 841.559 520.436 843.306 516.98C844.049 515.508 844.556 513.917 845.566 512.601C849.24 507.868 854.163 509.28 854.584 513.923C855.168 520.374 852.475 519.557 848.671 521.825C845.755 523.561 840.737 526.482 838.728 529.375C835.702 533.74 838.389 534.964 840.475 539.206C842.405 543.144 840.563 548.439 843.598 551.69C845.557 553.802 848.854 554.177 851.358 555.686C855.271 558.044 856.717 562.816 856.977 567.201C857.239 571.595 856.638 576.081 857.798 580.34C858.402 582.566 859.487 584.773 859.154 587.041Z" fill="#165425" fill-opacity="0.05"/>
<path d="M897.087 596.408C894.604 600.729 899.68 605.738 899.271 610.647C898.849 615.677 892.922 618.835 891.714 623.747C891.216 625.769 891.578 627.889 892.073 629.913C893.019 633.792 894.439 637.564 896.301 641.128C896.899 642.277 897.562 643.425 898.546 644.298C901.583 646.998 906.827 646.091 909.777 643.307C912.726 640.524 913.863 636.46 914.482 632.551C915.1 628.642 915.345 624.61 916.983 620.975C919.363 615.691 924.649 611.23 924.348 605.489C924.198 602.622 922.619 600.012 921.924 597.217C921.225 594.422 921.818 590.872 924.572 589.695C924.87 591.53 925.17 593.361 925.468 595.195C933.296 592.871 923.697 568.287 915.197 580.726C911.736 585.792 915.162 589.203 908.289 591.821C904.58 593.235 899.324 592.524 897.087 596.408Z" fill="#165425" fill-opacity="0.05"/>
<path d="M1492.44 158.156C1492.23 157.324 1491.54 156.663 1490.84 156.075C1486.12 151.959 1480.87 148.408 1475.23 145.569C1478.78 145.275 1482.47 144.955 1485.64 143.34C1488.81 141.749 1491.36 138.515 1490.89 135.135C1490.09 129.355 1481.49 126 1482.36 120.243C1482.78 117.647 1485.15 115.026 1483.86 112.699C1482.96 111.105 1480.79 110.691 1478.88 110.444C1468.94 109.17 1458.99 107.896 1449.02 106.647C1449.46 110.248 1448.4 114.264 1445.33 116.445C1442.24 118.602 1437.04 117.89 1435.57 114.536C1435.08 113.36 1435.03 111.987 1434.18 110.985C1432.4 108.829 1428.82 110.078 1426.09 111.083C1420.24 113.239 1413.54 113.239 1407.69 111.058C1406.55 110.615 1405.32 110.03 1404.85 108.952C1404.16 107.361 1405.32 105.622 1405.42 103.906C1405.58 100.965 1402.38 98.6887 1399.29 98.4199C1396.22 98.1735 1393.23 99.3496 1390.27 100.257C1381.69 102.903 1371.51 103.245 1364.45 97.9047C1362.36 96.3365 1360.64 94.3287 1358.4 92.9817C1355.23 91.0719 1351.33 90.6799 1347.6 90.313C1337.98 89.3833 1328.4 88.4508 1318.79 87.5211C1317.86 87.4231 1316.8 87.3727 1316.03 87.888C1314.79 88.7449 1315 90.5343 1314.59 91.9288C1313.81 94.6479 1310.57 96.0676 1307.63 96.2637C1304.66 96.4597 1301.68 95.7988 1298.74 96.1153C1296.55 96.3365 1294.41 97.1206 1292.22 96.9974C1290 96.8741 1287.61 95.4068 1287.66 93.3234C1284.9 94.9644 1283.07 97.9523 1282.97 101.063C1277.38 101.651 1270.34 97.8542 1271.55 92.6121C1271.89 91.2651 1272.71 90.0638 1272.84 88.6945C1273.59 80.1704 1251.43 78.2858 1246.43 81.9598C1245.06 82.9651 1244.01 84.312 1242.72 85.3873C1237.28 89.893 1227.54 88.1064 1224.24 81.9822C1216.41 81.0525 1208.44 81.1001 1200.59 82.0802C1197.39 76.936 1189.09 79.361 1183.78 82.5702C1178.47 85.7793 1170.74 88.9381 1166.7 84.3568C1180.1 81.4669 1192.8 75.6871 1203.6 67.6054C1204.68 66.7961 1205.87 65.6956 1205.61 64.3711C1205.45 63.4638 1204.63 62.8281 1203.83 62.2904C1198.86 59.0085 1192.75 57.2695 1186.69 57.4151C1182.26 57.5131 1177 58.272 1174.2 55.0405C1172.44 53.0578 1172.26 49.9943 1170.13 48.3533C1168.09 46.7852 1165.18 47.152 1162.6 47.5693C1156.91 48.5494 1151.18 49.5295 1145.49 50.5096C1144.61 50.6552 1143.63 50.8512 1143.01 51.4645C1142.22 52.2962 1142.27 53.5703 1142.19 54.7212C1141.7 61.8732 1132.24 66.9193 1125.54 63.587C1123.46 62.5341 1121.68 60.8679 1119.41 60.207C1116.55 59.3977 1113.48 60.3302 1110.67 61.2599C1098.85 65.1551 1087.05 69.0476 1075.24 72.9428C1078.41 75.001 1082.56 75.6619 1086.27 74.7294C1087.38 76.6168 1084.5 78.2801 1082.28 78.7226C1073.26 80.5092 1064.26 82.2986 1055.25 84.0628C1060.4 87.7844 1065.4 91.73 1070.19 95.8688C1072.51 94.3259 1074.7 98.3415 1073.82 100.915C1072.97 103.486 1071.35 106.67 1073.41 108.507C1070.65 107.625 1068.28 105.689 1066.95 103.192C1068.39 102.189 1069.78 101.159 1071.22 100.131C1068.08 100.744 1064.63 98.784 1063.67 95.8688C1057.92 94.8159 1052.44 92.4637 1047.82 89.0361C1046.9 91.0943 1048.16 93.7882 1050.4 94.5471C1048.29 94.8159 1046.15 95.0623 1044.04 95.306C1044.73 98.4423 1047.7 100.988 1051.05 101.355C1046.82 102.382 1042.11 101.427 1038.65 98.882C1041.8 94.3763 1037.18 87.2243 1031.51 87.86C1034.76 88.2772 1035.3 92.7101 1033.89 95.502C1032.44 98.3191 1029.92 100.842 1029.97 103.953C1030.02 107.773 1033.76 112.354 1030.64 114.779C1034.43 117.792 1041.49 112.307 1044.66 115.883C1045.64 117.008 1045.74 118.551 1046.15 119.949C1047.39 124.138 1052.23 127.05 1056.74 126.317C1054.14 130.234 1047.96 126.364 1045.12 122.592C1042.31 118.82 1035.97 115.073 1033.52 119.067C1032.73 120.388 1032.88 121.982 1032.88 123.474C1032.73 134.373 1019.27 143.02 1008.58 139.077C1012.65 134.3 1022.21 136.188 1025.33 130.822C1026.59 128.618 1026.26 125.924 1025.87 123.449C1024.61 115.367 1023.37 107.283 1022.11 99.2012C1022.86 95.4796 1023.14 91.6572 1022.96 87.8852C1018.47 89.3777 1011.26 89.1845 1011.42 84.676C1007.6 90.6771 1003.79 96.6529 999.976 102.654C997.658 106.255 995.905 111.937 999.873 113.822C1002.53 112.794 1005.62 114.925 1006.37 117.568C1007.14 120.189 1006.16 122.981 1004.9 125.432C999.178 110.394 970.241 117.325 962.716 103.021C959.263 104.295 962.407 109.341 965.886 110.54C969.392 111.738 974.183 113.869 972.895 117.176C971.917 119.772 968.155 119.772 965.268 119.576C956.918 119.013 948.389 120.85 941.071 124.768C940.426 121.976 939.757 119.207 939.112 116.44C933.031 120.531 926.923 124.62 920.843 128.736C917.879 130.719 914.735 132.777 911.129 133.144C907.523 133.488 903.372 131.43 902.909 128.025C902.444 124.594 907.676 121.606 909.995 124.253C910.999 117.983 901.981 112.741 896.569 116.465C900.152 122.245 900.255 129.839 896.775 135.692C895.488 137.871 893.502 139.929 890.927 140.321C888.326 140.688 885.336 138.557 885.878 136.109C882.578 138.876 880.725 143.113 880.955 147.277C875.596 148.943 869.205 146.958 865.879 142.597C866.292 145.022 866.704 147.422 867.117 149.847C863.251 153.79 854.799 150.951 854.413 145.56C854.31 143.97 854.749 142.401 854.749 140.808C854.749 135.37 849.699 131.329 845.112 128.072C851.967 130.545 858.873 133.02 865.726 135.493C869.591 136.89 873.713 138.31 877.761 137.574C883.689 136.496 887.501 128.929 882.245 125.009C872.788 117.98 861.887 112.69 850.344 109.529C847.021 108.621 843.465 107.888 840.192 108.893C837.511 109.702 833.931 111.318 832.488 109.039C835.169 109.405 838.053 108.425 839.882 106.49C834.291 105.314 828.622 104.555 822.901 104.287C816.304 109.848 811.82 117.734 813.726 125.67C816.664 137.89 833.363 148.128 827.255 159.226C833 158.002 839.004 156.801 844.699 158.173C847.766 158.884 850.73 160.598 852.739 162.9C852.713 162.776 852.739 162.656 852.766 162.533C854.466 161.995 856.295 161.429 858.048 161.897C859.775 162.34 861.192 164.272 860.317 165.792C859.725 166.845 858.178 167.727 858.72 168.805C859.079 169.492 860.034 169.59 860.782 169.811C862.895 170.424 864.082 173.02 863.101 174.905C860.061 174.734 857.02 174.585 853.98 174.462C852.949 176.568 851.558 178.576 850.577 180.684C846.479 189.477 849.469 199.567 849.805 209.169C849.961 214.092 848.774 219.578 846.199 223.84C846.818 223.717 847.436 223.593 848.055 223.495C859.521 221.633 872.611 224.403 879.647 233.218C886.655 242.036 884.31 257.197 873.539 261.336C869.441 262.904 864.674 262.854 860.939 265.083C859.418 265.965 858.284 267.533 857.768 269.174C864.727 265.427 871.889 261.826 879.75 260.431C878.023 263.957 874.597 266.654 870.652 267.583C871.966 268.393 871.527 270.498 870.213 271.305C868.899 272.114 867.173 271.966 865.652 271.672C864.106 271.378 862.509 270.986 860.989 271.352C859.648 271.672 858.59 272.652 858.078 273.85C857.821 274.388 857.692 274.976 857.692 275.564C857.692 275.981 857.768 276.348 857.898 276.74C861.893 273.556 868.283 273.458 872.355 276.569C873.928 277.771 875.163 279.336 876.839 280.414C878.695 281.59 881.117 282.128 882.534 283.794C883.924 285.486 882.946 288.865 880.757 288.423C880.681 289.476 881.839 290.235 882.923 290.431C884.004 290.627 885.191 290.554 886.169 291.019C888.438 292.145 888.025 295.623 886.04 297.143C884.057 298.661 881.299 298.784 878.748 298.809C872.048 298.907 865.116 298.958 858.985 296.359C856.098 295.158 853.496 293.371 850.506 292.366C847.542 291.361 843.936 291.263 841.512 293.198C840.377 294.105 839.632 295.376 838.548 296.356C835.946 298.731 831.539 299.05 828.602 297.068C826.18 295.401 824.996 292.315 825.561 289.524C822.777 292.192 820.408 295.278 818.705 298.636C820.176 302.604 821.643 306.619 823.113 310.587C823.602 311.887 824.067 313.158 824.557 314.432C825.974 318.327 828.292 322.884 832.597 323.152C838.059 323.494 843.521 316.443 847.852 322.811C848.677 324.034 848.933 325.505 848.933 326.975C848.906 329.865 853.081 333.491 855.323 331.237C855.067 329.156 854.834 326.927 855.839 325.04C856.843 323.178 859.601 322.027 861.354 323.326C862.538 324.208 862.771 325.799 862.848 327.196C862.951 329.277 862.848 331.385 862.565 333.441C861.896 338.364 859.834 343.483 855.453 346.129C852.026 348.187 847.13 349.654 849.914 354.014C850.559 354.969 853.161 353.869 853.882 354.799C855.506 356.955 854.372 359.231 854.604 361.78C855.043 367.193 861.51 369.912 865.04 374.174C869.936 380.052 868.905 388.478 871.327 395.63C876.25 410.253 895.626 419.634 894.545 434.94C894.106 440.891 891.042 448.362 896.195 451.793C899.648 454.069 904.365 452.453 908.177 450.765C915.316 447.629 922.478 444.47 929.643 441.311C932.553 440.037 935.647 438.592 937.141 435.873C937.915 434.453 938.172 432.787 939.253 431.563C940.85 429.774 943.607 429.53 945.953 428.797C951.235 427.105 954.764 422.378 957.419 417.702C960.28 412.63 962.522 407.243 964.119 401.684C964.531 400.214 964.917 398.671 964.531 397.178C963.14 391.765 953.168 391.25 952.652 385.691C952.446 383.364 954.146 381.306 954.944 379.102C955.743 376.899 954.868 373.642 952.419 373.664C950.949 377.778 949.352 382.065 946.079 385.078C942.78 388.117 937.214 389.388 933.608 386.719C930.927 384.759 930.052 381.357 928.223 378.66C925.439 374.496 920.389 371.973 917.967 367.613C915.545 363.253 919.101 355.905 923.895 357.792C926.24 366.047 932.191 373.295 940.078 377.459C944.948 375.89 949.638 373.785 954.019 371.189C956.208 369.523 959.095 372.634 959.328 375.28C959.561 377.949 959.122 381.183 961.39 382.726C962.551 383.535 964.095 383.583 965.539 383.583C977.341 383.583 989.117 382.284 1000.58 379.713C998.238 386.229 1004.55 394.064 1011.79 393.577C1010.92 396.246 1008.11 398.231 1005.17 398.256C1006.59 400.878 1008.08 403.619 1010.61 405.383C1013.13 407.122 1016.97 407.514 1019.19 405.431C1021.28 403.496 1021.56 399.895 1024.27 398.819C1027.41 397.57 1030.53 401.317 1030.27 404.551C1030.02 407.786 1027.88 410.553 1026.74 413.613C1024.45 419.858 1026.59 426.716 1028.7 433.011C1032.8 445.159 1037.05 457.626 1045.43 467.62C1048.44 464.926 1051.46 462.257 1054.47 459.561C1058.54 460.222 1058.67 465.783 1057.38 469.479C1056.07 473.226 1054.86 478.247 1058.39 480.28C1061.56 482.092 1065.81 479.177 1066.5 475.749C1067.2 472.296 1065.55 468.891 1063.95 465.732C1061.86 461.692 1059.8 457.626 1057.74 453.56C1057.02 452.162 1056.27 450.67 1056.4 449.101C1056.5 447.755 1057.2 446.553 1057.79 445.33C1059.65 441.387 1060.24 436.881 1059.41 432.619C1070.47 427.279 1079.72 418.609 1085.41 408.128C1086.29 406.559 1087.11 404.893 1088.63 403.84C1093.17 400.704 1100.8 405.114 1104.82 401.368C1110.41 403.353 1115.13 407.416 1117.78 412.513C1119.71 416.237 1121.52 421.183 1125.87 421.502C1119.2 424.098 1114.66 431.006 1115.18 437.839C1121.9 439.454 1129.32 433.406 1128.65 426.867C1131.28 425.447 1134.76 427.186 1136.15 429.732C1137.54 432.28 1137.39 435.316 1137.21 438.158C1136.69 446.805 1136.15 455.425 1135.63 464.047C1135.48 466.617 1135.38 469.387 1136.87 471.518C1138.29 473.526 1140.97 474.654 1141.95 476.906C1143.42 480.213 1140.48 484.377 1142.39 487.485C1143.42 489.126 1145.45 489.86 1147.02 491.011C1150.37 493.461 1151.51 497.746 1153.93 501.053C1156.35 504.36 1161.94 506.516 1164.57 503.354C1158.98 499.19 1155.4 492.674 1155.04 485.914C1154.96 484.371 1155.01 482.756 1154.34 481.358C1153.52 479.594 1151.74 478.443 1150.24 477.147C1141.48 469.53 1142.56 456.377 1144.34 445.209C1148.41 450.866 1154.93 454.859 1162.05 456.035C1159.75 460.518 1161.74 466.517 1166.3 468.967C1166.61 464.582 1170.06 460.566 1174.52 459.415C1176.45 458.9 1178.51 458.877 1180.34 458.116C1185.83 455.861 1186.42 448.807 1186.14 443.151C1186.04 440.922 1185.91 438.595 1184.65 436.733C1182.53 433.672 1178.26 432.961 1174.91 431.149C1168.9 427.914 1165.97 420.298 1168.39 414.126C1170.78 407.979 1178.23 404.011 1185.01 405.308C1187.25 406.237 1186.24 409.617 1184.28 411.015C1182.33 412.412 1179.65 413.244 1178.75 415.422C1177.46 418.41 1181.27 421.743 1184.6 421.056C1187.92 420.396 1190.06 417.041 1190.29 413.807C1190.5 410.575 1189.26 407.439 1188.02 404.4C1195.19 405.893 1203.07 403.493 1207.99 398.352C1209.39 396.907 1210.62 395.215 1212.4 394.238C1215.88 392.303 1220.85 393.356 1223.72 390.637C1225.9 388.556 1225.75 385.224 1226.42 382.359C1227.68 377.019 1232.01 372.931 1234.59 368.055C1237.11 363.18 1239.64 355.686 1238.28 350.298C1237.3 346.381 1235.16 342.827 1233.69 339.055C1232.63 336.387 1231.91 333.617 1231.52 330.778C1231.37 329.627 1231.27 328.353 1231.83 327.325C1232.84 325.488 1235.31 325.048 1237.17 323.97C1239.93 322.354 1241.37 318.949 1240.54 315.986C1232.89 318.411 1223.92 316.574 1218.02 311.332C1219.72 308.196 1223.51 306.729 1226.79 305.062C1230.09 303.421 1233.51 300.728 1233.36 297.177C1235.44 297.177 1237.5 297.177 1239.57 297.152C1239.72 300.383 1238.12 303.643 1235.44 305.625C1238.28 307.952 1242.53 305.749 1245.88 304.082C1249.2 302.416 1254.77 302.416 1255.18 305.967C1255.57 309.372 1250.13 311.674 1250.88 315.029C1254.69 313.805 1258.76 318.63 1256.7 321.912C1256.13 322.794 1255.23 323.651 1255.39 324.679C1255.57 325.927 1257.11 326.418 1258.27 327.031C1261.49 328.647 1262.89 332.861 1261.24 335.947C1263.48 334.281 1265.72 332.64 1267.96 330.976C1268.48 332.937 1270.8 334.258 1272.89 333.819C1274.95 333.354 1276.39 331.15 1275.93 329.19C1275.49 327.255 1273.61 325.908 1272.99 324.046C1272.06 321.229 1274.17 318.095 1273.14 315.303C1272.34 313.124 1269.9 311.971 1267.91 310.601C1265.93 309.229 1264.15 306.757 1265.33 304.724C1266.05 303.475 1267.6 302.959 1268.86 302.226C1275.18 298.504 1276.52 287.897 1283.94 287.653C1285.43 287.603 1286.9 288.045 1288.37 287.849C1292.59 287.286 1294.06 282.411 1296.05 278.812C1300.43 270.804 1310.63 266.908 1315.24 258.998C1318.77 252.924 1318.36 245.503 1320.45 238.816C1321.97 233.966 1324.86 228.919 1323.08 224.145C1320.86 218.194 1310.73 217.018 1307.07 222.308C1307.67 219.32 1308.26 216.332 1308.88 213.319C1306.66 220.104 1291.95 213.98 1304.76 207.343C1313.31 202.936 1320.96 196.884 1327.12 189.732C1329.21 187.307 1331.19 184.686 1333.93 182.922C1344 176.456 1357.86 184.465 1369.66 181.648C1370.08 182.751 1370.46 183.851 1370.88 184.955C1367.71 186.204 1364.56 187.478 1361.42 188.727C1368.07 191.69 1375.23 184.661 1382.57 184.955C1384.71 185.028 1387.81 185.053 1387.93 183.045C1385.95 182.751 1383.4 181.723 1383.76 179.861C1383.89 179.175 1384.4 178.637 1384.92 178.147C1386.83 176.212 1388.76 174.302 1390.69 172.367C1393.91 169.133 1399.12 165.706 1402.8 168.497C1405.59 170.628 1404.3 175.747 1400.79 176.459C1403.09 178.637 1406.98 176.655 1409.27 174.451C1411.57 172.272 1414.53 169.626 1417.57 170.752C1418.42 169.136 1418.42 167.15 1417.62 165.535C1420.07 164.235 1423.08 163.941 1425.74 164.725C1424.11 166.025 1423 167.909 1422.67 169.917C1422.44 171.216 1422.54 172.538 1422.13 173.787C1420.66 178.441 1414.11 178.979 1409.5 181.11C1401.36 184.857 1398.52 194.778 1391.2 199.799C1389.4 201.048 1387.37 201.978 1385.87 203.546C1382.65 206.926 1383.06 212.193 1384.55 216.528C1386.1 220.863 1388.55 225.027 1388.83 229.583C1388.89 230.44 1388.86 231.297 1388.78 232.131C1388.44 235.17 1392.36 236.858 1394.6 234.702C1395.15 234.164 1395.69 233.649 1396.23 233.134C1398.83 230.586 1401.54 227.965 1402.85 224.635C1403.75 222.283 1404.16 219.418 1406.46 218.194C1408.13 217.287 1410.22 217.679 1412.12 217.363C1414.03 217.069 1416.07 215.232 1415.12 213.616C1412 211.51 1412.54 206.195 1415.99 204.652C1417.43 205.288 1418.88 205.951 1420.32 206.612C1423.74 205.117 1418.57 199.78 1420.45 196.668C1421.17 195.467 1422.9 194.733 1422.84 193.361C1422.79 191.648 1420.24 191.353 1418.46 191.622C1417.28 186.064 1421.32 179.965 1427.09 178.593C1426.99 179.743 1426.89 180.92 1426.78 182.07C1429.65 180.357 1432.51 178.64 1435.36 176.901C1435.88 178.223 1436.37 179.547 1436.86 180.894C1440.28 182.586 1442.96 175.162 1446.52 176.534C1447.3 176.854 1447.81 177.514 1448.45 178.004C1451.01 179.99 1455.59 178.469 1456.29 175.409C1458.94 163.799 1473.78 163.261 1486.23 162.281C1489.11 162.048 1493.11 160.85 1492.44 158.156ZM942.953 299.893C940.868 301.68 937.851 302.17 935.069 301.755C934.401 302.293 934.89 303.396 935.638 303.836C936.386 304.276 937.312 304.399 937.957 304.987C939.118 306.04 938.652 307.852 938.832 309.347C939.168 311.797 941.357 313.657 941.949 316.034C943.006 320.321 938.136 324.264 933.496 324.289C923.806 324.362 917.004 316.894 914.505 308.86C913.062 304.278 910.304 291.814 917.726 291.103C915.484 288.311 917.829 285.225 916.438 282.237C915.666 280.621 913.757 279.837 912.47 278.538C909.892 275.942 910.281 271.557 912.47 268.645C914.659 265.729 918.164 264.016 921.67 262.716C925.097 261.442 928.962 260.462 932.338 261.787C935.741 263.108 937.777 267.69 935.249 270.213C932.518 272.932 926.926 271.364 924.425 274.304C922.852 276.116 923.394 278.98 924.967 280.795C926.564 282.607 928.936 283.612 931.228 284.469C932.515 284.959 933.909 285.522 934.424 286.723C935.223 288.51 933.599 290.324 932.568 291.988C931.564 293.676 931.77 296.617 933.806 296.617C935.788 296.592 936.098 293.923 937.205 292.355C938.752 290.151 942.744 290.492 944.291 292.722C945.814 294.923 945.016 298.132 942.953 299.893ZM1184.84 214.243C1184.4 215.052 1183.86 215.859 1183.58 216.741C1183.27 217.721 1183.27 218.774 1183.01 219.754C1182.24 222.692 1179.38 224.604 1176.8 226.391C1175 227.615 1173.22 228.987 1172.14 230.824C1171.7 231.583 1171.39 232.417 1170.9 233.176C1168.35 237.267 1160.7 238.099 1165.52 232.392C1168.48 228.841 1172.91 223.624 1176.6 220.538C1177.86 219.485 1179.41 218.603 1180.26 217.231C1181.65 214.977 1180.88 212.16 1180.98 209.564C1181.06 206.968 1183.14 203.857 1185.77 204.593C1186.75 207.752 1186.41 211.28 1184.84 214.243ZM855.341 169.029C855.367 169.298 855.367 169.567 855.341 169.861C855.264 170.866 855.031 171.821 854.696 172.751C855.108 172.776 855.494 172.776 855.803 172.751C856.422 171.502 856.036 170.278 855.341 169.029ZM835.216 231.168C840.112 230.826 843.771 227.886 846.193 223.845C841.556 224.898 836.995 227.052 835.216 231.168Z" fill="#165425" fill-opacity="0.05"/>
<path d="M873.534 261.341C869.435 262.909 864.669 262.859 860.933 265.088C859.413 265.97 858.278 267.538 857.763 269.179C857.144 269.498 856.525 269.84 855.907 270.159C845.033 276.037 849.104 263.105 838.925 263.178C829.005 263.251 831.863 279.05 827.432 277.653C826.298 280.053 828.154 282.92 827.356 285.441C827.073 286.323 826.504 287.082 826.095 287.913C825.838 288.428 825.656 288.966 825.553 289.529C822.768 292.198 820.4 295.284 818.697 298.641C818.567 298.274 818.441 297.93 818.311 297.563C815.889 295.286 811.458 297.709 810.683 300.845C809.911 303.981 811.352 307.188 812.333 310.274C813.311 313.36 813.647 317.132 811.225 319.408C809.961 320.607 807.902 321.441 809.732 324.186C810.377 325.191 811.664 325.583 812.902 325.409C815.53 325.042 817.772 329.671 815.194 329.817C810.454 330.355 806.974 325.628 805.48 321.293C804.01 316.983 802.982 311.962 798.987 309.462C797.028 308.238 794.373 307.65 793.422 305.617C791.825 302.212 796.462 298.221 794.762 294.864C793.089 291.582 787.471 292.783 784.557 290.358C782.109 288.277 782.445 284.284 780.073 282.153C778.862 281.05 777.186 280.635 775.642 280.072C770.745 278.286 766.7 274.561 764.664 269.98C761.857 270.47 762.269 274.438 763.607 276.838C768.76 285.998 776.956 293.589 786.722 298.269C783.552 299.786 781.982 303.217 780.692 306.376C778.706 311.077 776.75 315.804 774.79 320.531C771.803 320.189 768.683 319.772 766.288 318.058C763.893 316.345 762.602 312.841 764.382 310.565C767.655 313.578 773.992 312.5 775.951 308.605C777.91 304.662 774.817 299.322 770.283 298.832C772.189 293.687 766.108 289.182 760.749 287.247C755.39 285.312 748.817 282.864 748.175 277.451C745.727 275.371 741.785 276.424 739.13 278.235C736.476 280.072 734.26 282.595 731.14 283.598C728.05 284.603 723.642 282.912 723.822 279.801C722.225 281.122 720.625 282.422 719.029 283.744C722.661 284.724 720.599 290.26 717.249 291.901C713.899 293.517 709.339 294.547 708.514 298.048C708.178 299.445 708.617 300.912 708.59 302.382C708.564 304.586 707.483 306.67 706.425 308.652C703.797 313.528 700.421 318.963 694.752 319.968C691.429 320.556 686.353 320.898 686.815 324.059C682.022 320.091 675.322 318.254 669.035 319.209C669.421 316.417 669.807 313.626 670.17 310.856C668.004 310.537 665.815 310.243 663.65 309.949C667 305.541 668.211 299.686 666.87 294.396C666.122 291.433 665.22 287.269 668.237 286.216C666.614 284.844 665.429 283.007 664.834 280.999C669.345 279.115 674.601 278.919 679.291 280.411C681.327 281.047 683.259 282.002 685.322 282.59C691.146 284.256 698.155 282.394 701.505 277.594C704.855 272.769 703.464 265.276 698.129 262.506C695.321 261.061 691.918 260.938 689.161 259.37C686.456 257.802 685.039 253.492 687.77 251.949C690.012 255.206 695.165 256.211 698.568 254.08C696.971 251.484 696.273 248.421 696.585 245.433C699.083 244.453 702.306 246.707 701.997 249.277C706.428 249.375 710.759 246.486 712.176 242.492C712.691 241.12 712.898 239.602 713.902 238.477C715.243 236.984 717.561 236.763 719.494 236.077C724.288 234.363 727.122 228.802 725.548 224.198C731.732 221.479 738.638 220.255 745.414 220.622C743.019 216.41 740.544 211.927 740.777 207.127C741.01 202.35 745.105 197.405 750.105 197.844C750.877 200.636 750.826 203.624 750.002 206.416C751.472 206.735 752.912 207.029 754.382 207.346C751.212 209.844 747.992 214.669 751.289 217.021C753.917 218.883 757.679 216.483 760.899 217.119C762.369 217.413 763.63 218.343 765.074 218.662C771.594 220.205 777.907 210.014 783.42 213.666C785.276 214.89 786.021 217.388 789.191 217.021C790.944 216.8 792.464 215.747 793.316 214.277C795.145 211.263 794.553 207.785 794.913 204.456C795.222 201.566 796.692 198.357 799.653 197.598C802.9 196.766 806.017 199.312 809.366 199.656C815.011 200.269 819.442 192.896 816.016 188.584C811.738 191.695 806.249 193.238 800.864 192.821C799.267 190.174 802.59 187.31 805.501 186.061C815.524 181.824 826.887 180.524 837.685 182.387C839.617 180.673 836.833 177.979 834.465 176.901C832.093 175.848 829.465 172.958 831.501 171.39C824.389 168.671 818.152 178.15 810.474 178.491C802.614 178.858 798.053 168.867 800.967 161.911C803.904 154.98 811.196 150.743 818.025 147.019C813.515 140.284 801.715 139.744 796.559 146.039C797.205 151.183 795.013 156.571 790.891 159.951C786.64 163.429 779.708 166.613 781.151 171.782C782.415 176.313 790.016 178.491 788.985 183.098C788.057 187.335 780.765 187.385 779.039 191.376C777.801 194.291 780.199 197.867 778.729 200.684C777.236 203.526 772.981 203.624 770.303 205.534C768.474 206.833 767.443 208.889 765.769 210.359C764.069 211.804 761.002 212.367 759.765 210.53C758.554 208.718 760.151 206.489 761.029 204.503C763.71 198.651 759.845 192.135 756.106 186.82C748.528 186.232 744.613 199.849 737.578 197.083C735.595 196.299 734.434 194.389 733.429 192.577C730.645 187.679 727.838 182.684 726.78 177.195C725.749 171.709 726.753 165.585 730.801 161.569C736.187 156.229 745.232 155.913 751.209 151.208C757.909 145.944 759.532 136.171 766.721 131.542C771.025 128.775 777.622 127.28 778.137 122.357C773.397 122.723 768.654 123.09 763.913 123.46C766.079 119.688 771.205 117.728 775.483 119.027C773.706 115.401 778.111 111.508 782.312 110.945C786.513 110.408 790.918 111.559 794.963 110.408C798.262 109.453 800.89 107.126 804.06 105.826C806.792 104.701 809.832 104.429 812.822 104.284C816.172 104.138 819.548 104.138 822.898 104.284C816.302 109.845 811.818 117.731 813.724 125.667C816.661 137.887 833.36 148.125 827.252 159.223C832.997 157.999 839.002 156.798 844.697 158.17C847.764 158.881 850.727 160.595 852.737 162.897C852.454 165.028 854.283 167.035 855.338 169.021C855.365 169.29 855.365 169.559 855.338 169.853C855.262 170.858 855.029 171.813 854.693 172.742C849.746 172.572 838.124 170.292 843.689 178.007C846.164 175.215 847.322 177.002 850.182 176.708C851.367 176.584 852.475 175.408 852.038 174.355C852.684 174.381 853.326 174.406 853.971 174.453C852.94 176.559 851.549 178.567 850.568 180.676C846.47 189.469 849.461 199.558 849.796 209.16C849.953 214.083 848.765 219.569 846.19 223.831C846.809 223.708 847.428 223.585 848.046 223.487C859.513 221.624 872.603 224.394 879.638 233.209C886.65 242.041 884.305 257.202 873.534 261.341Z" fill="#165425" fill-opacity="0.05"/>
<path d="M659.363 219.269C659.345 221.983 662.097 224.436 661.337 227.051C660.586 229.636 656.735 230.809 656.57 233.486C656.385 236.477 660.765 237.555 663.856 236.959C669.566 235.855 674.766 232.551 678.027 227.961C679.621 225.715 680.245 221.862 677.556 220.969C681.241 219.74 684.924 218.51 688.61 217.278C691.503 219.625 694.614 223.573 692.227 226.388C690.687 228.202 687.063 229.457 688.156 231.546C688.601 232.397 689.785 232.823 689.994 233.755C690.215 234.738 689.231 235.542 688.421 236.189C684.933 238.972 682.879 243.31 683.006 247.639C688.244 243.041 695.448 240.532 702.571 240.823C704.239 240.89 706.101 241.05 707.376 240.028C708.649 239.006 708.087 236.371 706.443 236.625C708.437 235.264 710.432 233.903 712.426 232.54C712.877 232.232 713.345 231.901 713.566 231.42C714.082 230.286 712.921 229.051 711.693 228.653C710.461 228.255 709.088 228.314 707.913 227.79C705.311 226.631 704.875 223.397 703.977 220.804C703.081 218.211 699.882 215.581 697.678 217.331C698.232 214.839 698.771 212.165 697.737 209.815C696.703 207.466 693.403 205.867 691.246 207.382C690 205.626 692.887 204.002 694.402 202.448C696.052 200.756 696.019 197.816 694.302 196.186C692.584 194.559 689.443 194.562 687.764 196.225C687.994 191.426 689.063 185.517 693.88 184.055C695.203 183.652 696.644 183.677 697.958 183.252C699.272 182.823 700.527 181.681 700.312 180.376C700.541 181.902 703.137 181.983 704.1 180.743C705.064 179.502 704.861 177.791 704.616 176.268C700.869 175.246 699.248 181.249 695.533 182.384C693.824 182.904 691.871 182.286 690.215 182.944C686.294 184.503 687.349 191.44 683.25 192.518C682.281 192.773 681.212 192.599 680.287 192.977C678.422 193.739 678.216 196.189 678.669 198.071C679.123 199.953 679.924 201.977 679.067 203.727C678.596 204.688 677.629 205.643 678.021 206.634C678.537 207.945 680.564 207.592 681.954 208.06C685.451 209.238 683.542 213.145 681.73 214.685C679.462 216.612 675.638 216.108 672.963 215.755C668.944 215.217 659.413 211.882 659.363 219.269Z" fill="#165425" fill-opacity="0.05"/>
<path d="M746.987 297.175C746.513 296.799 746.036 296.424 745.561 296.049C747.04 295.713 748.027 294.254 748.113 292.809C748.198 291.364 747.547 289.964 746.696 288.768C745.673 287.329 743.903 285.979 742.176 286.545C739.981 287.264 739.946 290.224 740.683 292.316C741.419 294.408 742.459 296.853 741.122 298.656C741.941 298.471 742.854 298.72 743.446 299.292C740.252 301.241 739.501 307.435 744.221 307.799C748.929 308.16 749.854 302.411 745.093 301.367C745.184 301.084 747.037 297.214 746.987 297.175Z" fill="#165425" fill-opacity="0.05"/>
<path d="M1281.17 345.678C1281.43 343.262 1281.7 340.448 1283.84 339.129C1284.53 340.803 1285.82 342.248 1287.45 343.164C1288.92 342.36 1289.72 340.82 1290.57 339.431C1291.42 338.042 1292.59 336.614 1294.26 336.353C1295.93 336.093 1297.81 337.866 1296.93 339.241C1301.3 340.879 1304.2 334.836 1308.24 332.581C1310.38 331.394 1312.97 331.305 1315.37 330.722C1317.77 330.14 1320.3 328.686 1320.64 326.356C1320.84 324.995 1320.23 323.643 1320.18 322.271C1320.08 319.339 1322.44 316.942 1323.96 314.388C1326.62 309.93 1326.74 304.203 1324.28 299.647C1322.95 297.177 1320.9 295.001 1320.24 292.296C1319.58 289.591 1321.23 286.063 1324.15 286.102C1324.95 288.463 1326.04 291.109 1328.48 291.991C1330.92 292.873 1334.19 289.924 1332.42 288.096C1335.16 287.379 1338.04 287.138 1340.88 287.396C1342.07 285.721 1341.79 283.24 1340.24 281.851C1349.19 278.883 1356.9 273.027 1362.8 265.976C1354.64 270.796 1346.49 275.615 1338.32 280.431C1337.36 281.003 1336.21 281.594 1335.15 281.207C1334.18 280.857 1333.71 279.846 1333.22 278.978C1331.02 275.058 1326.4 272.481 1321.73 272.571C1322.11 276.279 1322.49 279.986 1322.87 283.694C1320.09 283.212 1317.57 285.696 1316.93 288.312C1316.29 290.927 1316.93 293.649 1317.16 296.323C1317.98 305.729 1313.3 315.402 1305.25 320.927C1305.22 319.406 1305.18 317.888 1305.15 316.368C1300.9 316.959 1302.84 324.503 1299.02 326.356C1297.94 326.88 1296.66 326.779 1295.46 326.9C1289.46 327.499 1289.56 333.36 1283.08 331.024C1282.43 338.507 1272.43 337.188 1273.15 344.721C1273.75 351.089 1280.06 355.944 1281.17 345.678Z" fill="#165425" fill-opacity="0.05"/>
<path d="M1333.76 227.286C1333.86 227.826 1333.97 228.381 1333.88 228.927C1333.71 229.971 1332.86 230.806 1332.55 231.82C1332.01 233.587 1333.21 235.41 1334.61 236.681C1336 237.955 1337.69 239.022 1338.58 240.655C1340.07 243.385 1339.01 247.118 1341.15 249.425C1340.49 250.993 1337.98 250.517 1336.54 249.534C1335.09 248.551 1333.3 247.263 1331.74 248.07C1329.9 250.593 1330.92 254.068 1332.38 256.812C1333.83 259.554 1335.72 262.357 1335.43 265.415C1335.29 266.854 1334.14 268.518 1332.66 268.182C1332.1 268.053 1331.64 267.652 1331.22 267.266C1329.23 265.44 1327.13 263.41 1326.75 260.806C1326.48 258.91 1327.18 257.025 1327.68 255.171C1328.71 251.349 1328.91 247.328 1328.27 243.43C1327.99 241.758 1327.56 240.089 1327.62 238.398C1327.74 235.261 1329.48 231.775 1327.56 229.221C1326.96 228.423 1325.99 227.535 1326.44 226.656C1327.26 225.054 1330.92 222.044 1332.21 220.784C1333.04 222.82 1333.33 225.088 1333.76 227.286Z" fill="#165425" fill-opacity="0.05"/>
<path d="M1125.58 492.455C1128.28 494.342 1131.64 495.695 1133.21 498.503C1134.43 500.671 1134.43 503.493 1136.3 505.185C1137.31 506.089 1138.7 506.515 1139.72 507.405C1142.11 509.492 1141.58 513.154 1142.73 516.033C1144.35 520.113 1149.36 522.536 1150.31 526.806C1150.63 528.265 1150.45 529.841 1151.11 531.191C1152.38 533.767 1156.04 534.314 1158.08 536.394C1159.08 537.419 1159.64 538.766 1160.5 539.903C1162.94 543.115 1168 544.204 1171.66 542.303C1170.36 540.41 1169.62 538.17 1169.57 535.91C1169.54 534.577 1169.74 533.227 1169.47 531.919C1168.82 528.755 1165.64 526.532 1164.77 523.418C1166.26 522.379 1168.21 523.905 1169.32 525.308C1170.43 526.711 1172.3 528.29 1173.85 527.341C1171.02 523.824 1167.79 520.598 1164.23 517.741C1164.51 519.021 1162.7 519.965 1161.41 519.52C1160.12 519.072 1159.34 517.851 1158.66 516.711C1158.16 515.854 1157.63 514.93 1157.73 513.953C1157.81 513.135 1158.31 512.404 1158.46 511.598C1158.79 509.903 1157.5 508.293 1156.04 507.274C1154.58 506.257 1152.86 505.569 1151.58 504.345C1149.04 501.903 1148.61 497.666 1145.43 496.031C1143.91 495.249 1142.06 495.258 1140.52 494.513C1135.73 492.191 1134.82 485.462 1129.35 483.387C1121.58 480.433 1119.95 488.506 1125.58 492.455Z" fill="#165425" fill-opacity="0.05"/>
<path d="M1173.44 543.391C1172.3 544.9 1171.16 546.41 1170.02 547.919C1169.77 548.247 1169.52 548.602 1169.52 549.006C1169.53 550.128 1171.22 550.294 1172.39 550.14C1176.09 549.655 1179.89 549.834 1183.52 550.663C1189.64 552.061 1195.47 555.301 1201.77 554.925C1202.72 554.869 1203.68 554.727 1204.62 554.861C1205.64 555.007 1206.58 555.463 1207.57 555.743C1209.86 556.387 1212.43 556.026 1214.42 554.78C1212.73 553.226 1210.08 553.34 1207.74 553.175C1205.39 553.01 1202.6 551.991 1202.32 549.77C1202.24 549.168 1202.37 548.546 1202.21 547.958C1201.87 546.709 1200.36 546.088 1199.01 546.012C1197.65 545.936 1196.28 546.225 1194.95 545.981C1192.7 545.572 1190.98 543.593 1188.75 543.299C1186.49 543.002 1185.5 544.634 1183.67 544.716C1179.92 544.886 1176.95 538.734 1173.44 543.391Z" fill="#165425" fill-opacity="0.05"/>
<path d="M1226.66 556.063C1228.63 556.102 1230.57 557.581 1232.42 556.931C1232.88 556.766 1233.31 556.472 1233.81 556.43C1234.42 556.38 1234.99 556.727 1235.55 556.973C1240.97 559.351 1247.19 552.563 1252.75 554.627C1251.46 559.639 1244.48 561.221 1241.74 565.677C1246.47 565.019 1250.92 562.728 1254.09 559.328C1254.96 558.404 1255.75 557.382 1256.84 556.721C1257.47 556.34 1258.18 556.094 1258.8 555.708C1260.27 554.8 1261.15 553.112 1261.03 551.454C1259.41 551.418 1257.79 551.796 1256.38 552.538C1255.33 553.086 1254.37 553.843 1253.2 554.097C1251.26 554.52 1249.33 553.453 1247.36 553.187C1243.19 552.627 1239.18 556.752 1235.38 556.069C1233.89 555.8 1233.12 554.198 1231.21 553.742C1229.68 553.375 1227.23 554.002 1225.49 553.767C1223.54 553.504 1219.53 551.63 1218.07 553.599C1213.75 559.404 1225.59 556.044 1226.66 556.063Z" fill="#165425" fill-opacity="0.05"/>
<path d="M1225.6 561.562C1226.44 560.675 1228.04 561.232 1228.87 562.128C1229.69 563.024 1230.21 564.211 1231.28 564.839C1232.34 565.469 1233.85 565.334 1234.77 564.525C1235.32 564.049 1235.67 563.279 1235.38 562.626C1235.1 561.966 1234.31 561.66 1233.6 561.422C1232.91 561.193 1232.22 560.96 1231.53 560.731C1230.32 560.325 1229.06 559.916 1227.78 560.081C1226.51 560.246 1225.26 561.184 1225.24 562.402" fill="#165425" fill-opacity="0.05"/>
<path d="M1191.77 526.785C1189.49 527.015 1186.51 527.206 1185.62 525.195C1185.1 524.01 1185.69 522.675 1185.72 521.395C1185.78 519.292 1184.35 517.458 1183.33 515.59C1181.54 512.322 1180.9 508.502 1181.53 504.87C1181.69 503.949 1181.95 502.997 1182.62 502.322C1183.05 501.891 1183.61 501.608 1184.16 501.334C1186.28 500.275 1188.4 499.217 1190.52 498.158C1193.3 496.772 1196.08 495.383 1198.69 493.725C1205.2 489.589 1210.52 483.792 1213.95 477.103C1215.14 475.904 1217.33 477.03 1218.13 478.494C1218.92 479.959 1219.12 481.757 1220.34 482.924C1222.21 484.717 1226.31 485.114 1225.99 487.623C1225.87 488.615 1224.99 489.331 1224.26 490.057C1221.72 492.597 1220.68 496.399 1221.57 499.796C1222.48 503.193 1225.3 506.069 1228.8 507.161C1225.59 507.455 1221.46 508.645 1221.45 511.709C1221.44 513.635 1223.24 515.671 1222.13 517.284C1220.97 518.964 1217.87 518.177 1216.5 519.706C1215.4 520.933 1216.09 522.775 1216.32 524.372C1216.9 528.365 1213.65 532.506 1209.45 533.109C1207.69 533.363 1205.62 532.907 1204.73 531.434C1204.26 530.661 1204.19 529.729 1203.8 528.914C1202.26 525.637 1199.96 527.609 1197.69 527.578C1196.11 527.553 1193.89 526.573 1191.77 526.785Z" fill="#165425" fill-opacity="0.05"/>
<path d="M1254.28 503.329C1254.65 503.209 1255.03 503.091 1255.4 502.971C1254.6 502.467 1253.52 502.627 1252.74 503.153C1251.96 503.682 1251.4 504.452 1250.76 505.133C1248.55 507.485 1245.13 508.765 1241.82 508.485C1239.74 508.308 1237.67 507.558 1235.62 507.933C1233.1 508.395 1231.2 510.529 1230.46 512.859C1230.08 514.032 1230.44 515.819 1231.73 515.721C1232.44 513.626 1234.45 512.086 1236.66 511.419C1238.87 510.753 1241.26 510.862 1243.54 511.254C1245.33 511.559 1247.13 512.038 1248.93 511.814C1250.73 511.59 1252.58 510.417 1252.79 508.7C1252.95 507.457 1252.25 506.121 1252.81 504.987C1253.29 504.001 1254.67 503.125 1254.13 502.167C1253.54 502.274 1254.87 503.22 1254.28 503.329Z" fill="#165425" fill-opacity="0.05"/>
<path d="M1226.59 531.004C1227.41 534.546 1229.16 538.248 1227.8 541.642C1229.3 542.289 1231.1 541.082 1231.61 539.595C1232.12 538.108 1231.72 536.495 1231.33 534.975C1230.94 533.454 1230.57 531.83 1231.13 530.357C1231.25 530.018 1231.48 529.657 1231.85 529.579C1232.03 529.539 1232.22 529.579 1232.4 529.629C1234.43 530.181 1235.82 532.018 1236.46 533.93C1237.1 535.843 1237.15 537.882 1237.44 539.87C1237.62 541.11 1237.98 542.463 1239.07 543.16C1240.87 544.308 1243.44 542.774 1244.12 540.813C1244.8 538.853 1244.25 536.733 1243.96 534.689C1243.55 531.852 1243.33 528.431 1240.69 527.058C1239.6 526.493 1238.09 526.238 1237.74 525.109C1237.31 523.757 1239.01 522.71 1240.43 522.309C1241.73 521.948 1243.06 521.685 1244.4 521.528C1246 521.34 1248.07 520.909 1248.23 519.386C1248.4 517.801 1246.29 517.011 1244.64 516.745C1242.66 516.423 1240.64 516.104 1238.63 516.347C1236.63 516.594 1234.63 517.495 1233.57 519.128C1233.34 519.472 1233.13 519.87 1232.74 520.024C1232.19 520.24 1231.57 519.848 1231.24 519.372C1230.91 518.895 1230.75 518.324 1230.37 517.882C1226.05 512.813 1226.26 529.626 1226.59 531.004Z" fill="#165425" fill-opacity="0.05"/>
<path d="M1262.53 527.46C1260.33 526.967 1258 527.018 1255.83 527.606C1255.44 527.712 1254.98 527.919 1254.96 528.306C1254.94 528.72 1255.43 528.967 1255.85 529.073C1257.94 529.613 1260.24 529.387 1262.16 528.449C1261.87 527.634 1260.74 527.208 1259.94 527.62" fill="#165425" fill-opacity="0.05"/>
<path d="M1271.96 526.36C1270.86 525.822 1269.42 525.976 1268.47 526.735C1267.52 527.494 1267.12 528.813 1267.5 529.936C1269.69 530.465 1271.91 527.998 1274.01 528.813C1275.39 529.348 1276.09 531.145 1277.57 531.221C1278.83 531.285 1279.73 529.597 1278.92 528.67C1278.24 527.886 1276.95 527.894 1276.12 527.247C1274.63 526.068 1275.56 523.786 1276.58 522.215C1274.91 521.871 1273.66 523.733 1273.44 525.343C1273.34 526.052 1273.33 526.797 1272.98 527.432C1272.64 528.068 1271.81 528.544 1271.13 528.244" fill="#165425" fill-opacity="0.05"/>
<path d="M1262.61 516.545C1262.59 517.125 1262.58 517.732 1262.86 518.25C1263.13 518.769 1263.81 519.141 1264.37 518.906C1264.79 518.729 1265 518.29 1265.18 517.884C1265.75 516.582 1266.31 515.086 1265.67 513.815C1265.39 513.244 1264.88 512.779 1264.66 512.179C1264 510.398 1266.28 509.427 1267.73 509.567C1267.39 507.313 1265.37 508.909 1265.37 506.458C1265.37 506.086 1269.82 504.467 1266.11 503.877C1261.28 503.101 1262.73 513.554 1262.61 516.545Z" fill="#165425" fill-opacity="0.05"/>
<path d="M1282.65 513.742C1280.42 513.904 1277.97 513.845 1276.22 512.518C1274.56 513.826 1275.65 516.55 1277.47 517.637C1279.3 518.726 1281.57 518.917 1283.46 519.894C1285.35 520.874 1286.77 523.355 1285.4 524.929C1286.91 525.301 1288.43 525.676 1289.94 526.049C1290.29 527.401 1288.68 528.376 1287.45 529.143C1286.23 529.911 1285.24 531.803 1286.51 532.495C1287.1 533.697 1288.98 533.5 1290.21 532.868C1291.44 532.232 1292.75 531.319 1294.08 531.706C1294.94 531.958 1295.53 532.7 1296.17 533.316C1298.85 535.906 1302.93 536.53 1306.36 538.127C1309.79 539.723 1312.89 543.593 1311.03 546.766C1310.33 547.967 1309.06 548.759 1308.11 549.79C1307.15 550.82 1306.52 552.411 1307.35 553.542C1310.36 553.738 1313.44 552.823 1315.81 551.028C1318.23 553.5 1321.1 555.808 1324.58 556.527C1328.06 557.244 1332.22 555.886 1333.58 552.761C1333.85 552.142 1334.03 551.439 1334.58 551.011C1335.34 550.414 1336.47 550.613 1337.42 550.868C1340.35 551.652 1343.21 552.66 1345.96 553.881C1346.49 554.113 1347.05 554.391 1347.29 554.889C1347.65 555.612 1347.22 556.441 1347.1 557.23C1346.66 560.162 1350.47 561.854 1353.54 562.369C1357.7 563.069 1361.92 563.43 1366.14 563.45C1366.28 561.436 1364 560.061 1361.93 559.619C1359.85 559.176 1357.53 559.115 1355.96 557.762C1354.1 556.169 1353.93 553.287 1351.98 551.798C1350.52 550.68 1347.94 549.941 1348.34 548.199C1348.76 546.331 1352.21 546.578 1352.88 544.775C1353.28 543.66 1352.26 542.478 1351.1 542.061C1349.94 541.644 1348.65 541.719 1347.43 541.498C1344.38 540.949 1341.87 538.348 1341.56 535.41C1341.44 534.299 1341.6 533.125 1341.12 532.103C1340.4 530.557 1338.52 529.883 1336.83 529.364C1327.82 526.603 1318.81 523.842 1309.8 521.081C1308.51 520.684 1307.1 520.289 1305.82 520.714C1302.36 521.865 1302.6 527.774 1299 528.398C1297.13 528.723 1295.47 527.301 1294.16 525.996C1292.87 524.716 1291.02 522.873 1290.86 521C1290.74 519.712 1292.13 518.589 1291.99 517.452C1291.48 513.084 1286.21 513.484 1282.65 513.742Z" fill="#165425" fill-opacity="0.05"/>
<path d="M1352.72 540.753C1352.97 541.132 1353.45 541.294 1353.91 541.414C1357.66 542.397 1361.8 541.994 1365.26 540.303C1366.38 539.759 1367.47 539.073 1368.72 538.947C1369.53 538.866 1370.36 539.034 1371.18 538.95C1371.99 538.869 1372.87 538.424 1373.03 537.656C1373.18 536.903 1372.6 536.035 1373.06 535.411C1373.55 534.758 1374.76 535.013 1375.3 534.397C1375.9 533.714 1375.18 532.717 1374.5 532.101C1371.71 529.605 1369.01 526.912 1366.04 524.649C1365.78 528.217 1368.51 532.325 1365.58 535.38C1363.88 537.155 1351.83 539.437 1352.72 540.753Z" fill="#165425" fill-opacity="0.05"/>
<path d="M1389.63 551.883C1391 552.311 1392.44 552.507 1393.78 553.017C1395.12 553.527 1396.39 554.445 1396.79 555.761C1396.78 555.702 1396.78 555.641 1396.77 555.582C1396.3 552.076 1392.55 549.886 1389.22 548.234C1388.79 548.018 1388.32 547.778 1388.09 547.363C1387.95 547.103 1383.5 549.953 1389.63 551.883Z" fill="#165425" fill-opacity="0.05"/>
<path d="M1428.74 619.72C1428.4 618.266 1427.87 616.813 1426.85 615.679C1425.84 614.545 1424.27 613.775 1422.72 613.976C1421.39 616.754 1423.7 619.924 1426.35 621.649C1428.22 622.862 1430.34 623.637 1432.44 624.323C1429.79 624.749 1429.18 621.643 1428.74 619.72Z" fill="#165425" fill-opacity="0.05"/>
<path d="M1437.46 594.365C1438.7 597.21 1439.59 600.19 1440.11 603.225C1441.59 602.422 1442 600.277 1440.92 599.025C1441.98 599.921 1441.99 601.45 1442.24 602.78C1442.87 606.264 1445.78 609.277 1449.38 610.176C1449.93 609.154 1449.48 607.868 1448.7 606.984C1447.93 606.099 1446.88 605.474 1446 604.682C1444.35 603.186 1443.34 601.067 1443.25 598.902C1443.17 596.95 1443.54 594.475 1441.74 593.531C1441.43 594.377 1441.12 595.219 1440.81 596.065C1440.29 596.015 1439.95 595.53 1439.75 595.077C1438.51 592.246 1439.77 588.191 1436.95 586.135C1436.52 587.387 1435.68 588.692 1434.23 588.86C1434.2 590.887 1436.63 592.428 1437.46 594.365Z" fill="#165425" fill-opacity="0.05"/>
<path d="M1401.41 552.787C1403.47 553.622 1406.11 553.308 1407.67 554.837C1409.21 556.341 1408.88 558.898 1410.18 560.589C1410.79 561.387 1411.72 561.916 1412.39 562.672C1413.06 563.428 1413.42 564.621 1412.75 565.375C1411.9 566.315 1410.16 565.733 1409.51 564.663C1408.86 563.594 1408.92 562.286 1408.76 561.059C1408.6 559.833 1408.05 558.475 1406.82 558.077C1405.64 557.696 1404.07 558.29 1403.24 557.399C1402.96 557.103 1402.85 556.702 1402.7 556.33C1401.51 553.317 1397.45 551.827 1396.75 548.774C1398.37 549.953 1399.35 551.953 1401.41 552.787Z" fill="#165425" fill-opacity="0.05"/>
<path d="M1280.82 547.752C1278.75 549.423 1276.88 551.314 1275.24 553.377C1276.48 553.957 1278.11 553.649 1279.03 552.666C1279.95 551.683 1280.07 550.109 1279.31 549.009" fill="#165425" fill-opacity="0.05"/>
<path d="M1294.52 539.546C1295.73 540.417 1296.83 541.649 1296.87 543.097C1296.92 544.545 1295.41 546.026 1293.97 545.57C1294.25 543.494 1294.53 541.42 1294.81 539.347" fill="#165425" fill-opacity="0.05"/>
<path d="M1281.39 571.032C1280.32 568.898 1277.16 568.01 1275.04 569.248C1276.89 570.715 1277.07 573.709 1275.4 575.364C1274.55 576.209 1273.37 576.68 1272.4 577.394C1269.18 579.757 1269.04 585.008 1272.13 587.522C1270.64 588.259 1269.14 588.995 1267.65 589.735C1266.6 585.999 1263.59 582.81 1259.8 581.407C1254.64 584.481 1250.8 589.494 1249.3 595.103C1248.7 595.201 1248.1 595.302 1247.5 595.4C1247.23 597.058 1246.95 598.718 1246.68 600.376C1245.35 598.69 1244.81 596.464 1245.24 594.397C1242.12 594.985 1240.37 598.136 1239.51 601.042C1238.66 603.949 1238.14 607.167 1235.89 609.295C1234.24 610.855 1231.92 611.555 1229.7 612.204C1226.28 613.199 1222.87 614.195 1219.46 615.189C1216.64 616.01 1213.58 617.01 1212.06 619.407C1210.83 621.35 1210.04 624.456 1207.67 624.184C1206.67 624.069 1205.89 623.288 1204.91 623.053C1202.9 622.571 1201.1 624.68 1201.02 626.651C1200.93 628.623 1201.91 630.474 1202.45 632.381C1202.99 634.288 1202.94 636.637 1201.31 637.858C1203.2 637.967 1205.15 638.67 1206.27 640.129C1207.39 641.588 1207.39 643.867 1205.95 645.041C1204.51 646.214 1201.77 645.545 1201.44 643.767C1205.6 654.525 1208.53 665.707 1210.18 677.059C1210.86 681.699 1211.25 686.698 1208.88 690.806C1212.99 693.752 1219 694.06 1223.42 691.554C1225.9 690.148 1227.86 687.98 1230.46 686.776C1234.98 684.679 1240.46 685.894 1245.28 684.508C1249.69 683.24 1253.27 679.862 1257.81 679.104C1261.23 678.529 1265.05 679.473 1268.05 677.801C1269.46 677.012 1270.5 675.724 1271.86 674.855C1273.39 673.884 1275.25 673.489 1277.08 673.388C1284.36 672.993 1291.82 677.757 1293.46 684.508C1293.87 686.197 1293.95 687.972 1294.64 689.574C1295.34 691.176 1296.93 692.618 1298.75 692.464C1299.2 687.174 1304.49 682.688 1310.07 682.853C1310.34 684.556 1309.06 686.118 1307.69 687.25C1306.33 688.384 1304.74 689.411 1304.03 690.996C1303.32 692.581 1304.12 694.906 1305.92 695.029C1306.84 693.385 1308.1 691.915 1309.61 690.736C1312.45 693.139 1311.12 698.431 1307.44 699.344C1310.97 698.35 1315.97 698.017 1317.15 701.33C1317.48 702.268 1317.37 703.287 1317.47 704.273C1317.99 709.392 1323.63 712.385 1328.56 714.494C1329.56 714.922 1330.64 715.362 1331.72 715.188C1333.59 714.891 1334.58 713.012 1335.67 711.539C1336.75 710.066 1338.98 708.781 1340.4 709.966C1341.63 710.991 1341.12 713.015 1342.1 714.264C1343.42 715.955 1346.36 715.051 1347.81 713.455C1349.26 711.859 1350.11 709.719 1351.99 708.594C1355.48 706.502 1361.8 708.134 1362.83 704.34C1363.39 702.276 1361.57 700.375 1360.97 698.322C1360.04 695.11 1362.22 691.831 1364.73 689.504C1367.24 687.174 1370.26 685.166 1371.74 682.15C1374.23 677.11 1371.62 671.112 1372.62 665.626C1373.62 660.12 1378.21 654.646 1375.81 649.544C1374.87 647.541 1372.95 646.038 1372.16 643.979C1371.39 641.991 1371.71 639.577 1370.29 637.95C1369.39 636.92 1367.98 636.447 1366.83 635.662C1363.03 633.058 1362.93 627.855 1361.47 623.621C1358.83 615.909 1351.22 610.891 1345.95 604.506C1344.98 603.327 1344.07 602.059 1343.65 600.614C1343.16 598.934 1343.38 597.153 1343.24 595.417C1342.89 591.188 1340.21 587.198 1336.32 585.114C1335.47 584.661 1334.54 584.266 1333.95 583.532C1333.1 582.49 1333.15 581.057 1333.11 579.743C1332.94 574.795 1330.88 569.923 1327.38 566.249C1325.07 577.111 1322.76 587.971 1320.46 598.833C1319.12 599.802 1317.49 600.404 1315.81 600.547C1315.14 597.772 1314.47 594.997 1313.81 592.224C1310.51 592.384 1307.06 592.515 1304.1 591.129C1301.14 589.746 1298.97 586.293 1300.29 583.423C1301.02 581.855 1302.65 580.11 1301.58 578.738C1304.53 579.791 1307.1 575.24 1304.94 573.062C1301.54 569.631 1297.82 574.605 1294.32 574.426C1289.96 574.204 1286.07 568.419 1281.39 571.032Z" fill="#165425" fill-opacity="0.05"/>
<path d="M1344 740.398C1343.97 741.201 1343.95 742.181 1344.68 742.593C1344.97 742.758 1345.32 742.786 1345.66 742.809C1348.14 742.968 1351.28 742.655 1352.12 740.431C1352.8 738.645 1351.51 736.578 1352.21 734.797C1352.44 734.209 1352.86 733.716 1353.23 733.192C1354.13 731.887 1354.66 730.249 1354.22 728.743C1353.78 727.236 1352.16 726.004 1350.54 726.298C1349.65 726.46 1348.91 727.023 1348.03 727.242C1345.24 727.939 1337.22 722.252 1337.91 728.628C1338.13 730.627 1341.03 732.198 1342.1 733.828C1343.39 735.783 1344.07 738.093 1344 740.398Z" fill="#165425" fill-opacity="0.05"/>
<path d="M1436.56 751.565C1434.7 752.151 1432.65 752.405 1431.1 753.537C1429.54 754.668 1428.84 757.163 1430.36 758.339C1431.53 759.241 1433.27 758.874 1434.7 759.311C1437.92 760.288 1438.21 764.444 1437.88 767.636C1440.13 768.552 1442.58 766.679 1443.83 764.674C1445.07 762.669 1445.93 760.26 1448.01 759.034C1449.37 758.236 1451.15 758.017 1452.15 756.838C1453.57 755.178 1452.63 752.691 1453.16 750.613C1454.47 745.402 1462.37 744.948 1464.48 739.863C1465.94 736.329 1468.62 729.412 1464.22 728.684C1453.25 726.858 1446.07 748.575 1436.56 751.565Z" fill="#165425" fill-opacity="0.05"/>
<path d="M1471.11 732.319C1471.1 732.596 1471.11 732.89 1471.26 733.123C1471.65 733.702 1472.61 733.47 1473.17 733.036C1476.39 730.527 1474.44 725.173 1476.92 721.986C1477.73 720.933 1478.95 720.241 1480.03 719.429C1483.49 716.819 1485.62 712.683 1485.66 708.486C1484.07 709.309 1482.43 710.146 1480.64 710.384C1478.84 710.622 1476.82 710.141 1475.75 708.752C1474.43 707.044 1474.87 704.535 1473.62 702.779C1472.18 700.757 1469.07 700.468 1467.34 698.665C1465.75 697.01 1465.71 694.549 1465.35 692.336C1464.99 690.124 1463.79 687.604 1461.46 687.299C1456.84 692.334 1465.91 698.643 1467.09 702.938C1468.22 707.058 1465.98 708.211 1464.25 711.67C1462.44 715.268 1461.24 718.108 1464.83 720.905C1467.14 722.703 1469.04 719.961 1471.05 723.291C1472.21 725.206 1471.13 730.191 1471.11 732.319Z" fill="#165425" fill-opacity="0.05"/>
<path d="M1229.57 430.828C1229.31 431.531 1229.05 432.251 1229.07 432.996C1229.12 435.544 1232.21 437.275 1232.44 439.815C1232.53 440.825 1232.14 441.825 1232.14 442.839C1232.15 443.853 1232.8 445.026 1233.87 445.037C1234.79 445.046 1235.43 444.217 1236.09 443.603C1236.75 442.99 1237.97 442.598 1238.49 443.323C1238.72 443.645 1238.69 444.065 1238.66 444.452C1238.37 447.171 1237.59 449.84 1236.36 452.31C1237.9 452.892 1239.71 451.943 1240.56 450.593C1241.42 449.243 1241.56 447.605 1241.68 446.034C1241.73 445.253 1241.79 444.435 1241.46 443.715C1240.96 442.632 1239.72 442.055 1238.91 441.159C1237.41 439.492 1237.57 436.95 1238.41 434.903C1239.25 432.856 1240.67 431.055 1241.52 429.014C1241.74 428.482 1241.93 427.91 1241.84 427.345C1241.75 426.757 1241.38 426.253 1241.11 425.718C1240.43 424.396 1240.36 422.878 1240.06 421.436C1237.48 408.818 1230.37 428.613 1229.57 430.828Z" fill="#165425" fill-opacity="0.05"/>
<path d="M1254.95 450.474C1255.23 452.812 1254.2 455.26 1252.29 456.764C1251.86 457.102 1251.38 457.41 1251.12 457.875C1250.21 459.471 1252.32 460.992 1253.84 462.087C1258.63 465.526 1259.21 473.092 1255 477.153C1254.61 477.536 1254.17 477.9 1253.92 478.382C1253.68 478.855 1253.64 479.398 1253.64 479.925C1253.61 482.311 1254.06 484.702 1254.95 486.934C1252.46 488.119 1249.35 486.164 1248.4 483.677C1247.46 481.191 1248 478.446 1248.46 475.836C1248.63 474.868 1248.76 473.787 1248.18 472.972C1247.24 471.653 1244.97 471.924 1243.8 473.059C1242.62 474.193 1242.23 475.834 1241.76 477.36C1241.29 478.886 1240.6 480.51 1239.14 481.28C1238.02 475.971 1242.6 470.239 1248.28 469.835C1249.52 469.746 1250.84 469.863 1251.95 469.329C1253.06 468.791 1253.73 467.217 1252.81 466.416C1251.72 466.45 1251.29 465.078 1251.39 464.053C1251.49 463.028 1251.67 461.776 1250.79 461.169C1249.9 460.547 1248.58 461.191 1247.99 462.081C1247.39 462.972 1247.21 464.064 1246.63 464.963C1245.75 466.313 1243.96 467.069 1242.32 466.783C1242.23 464.434 1243.7 462.093 1245.92 461.051C1243.95 460.39 1241.92 459.32 1241.15 457.472C1240.38 455.624 1241.73 453.014 1243.81 453.174C1244.56 454.991 1245.3 456.808 1246.04 458.623C1247.66 459.583 1249.94 458.617 1250.88 457.041C1251.82 455.464 1251.75 453.529 1251.48 451.734C1253.59 452.759 1256.01 449.939 1255.14 447.847C1254.65 446.646 1253.48 445.814 1252.31 445.655C1253.64 446.935 1254.73 448.662 1254.95 450.474Z" fill="#165425" fill-opacity="0.05"/>
<path d="M939.073 103.021C940.507 102.049 939.417 99.6911 937.747 99.159C936.076 98.627 934.261 99.1478 932.5 99.1982C930.738 99.2486 928.614 98.4562 928.425 96.7928C928.369 96.2999 928.499 95.8043 928.702 95.3478C929.931 92.5727 933.398 91.4666 935.661 89.3608C939.185 86.0844 939.494 80.6939 942.584 77.0423C946.862 71.9933 954.944 71.7749 960.423 67.9105C962.144 66.6979 963.582 65.1382 965.37 64.0125C970.004 61.0974 976.014 61.5818 981.568 61.4418C988.845 61.257 996.084 59.7924 1002.81 57.1461C1001.38 63.556 993.311 65.9559 986.629 67.5576C982.134 68.6358 977.682 69.8847 973.289 71.296C967.7 73.091 962.106 75.2081 957.533 78.7477C952.961 82.29 949.49 87.4818 949.405 93.088C949.361 96.0311 953.064 102.391 951.01 104.67C948.6 107.35 941.712 104.141 939.073 103.021Z" fill="#165425" fill-opacity="0.05"/>
<path d="M1109.24 28.1762C1107.55 28.6887 1105.87 29.2011 1104.19 29.7136C1105.74 31.9874 1108.95 33.0991 1111.68 32.3038C1114.54 31.4721 1117.32 28.8147 1120 30.0664C1120.69 31.2901 1119.11 32.5055 1117.83 33.1719C1116.55 33.8384 1115.18 35.4206 1116.22 36.3951C1116.48 36.6303 1116.82 36.7507 1117.16 36.8543C1123.03 38.6465 1129.74 37.1231 1135.36 39.5454C1137.13 40.3071 1138.85 41.4692 1140.79 41.388C1142.73 41.3068 1144.55 38.9741 1143.21 37.6356C1142.34 36.7619 1140.55 36.7479 1140.2 35.5914C1139.56 33.466 1144.84 32.6091 1143.8 30.6265C1139.99 30.7385 1136.18 30.8505 1132.37 30.9625C1131.07 31.0017 1129.49 30.8813 1128.93 29.7724C1128.61 29.1451 1128.73 28.347 1128.3 27.787C1127.76 27.1037 1126.7 27.1205 1125.8 27.2073C1123.79 27.4005 1121.78 27.5937 1119.76 27.787C1124.17 27.3641 1129.94 25.1351 1134.36 24.1158C1128.5 17.8039 1111.54 18.5656 1109.24 28.1762Z" fill="#165425" fill-opacity="0.05"/>
<path d="M1162.49 37.3768C1162.4 35.0217 1158.97 33.9884 1156.73 34.9993C1154.5 36.0102 1153.15 38.172 1151.63 40.0342C1149.8 42.2661 1147.6 44.1815 1145.4 46.0857C1151.17 45.3772 1156.94 44.6687 1162.72 43.9631C1164.95 43.6886 1167.62 43.081 1168.29 41.0396C1166.05 39.589 1163.43 38.6733 1160.74 38.3905" fill="#165425" fill-opacity="0.05"/>
<path d="M1313.9 70.66C1314.63 70.2399 1315.31 69.6883 1316.13 69.4615C1319.42 68.5542 1322.24 73.1691 1325.57 72.4186C1326.98 72.1021 1327.97 70.8868 1329.33 70.3968C1332.49 69.2514 1336.02 72.399 1339.02 70.4584C1342.94 67.9297 1341.26 65.7623 1338.17 64.6197C1335.35 63.5696 1330.96 64.6757 1327.78 63.8076C1325.42 63.1636 1323.38 61.923 1321.14 61.0157C1315.89 58.8819 1307.57 55.3087 1304 61.7494C1300.78 67.5348 1307.91 74.0763 1313.9 70.66Z" fill="#165425" fill-opacity="0.05"/>
<path d="M1360.52 69.0836C1358.19 67.269 1355.48 65.8885 1352.6 65.0512C1352.19 64.9308 1351.77 64.8216 1351.34 64.8412C1349.81 64.9056 1348.84 66.7202 1349.33 68.1063C1349.82 69.4925 1351.33 70.3606 1352.84 70.6378C1354.35 70.9122 1355.9 70.7106 1357.44 70.6126C1360.66 70.4025 1363.92 70.649 1367.07 71.3435C1367.66 69.4252 1365.68 67.493 1363.59 67.227C1361.51 66.961 1359.47 67.8347 1357.57 68.6888" fill="#165425" fill-opacity="0.05"/>
<path d="M1330.86 80.2353C1329.07 79.4204 1327.15 78.8576 1325.19 78.5663C1324.15 78.4123 1322.62 78.8156 1322.87 79.7873C1322.98 80.2045 1323.41 80.4593 1323.81 80.6637C1326.5 82.0499 1329.36 83.1392 1332.31 83.9009C1333.67 84.2537 1335.56 84.2873 1336.02 83.0188C1336.34 82.1283 1335.66 81.193 1334.9 80.5965C1333.03 79.1432 1330.4 78.6335 1328.09 79.2748" fill="#165425" fill-opacity="0.05"/>
<path d="M756.996 40.0615C759.506 41.4645 762.555 41.7277 765.145 42.9906C768.179 44.4664 770.415 47.3451 771.008 50.5346C771.37 52.4892 771.19 54.6371 772.333 56.2976C773.992 58.7087 777.972 58.8795 780.391 57.1405C782.807 55.4016 783.811 52.3436 783.8 49.4621C783.788 47.1995 783.372 44.5728 785.081 42.9934C785.815 42.3158 786.814 41.9825 787.783 41.6745C789.677 41.0724 791.675 40.4844 793.646 40.8064C795.617 41.1256 797.52 42.6574 797.479 44.5588C797.429 46.8494 794.73 48.9749 795.796 51.0303C799.609 50.9799 803.424 50.9295 807.236 50.8791C808.556 49.6105 807.628 47.3283 806.07 46.3342C804.511 45.3401 802.558 45.1161 800.84 44.3936C799.125 43.6711 797.511 42.0245 797.991 40.2995C798.713 37.7009 802.599 38.0285 805.424 38.1237C812.955 38.3813 819.911 31.6326 819.478 24.4778C812.787 23.5061 809.481 30.4621 803.931 32.2795C799.344 33.7804 796.83 31.2434 792.629 31.6186C788.154 32.0191 787.09 34.7353 783.632 35.5222C778.258 36.7432 774.39 34.2145 768.827 33.5116C764.488 32.9599 745.626 33.7048 756.996 40.0615Z" fill="#165425" fill-opacity="0.05"/>
<path d="M689.558 9.69334C685.303 16.7025 678.094 22.0371 669.901 24.2381C666.039 25.277 661.743 25.7586 658.829 28.3797C657.023 30.0039 656.004 32.2414 655.035 34.4172C653.123 38.6961 651.178 43.1037 651.075 47.7494C650.969 52.3979 653.137 57.3993 657.539 59.4267C651.405 62.311 650.804 71.9524 656.537 75.506C654.198 81.0562 644.399 77.9563 639.774 82.0083C636.182 85.1586 637.573 90.8012 639.738 94.9681C641.904 99.1321 644.65 103.792 642.905 108.132C636.33 105.696 629.751 103.257 623.175 100.821C620.691 105.917 627.83 112.235 633 109.518C628.024 118.029 614.749 116.351 605.425 120.378C595.47 124.676 590.113 135.732 580.049 139.795C575.097 141.795 569.464 141.882 564.529 143.923C559.594 145.964 555.331 151.377 557.653 155.992C558.112 156.905 558.819 157.804 558.696 158.807C558.563 159.862 557.567 160.593 556.716 161.282C548.632 167.832 548.54 179.462 549.106 189.543C546.225 191.592 542.156 188.809 540.571 185.737C538.983 182.668 538.164 178.899 535.124 177.07C532.095 175.247 528.032 176.118 524.718 174.821C521.695 173.637 519.759 170.856 518.009 168.23C514.73 163.307 511.454 158.381 508.175 153.458C505.415 149.311 502.589 145.007 501.82 140.157C501.048 135.304 502.89 129.72 507.474 127.46C510.712 125.864 515.974 123.45 513.628 120.798C513.104 120.204 512.3 119.922 511.531 119.661C505.588 117.653 499.646 115.646 493.701 113.638C496.013 106.83 504.313 102.428 511.622 104.133C514.315 100.048 508.09 95.5617 503.019 95.6402C497.946 95.7186 492.292 97.4716 488.177 94.6517C492.007 89.5775 491.806 82.3919 488.722 76.8781C485.637 71.3643 480.081 67.3963 474.067 64.8761C471.386 63.7531 468.538 62.8766 465.609 62.8346C460.981 62.7702 456.547 64.7892 451.918 64.8172C445.366 64.8564 439.385 60.8184 435.629 55.7163C431.873 50.6141 429.949 44.5263 428.084 38.556C433.361 41.3283 440.319 41.4851 445.228 38.1528C450.136 34.8232 452.154 27.8113 448.949 22.9556C455.619 21.5358 462.292 20.116 468.962 18.6963C470.65 18.3379 472.373 17.9626 473.835 17.0861C475.703 15.9632 476.958 14.129 478.649 12.7821C481.892 10.2002 486.368 9.65132 490.572 9.20608C501.829 8.01595 513.089 6.82584 524.346 5.63571C526.509 5.40609 528.733 5.18206 530.837 5.71412C536.37 7.11427 541.387 13.4877 546.354 10.7771C546.552 8.70483 545.9 6.5682 544.563 4.92162C550.894 2.15492 558.21 3.00341 565.177 3.09862C579.219 3.29464 593.113 0.205921 607.151 0.00989967C620.927 -0.183321 634.739 2.45455 647.366 7.69111C643.141 10.4662 638.318 12.4124 633.283 13.3729C636.571 13.1769 639.903 13.7174 642.938 14.9327C640.519 13.9638 629.58 22.1687 627.839 23.6472C633.79 28.0437 646.868 18.9455 653.02 16.1564C664.666 10.8835 676.559 7.86754 689.558 9.69334Z" fill="#165425" fill-opacity="0.05"/>
<path d="M668.443 152.347C665.291 153.574 662.345 155.273 659.743 157.362C657.333 159.3 654.641 161.745 651.544 161.157C648.404 160.558 646.922 157.234 645.543 154.484C644.164 151.734 641.368 148.771 638.337 149.762C639.983 147.878 641.633 145.99 643.28 144.106C639.353 143.563 635.429 143.019 631.501 142.473C630.541 142.339 629.495 142.162 628.865 141.462C627.392 139.827 629.589 137.405 631.761 136.794C636.648 135.422 642.031 137.508 645.702 140.869C647.237 142.274 649.19 144.053 651.155 143.263C652.455 142.739 653.008 141.314 653.877 140.258C655.96 137.727 659.852 137.394 663.214 137.766C668.888 138.396 680.216 134.442 682.432 140.897C684.915 148.135 673.004 150.572 668.443 152.347Z" fill="#165425" fill-opacity="0.05"/>
<path d="M179.538 102.653C164.693 108.525 149.293 114.375 133.216 114.187C126.245 114.106 119.351 112.885 112.499 111.667C97.5999 109.021 82.5451 106.33 68.6835 100.502C64.9801 98.9454 61.2592 97.1421 57.217 96.9068C52.7006 96.6436 48.3374 98.3798 44.2835 100.29C31.998 106.083 20.7437 113.851 11.1452 123.165C21.1297 124.658 30.41 130.026 36.3937 137.769C31.6769 139.945 25.3161 137.945 22.8973 133.521C16.5631 131.773 9.18303 136.534 8.5555 142.776C7.92797 149.018 14.2268 155.021 20.7938 154.445C23.1242 151.507 26.7274 149.51 30.5662 149.034C32.3751 151.927 34.1811 154.823 35.99 157.715C32.8347 161.336 27.2871 161.711 22.4643 162.748C17.6414 163.786 12.2087 167.018 12.7656 171.689C13.6936 179.471 29.4142 180.129 28.7248 187.931C28.9576 185.282 61.4565 183.218 45.7388 200.952C43.2759 203.73 39.5726 205.741 35.7661 205.421C36.8238 208.266 36.5852 211.806 34.2282 213.831C31.8713 215.855 27.2518 215.124 26.5123 212.192C23.9933 217.309 17.0522 218.521 11.1393 219.076C10.4381 221.335 9.73691 223.598 9.03868 225.858C8.5614 223.038 4.64005 221.369 2.07985 222.864C-0.480354 224.36 -0.721925 228.375 1.60553 230.182C3.77095 231.862 6.92333 231.456 9.66914 230.96C10.6944 230.775 11.864 230.487 12.3059 229.591C12.577 229.039 12.4945 228.401 12.5151 227.79C12.6182 224.822 15.3523 222.47 18.2719 221.414C21.1945 220.361 24.3881 220.243 27.4315 219.568C32.4606 218.454 36.9976 215.833 41.0221 212.755C45.403 209.403 49.3449 205.435 54.3092 202.929C56.2124 201.969 58.2423 201.235 60.0748 200.157C73.5505 192.215 64.9566 178.466 84.8932 176.102C85.176 178.732 83.2757 181.423 80.6095 182.173C86.9967 186.659 93.985 172.535 101.468 175.066C103.578 175.78 104.942 177.687 106.754 178.933C110.115 181.243 114.608 181.081 118.739 181.414C135.196 182.744 150.206 194.343 154.938 209.384C162.135 207.365 168.128 214.673 171.71 220.941C177.626 231.288 183.539 241.638 189.455 251.985C193.211 258.554 197 265.21 198.953 272.455C201.743 282.816 200.621 293.835 203.228 304.238C205.836 314.641 214.264 325.226 225.513 324.944C227.337 341.244 232.357 357.217 240.244 371.796C236.399 375.503 242.586 381 247.845 382.453C253.104 383.907 260.03 387.612 257.732 392.339C263.937 385.777 256.038 375.881 248.481 370.754C240.927 365.626 232.059 357.136 236.788 349.541C239.366 347.072 243.879 349.953 245.093 353.235C246.307 356.517 246.198 360.404 248.634 362.997C250.77 365.268 254.226 365.842 256.984 367.396C266.977 373.036 264.879 389.059 274.552 395.184C278.084 397.421 282.73 397.942 285.791 400.734C287.992 402.742 289.014 405.609 290.452 408.163C295.531 417.188 305.748 422.299 315.379 426.883C318.187 428.219 320.995 429.555 323.805 430.893C339.888 438.546 355.971 446.2 372.054 453.853C373.601 454.589 375.386 455.34 376.995 454.735C383.606 452.248 370.104 441.072 375.719 436.931C367.821 433.31 359.922 429.692 352.023 426.071C356.952 421.887 357.606 413.918 353.417 409.059C356.328 408.404 358.744 406.06 359.368 403.279C355.889 399.84 349.522 402.686 346.821 406.704C344.119 410.725 343.032 415.78 339.39 419.062C331.147 426.491 316.561 418.608 313.373 408.244C310.185 397.88 313.833 386.895 315.049 376.158C315.541 371.821 315.927 366.878 319.539 364.187C327.8 358.038 339.965 371.006 349.549 366.951C353.22 365.4 355.382 361.686 358.838 359.743C364.798 356.394 372.903 359.499 377.03 364.784C381.158 370.068 382.316 376.864 383.353 383.372C385.303 386.413 390.724 383.053 390.421 379.502C390.117 375.951 387.038 373.294 385.009 370.3C379.823 362.658 382.174 351.289 390.017 346.08C396.988 341.449 408.472 339.637 408.922 331.566C409.214 326.349 403.999 322.073 403.784 316.851C403.596 312.256 407.255 308.43 410.67 305.174C420.321 295.963 429.97 286.753 439.621 277.543C441.887 275.381 444.627 273.048 447.817 273.39C451.008 273.732 452.785 278.744 449.75 279.738C461.128 280.156 476.375 277.546 477.288 266.759C472.692 270.59 467.239 273.485 461.396 275.196C460.789 270.061 462.374 264.718 465.718 260.64C461.482 253.698 451.341 251.789 443.28 254.177C435.22 256.566 428.759 262.214 422.59 267.694C431.855 257.302 444.256 248.596 458.491 247.014C463.853 246.418 469.601 246.773 474.265 244.189C480.755 240.593 486.498 231.534 493.038 235.046C488.262 243.01 483.487 250.974 478.714 258.938C483.864 258.574 489.013 258.21 494.16 257.846C496.252 261.24 497.272 265.219 497.059 269.145C503.358 268.728 512.026 264.782 509.212 259.408C507.783 256.678 504.051 255.992 501.57 254.06C494.753 248.75 500.062 237.84 496.647 230.117C494.938 226.256 491.211 223.615 487.8 220.957C473.311 209.669 461.953 194.786 455.168 178.188C453.512 182.128 451.695 186.273 448.112 188.804C444.53 191.336 438.614 191.375 436.254 187.774C434.961 185.797 435.034 183.307 434.362 181.07C432.836 176.001 427.742 172.792 423.017 170.031C417.284 166.679 410.528 163.201 404.167 165.29C397.807 167.379 396.331 178.264 402.98 179.266C396.787 179.479 396.991 188.625 400.52 193.467C404.052 198.309 409.017 204.338 405.632 209.272C402.629 213.646 395.022 213.217 392 217.577C389.086 221.781 392.253 227.196 394.469 231.769C396.684 236.342 396.625 243.533 391.431 244.511C386.994 245.345 383.777 240.459 382.946 236.233C381.641 229.579 382.563 222.366 379.293 216.356C376.023 210.344 365.52 207.513 362.229 213.514C360.423 207.398 355.208 202.296 348.83 200.403C343.645 198.863 337.873 199.331 332.947 197.146C325.582 193.881 322.276 185.828 319.645 178.519C329.262 173.293 339.508 167.41 343.792 157.704C344.944 155.091 345.698 152.165 347.875 150.23C349.835 148.488 352.622 147.867 354.802 146.38C356.982 144.893 358.372 141.622 356.413 139.88C359.239 138.239 362.691 137.606 365.956 138.127C371.539 145.327 354.419 157.592 362.479 162.204C366.825 164.691 371.521 159.583 373.766 155.262C377.278 156.609 380.79 157.953 384.301 159.3C388.83 155.803 383.512 149.116 378.324 146.576C373.136 144.036 366.566 139.463 369.167 134.498C373.81 134.42 378.453 134.338 383.097 134.26C383.388 130.046 380.445 125.814 376.25 124.417C378.639 120.914 381.031 117.408 383.421 113.905C381.249 111.631 377.726 110.612 374.588 111.345C383.989 110.029 393.169 107.299 401.681 103.283C408.648 110.841 415.204 118.744 421.314 126.943C422.295 128.259 423.303 129.704 423.267 131.314C423.188 134.834 418.713 136.338 415.478 138.057C412.243 139.774 410.289 145.229 413.881 146.1C413.389 148.704 409.276 148.679 406.963 147.211C404.651 145.741 402.523 143.434 399.745 143.585C394.492 143.873 395.355 152.678 400.382 154.165C405.408 155.652 410.543 152.568 414.809 149.639C424.628 158.06 436.333 164.481 448.916 168.348C443.84 167.343 440.14 162.109 441.08 157.262C446.972 158.875 452.584 161.406 457.625 164.725C461.906 159.774 456.42 152.582 450.811 149.032C445.198 145.481 438.172 141.084 439.056 134.73C446.418 134.557 453.722 138.55 457.269 144.683C460.059 140.914 462.852 137.142 465.642 133.37C462.483 123.451 442.355 126.489 440.258 116.319C439.854 114.356 440.261 112.104 438.967 110.527C436.955 108.074 432.934 109.276 429.663 109.181C418.221 108.842 411.294 90.6257 400.732 94.829C405.145 86.9714 392.592 77.0247 385.253 82.5637C389.286 83.9863 393.67 85.966 395.137 89.8081C396.608 93.6501 392.324 98.9034 388.57 96.9012C384.779 94.8766 386.588 89.1668 384.496 85.5432C381.95 81.1299 374.279 82.0093 371.194 86.1005C368.109 90.1917 368.495 95.7671 369.73 100.662C367.181 100.603 364.633 100.542 362.088 100.483C361.528 93.6333 362.93 86.6493 366.103 80.4747C363.116 76.2406 356.331 80.3067 353.046 84.3363C349.593 88.5703 346.034 93.0144 344.959 98.2706C343.88 103.53 346.14 109.822 351.411 111.715C354.793 112.93 358.699 112.154 362.064 113.415C369.759 116.296 366.728 129.948 358.461 129.628C355.906 125.638 354.413 121.043 354.154 116.377C350.17 117.486 346.458 119.458 343.374 122.098C339.334 112.619 333.713 103.751 326.787 95.9268C328.434 92.8996 330.081 89.8725 331.727 86.8453C338.356 89.6036 346.853 82.8549 345.18 76.1622C339.67 74.6949 333.881 73.2163 328.301 74.4148C322.718 75.6106 317.556 80.4607 318.334 85.8484C318.803 89.08 321.216 91.7627 322.105 94.913C322.998 98.0634 321.006 102.465 317.618 101.936C315.851 109.592 332.918 109.774 333.681 117.581C334.217 123.056 326.401 125.209 320.618 125.134C322.309 130.41 322.046 136.231 319.89 141.35C315.55 133.61 317.925 123.048 325.211 117.665C320.836 111.275 310.721 109.262 304.016 113.445C306.523 117.089 310.495 119.796 314.926 120.886C312.586 123.465 310.247 126.041 307.908 128.62C302.84 125.156 295.899 127.875 289.668 128.214C283.437 128.553 275.863 122.012 280.264 117.805C276.517 115.649 271.435 114.916 267.873 117.341C264.314 119.766 264.016 125.926 267.987 127.682C259.709 129.704 245.986 115.232 239.996 126.321C236.246 115.042 230.215 111.678 218.333 111.099C210.449 110.715 187.066 105.165 183.041 111.466C182.685 110.665 179.382 102.717 179.538 102.653Z" fill="#165425" fill-opacity="0.05"/>
<path d="M201.449 73.0628C196.962 73.5193 194.46 78.3022 193.886 82.5558C193.311 86.8095 193.747 91.3796 191.544 95.1236C190.999 96.0477 190.291 96.927 190.118 97.9715C189.617 100.962 193.7 102.875 196.847 102.399C206.015 101.007 211.772 89.0974 220.926 90.5787C221.017 92.9142 221.108 95.2496 221.197 97.5851C227.224 97.6355 233.261 96.8038 239.027 95.1348C240.783 96.2157 239.799 99.0524 237.925 99.9345C236.051 100.817 233.833 100.52 231.753 100.702C229.67 100.884 227.298 101.956 227.074 103.933C231.099 102.824 235.309 101.704 239.424 102.452C243.54 103.2 247.479 106.454 247.344 110.433C241.507 110.184 235.647 110.385 229.847 111.038C233.04 114.642 238.835 114.216 243.767 114.723C248.696 115.23 254.55 118.985 252.809 123.398C259.488 116.708 270.63 114.465 279.589 118.005C281.828 118.89 283.953 120.102 286.33 120.556C288.708 121.01 291.518 120.489 292.847 118.562C294.176 116.635 292.853 113.362 290.431 113.438C293.572 113.026 296.326 110.651 297.06 107.719C291.657 109.388 285.155 106.543 282.974 101.559C280.998 97.0362 282.17 91.2228 278.626 87.6692C281.716 88.5541 284.795 85.0565 284.047 82.0714C283.299 79.0863 279.916 77.2185 276.687 77.1429C274.56 77.0925 272.286 77.7645 271.031 79.3971C269.776 81.0297 270.008 83.7067 271.85 84.7149C269.36 83.5639 266.874 82.4102 264.384 81.2593C263.394 87.0503 275.367 90.5059 272.56 95.7313C270.769 99.0608 264.676 96.9606 263.954 93.2838C263.48 90.8644 264.066 87.644 261.736 86.5743C257.29 84.5328 254.046 94.8968 249.798 92.5081C250.066 90.1839 250.334 87.8596 250.599 85.5353C245.122 85.1209 239.495 86.9999 235.497 90.5815C235.995 88.33 236.49 86.0786 236.988 83.8244C231.049 80.6908 225.156 91.7912 218.74 89.6826C224.915 91.7128 238.732 80.2484 227.864 75.3955C225.259 74.2305 219.821 76.0479 216.928 75.8547C211.843 75.5075 206.554 72.5448 201.449 73.0628Z" fill="#165425" fill-opacity="0.05"/>
<path d="M228.447 49.0324C224.232 47.0302 219.102 49.2032 215.529 52.1212C211.952 55.0391 208.979 58.7803 204.707 60.6733C202.686 61.5694 200.297 62.121 199.045 63.8768C206.139 63.7844 213.228 63.328 220.272 62.5103C219.874 64.7869 218.675 66.9263 216.907 68.5085C220.207 69.6538 222.956 65.7054 223.407 62.3955C223.548 61.3649 223.678 60.2 224.541 59.5643C225.233 59.0519 226.185 59.0491 227.051 58.9147C230.038 58.4582 232.666 55.7643 232.301 52.908C231.936 50.0517 227.991 48.0439 225.554 49.7493" fill="#165425" fill-opacity="0.05"/>
<path d="M250.602 67.8074C251.471 67.3649 251.949 66.3232 251.695 65.4159C247.288 65.5531 243.09 62.0724 242.633 57.9055C240.123 56.3821 236.287 57.5667 235.2 60.2017C234.113 62.8368 236.078 66.1832 239.006 66.69C234.734 68.4262 230.462 70.1624 226.19 71.8986C234.348 76.0794 244.032 66.9757 253.101 68.8015C253.098 69.8432 253.092 70.8849 253.089 71.9266C249.176 71.9714 245.32 73.688 242.774 76.5135C249.527 77.0848 256.459 75.4802 262.178 72.0218C263.795 71.0445 265.401 69.8908 267.298 69.6359C268.966 69.4119 270.63 69.9132 272.298 70.1372C276.24 70.6665 281.239 68.5438 281.098 64.7606C278.437 63.9149 275.597 63.5845 272.801 63.7973C271.944 58.8828 265.483 55.6933 260.761 57.8579C260.84 61.2434 262.499 64.5702 265.212 66.7656C262.531 68.9947 258.342 69.3979 255.245 67.7205C253.775 66.9253 252.423 65.6791 250.732 65.6707C248.917 65.6623 246.557 66.9085 245.635 65.4215" fill="#165425" fill-opacity="0.05"/>
<path d="M255.684 43.2677C249.032 42.5144 242.162 43.6009 236.125 46.3592C239.386 47.7594 242.651 49.1567 245.912 50.5569C246.655 50.8761 247.426 51.2009 248.242 51.1869C248.961 51.1757 249.645 50.9013 250.308 50.6297C253.451 49.3443 256.598 48.0618 259.741 46.7764C259.196 46.0176 258.651 45.2615 258.106 44.5026C259.509 45.4071 261.627 44.091 261.718 42.4836C261.81 40.8734 260.384 39.4621 258.763 38.9832C257.143 38.5072 255.39 38.7676 253.74 39.14C251.822 39.5741 249.939 40.1565 248.119 40.8762C249.076 42.786 250.968 44.2478 253.127 44.749C253.163 45.5023 253.198 46.2556 253.23 47.0117" fill="#165425" fill-opacity="0.05"/>
<path d="M302.19 44.2148C300.743 44.2848 299.883 42.6522 299.818 41.2773C299.753 39.9024 300.066 38.421 299.353 37.2225C297.597 34.2766 292.842 36.458 289.324 35.9203C287.232 35.6011 285.512 34.2121 283.526 33.5121C281.54 32.8092 278.724 33.204 278.152 35.1418C277.513 37.3121 280.306 39.0539 282.675 39.0987C285.043 39.1435 287.486 38.3426 289.737 39.0539C290.158 39.1883 290.576 39.3843 290.841 39.7203C292.512 41.843 286.502 43.3943 287.056 45.993C287.329 47.2699 289.012 47.6704 290.373 47.8076C292.397 48.0148 294.421 48.2192 296.445 48.4265C298.551 48.6421 300.885 48.7989 302.579 47.592C304.273 46.3822 304.314 43.2543 302.258 42.7671" fill="#165425" fill-opacity="0.05"/>
<path d="M312.898 64.52C314.08 63.2094 313.358 61.0252 311.879 60.0199C310.4 59.0146 308.47 58.8886 306.655 58.8774C301.355 58.8438 296.049 59.4934 290.932 60.7984C289.347 61.2044 287.7 61.6749 286.094 61.35C284.489 61.0252 283.001 59.569 283.36 58.0485C281.165 60.3923 283.805 64.2875 286.993 65.0968C290.181 65.9061 293.557 64.9708 296.851 65.1388C300.145 65.3069 303.921 67.4603 303.574 70.5798C303.491 71.3247 303.179 72.106 303.5 72.7892C303.886 73.6041 304.985 73.8506 305.925 73.8085C310.312 73.6125 313.667 68.698 312.071 64.8112C311.016 64.968 309.89 64.3855 309.451 63.4614C311.375 62.7418 312.881 61.084 313.346 59.1686C309.767 57.8832 305.595 58.1913 302.266 59.9863" fill="#165425" fill-opacity="0.05"/>
<path d="M311.036 81.7738C312.86 80.5137 311.655 77.4165 309.493 76.8089C307.33 76.2012 305.047 77.2905 303.262 78.5982C303.15 80.3596 303.035 82.121 302.923 83.8852C300.784 83.454 298.468 83.8824 296.653 85.0445C299.815 85.8482 302.41 88.4077 303.132 91.4432C300.124 93.4034 295.357 92.0285 294.005 88.8081C293.377 87.31 293.15 85.2966 291.539 84.8009C289.258 84.098 287.927 87.5312 288.979 89.5782C291.763 94.9912 300.239 94.6384 304.97 98.6484C306.67 100.091 309.251 102.149 310.695 100.471C311.841 99.1384 310.35 97.251 308.962 96.1421C310.639 96.3437 312.421 96.4894 313.941 95.7921C315.462 95.0948 316.516 93.2326 315.691 91.8325C315.264 91.1044 314.457 90.6703 313.773 90.1467C311.266 88.2257 310.356 84.6413 311.667 81.8438C310.762 81.4825 309.861 81.1185 308.956 80.7573" fill="#165425" fill-opacity="0.05"/>
<path d="M394.059 67.4146C388.331 64.1438 381.225 63.1357 374.744 64.6731C370.059 65.7848 365.681 68.1595 360.864 68.4815C353.823 68.9492 347.088 64.7515 343.249 59.1229C348.585 55.6477 356.389 62.4637 362.01 59.4253C363.631 58.5488 364.756 56.9583 366.459 56.2414C368.197 55.5077 370.204 55.8129 372.074 56.1322C381.078 57.6639 390.084 59.1985 399.088 60.7303C400.148 57.0703 396.857 52.8866 392.862 52.8166C397.579 51.0104 402.299 49.2042 407.016 47.398C409.396 46.4879 411.945 45.4406 413.241 43.3348C414.537 41.229 413.618 37.8154 411.073 37.5102C421.935 33.9174 432.459 29.4033 442.482 24.0351C441.474 22.3774 440.463 20.7196 439.456 19.0618C446.423 19.7451 453.644 17.7176 459.107 13.548C451.285 12.9347 443.351 13.6404 435.785 15.6202C448.798 17.18 462.271 15.0994 474.097 9.70599C469.848 6.18601 462.115 10.7673 457.931 7.18011C456.676 6.1048 456.054 4.48063 454.776 3.43052C453.203 2.13958 450.966 1.96035 448.892 1.85394C427.656 0.773026 406.329 1.34429 385.191 3.56213C381.702 3.92897 377.304 5.2087 377.103 8.53826C372.042 8.33944 366.981 8.14063 361.919 7.9418C358.278 12.6043 351.107 14.4133 345.512 12.0834C344.248 13.9904 342.981 15.8975 341.717 17.8073C345.253 20.1231 349.672 21.1872 353.941 20.756C356.551 25.8665 365.007 26.9867 368.99 22.747C370.76 28.538 379.87 27.4515 385.276 24.2927C390.679 21.134 397.62 17.1016 402.682 20.7364C395.959 25.6817 387.341 28.244 378.854 27.8239C380.981 30.2574 383.105 32.6881 385.232 35.1215C380.017 35.4296 375.392 32.2764 370.828 29.8541C366.268 27.4319 360.287 25.7293 356.071 28.664C359.883 31.6183 363.693 34.5755 367.505 37.5298C357.002 32.2736 346.502 27.0146 335.999 21.7557C332.92 20.2155 329.361 18.6333 326.1 19.7843C322.838 20.9352 321.857 26.351 325.213 27.2219C322.612 27.6755 320.369 29.6469 319.698 32.0804C325.92 32.5564 332.039 34.2002 337.602 36.8913C334.982 37.6894 332.366 38.4903 329.747 39.2884C335.728 41.1394 341.708 42.9904 347.689 44.8442C348.909 45.2222 350.299 45.5862 351.422 44.9982C352.55 44.4045 352.957 43.0912 353.587 42.0187C355.467 38.8179 360.293 37.5858 363.604 39.462C362.844 41.1786 362.087 42.8952 361.327 44.6089C364.152 44.6257 366.978 44.6397 369.803 44.6565C369.85 46.1295 369.897 47.6053 369.944 49.0782C374.042 49.6803 378.255 49.5683 382.312 48.7506C380.827 53.9731 372.852 54.4324 367.879 51.8029C362.906 49.1734 358.985 44.6677 353.508 43.1948C355.255 47.0788 358.054 50.5316 361.563 53.1275C354.256 52.0101 346.652 52.699 339.699 55.1129C339.019 53.7211 338.341 52.3266 337.66 50.9348C331.942 53.189 332.805 61.0551 334.667 66.6641C335.215 68.3107 335.787 70.0021 336.936 71.3406C339.54 74.3733 344.192 74.7234 348.311 74.8382C354.507 75.0062 360.702 75.177 366.898 75.345C375.518 75.5719 394.392 79.4251 394.059 67.4146Z" fill="#165425" fill-opacity="0.05"/>
<path d="M326.097 61.0851C327.794 59.9705 330.867 60.9114 331.65 59.0997C332.24 57.7331 330.705 56.4338 329.352 55.7085C327.997 54.986 326.386 53.8631 326.757 52.4293C325.549 52.5918 324.285 52.3425 323.245 51.7405C325.835 51.0936 328.424 50.4439 331.014 49.7971C332.001 49.5506 333.253 48.7021 332.67 47.9068C332.469 47.6352 332.11 47.5176 331.771 47.4364C330.166 47.0444 328.418 46.994 327.01 46.1651C325.602 45.3362 324.812 43.2556 326.041 42.1971C325.154 42.1214 324.264 42.0458 323.378 41.9702C323.339 41.2982 323.301 40.6289 323.263 39.9596C318.673 39.842 314.085 39.4864 309.537 38.8927C308.871 41.8106 311.826 44.9217 314.949 44.5913C315.452 44.5381 316.012 44.4233 316.431 44.6977C316.802 44.9413 316.914 45.4062 317.108 45.7926C317.694 46.9492 319.318 47.5064 320.546 46.9716C320.187 47.8144 319.577 48.5565 318.808 49.097C320.29 49.8447 321.919 50.3319 323.587 50.5195C322.273 51.5109 320.717 52.2109 319.079 52.5498C319.754 53.0706 320.431 53.5915 321.106 54.1123C319.374 54.1459 317.641 54.1767 315.909 54.2103C315.382 55.7589 316.97 57.2459 318.561 57.8479C320.322 58.5116 328.893 63.7006 323.752 66.0136C320.832 67.3269 319.609 62.7484 320.641 60.9983C322.273 64.5854 321.775 69.5868 324.636 72.7259C326.721 75.0138 329.897 75.4394 331.924 72.4207C335.436 67.1981 326.948 65.63 326.097 61.0851Z" fill="#165425" fill-opacity="0.05"/>
<path d="M377.413 465.062C375.378 470.248 381.942 476.305 387.336 474.213C388.892 473.611 390.247 472.513 391.902 472.239C396.537 471.469 399.2 477.011 400.181 481.385C401.304 486.389 402.4 491.735 400.437 496.498C398.086 502.208 391.652 506.195 390.898 512.283C390.282 517.259 393.735 522.395 391.964 527.114C391.16 529.253 389.369 530.953 388.526 533.081C387.015 536.892 388.818 541.098 390.594 544.806C396.498 557.13 402.403 569.454 408.307 581.775C409.635 584.548 411.058 587.435 413.607 589.283C415.634 590.753 418.182 591.417 420.33 592.719C423.842 594.847 425.986 598.46 427.993 601.926C431.702 608.339 435.458 614.869 437.043 622.03C439.206 631.797 437.17 641.912 435.134 651.704C432.159 666.022 429.18 680.34 426.204 694.661C422.928 710.413 419.655 726.167 416.379 741.919C419.882 739.9 422.484 736.514 423.438 732.728C425.109 742.972 422.984 753.736 417.519 762.706C417.045 758.838 416.571 754.971 416.096 751.104C412.089 759.323 410.021 768.39 410.083 777.449C410.095 779.079 410.242 780.866 411.433 782.039C412.564 783.153 414.317 783.4 415.76 784.117C418.895 785.676 420.239 789.821 418.571 792.786C420.23 793.151 421.888 793.514 423.544 793.879C426.113 795.811 420.05 798.519 420.076 801.633C420.085 802.898 421.167 803.892 422.165 804.73C426.856 808.659 431.546 812.587 436.236 816.513C439.503 817.432 442.9 818.359 446.268 817.86C449.632 817.362 452.953 815.001 453.265 811.778C453.692 807.351 448.849 804.394 445.717 801.092C440.856 795.968 439.671 788.429 440.897 781.627C442.123 774.825 445.455 768.558 448.745 762.409C446.618 761.647 444.491 760.885 442.364 760.126C442.52 755.584 447.396 752.767 450.478 749.292C456.078 742.977 455.463 732.524 449.155 726.842C451.488 725.28 453.822 723.717 456.155 722.154C458.07 725.061 459.985 727.971 461.9 730.877C466.688 727.226 468.479 720.435 466.075 715.07C476.922 717.713 489.178 709.265 489.906 698.646C487.222 698.559 485.101 695.627 485.976 693.213C486.851 690.799 490.422 689.733 492.593 691.236C491.397 694.185 494.938 697.403 498.238 697.016C501.538 696.63 504.006 693.813 505.117 690.833C506.228 687.854 506.322 684.633 506.941 681.528C507.928 676.546 510.302 671.819 513.752 667.952C516.622 664.737 520.293 661.998 521.966 658.095C523.192 655.236 523.201 652.063 523.719 649.016C525.416 639.075 533.126 630.271 543.105 626.88C543.517 631.324 550.9 630.405 554.362 627.395C559.535 622.895 563.027 616.681 564.084 610.092C565.012 604.309 564.19 598.07 567.069 592.904C568.288 590.717 570.133 588.81 570.831 586.427C571.429 584.382 571.114 582.212 571.232 580.095C571.862 568.723 584.681 559.745 583.187 548.449C582.218 541.112 575.504 535.859 569.299 531.398C559.821 524.588 549.745 517.539 537.955 516.142C530.469 515.254 522.411 516.66 515.682 513.42C518.675 513.246 520.799 510.275 520.95 507.43C521.1 504.582 519.807 501.866 518.537 499.284C517.68 497.54 516.825 495.792 515.968 494.048C512.491 486.96 506.791 478.64 498.647 479.752C496.223 480.083 493.568 481.239 491.503 479.987C489.612 478.839 489.402 476.341 488.377 474.446C484.359 467.019 469.142 470.049 466.835 461.99C466.234 459.89 466.735 457.347 465.147 455.779C463.859 454.507 461.765 454.485 459.908 454.552C451.491 454.846 443.071 455.14 434.654 455.437C434.371 458.576 432.215 461.502 429.207 462.824C429.646 464.667 430.085 466.507 430.524 468.349C429.834 471.623 424.048 471.222 422.534 468.209C421.019 465.199 422.481 461.626 424.26 458.747C426.04 455.871 428.22 452.939 428.173 449.601C424.351 447.868 420.486 451.643 417.728 454.695C414.971 457.747 409.568 460.396 407.04 457.168C407.364 460.489 407.691 463.813 408.015 467.134C402.588 471.637 392.81 469.668 389.769 463.46C387.672 465.924 385.365 468.523 382.154 469.383C378.942 470.242 374.741 468.327 374.753 465.157C376.394 472.012 383.527 477.291 390.921 477.123" fill="#165425" fill-opacity="0.05"/>
<path d="M369.765 399.378C372.337 401.84 376.311 398.135 379.932 397.707C383.429 397.292 386.299 400.087 388.921 402.321C391.543 404.559 395.638 406.438 398.366 404.318C399.674 409.501 407.255 412.089 411.733 408.88C411.326 410.708 413.86 411.96 415.799 411.638C417.737 411.316 419.467 410.154 421.426 410.019C424.26 409.823 426.997 412.212 427.035 414.914C427.097 415.903 425.639 416.267 424.631 416.018C423.624 415.768 422.504 415.273 421.614 415.791C420.99 416.155 420.748 416.891 420.312 417.451C418.733 419.496 415.413 418.717 412.891 417.888C410.369 417.059 406.781 416.824 405.82 419.188C413.739 420.675 421.986 420.56 429.855 418.849C429.207 419.437 429.684 420.574 430.503 420.921C431.322 421.265 432.268 421.072 433.137 420.873C436.495 420.106 439.854 419.339 443.216 418.569C445.237 419.734 447.938 419.742 449.968 418.588C449.83 419.465 449.688 420.344 449.55 421.221C453.495 422.845 458.586 421.291 460.798 417.787C455.209 416.908 449.621 416.029 444.035 415.15C440.025 414.52 435.912 413.853 432.412 411.893C428.959 409.961 426.216 406.833 422.404 405.657C417.083 404.016 410.973 406.589 405.799 404.567C400.791 402.607 397.639 396.682 392.224 396.586C390.465 396.556 388.606 397.174 387.006 396.477C382.952 394.707 383.485 391.053 378.232 392.957C377.242 393.318 370.649 400.224 369.765 399.378Z" fill="#165425" fill-opacity="0.05"/>
<path d="M818.7 298.645C816.148 303.641 814.991 309.202 815.995 314.663C817.722 324.069 825.402 332.764 823.237 342.095C819.887 341.263 816.537 340.429 813.188 339.622" fill="#165425" fill-opacity="0.05"/>
<path d="M854.695 172.754C854.489 173.342 854.233 173.905 853.974 174.468L854.695 172.754Z" fill="#165425" fill-opacity="0.05"/>
<path d="M855.341 169.031C855.291 166.777 854.283 164.671 852.739 162.907L855.341 169.031Z" fill="#165425" fill-opacity="0.05"/>
</svg>
