<svg width="397" height="256" viewBox="0 0 397 256" fill="none" xmlns="http://www.w3.org/2000/svg">
<g style="mix-blend-mode:multiply" opacity="0.3">
<path d="M202.24 255.55C309.803 255.55 397 246.153 397 234.56C397 222.968 309.803 213.57 202.24 213.57C94.6775 213.57 7.48047 222.968 7.48047 234.56C7.48047 246.153 94.6775 255.55 202.24 255.55Z" fill="#98CBCE"/>
</g>
<path d="M57.77 221.98C57.77 221.98 49.46 156.58 100.53 119.84C100.53 119.84 123.88 191.81 57.77 221.98Z" fill="#1B9367"/>
<path d="M100.52 119.84C100.52 119.84 72.5103 211.91 57.7603 221.98C123.87 191.81 100.52 119.84 100.52 119.84Z" fill="#26D192"/>
<path d="M53.2803 221.43C53.2803 221.43 96.9503 171.07 142.59 181.9C142.59 181.9 115.21 232.04 53.2803 221.43Z" fill="#1B9367"/>
<path d="M142.59 181.9C142.59 181.9 64.6703 221.05 53.2803 221.43C115.21 232.04 142.59 181.9 142.59 181.9Z" fill="#26D192"/>
<path d="M65.5502 221.36C65.5502 221.36 23.9902 238.12 -0.00976562 217.66C-0.00976562 217.66 31.7302 196.04 65.5502 221.36Z" fill="#1B9367"/>
<path d="M-0.00976562 217.66C-0.00976562 217.66 58.6102 218.09 65.5502 221.36C31.7402 196.05 -0.00976562 217.66 -0.00976562 217.66Z" fill="#26D192"/>
<path d="M59.1504 225.07C59.1504 225.07 0.0604118 172.87 1.94041 126.79C1.94041 126.79 66.5504 148.08 59.1504 225.07Z" fill="#1B9367"/>
<path d="M1.94043 126.79C1.94043 126.79 38.4704 163.06 59.1504 225.07C66.5504 148.08 1.94043 126.79 1.94043 126.79Z" fill="#26D192"/>
<path d="M340.271 209.96C340.271 209.96 331.96 144.56 383.03 107.82C383.03 107.82 406.381 179.79 340.271 209.96Z" fill="#1B9367"/>
<path d="M383.03 107.83C383.03 107.83 355.021 199.9 340.271 209.97C406.381 179.8 383.03 107.83 383.03 107.83Z" fill="#26D192"/>
<path d="M348.26 209.34C348.26 209.34 290.57 205.96 273.86 168.88C273.86 168.88 322.79 161.18 348.26 209.34Z" fill="#1B9367"/>
<path d="M273.86 168.89C273.86 168.89 341.97 201.72 348.26 209.35C322.8 161.19 273.86 168.89 273.86 168.89Z" fill="#26D192"/>
<path d="M332.031 211.69C332.031 211.69 286.371 142.46 300.941 96.1799C300.941 96.1799 360.691 135.54 332.031 211.69Z" fill="#1B9367"/>
<path d="M300.94 96.1799C300.94 96.1799 328.07 143.05 332.03 211.69C360.69 135.55 300.94 96.1799 300.94 96.1799Z" fill="#26D192"/>
<path d="M370.76 212.91L353.82 201.71V65.44C353.82 47.71 339.39 33.28 321.66 33.28H293.62C275.89 33.28 261.46 47.71 261.46 65.44V203.97C261.46 221.7 275.89 236.13 293.62 236.13H321.66C330.79 236.13 339.04 232.3 344.9 226.16L356.79 234.02C358.94 235.44 361.36 236.12 363.76 236.12C367.87 236.12 371.9 234.12 374.33 230.44C378.19 224.61 376.59 216.75 370.75 212.9L370.76 212.91ZM321.66 210.81H293.62C289.85 210.81 286.78 207.74 286.78 203.97V65.44C286.78 61.67 289.85 58.6 293.62 58.6H321.66C325.43 58.6 328.5 61.67 328.5 65.44V184.96L324.32 182.2C318.49 178.34 310.63 179.94 306.78 185.78C302.92 191.61 304.52 199.47 310.36 203.32L321.68 210.81C321.68 210.81 321.68 210.81 321.67 210.81H321.66Z" fill="#DF9813"/>
<path d="M84.6502 58.6H130.07C137.06 58.6 142.73 52.93 142.73 45.94C142.73 38.95 137.06 33.28 130.07 33.28H84.6502C66.3702 33.28 51.4902 48.16 51.4902 66.44V223.47C51.4902 230.46 57.1602 236.13 64.1502 236.13C71.1402 236.13 76.8102 230.46 76.8102 223.47V109.2H130.07C137.06 109.2 142.73 103.53 142.73 96.54C142.73 89.55 137.06 83.88 130.07 83.88H76.8102V66.45C76.8102 62.13 80.3302 58.61 84.6502 58.61V58.6Z" fill="#DF9813"/>
<path d="M211.29 33.28H185.04C166.35 33.28 151.14 48.49 151.14 67.18V223.47C151.14 230.46 156.81 236.13 163.8 236.13C170.79 236.13 176.46 230.46 176.46 223.47V109.2H219.87V223.47C219.87 230.46 225.54 236.13 232.53 236.13C239.52 236.13 245.19 230.46 245.19 223.47V67.18C245.19 48.49 229.98 33.28 211.29 33.28ZM176.45 83.87V67.18C176.45 62.45 180.3 58.6 185.03 58.6H211.28C216.01 58.6 219.86 62.45 219.86 67.18V83.87H176.45Z" fill="#DF9813"/>
<path d="M375.171 209.71L358.231 198.51V62.2401C358.231 44.5101 343.801 30.0801 326.071 30.0801H298.031C280.301 30.0801 265.871 44.5101 265.871 62.2401V200.77C265.871 218.5 280.301 232.93 298.031 232.93H326.071C335.201 232.93 343.451 229.1 349.311 222.96L361.201 230.82C363.351 232.24 365.771 232.92 368.171 232.92C372.281 232.92 376.311 230.92 378.741 227.24C382.601 221.41 381.001 213.55 375.161 209.7L375.171 209.71ZM326.071 207.61H298.031C294.261 207.61 291.191 204.54 291.191 200.77V62.2401C291.191 58.4701 294.261 55.4001 298.031 55.4001H326.071C329.841 55.4001 332.911 58.4701 332.911 62.2401V181.76L328.731 179C322.901 175.14 315.041 176.74 311.191 182.58C307.331 188.41 308.931 196.27 314.771 200.12L326.091 207.61C326.091 207.61 326.091 207.61 326.081 207.61H326.071Z" fill="#FCCC6B"/>
<path d="M89.0604 55.4101H134.48C141.47 55.4101 147.14 49.7401 147.14 42.7501C147.14 35.7601 141.47 30.0901 134.48 30.0901H89.0604C70.7804 30.0901 55.9004 44.9701 55.9004 63.2501V220.28C55.9004 227.27 61.5704 232.94 68.5604 232.94C75.5504 232.94 81.2204 227.27 81.2204 220.28V106.01H134.48C141.47 106.01 147.14 100.34 147.14 93.3501C147.14 86.3601 141.47 80.6901 134.48 80.6901H81.2204V63.2601C81.2204 58.9401 84.7404 55.4201 89.0604 55.4201V55.4101Z" fill="#FCCC6B"/>
<path d="M215.7 30.0801H189.45C170.76 30.0801 155.55 45.2901 155.55 63.9801V220.27C155.55 227.26 161.22 232.93 168.21 232.93C175.2 232.93 180.87 227.26 180.87 220.27V106H224.28V220.27C224.28 227.26 229.95 232.93 236.94 232.93C243.93 232.93 249.6 227.26 249.6 220.27V63.9901C249.6 45.3001 234.39 30.0901 215.7 30.0901V30.0801ZM180.87 80.6801V63.9901C180.87 59.2601 184.72 55.4101 189.45 55.4101H215.7C220.43 55.4101 224.28 59.2601 224.28 63.9901V80.6801H180.87Z" fill="#FCCC6B"/>
<path d="M375.17 209.71L358.23 198.51V139.01C353.73 135.93 348.77 133.52 343.46 131.96C339.98 130.94 336.46 130.29 332.91 129.95V181.76L328.73 179C322.9 175.14 315.04 176.74 311.19 182.58C307.33 188.41 308.93 196.27 314.77 200.12L326.09 207.61C326.09 207.61 326.09 207.61 326.08 207.61H298.04C294.27 207.61 291.2 204.54 291.2 200.77V137.84C287.15 139.56 283.19 141.47 279.36 143.49C274.95 145.82 270.58 148.31 265.88 149.92V200.77C265.88 218.5 280.31 232.93 298.04 232.93H326.08C335.21 232.93 343.46 229.1 349.32 222.96L361.21 230.82C363.36 232.24 365.78 232.92 368.18 232.92C372.29 232.92 376.32 230.92 378.75 227.24C382.61 221.41 381.01 213.55 375.17 209.7V209.71Z" fill="#FAB025"/>
<path d="M68.5604 232.93C75.5504 232.93 81.2204 227.26 81.2204 220.27V113.63C80.2104 113.33 79.2004 112.99 78.2104 112.56C67.0404 107.82 61.6504 95.7501 55.9004 84.8501V220.26C55.9004 227.25 61.5704 232.92 68.5604 232.92V232.93Z" fill="#FAB025"/>
<path d="M180.871 220.27V110.53C175.201 109.13 169.201 108.42 164.021 107.64C161.221 107.22 158.371 106.81 155.541 106.82V220.28C155.541 227.27 161.211 232.94 168.201 232.94C175.191 232.94 180.861 227.27 180.861 220.28L180.871 220.27Z" fill="#FAB025"/>
<path d="M249.601 220.27V151.73C246.151 151.47 242.711 150.87 239.351 150.08C234.181 148.85 229.081 147.13 224.281 144.85V220.28C224.281 227.27 229.951 232.94 236.941 232.94C243.931 232.94 249.601 227.27 249.601 220.28V220.27Z" fill="#FAB025"/>
<g style="mix-blend-mode:overlay" opacity="0.5">
<path d="M161.93 79.4201V219.63C161.93 222.35 166.15 222.35 166.15 219.63V79.4201C166.15 76.7001 161.93 76.7001 161.93 79.4201Z" fill="white"/>
<path d="M162.46 59.7002V67.7002C162.46 70.4202 166.68 70.4202 166.68 67.7002V59.7002C166.68 56.9802 162.46 56.9802 162.46 59.7002Z" fill="white"/>
</g>
<g style="mix-blend-mode:overlay" opacity="0.5">
<path d="M273.33 79.4201V206.59C273.33 209.31 277.55 209.31 277.55 206.59V79.4201C277.55 76.7001 273.33 76.7001 273.33 79.4201Z" fill="white"/>
<path d="M273.86 59.7002V67.7002C273.86 70.4202 278.08 70.4202 278.08 67.7002V59.7002C278.08 56.9802 273.86 56.9802 273.86 59.7002Z" fill="white"/>
</g>
<g style="mix-blend-mode:overlay" opacity="0.5">
<path d="M62.75 79.4201V219.63C62.75 222.35 66.97 222.35 66.97 219.63V79.4201C66.97 76.7001 62.75 76.7001 62.75 79.4201Z" fill="white"/>
<path d="M63.29 59.7002V67.7002C63.29 70.4202 67.51 70.4202 67.51 67.7002V59.7002C67.51 56.9802 63.29 56.9802 63.29 59.7002Z" fill="white"/>
</g>
<path d="M196.01 240C198.62 232.99 201.24 225.97 203.85 218.96C198.09 222.49 193.43 227.62 190.59 233.55C192.67 223.04 194.74 212.54 196.82 202.03C191.17 211.69 186.67 221.97 183.44 232.58C183 219.02 182.57 205.46 182.13 191.89C175.71 203.81 173.27 217.64 175.25 230.9C169.23 219.24 164.02 207.2 159.67 194.89C161.12 210 164.8 224.91 170.56 239.06C164.94 231.67 157.52 225.52 149.06 221.21C155.12 226.61 160.13 233.08 163.77 240.18L196 240H196.01Z" fill="#1B9367"/>
<path d="M29.6202 53.01L26.0302 64.03C24.7902 67.84 21.3302 70.48 17.3302 70.67C12.9902 70.88 9.49015 74.05 8.16015 78.09C7.09015 81.34 6.50015 84.44 8.42015 87.55C9.76015 89.72 11.8702 91.32 14.1602 92.43C16.5802 93.6 19.4002 94.26 21.9701 93.44C23.1902 93.05 24.2901 92.35 25.2901 91.55C28.7301 88.8 31.1802 84.5 30.7602 80.12" stroke="white" stroke-width="5" stroke-linecap="round" stroke-linejoin="round"/>
<path d="M34.6303 45.0999C35.0003 43.9599 35.3603 42.8199 35.7303 41.6799C35.8303 41.3499 35.8503 41.0199 35.7703 40.6799C35.7503 40.3499 35.6603 40.0399 35.4703 39.7499C35.3103 39.4599 35.1003 39.2199 34.8303 39.0499C34.5903 38.8299 34.3103 38.6799 33.9803 38.5999C33.3403 38.4499 32.6203 38.4899 32.0503 38.8499C31.4803 39.2099 31.1103 39.6999 30.9003 40.3399C30.5303 41.4799 30.1703 42.6199 29.8003 43.7599C29.7003 44.0899 29.6803 44.4199 29.7603 44.7599C29.7803 45.0899 29.8703 45.3999 30.0603 45.6899C30.2203 45.9799 30.4303 46.2199 30.7003 46.3899C30.9403 46.6099 31.2203 46.7599 31.5503 46.8399C32.1903 46.9899 32.9103 46.9499 33.4803 46.5899C34.0503 46.2299 34.4203 45.7399 34.6303 45.0999Z" fill="white"/>
<path d="M202.28 155.96L201.53 145.94C201.27 142.48 203.18 139.22 206.32 137.74C209.73 136.14 211.49 132.44 211.23 128.77C211.02 125.81 210.47 123.13 207.91 121.26C206.12 119.96 203.9 119.37 201.69 119.24C199.36 119.1 196.88 119.5 195.09 121C194.24 121.71 193.58 122.64 193.04 123.61C191.19 126.95 190.64 131.2 192.41 134.58" stroke="white" stroke-width="5" stroke-linecap="round" stroke-linejoin="round"/>
<path d="M200.52 163.69C200.6 164.73 200.68 165.76 200.76 166.8C200.75 167.14 200.82 167.47 200.98 167.76C201.08 168.07 201.25 168.34 201.5 168.56C201.73 168.8 201.99 168.98 202.3 169.08C202.6 169.24 202.92 169.31 203.26 169.3C203.91 169.27 204.58 169.06 205.03 168.57C205.48 168.08 205.81 167.46 205.76 166.8C205.68 165.76 205.6 164.73 205.52 163.69C205.53 163.35 205.46 163.02 205.3 162.73C205.2 162.42 205.03 162.15 204.78 161.93C204.55 161.69 204.29 161.51 203.98 161.41C203.68 161.25 203.36 161.18 203.02 161.19C202.37 161.22 201.7 161.43 201.25 161.92C200.8 162.41 200.47 163.03 200.52 163.69Z" fill="white"/>
<path d="M296.2 14.2199C296.2 16.9899 293.95 19.24 291.18 19.24C288.41 19.24 286.16 16.9899 286.16 14.2199C286.16 11.4499 288.41 9.19995 291.18 9.19995C293.95 9.19995 296.2 11.4499 296.2 14.2199Z" stroke="white" stroke-width="2" stroke-linecap="round" stroke-linejoin="round"/>
<path d="M380.85 198.91C383.142 198.91 385 197.052 385 194.76C385 192.468 383.142 190.61 380.85 190.61C378.558 190.61 376.7 192.468 376.7 194.76C376.7 197.052 378.558 198.91 380.85 198.91Z" stroke="white" stroke-width="2" stroke-linecap="round" stroke-linejoin="round"/>
<path d="M35.5201 119.58C38.7676 119.58 41.4001 116.947 41.4001 113.7C41.4001 110.452 38.7676 107.82 35.5201 107.82C32.2727 107.82 29.6401 110.452 29.6401 113.7C29.6401 116.947 32.2727 119.58 35.5201 119.58Z" stroke="white" stroke-width="2" stroke-linecap="round" stroke-linejoin="round"/>
<path d="M145.791 22.8699V28.1799" stroke="white" stroke-width="2" stroke-linecap="round" stroke-linejoin="round"/>
<path d="M148.45 25.5298H143.13" stroke="white" stroke-width="2" stroke-linecap="round" stroke-linejoin="round"/>
<path d="M123.03 117.19V122.5" stroke="white" stroke-width="2" stroke-linecap="round" stroke-linejoin="round"/>
<path d="M125.69 119.84H120.37" stroke="white" stroke-width="2" stroke-linecap="round" stroke-linejoin="round"/>
<path d="M371.12 96.1799V101.49" stroke="white" stroke-width="2" stroke-linecap="round" stroke-linejoin="round"/>
<path d="M373.78 98.8398H368.47" stroke="white" stroke-width="2" stroke-linecap="round" stroke-linejoin="round"/>
<path d="M155.63 25.8298V35.9998" stroke="white" stroke-width="2" stroke-linecap="round" stroke-linejoin="round"/>
<path d="M160.72 30.9199H150.55" stroke="white" stroke-width="2" stroke-linecap="round" stroke-linejoin="round"/>
<path d="M11.8101 189.68V199.85" stroke="white" stroke-width="2" stroke-linecap="round" stroke-linejoin="round"/>
<path d="M16.8902 194.76H6.72021" stroke="white" stroke-width="2" stroke-linecap="round" stroke-linejoin="round"/>
<path d="M249.6 0.5C259.57 0.5 267.66 7.42 267.66 15.95C267.66 20.81 265.03 25.15 260.93 27.98L262.24 36L257.22 29.96C254.9 30.88 252.32 31.4 249.6 31.4C239.63 31.4 231.54 24.48 231.54 15.95C231.54 7.42 239.62 0.5 249.6 0.5Z" fill="#FCCC6B" fill-opacity="0.22"/>
<path d="M239.95 19.24C241.612 19.24 242.96 17.8924 242.96 16.23C242.96 14.5676 241.612 13.22 239.95 13.22C238.288 13.22 236.94 14.5676 236.94 16.23C236.94 17.8924 238.288 19.24 239.95 19.24Z" fill="#26D192"/>
<path d="M249.6 19.24C251.262 19.24 252.61 17.8924 252.61 16.23C252.61 14.5676 251.262 13.22 249.6 13.22C247.937 13.22 246.59 14.5676 246.59 16.23C246.59 17.8924 247.937 19.24 249.6 19.24Z" fill="#26D192"/>
<path d="M259.25 19.24C260.912 19.24 262.26 17.8924 262.26 16.23C262.26 14.5676 260.912 13.22 259.25 13.22C257.587 13.22 256.24 14.5676 256.24 16.23C256.24 17.8924 257.587 19.24 259.25 19.24Z" fill="#26D192"/>
</svg>
