<svg width="66" height="64" viewBox="0 0 66 64" fill="none" xmlns="http://www.w3.org/2000/svg">
<path d="M23.1619 15.99L23.1613 15.9917L20.0057 25.435C20.0057 25.4351 20.0057 25.4352 20.0056 25.4353C19.9375 25.6401 19.8297 25.8294 19.6883 25.9924L19.3105 25.6649L19.6883 25.9925C19.5468 26.1556 19.3745 26.2892 19.1813 26.3856C18.9881 26.482 18.7778 26.5393 18.5624 26.5543C18.3474 26.5692 18.1315 26.5417 17.9271 26.4732C17.7224 26.4049 17.5332 26.2969 17.3702 26.1554C17.2073 26.014 17.0738 25.8418 16.9775 25.6487C16.8811 25.4556 16.8238 25.2454 16.8087 25.0301C16.7936 24.815 16.8211 24.599 16.8896 24.3944C16.8896 24.3944 16.8896 24.3943 16.8896 24.3943C16.8896 24.3942 16.8896 24.3942 16.8897 24.3941L20.0432 14.956C20.0433 14.9557 20.0434 14.9554 20.0435 14.9551C20.3256 14.1013 20.8701 13.3584 21.5995 12.8324C22.3289 12.3064 23.2058 12.0242 24.1052 12.0261M23.1619 15.99L24.1046 12.5261M23.1619 15.99C23.2272 15.7922 23.3534 15.6201 23.5224 15.4983C23.6915 15.3765 23.8947 15.3113 24.103 15.312H24.1046L41.3855 15.312L41.3867 15.312C41.5956 15.3115 41.7993 15.3771 41.9687 15.4994C42.1381 15.6218 42.2644 15.7946 42.3296 15.9931L42.3304 15.9956L45.4846 25.4357L45.4846 25.4357C45.6227 25.8489 45.9192 26.1904 46.3091 26.3849C46.5021 26.4812 46.7122 26.5386 46.9274 26.5537C47.1425 26.5688 47.3586 26.5414 47.5632 26.473C47.7678 26.4047 47.9569 26.2967 48.1198 26.1552C48.2826 26.0137 48.416 25.8416 48.5124 25.6486C48.6087 25.4555 48.666 25.2454 48.6812 25.0303C48.6963 24.8151 48.6689 24.599 48.6005 24.3945C48.6005 24.3944 48.6005 24.3944 48.6005 24.3944L45.4487 14.9602C45.4486 14.9598 45.4484 14.9594 45.4483 14.959C45.1665 14.1044 44.622 13.3608 43.8924 12.8341C43.1626 12.3072 42.2851 12.0245 41.385 12.0261M23.1619 15.99L41.3855 12.5261M24.1052 12.0261C24.1054 12.0261 24.1056 12.0261 24.1057 12.0261L24.1046 12.5261M24.1052 12.0261H24.1046V12.5261M24.1052 12.0261H41.385M24.1046 12.5261H41.3855M41.385 12.0261C41.3848 12.0261 41.3847 12.0261 41.3845 12.0261L41.3855 12.5261M41.385 12.0261H41.3855V12.5261" fill="#165425" stroke="#165425"/>
<path d="M64.7771 41.3126L64.7783 41.3162C64.9871 41.9589 65.0415 42.6419 64.9371 43.3096C64.8326 43.9773 64.5723 44.611 64.1772 45.1593C63.782 45.7076 63.2632 46.155 62.6628 46.4653C62.0624 46.7756 61.3973 46.94 60.7215 46.9452L60.7177 46.9452L36.403 46.9452C36.4028 46.9452 36.4026 46.9452 36.4024 46.9452H36.4013V46.4452C35.552 46.448 34.7271 46.1615 34.0624 45.6328C33.6166 45.2783 33.2608 44.8292 33.0179 44.322L64.7771 41.3126ZM64.7771 41.3126L61.2625 30.7695C60.979 29.9171 60.4342 29.1757 59.7054 28.6505C58.9767 28.1254 58.101 27.8432 57.2028 27.844M64.7771 41.3126L57.2031 28.344M8.28589 27.844C7.38769 27.8433 6.51206 28.1255 5.78333 28.6506C5.05454 29.1757 4.50973 29.9171 4.22624 30.7695L0.711687 41.3126L0.711674 41.3126L0.710502 41.3162C0.501639 41.959 0.447216 42.6419 0.551649 43.3096C0.656081 43.9773 0.916426 44.611 1.31157 45.1593L1.71721 44.867L1.31157 45.1593C1.70671 45.7076 2.22553 46.1551 2.82593 46.4653C3.42633 46.7756 4.09141 46.94 4.76724 46.9452L4.76724 46.9452H4.77107L29.0857 46.9452L29.0874 46.4452V46.9452H29.0863C30.049 46.9483 30.9841 46.6235 31.7376 46.0242C32.1434 45.7014 32.4835 45.3094 32.7444 44.8698L8.28567 28.344M8.28589 27.844C8.28597 27.844 8.28605 27.844 8.28612 27.844L8.28567 28.344M8.28589 27.844H8.28567V28.344M8.28589 27.844H25.5725M8.28567 28.344H25.5727M25.5725 27.844C25.5724 27.844 25.5723 27.844 25.5723 27.844L25.5727 28.344M25.5725 27.844H25.5727V28.344M25.5725 27.844C26.4707 27.8433 27.3463 28.1254 28.0751 28.6506C28.8039 29.1757 29.3487 29.9171 29.6322 30.7695L32.7444 40.1056L35.8566 30.7695C36.1401 29.9171 36.6849 29.1757 37.4137 28.6505C38.1424 28.1254 39.018 27.8432 39.9162 27.844M25.5727 28.344L39.916 28.344M39.9162 27.844C39.9163 27.844 39.9164 27.844 39.9165 27.844L39.916 28.344M39.9162 27.844H39.916V28.344M39.9162 27.844H57.2028M39.916 28.344H57.2031M57.2028 27.844C57.2028 27.844 57.2027 27.844 57.2026 27.844L57.2031 28.344M57.2028 27.844H57.2031V28.344M29.8944 43.2442L29.8944 43.2442L29.8908 43.2493C29.8001 43.3769 29.6801 43.4808 29.5407 43.5522C29.4014 43.6236 29.2469 43.6604 29.0904 43.6594H29.0874H4.77323C4.61644 43.6579 4.46219 43.6196 4.32289 43.5476C4.18307 43.4753 4.06226 43.3711 3.97024 43.2434C3.87823 43.1157 3.8176 42.9682 3.79328 42.8127C3.76904 42.6577 3.78153 42.4993 3.82971 42.3501L7.3437 31.8086L7.3438 31.8083C7.40955 31.6106 7.53589 31.4387 7.70489 31.3169C7.87389 31.1951 8.07696 31.1297 8.28527 31.1298H8.28567L25.5728 31.1298L25.5732 31.1298C25.7815 31.1297 25.9846 31.1951 26.1536 31.3169C26.3226 31.4387 26.4489 31.6106 26.5147 31.8083L26.5148 31.8086L30.0294 42.3521L30.0303 42.3546C30.0806 42.5029 30.0945 42.6612 30.0709 42.816C30.0473 42.9708 29.9867 43.1177 29.8944 43.2442ZM61.5248 43.2442L61.5247 43.2442L61.5211 43.2493C61.4305 43.3769 61.3104 43.4808 61.171 43.5522C61.0317 43.6236 60.8773 43.6604 60.7207 43.6594H60.7177H36.4035C36.2468 43.6579 36.0925 43.6196 35.9532 43.5476C35.8134 43.4753 35.6926 43.3711 35.6006 43.2434C35.5085 43.1157 35.4479 42.9682 35.4236 42.8127C35.3994 42.6577 35.4118 42.4993 35.46 42.3501C35.4602 42.3495 35.4604 42.349 35.4606 42.3484L38.974 31.8086L38.9741 31.8083C39.0399 31.6106 39.1662 31.4387 39.3352 31.3169C39.5042 31.1951 39.7073 31.1297 39.9156 31.1298H39.916L57.2031 31.1298L57.2035 31.1298C57.4118 31.1297 57.6149 31.1951 57.7839 31.3169C57.9529 31.4387 58.0792 31.6106 58.145 31.8083L58.1451 31.8086L61.6597 42.3521L61.6606 42.3546C61.7109 42.5029 61.7248 42.6612 61.7012 42.816C61.6776 42.9708 61.617 43.1177 61.5248 43.2442Z" fill="#165425" stroke="#165425"/>
<path d="M31.9364 6.48589L32.3404 6.08181C32.4476 6.18897 32.5929 6.24918 32.7445 6.2492L31.9364 6.48589ZM31.9364 6.48589L32.3404 6.08181C32.2332 5.97466 32.173 5.82932 32.173 5.67777C32.173 5.67775 32.173 5.67773 32.173 5.67771V1.14291C32.173 0.991343 32.2332 0.845985 32.3404 0.738812C32.4475 0.631638 32.5929 0.571429 32.7445 0.571429C32.896 0.571429 33.0414 0.631638 33.1486 0.738812C33.2557 0.845987 33.316 0.991346 33.316 1.14291L33.316 5.67772C33.316 5.67774 33.316 5.67775 33.316 5.67777C33.3159 5.82931 33.2557 5.97464 33.1486 6.0818C33.0414 6.18896 32.8961 6.24917 32.7445 6.2492L31.9364 6.48589Z" fill="#165425" stroke="#165425" stroke-width="1.14286"/>
<path d="M21.7847 8.89057C21.6366 8.89202 21.4938 8.83592 21.3863 8.7342L18.1889 5.53626C18.0871 5.42876 18.031 5.2859 18.0324 5.13775C18.0338 4.98807 18.0939 4.84494 18.1998 4.7391C18.3056 4.63325 18.4487 4.57315 18.5984 4.5717C18.7465 4.57027 18.8894 4.6264 18.9969 4.72817L22.1943 7.92612C22.296 8.03361 22.3521 8.17645 22.3507 8.32458C22.3492 8.47424 22.2892 8.61735 22.1833 8.72318C22.0775 8.82901 21.9344 8.88911 21.7847 8.89057Z" fill="#165425" stroke="#165425" stroke-width="1.14286"/>
<path d="M44.0969 8.73857L44.0964 8.73914C44.0436 8.79212 43.9808 8.83414 43.9117 8.86278L44.1304 9.39068L43.9117 8.86278C43.8438 8.89089 43.7712 8.90557 43.6978 8.90602C43.5863 8.90347 43.4778 8.86877 43.3855 8.80605C43.2921 8.74255 43.2193 8.6531 43.176 8.54872C43.1328 8.44433 43.1211 8.32959 43.1422 8.21862C43.1632 8.10885 43.2154 8.00751 43.2927 7.92681L46.4909 4.72803C46.5984 4.62634 46.7412 4.57025 46.8893 4.5717C47.0389 4.57316 47.182 4.63326 47.2879 4.73907C47.3937 4.84489 47.4538 4.98798 47.4553 5.13762C47.4567 5.28572 47.4006 5.42854 47.2989 5.53604L44.0969 8.73857Z" fill="#165425" stroke="#165425" stroke-width="1.14286"/>
<path d="M32.7451 63.4285C32.5935 63.4285 32.4479 63.3689 32.3398 63.2625C32.3395 63.2622 32.3392 63.2619 32.3388 63.2615L28.8138 59.736C28.7121 59.6285 28.656 59.4856 28.6574 59.3375C28.6588 59.1878 28.7189 59.0447 28.8248 58.9389C28.9306 58.8331 29.0737 58.773 29.2233 58.7715C29.3715 58.7701 29.5143 58.8262 29.6218 58.9279L31.1981 60.5046L32.1736 61.4803V60.1005V52.1394C32.1777 51.9914 32.239 51.8507 32.3448 51.7469C32.4517 51.6421 32.5954 51.5834 32.7451 51.5834C32.8948 51.5834 33.0385 51.6421 33.1454 51.7469C33.2511 51.8506 33.3125 51.9913 33.3166 52.1393V60.1005V61.4803L34.2921 60.5046L35.8688 58.9275C35.9763 58.8254 36.1193 58.7689 36.2677 58.7703C36.4175 58.7716 36.5608 58.8317 36.6667 58.9376C36.7726 59.0436 36.8327 59.1869 36.8341 59.3367C36.8354 59.4851 36.779 59.6281 36.6768 59.7356L33.1514 63.2615C33.1511 63.2619 33.1508 63.2622 33.1505 63.2625C33.0424 63.3689 32.8968 63.4285 32.7451 63.4285Z" fill="#165425" stroke="#165425" stroke-width="1.14286"/>
<path d="M51.455 60.1007V61.4803L52.4305 60.5048L54.0075 58.9278C54.115 58.8259 54.2579 58.7698 54.4061 58.7712C54.5558 58.7726 54.6989 58.8327 54.8048 58.9386C54.9106 59.0444 54.9707 59.1876 54.9722 59.3373C54.9736 59.4854 54.9174 59.6283 54.8156 59.7358L51.2898 63.2615C51.2895 63.2618 51.2892 63.2622 51.2889 63.2625C51.1808 63.3688 51.0352 63.4285 50.8836 63.4285C50.7319 63.4285 50.5863 63.3688 50.4782 63.2625C50.4779 63.2621 50.4776 63.2618 50.4773 63.2615L46.9523 59.736C46.8507 59.6285 46.7946 59.4857 46.7961 59.3376C46.7975 59.188 46.8576 59.0449 46.9634 58.9391C47.0692 58.8333 47.2123 58.7732 47.3619 58.7717C47.51 58.7703 47.6528 58.8263 47.7603 58.9279L49.3365 60.5045L50.3121 61.4803V60.1005V52.1394C50.3162 51.9915 50.3775 51.8508 50.4833 51.7471C50.5902 51.6423 50.7339 51.5836 50.8835 51.5836C51.0332 51.5836 51.1769 51.6423 51.2838 51.7471C51.3895 51.8508 51.4509 51.9914 51.455 52.1394V60.1007Z" fill="#165425" stroke="#165425" stroke-width="1.14286"/>
<path d="M16.1518 60.5045L17.7282 58.9278C17.8357 58.8261 17.9785 58.77 18.1266 58.7715C18.2762 58.7729 18.4194 58.833 18.5252 58.9388C18.631 59.0447 18.6911 59.1878 18.6926 59.3374C18.694 59.4856 18.6379 59.6284 18.5361 59.7359L15.0111 63.2615C15.0107 63.2618 15.0104 63.2621 15.0101 63.2625C14.902 63.3688 14.7564 63.4285 14.6048 63.4285C14.4531 63.4285 14.3075 63.3688 14.1994 63.2624C14.1991 63.2621 14.1988 63.2618 14.1985 63.2615L10.673 59.736C10.5714 59.6285 10.5153 59.4857 10.5168 59.3376C10.5182 59.188 10.5783 59.0449 10.6841 58.9391C10.7899 58.8333 10.933 58.7732 11.0826 58.7717C11.2307 58.7703 11.3735 58.8263 11.481 58.9279L13.0578 60.5048L14.0333 61.4803V60.1007V52.1394C14.0375 51.9915 14.0988 51.8508 14.2046 51.7471C14.3114 51.6423 14.4551 51.5836 14.6048 51.5836C14.7545 51.5836 14.8982 51.6423 15.005 51.7471C15.1108 51.8508 15.1722 51.9914 15.1763 52.1394V60.1005V61.4803L16.1518 60.5045Z" fill="#165425" stroke="#165425" stroke-width="1.14286"/>
</svg>
