<svg width="64" height="39" viewBox="0 0 64 39" fill="none" xmlns="http://www.w3.org/2000/svg">
<path d="M63.9121 17.9841L60.7122 10.5177L60.7079 10.5198C60.7026 10.507 60.7015 10.4921 60.6951 10.4793C60.5181 10.107 60.1437 9.87021 59.732 9.87021H55.9657L56.2846 9.48729C56.6174 9.0873 56.6142 8.50492 56.274 8.11026L49.8742 0.64383L49.8731 0.644896C49.6736 0.411303 49.3814 0.270508 49.0656 0.270508H35.1994C34.905 0.270508 34.6234 0.392104 34.4218 0.607564L25.7384 9.87021H21.3332C21.0388 9.87021 20.7572 9.9918 20.5556 10.2073L4.5561 27.2734C4.55077 27.2787 4.54863 27.2862 4.5433 27.2915C4.50597 27.3331 4.47717 27.3833 4.44624 27.4302C4.42064 27.4697 4.39077 27.507 4.37051 27.5497C4.36731 27.5571 4.36091 27.5625 4.35771 27.5699L0.0911729 37.1696C-0.0560225 37.5003 -0.0250902 37.8811 0.17117 38.184C0.367431 38.4869 0.705554 38.6693 1.06714 38.6693H25.5997H50.1323C50.4896 38.6693 50.8213 38.4901 51.0187 38.1936L51.0197 38.1947L51.0251 38.1861C51.0251 38.1851 51.0261 38.1851 51.0272 38.184C51.0272 38.1829 51.0272 38.1829 51.0282 38.1819L63.8193 18.9953C64.0198 18.6955 64.055 18.3147 63.9121 17.9841ZM57.491 12.0035L45.358 26.9363H41.7432L54.1876 12.0035H57.491ZM49.088 3.00109L54.0682 8.81211L52.8693 10.2521L52.8682 10.2531L39.7443 26.002L36.4399 18.5686L49.088 3.00109ZM37.8244 26.9363H29.8662H21.3332H16.5749L19.1028 21.248L19.8922 19.4699H34.5061L37.8244 26.9363ZM35.6623 2.40377H46.8257L34.6917 17.3366H21.6628L35.6623 2.40377ZM21.7961 12.0035H23.7374L18.4223 17.6737C18.417 17.679 18.4149 17.6854 18.4106 17.6908C18.3733 17.7324 18.3445 17.7825 18.3135 17.8294C18.2879 17.8689 18.2581 17.9062 18.2378 17.9489C18.2346 17.9564 18.2282 17.9617 18.225 17.9692L14.2401 26.9363H7.79653L21.7961 12.0035ZM2.70869 36.536L6.02592 29.0696H14.9334H20.6409L23.9582 36.536H2.70869ZM22.9747 29.0696H28.2247L25.5997 34.9756L22.9747 29.0696ZM27.2413 36.536L30.5585 29.0696H39.4659H45.1735L48.4907 36.536H27.2413ZM50.32 35.3979L47.1062 28.1672L59.4472 12.9784L61.7234 18.2913L50.32 35.3979Z" fill="#165425"/>
</svg>
