<svg width="48" height="48" viewBox="0 0 48 48" fill="none" xmlns="http://www.w3.org/2000/svg">
<path d="M36.387 46.4C36.387 39.854 30.8418 35.2 23.9999 35.2C17.158 35.2 11.6128 39.854 11.6128 46.4C11.6128 47.284 12.3057 48 13.1612 48H34.8386C35.6941 48 36.387 47.284 36.387 46.4Z" fill="#165425"/>
<path d="M23.9999 33.6002C26.993 33.6002 29.4193 31.0929 29.4193 28.0002C29.4193 24.9074 26.993 22.4001 23.9999 22.4001C21.0069 22.4001 18.5806 24.9074 18.5806 28.0002C18.5806 31.0929 21.0069 33.6002 23.9999 33.6002Z" fill="#165425"/>
<path d="M48.0001 46.4001C48.0001 47.2801 47.3033 48.0001 46.4517 48.0001H37.5175C37.7808 47.5281 37.9356 46.9841 37.9356 46.4001C37.9356 42.6641 36.364 39.4 33.7627 37.104C34.8001 36.896 35.9382 36.8 37.1614 36.8C44.0053 36.8 48.0001 39.8561 48.0001 46.4001Z" fill="#165425"/>
<path d="M37.1618 35.2001C39.7272 35.2001 41.8069 33.0511 41.8069 30.4001C41.8069 27.7491 39.7272 25.6001 37.1618 25.6001C34.5963 25.6001 32.5166 27.7491 32.5166 30.4001C32.5166 33.0511 34.5963 35.2001 37.1618 35.2001Z" fill="#165425"/>
<path d="M10.0645 46.4001C10.0645 46.9841 10.2194 47.5281 10.4826 48.0001H1.54839C1.12258 48.0001 0.735482 47.8241 0.456772 47.5281C0.17032 47.2401 0 46.8401 0 46.4001C0 39.8561 3.99484 36.8 10.8387 36.8C12.0619 36.8 13.2 36.896 14.2374 37.104C11.6361 39.4 10.0645 42.6641 10.0645 46.4001Z" fill="#165425"/>
<path d="M10.8385 35.2001C13.404 35.2001 15.4837 33.0511 15.4837 30.4001C15.4837 27.7491 13.404 25.6001 10.8385 25.6001C8.27307 25.6001 6.19336 27.7491 6.19336 30.4001C6.19336 33.0511 8.27307 35.2001 10.8385 35.2001Z" fill="#165425"/>
<path d="M30.1933 16.7998H17.8062V19.1998H30.1933V16.7998Z" fill="url(#paint0_linear_1993_5866)"/>
<path d="M30.1936 16.0001L32.5162 8.80005L27.0968 12.0001L24 4.80005L20.9032 12.0001L15.4839 8.80005L17.8065 16.0001" fill="url(#paint1_linear_1993_5866)"/>
<path d="M24.0003 3.2C23.5725 3.2 23.2261 2.842 23.2261 2.4V0.800001C23.2261 0.358 23.5725 0 24.0003 0C24.428 0 24.7745 0.358 24.7745 0.800001V2.4C24.7745 2.842 24.428 3.2 24.0003 3.2Z" fill="url(#paint2_linear_1993_5866)"/>
<path d="M17.032 6.39997C16.8346 6.39997 16.6353 6.32197 16.4843 6.16597L14.9359 4.56597C14.634 4.25397 14.634 3.74797 14.9359 3.43397C15.2379 3.11997 15.7275 3.12197 16.0314 3.43397L17.5798 5.03397C17.8817 5.34597 17.8817 5.85197 17.5798 6.16597C17.4288 6.32197 17.2314 6.39997 17.032 6.39997Z" fill="url(#paint3_linear_1993_5866)"/>
<path d="M30.9675 6.39995C30.7701 6.39995 30.5708 6.32195 30.4198 6.16595C30.1179 5.85395 30.1179 5.34795 30.4198 5.03395L31.9682 3.43395C32.2701 3.12195 32.7598 3.12195 33.0637 3.43395C33.3676 3.74595 33.3656 4.25195 33.0637 4.56595L31.5153 6.16595C31.3643 6.32195 31.1669 6.39995 30.9675 6.39995Z" fill="url(#paint4_linear_1993_5866)"/>
<defs>
<linearGradient id="paint0_linear_1993_5866" x1="17.8062" y1="19.1998" x2="27.8513" y2="12.9209" gradientUnits="userSpaceOnUse">
<stop stop-color="#D5AE25"/>
<stop offset="0.250996" stop-color="#EDD274"/>
<stop offset="0.48" stop-color="#EBCD67"/>
<stop offset="0.812719" stop-color="#D6AD3D"/>
<stop offset="1" stop-color="#EBC12D"/>
</linearGradient>
<linearGradient id="paint1_linear_1993_5866" x1="15.4839" y1="16.0001" x2="34.0623" y2="12.5784" gradientUnits="userSpaceOnUse">
<stop stop-color="#D5AE25"/>
<stop offset="0.250996" stop-color="#EDD274"/>
<stop offset="0.48" stop-color="#EBCD67"/>
<stop offset="0.812719" stop-color="#D6AD3D"/>
<stop offset="1" stop-color="#EBC12D"/>
</linearGradient>
<linearGradient id="paint2_linear_1993_5866" x1="23.2261" y1="3.2" x2="24.9663" y2="3.09802" gradientUnits="userSpaceOnUse">
<stop stop-color="#D5AE25"/>
<stop offset="0.250996" stop-color="#EDD274"/>
<stop offset="0.48" stop-color="#EBCD67"/>
<stop offset="0.812719" stop-color="#D6AD3D"/>
<stop offset="1" stop-color="#EBC12D"/>
</linearGradient>
<linearGradient id="paint3_linear_1993_5866" x1="14.7095" y1="6.39997" x2="18.1547" y2="5.99629" gradientUnits="userSpaceOnUse">
<stop stop-color="#D5AE25"/>
<stop offset="0.250996" stop-color="#EDD274"/>
<stop offset="0.48" stop-color="#EBCD67"/>
<stop offset="0.812719" stop-color="#D6AD3D"/>
<stop offset="1" stop-color="#EBC12D"/>
</linearGradient>
<linearGradient id="paint4_linear_1993_5866" x1="30.1934" y1="6.39995" x2="33.6393" y2="5.99599" gradientUnits="userSpaceOnUse">
<stop stop-color="#D5AE25"/>
<stop offset="0.250996" stop-color="#EDD274"/>
<stop offset="0.48" stop-color="#EBCD67"/>
<stop offset="0.812719" stop-color="#D6AD3D"/>
<stop offset="1" stop-color="#EBC12D"/>
</linearGradient>
</defs>
</svg>
