<svg width="57" height="66" viewBox="0 0 57 66" fill="none" xmlns="http://www.w3.org/2000/svg">
<path d="M25.2482 19.5453C26.3721 20.2953 28.1695 21.8707 28.7738 24.5344H13.4009C9.01812 24.5344 5.45336 28.1339 5.45336 32.5572C5.45336 34.2285 5.96399 35.7806 6.83294 37.0672C3.40557 37.9588 0.866667 41.1021 0.866667 44.8339C0.866667 48.5655 3.40543 51.7101 6.83277 52.6006C5.96265 53.8872 5.45336 55.4394 5.45336 57.1105C5.45336 61.5324 9.01671 65.1333 13.4009 65.1333H48.2969C52.6797 65.1333 56.2444 61.5338 56.2444 57.1105C56.2444 53.3771 53.7051 50.2335 50.2772 49.3435C51.1472 48.057 51.6564 46.5049 51.6564 44.8339C51.6564 43.1626 51.1457 41.6104 50.2768 40.3238C53.7042 39.4322 56.2431 36.2889 56.2431 32.5572C56.2431 28.1353 52.6797 24.5344 48.2956 24.5344H32.7146V22.5854C32.7146 20.2277 33.622 18.0112 35.271 16.3427C36.2693 16.904 37.3959 17.2043 38.5701 17.2043C40.3854 17.2043 42.0907 16.4911 43.3736 15.1959L43.3737 15.1959C45.3288 13.2205 46.798 10.9048 47.5032 8.66844C48.3397 6.02146 48.0273 3.73741 46.572 2.26804C45.1175 0.799525 42.8538 0.484035 40.2298 1.32752L40.2706 1.45445L40.2297 1.32752C38.0156 2.03964 35.7204 3.52319 33.7653 5.4972C32.4824 6.79242 31.7766 8.515 31.7766 10.3451C31.7766 11.5294 32.0742 12.6684 32.6307 13.6766C31.2804 15.0416 30.2808 16.6658 29.6717 18.4366C29.0106 17.7114 28.3289 17.1374 27.726 16.6989C28.1502 15.7945 28.3761 14.7995 28.3761 13.7689C28.3761 11.9374 27.6703 10.2162 26.3875 8.921C24.4309 6.9456 22.1371 5.46347 19.923 4.75135C17.3003 3.90642 15.0366 4.22195 13.5808 5.69184C12.1268 7.15984 11.8144 9.44391 12.6496 12.0909L12.6496 12.0909C13.3561 14.3257 14.8239 16.6428 16.7791 18.6183L16.7791 18.6183C18.062 19.9136 19.7687 20.6267 21.5826 20.6267C22.902 20.6267 24.1637 20.2484 25.2482 19.5453ZM36.4097 8.16344L36.5322 8.03974C38.0312 6.56004 39.7865 5.42836 41.3669 4.91976C41.9538 4.73096 42.4876 4.6391 42.9266 4.6391C43.407 4.6391 43.7485 4.74924 43.9317 4.93428C44.1082 5.11245 44.2162 5.43862 44.2241 5.89668C44.232 6.34989 44.1411 6.90968 43.9465 7.52675C43.4286 9.16707 42.2589 10.9936 40.7334 12.5339C40.155 13.1178 39.3874 13.4382 38.5715 13.4382C37.7556 13.4382 36.9867 13.1178 36.4098 12.534L36.4097 12.5339C35.8312 11.9498 35.5135 11.1742 35.5135 10.3493C35.5135 9.52441 35.8313 8.74742 36.4097 8.16344ZM24.642 13.7717C24.642 14.5971 24.336 15.339 23.7799 15.9176C23.7645 15.9323 23.7476 15.9497 23.7334 15.9643C23.7274 15.9705 23.7219 15.9762 23.7172 15.9809C22.5411 17.14 20.6627 17.1513 19.4752 16.0113L19.4207 15.9563C17.793 14.3128 16.7801 12.609 16.2854 11.2099C16.0379 10.5099 15.9217 9.8905 15.9203 9.39574C15.9189 8.89628 16.0341 8.54645 16.2223 8.35676L16.2224 8.35668C16.3986 8.1788 16.7208 8.07 17.1739 8.06201C17.6222 8.05411 18.1763 8.14574 18.7872 8.34217C20.4113 8.86485 22.2203 10.0456 23.7458 11.5858C24.3243 12.1698 24.642 12.9454 24.642 13.7717ZM13.3995 28.3033H48.2956C50.6174 28.3033 52.509 30.2112 52.509 32.5586C52.509 34.9059 50.6174 36.8139 48.2956 36.8139H13.3995C11.0776 36.8139 9.18606 34.9059 9.18606 32.5586C9.18606 30.2112 11.0776 28.3033 13.3995 28.3033ZM4.60075 44.8353C4.60075 42.4879 6.49233 40.58 8.81417 40.58H43.7102C46.0321 40.58 47.9237 42.4879 47.9237 44.8353C47.9237 47.1826 46.0321 49.0906 43.7102 49.0906H8.81417C6.49233 49.0906 4.60075 47.1826 4.60075 44.8353ZM48.2956 61.3672H13.3995C11.0776 61.3672 9.18606 59.4593 9.18606 57.1119C9.18606 54.7646 11.0776 52.8567 13.3995 52.8567H48.2956C50.6174 52.8567 52.509 54.7646 52.509 57.1119C52.509 59.4593 50.6174 61.3672 48.2956 61.3672Z" fill="#165425" stroke="#165425" stroke-width="0.266667"/>
</svg>
