<svg width="65" height="64" viewBox="0 0 65 64" fill="none" xmlns="http://www.w3.org/2000/svg">
<path d="M8.03639 60.6356H28.2461C30.2168 60.6332 32.1071 59.8232 33.5021 58.3818C34.8972 56.9403 35.6828 54.9849 35.6851 52.9443C35.6841 51.7508 35.4155 50.574 34.9008 49.5061L8.03639 60.6356ZM8.03639 60.6356C6.06556 60.6335 4.17504 59.8237 2.78 58.3822C1.38484 56.9406 0.59938 54.985 0.597382 52.9443C0.597983 51.7509 0.866096 50.574 1.38051 49.506C1.38052 49.5059 1.38054 49.5059 1.38056 49.5059L6.43326 39.064L6.43347 39.0636C7.04829 37.782 7.99797 36.7047 9.17427 35.9533C10.3505 35.202 11.7065 34.8064 13.0886 34.811H13.0891L23.1947 34.811L23.1951 34.811C24.5768 34.8069 25.9322 35.2027 27.108 35.954C28.2838 36.7054 29.2331 37.7824 29.8478 39.0636L29.848 39.064L34.9007 49.5059L8.03639 60.6356ZM10.7001 41.2773C10.7001 41.2772 10.7002 41.2772 10.7002 41.2771C10.92 40.8187 11.2599 40.4323 11.6822 40.1624C12.1045 39.8924 12.592 39.7499 13.0893 39.7514H13.0891V39.8917L13.0895 39.7514H23.1943C23.1943 39.7514 23.1944 39.7514 23.1945 39.7514H23.1947V39.8917C23.6647 39.8904 24.1257 40.0252 24.5254 40.2808L10.7001 41.2773ZM10.7001 41.2773L5.64757 51.7188C5.46301 52.0994 5.36782 52.5193 5.36949 52.9446M10.7001 41.2773L25.5823 41.2771C25.5823 41.2772 25.5824 41.2772 25.5824 41.2773L30.6349 51.7187C30.8199 52.0993 30.9155 52.5193 30.9143 52.9448M30.9143 52.9448L30.7739 52.9443M30.9143 52.9448C30.9143 52.9446 30.9143 52.9445 30.9143 52.9443H30.7739M30.9143 52.9448C30.9141 53.6727 30.6343 54.3718 30.1348 54.8879C29.6351 55.4042 28.9563 55.6952 28.2475 55.6952H8.03625C7.32747 55.6952 6.64869 55.4042 6.14895 54.8879C5.64944 54.3717 5.36957 53.6727 5.36949 52.9446M30.7739 52.9443C30.7751 52.5401 30.6842 52.1413 30.5086 51.7801L30.7739 52.9443ZM5.36949 52.9446C5.36949 52.9447 5.36949 52.9448 5.36949 52.9449L5.50984 52.9443H5.36949C5.36949 52.9444 5.36949 52.9445 5.36949 52.9446Z" fill="#165425" stroke="#165425" stroke-width="0.280702"/>
<path d="M63.6886 49.4449L58.8206 39.0029C58.2177 37.6984 57.2861 36.6011 56.1314 35.8354C54.9768 35.0697 53.6452 34.6662 52.2877 34.6707H42.5517V39.8917M63.6886 49.4449L63.5613 49.5041M63.6886 49.4449C64.1935 50.5321 64.4568 51.7298 64.4578 52.9443C64.4555 55.0207 63.6855 57.0113 62.3165 58.4794C60.9476 59.9476 59.0917 60.7735 57.1557 60.7759M63.6886 49.4449L63.5614 49.5042L63.5613 49.5041M63.5613 49.5041L58.6934 39.0622L58.6932 39.0617C58.1007 37.7799 57.186 36.7031 56.0539 35.9524C54.9218 35.2017 53.6174 34.8067 52.2882 34.811L52.2877 34.811L42.5517 34.811H42.5516C41.2582 34.8099 39.9882 35.1855 38.8769 35.8986C37.7656 36.6118 36.8544 37.6361 36.2418 38.8632L36.2417 38.8634C35.952 39.4415 35.8879 40.1204 36.0644 40.75C36.2408 41.3794 36.6422 41.905 37.177 42.2136C37.7117 42.5215 38.3373 42.5885 38.9171 42.4011C39.4974 42.2136 39.9874 41.7855 40.2769 41.2074C40.4959 40.7686 40.8227 40.4005 41.2234 40.1436C41.6241 39.8866 42.0834 39.7507 42.5519 39.7514M63.5613 49.5041C64.0575 50.5724 64.3164 51.7499 64.3174 52.9443C64.3152 54.9865 63.5577 56.9425 62.2139 58.3837C60.8704 59.8247 59.051 60.6332 57.1556 60.6356M42.5519 39.7514L42.5517 39.8917M42.5519 39.7514H42.5517V39.8917M42.5519 39.7514L52.2873 39.7514L52.2877 39.8917M42.5517 39.8917H52.2877M52.2877 39.8917V39.7514H52.2875M52.2877 39.8917L52.2875 39.7514M52.2875 39.7514C52.7686 39.75 53.2397 39.8933 53.6474 40.1639C54.0548 40.4344 54.3821 40.821 54.5934 41.2788C54.5935 41.2789 54.5935 41.279 54.5936 41.2792L59.4613 51.7205C59.6393 52.1008 59.7313 52.5201 59.7301 52.9447M52.2875 39.7514L59.5897 52.9443M59.7301 52.9447L59.5897 52.9443M59.7301 52.9447C59.7301 52.9446 59.7301 52.9445 59.7301 52.9443H59.5897M59.7301 52.9447C59.73 53.6711 59.461 54.3696 58.9795 54.886C58.4976 55.4028 57.8418 55.6952 57.1557 55.6952H41.7168C41.1118 55.6952 40.5294 55.9529 40.0984 56.4152C39.667 56.8778 39.4232 57.5072 39.4232 58.1654C39.4232 58.8236 39.6671 59.453 40.0984 59.9156C40.5294 60.3779 41.1118 60.6356 41.7168 60.6356H57.1556M59.5897 52.9443C59.5897 53.6367 59.3333 54.3007 58.8768 54.7903C58.4204 55.2798 57.8013 55.5549 57.1557 55.5549H41.7168C41.0713 55.5549 40.4522 55.8299 39.9957 56.3195C39.5393 56.809 39.2828 57.473 39.2828 58.1654C39.2828 58.8577 39.5393 59.5217 39.9957 60.0113C40.4522 60.5009 41.0713 60.7759 41.7168 60.7759H57.1557M57.1556 60.6356L57.1557 60.7759M57.1556 60.6356H57.1557V60.7759" fill="#165425" stroke="#165425" stroke-width="0.280702"/>
<path d="M25.1626 18.5393H26.2808C26.9762 18.5393 27.6581 18.3504 28.25 17.9935C28.8419 17.6367 29.3206 17.1258 29.6321 16.5181C29.9436 15.9102 30.0756 15.2296 30.013 14.5525C29.9504 13.8754 29.6958 13.2289 29.278 12.6855L21.9797 3.19266C21.6304 2.73837 21.1777 2.36986 20.6575 2.11613C20.1373 1.8624 19.5639 1.73037 18.9825 1.73037C18.4012 1.73037 17.8277 1.8624 17.3075 2.11613C16.7873 2.36986 16.3346 2.73837 15.9853 3.19266L8.68709 12.6855C8.26927 13.2289 8.01466 13.8754 7.95207 14.5525C7.88949 15.2296 8.02144 15.9102 8.33298 16.5181C8.6445 17.1258 9.12318 17.6367 9.71509 17.9935C10.307 18.3504 10.9888 18.5393 11.6843 18.5393H12.8024V24.3741C12.8024 25.345 13.1978 26.2757 13.9009 26.9616C14.6038 27.6473 15.5567 28.0321 16.5498 28.0321H21.4153C22.4084 28.0321 23.3613 27.6473 24.0642 26.9616C24.7672 26.2757 25.1626 25.345 25.1626 24.3741V18.5393ZM23.848 15.9696C23.5001 15.9696 23.166 16.1044 22.9193 16.3451C22.6725 16.5858 22.5334 16.9129 22.5334 17.2545V24.3741C22.5334 24.6619 22.4162 24.9385 22.2068 25.1428C21.9973 25.3472 21.7126 25.4624 21.4153 25.4624H16.5498C16.2525 25.4624 15.9678 25.3472 15.7583 25.1428C15.5488 24.9385 15.4316 24.6619 15.4316 24.3741V17.2545C15.4316 16.9129 15.2925 16.5858 15.0457 16.3451C14.799 16.1044 14.4649 15.9696 14.117 15.9696H11.6843C11.4761 15.9696 11.2723 15.913 11.0955 15.8065C10.9188 15.6999 10.7763 15.5477 10.6838 15.3671C10.5912 15.1865 10.5521 14.9845 10.5706 14.7837C10.5892 14.5829 10.6647 14.3909 10.7891 14.2292L18.0873 4.73634C18.1913 4.60114 18.3262 4.4912 18.4816 4.41539C18.637 4.33959 18.8085 4.30006 18.9825 4.30006C19.1565 4.30006 19.328 4.33959 19.4834 4.41539C19.6388 4.4912 19.7738 4.60114 19.8777 4.73634L27.176 14.2292C27.3003 14.3909 27.3758 14.5829 27.3944 14.7837C27.413 14.9845 27.3739 15.1865 27.2813 15.3671C27.1887 15.5477 27.0462 15.6999 26.8695 15.8065C26.6928 15.913 26.4889 15.9696 26.2808 15.9696H23.848Z" fill="#165425" stroke="#165425" stroke-width="0.196491"/>
<path d="M38.9079 11.2232H37.7897C37.0943 11.2232 36.4125 11.4121 35.8206 11.769C35.2287 12.1258 34.75 12.6366 34.4384 13.2444C34.1269 13.8523 33.995 14.5329 34.0575 15.21C34.1201 15.8871 34.3747 16.5335 34.7926 17.077L42.0908 26.5698C42.4401 27.0241 42.8928 27.3926 43.413 27.6464C43.9332 27.9001 44.5066 28.0321 45.088 28.0321C45.6694 28.0321 46.2428 27.9001 46.763 27.6464C47.2832 27.3926 47.7359 27.0241 48.0852 26.5698L55.3834 17.077C55.8012 16.5335 56.0559 15.8871 56.1184 15.21C56.181 14.5329 56.0491 13.8523 55.7375 13.2444C55.426 12.6366 54.9473 12.1258 54.3554 11.769C53.7635 11.4121 53.0817 11.2232 52.3862 11.2232H51.2681V5.38842C51.2681 4.41745 50.8727 3.48675 50.1697 2.80093C49.4667 2.11519 48.5138 1.73037 47.5207 1.73037H42.6552C41.6622 1.73037 40.7093 2.11519 40.0063 2.80093C39.3033 3.48675 38.9079 4.41745 38.9079 5.38842V11.2232ZM40.2225 13.7929C40.5704 13.7929 40.9045 13.6581 41.1512 13.4174C41.398 13.1767 41.5371 12.8496 41.5371 12.508V5.38842C41.5371 5.10057 41.6543 4.824 41.8637 4.61969C42.0733 4.41531 42.3579 4.30006 42.6552 4.30006H47.5207C47.8181 4.30006 48.1027 4.41531 48.3122 4.61969C48.5217 4.824 48.6389 5.10057 48.6389 5.38842V12.508C48.6389 12.8496 48.778 13.1767 49.0248 13.4174C49.2715 13.6581 49.6056 13.7929 49.9535 13.7929H52.3862C52.5944 13.7929 52.7983 13.8494 52.975 13.956C53.1517 14.0625 53.2942 14.2148 53.3868 14.3954C53.4793 14.576 53.5184 14.778 53.4999 14.9788C53.4813 15.1796 53.4058 15.3716 53.2815 15.5333L45.9832 25.0261C45.8793 25.1613 45.7443 25.2713 45.5889 25.3471C45.4335 25.4229 45.262 25.4624 45.088 25.4624C44.914 25.4624 44.7425 25.4229 44.5871 25.3471C44.4317 25.2713 44.2967 25.1613 44.1928 25.0261L36.8945 15.5333C36.7702 15.3716 36.6947 15.1796 36.6761 14.9788C36.6576 14.778 36.6967 14.576 36.7892 14.3954C36.8818 14.2148 37.0243 14.0625 37.201 13.956C37.3777 13.8494 37.5816 13.7929 37.7897 13.7929H40.2225Z" fill="#165425" stroke="#165425" stroke-width="0.196491"/>
</svg>
