<svg width="49" height="49" viewBox="0 0 49 49" fill="none" xmlns="http://www.w3.org/2000/svg">
<path d="M20.2599 8.50837C20.7948 8.1995 21.3996 8.0322 22.0171 8.02231H29.5171C30.1435 8.02714 30.7574 8.1974 31.2968 8.51586L32.1791 4.85931C32.4249 2.93811 28.556 4.4979 28.2908 4.68732C27.5225 5.11002 26.6549 5.31917 25.7783 5.29303C23.0625 5.26185 23.0468 3.90659 20.0954 3.93216C19.9831 3.93267 19.8723 3.95847 19.7713 4.00765C19.6704 4.05684 19.5818 4.12813 19.5121 4.21625C19.4419 4.30599 19.3926 4.41035 19.368 4.52164C19.3435 4.63293 19.3441 4.74832 19.3701 4.85931L20.2599 8.50837Z" fill="#165425"/>
<path d="M14.921 27.0976C15.8944 26.131 17.2058 25.5812 18.5775 25.5647H28.7096C29.3296 25.5618 29.9439 25.6827 30.5165 25.9202C31.0892 26.1578 31.6087 26.5072 32.0446 26.948L36.3442 22.6335C36.9328 22.051 37.6657 21.6355 38.4678 21.4296C36.9002 17.4942 34.2441 14.46 31.611 11.8807C31.6423 11.5459 31.5959 11.2084 31.4752 10.8945C31.3546 10.5806 31.163 10.2988 30.9155 10.0712C30.5332 9.72128 30.0354 9.52432 29.5172 9.51782H22.0397C21.7424 9.5247 21.4498 9.59282 21.1801 9.71793C20.9104 9.84303 20.6694 10.0224 20.4722 10.2449C20.275 10.4674 20.1258 10.7282 20.034 11.0109C19.9422 11.2937 19.9096 11.5924 19.9385 11.8883C17.0113 14.771 13.8828 18.3525 12.6179 22.9176C12.3195 23.8906 12.2174 24.9132 12.3176 25.926C12.4177 26.9388 12.718 27.9216 13.2012 28.8174L14.921 27.0976Z" fill="#165425"/>
<path d="M22.5353 33.5412C22.3397 33.5372 22.1534 33.4568 22.0165 33.3171C21.8795 33.1773 21.8028 32.9895 21.8028 32.7938C21.8028 32.5982 21.8795 32.4103 22.0165 32.2706C22.1534 32.1309 22.3397 32.0504 22.5353 32.0465L25.6442 32.039C25.846 31.7176 26.0552 31.4112 26.2795 31.1198C27.4164 29.6664 28.9279 28.5502 30.6515 27.8913C30.0796 27.4252 29.3639 27.1717 28.6261 27.1738H18.5071C16.528 27.1085 15.2646 28.9816 13.9707 30.1931L12.2817 31.8895L20.1587 39.774C20.4547 40.0608 20.6821 40.4108 20.8239 40.7978C22.042 40.6335 23.3499 40.4541 24.6054 40.2747C23.9283 38.0606 24.0312 35.6811 24.8969 33.5337L22.5353 33.5412Z" fill="#165425"/>
<path d="M33.9023 27.2336C36.3843 27.1524 38.8089 27.9908 40.7106 29.5877C41.6319 28.6721 42.9478 27.5721 42.8405 26.1349C42.8306 25.4996 42.6362 24.8809 42.2809 24.3542C41.9256 23.8275 41.4247 23.4154 40.8394 23.1683C40.254 22.9212 39.6095 22.8496 38.9842 22.9624C38.3589 23.0751 37.7799 23.3673 37.3177 23.8033L33.9023 27.2336Z" fill="#165425"/>
<path d="M11.2283 32.9434C11.1072 32.7707 10.9502 32.6261 10.7682 32.5195C10.5862 32.4128 10.3834 32.3466 10.1735 32.3254C9.96363 32.3041 9.75164 32.3283 9.55193 32.3962C9.35223 32.4642 9.16949 32.5743 9.01615 32.7192L6.34816 35.4021C6.21488 35.5309 6.10876 35.685 6.03605 35.8555C5.96334 36.0259 5.92551 36.2092 5.92481 36.3945C5.92412 36.5798 5.96055 36.7634 6.03198 36.9344C6.1034 37.1054 6.20836 37.2603 6.34066 37.3901L14.4194 45.4838C14.5473 45.6189 14.7014 45.7263 14.8724 45.7996C15.0433 45.8729 15.2274 45.9104 15.4134 45.9098C15.601 45.9111 15.787 45.8747 15.9603 45.8028C16.1336 45.7309 16.2907 45.625 16.4223 45.4913L19.1053 42.8008C19.3662 42.5388 19.5127 42.1841 19.5127 41.8143C19.5127 41.4446 19.3662 41.0899 19.1053 40.8279C17.5738 39.2978 12.7642 34.478 11.2283 32.9434Z" fill="#165425"/>
<path d="M39.6495 30.6489C33.6809 25.7031 24.5194 30.9319 25.7565 38.6158C26.0731 40.6425 27.1017 42.4901 28.6576 43.8268C30.2135 45.1636 32.195 45.9021 34.2462 45.9097C42.3277 45.9013 45.8839 35.6495 39.6495 30.6489ZM37.5793 35.9775L33.8426 39.7143C33.7007 39.8527 33.5103 39.9302 33.312 39.9302C33.1137 39.9302 32.9233 39.8527 32.7814 39.7143L30.9131 37.8459C30.7723 37.7052 30.6933 37.5143 30.6933 37.3153C30.6933 37.1163 30.7723 36.9254 30.913 36.7847C31.0538 36.6439 31.2446 36.5649 31.4437 36.5649C31.6427 36.5649 31.8335 36.6439 31.9743 36.7846L33.3121 38.1299L36.5181 34.9163C36.6598 34.7801 36.8492 34.705 37.0457 34.7069C37.2421 34.7088 37.43 34.7878 37.569 34.9267C37.7079 35.0656 37.7868 35.2535 37.7887 35.45C37.7907 35.6465 37.7155 35.8359 37.5793 35.9775Z" fill="url(#paint0_linear_1993_5856)"/>
<defs>
<linearGradient id="paint0_linear_1993_5856" x1="25.6431" y1="45.9097" x2="44.739" y2="43.5988" gradientUnits="userSpaceOnUse">
<stop stop-color="#D5AE25"/>
<stop offset="0.250996" stop-color="#EDD274"/>
<stop offset="0.48" stop-color="#EBCD67"/>
<stop offset="0.812719" stop-color="#D6AD3D"/>
<stop offset="1" stop-color="#EBC12D"/>
</linearGradient>
</defs>
</svg>
