<svg width="62" height="62" viewBox="0 0 62 62" fill="none" xmlns="http://www.w3.org/2000/svg">
<path d="M50.421 55.1547L52.7754 55.1169C52.7808 55.1169 52.7863 55.1168 52.7917 55.1168C53.336 55.1168 53.7817 55.5537 53.7904 56.1001C53.7993 56.6518 53.359 57.1063 52.8073 57.1151L47.2727 57.2038C47.2674 57.2038 47.262 57.2039 47.2567 57.2039C46.9554 57.2039 46.6698 57.0679 46.4799 56.8333C46.2867 56.5944 46.214 56.2801 46.2828 55.9808L47.5229 50.5878C47.6467 50.0498 48.1834 49.7146 48.7207 49.8379C49.2584 49.9616 49.5942 50.4978 49.4705 51.0356L48.8178 53.8741C52.98 50.6412 56.1635 46.3543 58.0663 41.3968C63.7972 26.4712 56.3188 9.66569 41.3957 3.93456C35.6019 1.70881 29.3865 1.39119 23.4213 3.01619C22.8887 3.16094 22.3397 2.84706 22.1945 2.31469C22.0495 1.78231 22.3637 1.23306 22.896 1.08806C29.2743 -0.649435 35.9192 -0.310185 42.1123 2.06919C49.84 5.03694 55.9495 10.8364 59.315 18.3992C62.6807 25.9621 62.8998 34.3838 59.932 42.1132C57.956 47.2621 54.6869 51.7346 50.421 55.1547ZM38.5832 58.9858C32.6109 60.6081 26.3939 60.2904 20.6045 58.0677C5.68017 52.3361 -1.79821 35.5304 3.93367 20.6057C5.84092 15.6421 9.02242 11.3567 13.183 8.12444L12.5294 10.9666C12.4058 11.5043 12.7415 12.0406 13.2793 12.1642C13.3547 12.1816 13.4299 12.1898 13.5042 12.1898C13.9593 12.1898 14.3707 11.8768 14.477 11.4143L15.7172 6.02144C15.786 5.72206 15.7133 5.40781 15.52 5.16906C15.3269 4.93031 15.036 4.79844 14.7273 4.79844L9.19642 4.88719C8.64467 4.89594 8.20442 5.35044 8.21329 5.90219C8.22217 6.45394 8.67342 6.88869 9.22842 6.88531L11.5764 6.84769C7.31442 10.2664 4.04842 14.7357 2.06817 19.8889C-0.899708 27.6168 -0.680583 36.0381 2.68517 43.6017C6.05092 51.1654 12.1604 56.9653 19.8882 59.9332C23.4792 61.3118 27.2237 62.0048 30.9822 62.0048C33.7009 62.0048 36.4272 61.6422 39.107 60.9141C39.6397 60.7694 39.954 60.2204 39.8094 59.6878C39.6647 59.1556 39.116 58.8414 38.5832 58.9858ZM33.2857 44.3241C32.7338 44.3241 32.2864 43.8767 32.2864 43.3248V22.1393C32.2864 21.5874 32.7338 21.1401 33.2857 21.1401H38.6183C39.1702 21.1401 39.6175 21.5874 39.6175 22.1393V43.3247C39.6175 43.8766 39.1702 44.3239 38.6183 44.3239L33.2857 44.3241ZM34.2848 42.3256H37.619V23.1386H34.2848V42.3256ZM23.3855 44.3241C22.8337 44.3241 22.3863 43.8767 22.3863 43.3248V27.7342C22.3863 27.1823 22.8337 26.7349 23.3855 26.7349H28.7183C29.2702 26.7349 29.7175 27.1823 29.7175 27.7342V43.3248C29.7175 43.8767 29.2702 44.3241 28.7183 44.3241H23.3855ZM24.3848 42.3256H27.719V28.7334H24.3848V42.3256ZM49.5175 17.1043V43.3248C49.5175 43.8767 49.0702 44.3241 48.5183 44.3241H43.1855C42.6337 44.3241 42.1863 43.8767 42.1863 43.3248V17.1043C42.1863 16.5524 42.6337 16.1051 43.1855 16.1051H48.5183C49.0702 16.1051 49.5175 16.5524 49.5175 17.1043ZM47.519 18.1036H44.1848V42.3254H47.519V18.1036ZM13.482 44.3241C12.9302 44.3241 12.4828 43.8767 12.4828 43.3248V33.0953C12.4828 32.5434 12.9302 32.0961 13.482 32.0961H18.8148C19.3667 32.0961 19.814 32.5434 19.814 33.0953V43.3248C19.814 43.8767 19.3667 44.3241 18.8148 44.3241H13.482ZM14.4813 42.3256H17.8155V34.0946H14.4813V42.3256ZM12.086 46.9814C12.086 47.5661 12.5644 48.0444 13.149 48.0444H48.8514C49.436 48.0444 49.9144 47.5661 49.9144 46.9814C49.9144 46.3968 49.436 45.9184 48.8514 45.9184H13.149C12.5643 45.9184 12.086 46.3968 12.086 46.9814ZM12.6695 27.7086C12.8132 28.1211 13.1998 28.3794 13.613 28.3794C13.722 28.3794 13.833 28.3613 13.9418 28.3236C25.4552 24.3136 35.6153 18.5089 44.1798 11.0551L44.0252 12.1166C43.9457 12.6627 44.3238 13.1698 44.8699 13.2493C44.9188 13.2564 44.9673 13.2599 45.0152 13.2599C45.5033 13.2599 45.9303 12.9018 46.0027 12.4046L46.5554 8.60981C46.5987 8.31331 46.5064 8.01307 46.3043 7.79169C46.1022 7.57044 45.8123 7.44944 45.5122 7.46806L41.6854 7.67706C41.1344 7.70707 40.712 8.17819 40.7422 8.72919C40.7723 9.28031 41.241 9.70632 41.7944 9.67244L42.7857 9.61831C34.4309 16.8703 24.5192 22.5233 13.2845 26.4363C12.7633 26.6178 12.488 27.1874 12.6695 27.7086Z" fill="#165425"/>
</svg>
