<svg width="60" height="60" viewBox="0 0 60 60" fill="none" xmlns="http://www.w3.org/2000/svg">
<path fill-rule="evenodd" clip-rule="evenodd" d="M38.6701 48.165H56.5428C56.8624 48.1635 57.1685 48.0359 57.3945 47.8099C57.6206 47.584 57.7482 47.2779 57.7497 46.9583V41.7885C57.7482 41.4689 57.6206 41.1628 57.3945 40.9368C57.1685 40.7109 56.8624 40.5832 56.5428 40.5818H40.5585C40.4323 43.2089 39.7907 45.7855 38.6701 48.165ZM43.3963 28.165V38.5818H56.5428C57.3928 38.5835 58.2074 38.9219 58.8085 39.5229C59.4095 40.1239 59.7479 40.9386 59.7497 41.7885V46.9583C59.7498 47.7801 59.4333 48.5705 58.8658 49.165C59.4333 49.7596 59.7498 50.5499 59.7497 51.3718V56.5415C59.7479 57.3914 59.4095 58.2061 58.8085 58.8071C58.2075 59.4081 57.3929 59.7465 56.543 59.7483H22.6232C22.4184 59.7401 22.2144 59.7193 22.0122 59.6858C21.4857 59.7274 20.9537 59.7483 20.4163 59.7483C16.4703 59.7482 12.6111 58.5905 9.31662 56.4186C6.02215 54.2466 3.43725 51.1559 1.88214 47.5293C0.327031 43.9027 -0.129958 39.8995 0.567786 36.0157C1.26553 32.1319 3.08735 28.5381 5.80755 25.6796C8.52775 22.821 12.0268 20.8233 15.8713 19.9339C19.7157 19.0445 23.7366 19.3026 27.4359 20.676C31.1351 22.0494 34.3501 24.478 36.6827 27.6607C39.0153 30.8435 40.3628 34.6406 40.5585 38.5818H41.396V28.165L38.833 23.7254C34.2188 23.0658 30.1021 19.442 27.6688 15.2275C26.2551 12.7788 25.4221 10.2079 25.1471 7.77851C24.8577 5.22201 25.1846 2.80689 26.0996 0.830764L26.1012 0.831639C26.1871 0.645559 26.3283 0.490501 26.5056 0.387603C26.6828 0.284704 26.8875 0.238971 27.0917 0.256639C29.2647 0.452139 31.5223 1.37789 33.5931 2.90776C37.7327 5.96639 40.7252 11.1524 41.304 16.2648C41.5703 18.6178 41.315 20.8509 40.559 22.7323L42.3965 25.9146L44.234 22.7323C43.478 20.8509 43.2226 18.6178 43.489 16.2649C44.0677 11.1524 47.0602 5.96626 51.2 2.90776C53.2707 1.37776 55.5282 0.452139 57.7012 0.256639C57.9054 0.238971 58.1101 0.284704 58.2873 0.387603C58.4646 0.490501 58.6058 0.645559 58.6917 0.831639L58.6933 0.830764C59.6088 2.80689 59.9352 5.22201 59.6458 7.77851C59.0671 12.891 56.0745 18.077 51.9348 21.1356C50.031 22.5424 47.969 23.4381 45.9598 23.7254L43.3963 28.165ZM37.4658 21.3571L32.3622 12.5175C32.2971 12.4042 32.2549 12.2791 32.2381 12.1494C32.2213 12.0197 32.2301 11.888 32.2642 11.7618C32.3331 11.5069 32.5004 11.2897 32.7293 11.1581C32.9583 11.0266 33.2301 10.9913 33.4851 11.0602C33.6113 11.0943 33.7296 11.1529 33.8331 11.2327C33.9367 11.3125 34.0236 11.4119 34.0887 11.5253L39.1887 20.3583C39.8803 16.9323 38.9083 13.0128 37.0558 9.81151C34.9887 6.24014 31.5258 3.03251 27.6372 2.33789C27.0891 3.85476 26.9158 5.65039 27.132 7.56001C27.6495 12.1313 30.3455 16.8001 34.046 19.5343C35.0846 20.3158 36.238 20.9304 37.4658 21.3571ZM45.604 20.3583L50.704 11.5253C50.8367 11.2986 51.0537 11.1337 51.3075 11.0662C51.5613 10.9988 51.8315 11.0344 52.0593 11.1653C52.287 11.2961 52.4538 11.5117 52.5233 11.7649C52.5929 12.0182 52.5595 12.2887 52.4306 12.5175L47.327 21.3573C50.6625 20.2361 53.5382 17.4435 55.3973 14.231C57.4647 10.6589 58.4907 6.03101 57.1561 2.33726C53.2671 3.03239 49.8041 6.24026 47.7372 9.81151C45.8846 13.0126 44.912 16.9325 45.604 20.3583ZM20.4165 24.5848C17.4503 24.5847 14.5508 25.4643 12.0845 27.1122C9.61828 28.76 7.69605 31.1022 6.56095 33.8426C5.42584 36.5829 5.12883 39.5983 5.70748 42.5075C6.28613 45.4166 7.71445 48.0888 9.81181 50.1862C11.9092 52.2836 14.5814 53.7119 17.4905 54.2906C20.3997 54.8693 23.4151 54.5723 26.1554 53.4372C28.8958 52.3021 31.238 50.3799 32.8859 47.9137C34.5338 45.4474 35.4133 42.5479 35.4133 39.5818C35.4133 35.6044 33.8332 31.7899 31.0208 28.9774C28.2083 26.1649 24.3939 24.5849 20.4165 24.5848ZM29.6067 30.3914C27.789 28.5737 25.4732 27.3358 22.952 26.8343C20.4308 26.3328 17.8175 26.5902 15.4426 27.5739C13.0676 28.5576 11.0378 30.2235 9.6096 32.3609C8.18146 34.4982 7.41919 37.0111 7.41919 39.5817C7.41919 42.1523 8.18146 44.6652 9.6096 46.8025C11.0378 48.9399 13.0676 50.6058 15.4426 51.5895C17.8175 52.5732 20.4308 52.8306 22.952 52.3291C25.4732 51.8276 27.789 50.5897 29.6067 48.772C32.0441 46.3346 33.4133 43.0287 33.4133 39.5817C33.4133 36.1347 32.0441 32.8288 29.6067 30.3914ZM38.5831 39.5818C38.5831 35.9888 37.5176 32.4764 35.5215 29.4889C33.5253 26.5015 30.6881 24.173 27.3686 22.798C24.049 21.423 20.3963 21.0632 16.8724 21.7642C13.3484 22.4651 10.1114 24.1953 7.57076 26.736C5.03011 29.2766 3.29989 32.5136 2.59892 36.0376C1.89794 39.5615 2.25768 43.2142 3.63265 46.5337C5.00762 49.8533 7.33606 52.6905 10.3235 54.6867C13.311 56.6829 16.8233 57.7484 20.4163 57.7484C22.802 57.7484 25.1644 57.2786 27.3685 56.3656C29.5726 55.4527 31.5753 54.1145 33.2622 52.4276C34.9491 50.7407 36.2873 48.738 37.2003 46.5339C38.1132 44.3298 38.5831 41.9675 38.5831 39.5818ZM29.1831 57.7483H56.5428C56.8624 57.7468 57.1685 57.6192 57.3945 57.3932C57.6206 57.1672 57.7482 56.8611 57.7497 56.5415V51.3718C57.7482 51.0522 57.6206 50.7461 57.3945 50.5201C57.1685 50.2941 56.8624 50.1665 56.5428 50.165H37.5856C35.5624 53.4402 32.648 56.0707 29.1831 57.7483Z" fill="#165425"/>
</svg>
