<svg width="64" height="64" viewBox="0 0 64 64" fill="none" xmlns="http://www.w3.org/2000/svg">
<path d="M60 30C60 29.7348 59.8946 29.4804 59.7071 29.2929C59.5196 29.1054 59.2652 29 59 29H53C52.7348 29 52.4804 29.1054 52.2929 29.2929C52.1054 29.4804 52 29.7348 52 30V61H44V37C44 36.7348 43.8946 36.4804 43.7071 36.2929C43.5196 36.1054 43.2652 36 43 36H37C36.7348 36 36.4804 36.1054 36.2929 36.2929C36.1054 36.4804 36 36.7348 36 37V61H28V46C28 45.7348 27.8946 45.4804 27.7071 45.2929C27.5196 45.1054 27.2652 45 27 45H21C20.7348 45 20.4804 45.1054 20.2929 45.2929C20.1054 45.4804 20 45.7348 20 46V61H12V54C12 53.7348 11.8946 53.4804 11.7071 53.2929C11.5196 53.1054 11.2652 53 11 53H5C4.73478 53 4.48043 53.1054 4.29289 53.2929C4.10536 53.4804 4 53.7348 4 54V61H1V63H63V61H60V30ZM54 31H58V61H54V31ZM38 38H42V61H38V38ZM22 47H26V61H22V47ZM6 55H10V61H6V55Z" fill="#165425"/>
<path d="M7.00022 23H31.0002C31.1586 22.9999 31.3147 22.9621 31.4556 22.8899C31.5965 22.8177 31.7183 22.713 31.8109 22.5845C31.9034 22.456 31.9641 22.3074 31.988 22.1508C32.0119 21.9942 31.9983 21.8343 31.9482 21.684L29.9482 15.684C29.8819 15.485 29.7547 15.3118 29.5846 15.189C29.4144 15.0663 29.21 15.0002 29.0002 15H25.7202L23.9482 9.684C23.8819 9.48496 23.7547 9.3118 23.5846 9.18905C23.4144 9.0663 23.21 9.00016 23.0002 9H15.0002C14.7904 9.00016 14.586 9.0663 14.4159 9.18905C14.2457 9.3118 14.1185 9.48496 14.0522 9.684L12.2802 15H9.00022C8.79042 15.0002 8.58599 15.0663 8.41586 15.189C8.24573 15.3118 8.11851 15.485 8.05222 15.684L6.05222 21.684C6.00217 21.8343 5.98853 21.9942 6.01241 22.1508C6.03629 22.3074 6.09702 22.456 6.18958 22.5845C6.28215 22.713 6.40391 22.8177 6.54484 22.8899C6.68578 22.9621 6.84185 22.9999 7.00022 23ZM19.0002 18.839L18.3872 17H19.6132L19.0002 18.839ZM29.6122 21H20.3882L21.7212 17H28.2792L29.6122 21ZM15.7212 11H22.2792L23.6132 15H14.3872L15.7212 11ZM9.72122 17H16.2792L17.6122 21H8.38822L9.72122 17Z" fill="#165425"/>
<path d="M18 1H20V5H18V1Z" fill="#165425"/>
<path d="M27 8H31V10H27V8Z" fill="#165425"/>
<path d="M7 8H11V10H7V8Z" fill="#165425"/>
<path d="M23.1743 5.44727L25.1754 2.44745L26.8392 3.55731L24.8381 6.55713L23.1743 5.44727Z" fill="#165425"/>
<path d="M11.168 3.5509L12.8318 2.44104L14.8328 5.44086L13.169 6.55072L11.168 3.5509Z" fill="#165425"/>
<path d="M1.479 47.854C1.62559 47.9435 1.79277 47.9937 1.96442 47.9999C2.13606 48.006 2.3064 47.9678 2.459 47.889L53.759 21.378L55.084 24.4C55.1587 24.5717 55.2802 24.719 55.4345 24.8251C55.5889 24.9312 55.7699 24.9918 55.957 25C56.1433 25.0056 56.3277 24.9601 56.49 24.8684C56.6523 24.7767 56.7865 24.6424 56.878 24.48L62.878 13.48C62.958 13.3335 63 13.1693 63.0002 13.0024C63.0004 12.8355 62.9589 12.6712 62.8794 12.5244C62.7998 12.3777 62.6848 12.2532 62.5449 12.1623C62.4049 12.0714 62.2444 12.017 62.078 12.004L50.078 11.004C49.9043 10.9887 49.7295 11.019 49.5712 11.0921C49.4128 11.1652 49.2763 11.2784 49.1752 11.4205C49.0742 11.5627 49.012 11.7287 48.9949 11.9023C48.9779 12.0759 49.0065 12.2509 49.078 12.41L50.578 15.767L1.541 41.111C1.37792 41.1952 1.24117 41.3228 1.14575 41.4796C1.05032 41.6364 0.999897 41.8164 1 42V47C0.999924 47.1715 1.04394 47.3401 1.12783 47.4896C1.21171 47.6392 1.33264 47.7647 1.479 47.854ZM3 42.608L52.349 17.108C52.5768 16.9907 52.7509 16.7905 52.8354 16.5486C52.9199 16.3067 52.9083 16.0416 52.803 15.808L51.603 13.134L60.386 13.866L56.1 21.73L55.166 19.6C55.1111 19.4748 55.0312 19.3622 54.9311 19.2691C54.8309 19.176 54.7128 19.1044 54.584 19.0588C54.4551 19.0131 54.3182 18.9944 54.1819 19.0037C54.0455 19.013 53.9124 19.0502 53.791 19.113L3 45.357V42.608Z" fill="#165425"/>
</svg>
