<svg width="44" height="44" viewBox="0 0 44 44" fill="none" xmlns="http://www.w3.org/2000/svg">
<path fill-rule="evenodd" clip-rule="evenodd" d="M29.3268 35.625H41.9073C42.1471 35.6239 42.3766 35.5282 42.5461 35.3587C42.7156 35.1892 42.8114 34.9596 42.8125 34.7199V30.8426C42.8114 30.6029 42.7156 30.3733 42.5461 30.2038C42.3766 30.0343 42.1471 29.9386 41.9073 29.9375H30.6693C30.5795 31.9004 30.1241 33.8292 29.3268 35.625ZM32.0475 20.625V28.4375H30.6693C30.648 27.9787 30.6073 27.5251 30.5475 27.0768V20.625L29.1487 18.215C29.0999 18.13 29.0682 18.0362 29.0556 17.9389C29.043 17.8417 29.0497 17.7429 29.0753 17.6483C29.1009 17.5536 29.1448 17.4649 29.2047 17.3872C29.2645 17.3095 29.3391 17.2444 29.4241 17.1955C29.5091 17.1467 29.603 17.1151 29.7002 17.1025C29.7974 17.0899 29.8962 17.0965 29.9909 17.1221C30.0856 17.1477 30.1743 17.1916 30.2519 17.2515C30.3296 17.3113 30.3947 17.3859 30.4436 17.4709L31.2975 18.9369L32.1513 17.4709C32.2499 17.2992 32.4128 17.1737 32.604 17.1221C32.7952 17.0704 32.9991 17.0968 33.1708 17.1955C33.3425 17.2942 33.468 17.457 33.5197 17.6482C33.5713 17.8394 33.5449 18.0433 33.4462 18.215L32.0475 20.625ZM19.7546 0.4375C18.5171 3.10938 18.8523 7.00394 20.8994 10.5495C22.7275 13.7152 25.4781 15.8383 28.1341 16.4448L23.7719 8.88934C23.723 8.80432 23.6914 8.71051 23.6788 8.61326C23.6662 8.51601 23.6728 8.41723 23.6984 8.32255C23.75 8.13135 23.8755 7.9685 24.0472 7.86981C24.2189 7.77113 24.4228 7.7447 24.614 7.79633C24.7087 7.8219 24.7974 7.86587 24.8751 7.92572C24.9528 7.98557 25.0179 8.06013 25.0668 8.14516L29.4273 15.6979C30.2301 13.0946 29.7671 9.65106 27.9394 6.48484C25.8925 2.93941 22.6872 0.7015 19.7546 0.4375ZM42.8406 0.4375C44.0781 3.10938 43.743 7.00394 41.6959 10.5495C39.8678 13.7152 37.1172 15.8383 34.4612 16.4448L38.8233 8.88934C38.9201 8.71774 38.9451 8.51487 38.8929 8.32492C38.8407 8.13497 38.7156 7.97332 38.5449 7.87517C38.3741 7.77702 38.1714 7.75032 37.981 7.80089C37.7907 7.85146 37.628 7.97519 37.5284 8.14516L33.1678 15.698C32.365 13.0946 32.828 9.65059 34.6558 6.48484C36.7024 2.93941 39.9077 0.7015 42.8406 0.4375ZM14.8125 14.8126C11.9694 14.8126 9.19012 15.6556 6.82617 17.2352C4.46222 18.8147 2.61974 21.0598 1.53174 23.6865C0.443728 26.3132 0.159056 29.2035 0.713717 31.992C1.26838 34.7804 2.63746 37.3418 4.64784 39.3522C6.65821 41.3625 9.21959 42.7316 12.0081 43.2863C14.7965 43.841 17.6869 43.5563 20.3135 42.4683C22.9402 41.3803 25.1853 39.5378 26.7648 37.1738C28.3444 34.8099 29.1874 32.0306 29.1874 29.1875C29.1875 27.2998 28.8156 25.4305 28.0932 23.6865C27.3708 21.9424 26.312 20.3577 24.9771 19.0229C23.6423 17.688 22.0576 16.6292 20.3136 15.9068C18.5695 15.1844 16.7002 14.8126 14.8125 14.8126ZM18.4435 26.7282C18.4435 26.9271 18.3645 27.1179 18.2238 27.2585C18.0832 27.3992 17.8924 27.4782 17.6935 27.4782C17.4946 27.4782 17.3038 27.3992 17.1632 27.2585C17.0225 27.1179 16.9435 26.9271 16.9435 26.7282C16.9435 25.1991 14.5904 24.4238 13.2618 25.5576C11.9823 26.6497 12.9567 28.4373 14.8126 28.4373C16.6999 28.4373 18.4435 29.7729 18.4435 31.6463C18.4435 33.2661 17.1259 34.4951 15.5626 34.7869V36.1017C15.5626 36.3006 15.4836 36.4914 15.3429 36.632C15.2022 36.7727 15.0115 36.8517 14.8126 36.8517C14.6137 36.8517 14.4229 36.7727 14.2822 36.632C14.1416 36.4914 14.0626 36.3006 14.0626 36.1017V34.7868C12.4993 34.4954 11.1815 33.2664 11.1815 31.6461C11.1815 31.4472 11.2606 31.2564 11.4012 31.1158C11.5419 30.9751 11.7326 30.8961 11.9315 30.8961C12.1304 30.8961 12.3212 30.9751 12.4619 31.1158C12.6025 31.2564 12.6815 31.4472 12.6815 31.6461C12.6815 33.1751 15.0347 33.9504 16.3634 32.8166C17.6429 31.7245 16.6684 29.9371 14.8126 29.9371C12.9251 29.9371 11.1815 28.6013 11.1815 26.728C11.1815 25.1082 12.4992 23.8791 14.0626 23.5874V22.2735C14.0626 22.0746 14.1416 21.8838 14.2822 21.7431C14.4229 21.6025 14.6137 21.5235 14.8126 21.5235C15.0115 21.5235 15.2022 21.6025 15.3429 21.7431C15.4836 21.8838 15.5626 22.0746 15.5626 22.2735V23.5883C17.1259 23.8796 18.4435 25.1087 18.4435 26.7289V26.7282ZM14.8126 17.9395C17.0372 17.9395 19.2118 18.5992 21.0615 19.8351C22.9111 21.071 24.3528 22.8276 25.2041 24.8829C26.0554 26.9381 26.2782 29.1996 25.8442 31.3815C25.4102 33.5633 24.339 35.5675 22.766 37.1405C21.193 38.7136 19.1889 39.7848 17.0071 40.2188C14.8252 40.6529 12.5637 40.4302 10.5084 39.5789C8.45317 38.7276 6.6965 37.286 5.46054 35.4364C4.22459 33.5867 3.56487 31.4121 3.56482 29.1875C3.56487 26.2045 4.74991 23.3436 6.85926 21.2342C8.96861 19.1249 11.8295 17.9398 14.8126 17.9398V17.9395ZM21.7053 22.2945C23.0685 23.6577 23.9969 25.3946 24.3731 27.2855C24.7492 29.1764 24.5562 31.1364 23.8184 32.9176C23.0806 34.6988 21.8312 36.2212 20.2281 37.2923C18.6251 38.3634 16.7405 38.9351 14.8125 38.9351C12.8846 38.9351 10.9999 38.3634 9.3969 37.2923C7.79387 36.2212 6.54447 34.6988 5.80668 32.9176C5.06889 31.1364 4.87586 29.1764 5.25199 27.2855C5.62812 25.3946 6.55652 23.6577 7.91979 22.2945C9.74788 20.4665 12.2273 19.4395 14.8125 19.4395C17.3978 19.4395 19.8772 20.4665 21.7053 22.2945ZM41.9073 37.125C42.1471 37.1261 42.3767 37.2218 42.5462 37.3913C42.7157 37.5608 42.8114 37.7904 42.8125 38.0301V41.9073C42.8114 42.1471 42.7157 42.3767 42.5462 42.5462C42.3767 42.7157 42.1471 42.8114 41.9073 42.8125H22.9622C25.2807 41.4218 27.2078 39.4647 28.5625 37.125H41.9073Z" fill="#165425"/>
<circle cx="14.9514" cy="29.1999" r="7.8" fill="url(#paint0_linear_1993_5850)"/>
<defs>
<linearGradient id="paint0_linear_1993_5850" x1="7.15137" y1="36.9999" x2="24.4904" y2="34.9" gradientUnits="userSpaceOnUse">
<stop stop-color="#D5AE25"/>
<stop offset="0.250996" stop-color="#EDD274"/>
<stop offset="0.48" stop-color="#EBCD67"/>
<stop offset="0.812719" stop-color="#D6AD3D"/>
<stop offset="1" stop-color="#EBC12D"/>
</linearGradient>
</defs>
</svg>
