<svg width="64" height="65" viewBox="0 0 64 65" fill="none" xmlns="http://www.w3.org/2000/svg">
<path d="M51.421 56.8256L53.7754 56.7878C53.7808 56.7878 53.7863 56.7877 53.7917 56.7877C54.336 56.7877 54.7817 57.2246 54.7904 57.771C54.7993 58.3227 54.359 58.7772 53.8073 58.786L48.2727 58.8747C48.2674 58.8747 48.262 58.8748 48.2567 58.8748C47.9554 58.8748 47.6698 58.7388 47.4799 58.5042C47.2867 58.2653 47.214 57.951 47.2828 57.6517L48.5229 52.2587C48.6467 51.7207 49.1834 51.3855 49.7207 51.5088C50.2584 51.6325 50.5942 52.1687 50.4705 52.7065L49.8178 55.545C53.98 52.3121 57.1635 48.0252 59.0663 43.0677C64.7972 28.1421 57.3188 11.3366 42.3957 5.60546C36.6019 3.37971 30.3865 3.06209 24.4213 4.68709C23.8887 4.83184 23.3397 4.51796 23.1945 3.98559C23.0495 3.45321 23.3637 2.90396 23.896 2.75896C30.2743 1.02146 36.9192 1.36071 43.1123 3.74009C50.84 6.70784 56.9495 12.5073 60.315 20.0701C63.6807 27.633 63.8998 36.0547 60.932 43.7841C58.956 48.933 55.6869 53.4055 51.421 56.8256ZM39.5832 60.6567C33.6109 62.279 27.3939 61.9613 21.6045 59.7386C6.68017 54.007 -0.798208 37.2013 4.93367 22.2766C6.84092 17.313 10.0224 13.0276 14.183 9.79534L13.5294 12.6375C13.4058 13.1752 13.7415 13.7115 14.2793 13.8351C14.3547 13.8525 14.4299 13.8607 14.5042 13.8607C14.9593 13.8607 15.3707 13.5477 15.477 13.0852L16.7172 7.69234C16.786 7.39296 16.7133 7.07871 16.52 6.83996C16.3269 6.60121 16.036 6.46934 15.7273 6.46934L10.1964 6.55809C9.64467 6.56684 9.20442 7.02134 9.21329 7.57309C9.22217 8.12484 9.67342 8.55959 10.2284 8.55621L12.5764 8.51859C8.31442 11.9373 5.04842 16.4066 3.06817 21.5598C0.100292 29.2877 0.319417 37.709 3.68517 45.2726C7.05092 52.8363 13.1604 58.6362 20.8882 61.6041C24.4792 62.9827 28.2237 63.6757 31.9822 63.6757C34.7009 63.6757 37.4272 63.3131 40.107 62.585C40.6397 62.4403 40.954 61.8913 40.8094 61.3587C40.6647 60.8265 40.116 60.5123 39.5832 60.6567ZM34.2857 45.995C33.7338 45.995 33.2864 45.5476 33.2864 44.9957V23.8102C33.2864 23.2583 33.7338 22.811 34.2857 22.811H39.6183C40.1702 22.811 40.6175 23.2583 40.6175 23.8102V44.9956C40.6175 45.5475 40.1702 45.9948 39.6183 45.9948L34.2857 45.995ZM35.2848 43.9965H38.619V24.8095H35.2848V43.9965ZM24.3855 45.995C23.8337 45.995 23.3863 45.5476 23.3863 44.9957V29.4051C23.3863 28.8532 23.8337 28.4058 24.3855 28.4058H29.7183C30.2702 28.4058 30.7175 28.8532 30.7175 29.4051V44.9957C30.7175 45.5476 30.2702 45.995 29.7183 45.995H24.3855ZM25.3848 43.9965H28.719V30.4043H25.3848V43.9965ZM50.5175 18.7752V44.9957C50.5175 45.5476 50.0702 45.995 49.5183 45.995H44.1855C43.6337 45.995 43.1863 45.5476 43.1863 44.9957V18.7752C43.1863 18.2233 43.6337 17.776 44.1855 17.776H49.5183C50.0702 17.776 50.5175 18.2233 50.5175 18.7752ZM48.519 19.7745H45.1848V43.9963H48.519V19.7745ZM14.482 45.995C13.9302 45.995 13.4828 45.5476 13.4828 44.9957V34.7662C13.4828 34.2143 13.9302 33.767 14.482 33.767H19.8148C20.3667 33.767 20.814 34.2143 20.814 34.7662V44.9957C20.814 45.5476 20.3667 45.995 19.8148 45.995H14.482ZM15.4813 43.9965H18.8155V35.7655H15.4813V43.9965ZM13.086 48.6523C13.086 49.237 13.5644 49.7153 14.149 49.7153H49.8514C50.436 49.7153 50.9144 49.237 50.9144 48.6523C50.9144 48.0677 50.436 47.5893 49.8514 47.5893H14.149C13.5643 47.5893 13.086 48.0677 13.086 48.6523ZM13.6695 29.3795C13.8132 29.792 14.1998 30.0503 14.613 30.0503C14.722 30.0503 14.833 30.0322 14.9418 29.9945C26.4552 25.9845 36.6153 20.1798 45.1798 12.726L45.0252 13.7875C44.9457 14.3336 45.3238 14.8407 45.8699 14.9202C45.9188 14.9273 45.9673 14.9308 46.0152 14.9308C46.5033 14.9308 46.9303 14.5727 47.0027 14.0755L47.5554 10.2807C47.5987 9.98421 47.5064 9.68396 47.3043 9.46259C47.1022 9.24134 46.8123 9.12034 46.5122 9.13896L42.6854 9.34796C42.1344 9.37796 41.712 9.84909 41.7422 10.4001C41.7723 10.9512 42.241 11.3772 42.7944 11.3433L43.7857 11.2892C35.4309 18.5412 25.5192 24.1942 14.2845 28.1072C13.7633 28.2887 13.488 28.8583 13.6695 29.3795Z" fill="#165425"/>
</svg>
