<svg width="67" height="65" viewBox="0 0 67 65" fill="none" xmlns="http://www.w3.org/2000/svg">
<path d="M66.9997 5.34339C66.9997 4.92005 66.7261 4.54537 66.3228 4.41641L54.7421 0.716949C54.3206 0.58267 53.8612 0.749253 53.6243 1.12277L49.2594 8.00599L44.9541 8.97474C44.6552 9.04194 44.4054 9.24602 44.28 9.5256L41.347 16.0604C35.5641 12.3876 35.9316 12.6169 35.8666 12.5833C35.8652 12.5825 35.8573 12.5785 35.8548 12.5773C35.2579 12.278 34.7763 12.7113 34.7893 12.7059C34.6816 12.7971 35.1989 12.2105 26.8508 22.0057C13.5 22.5601 14.2118 22.482 13.9579 22.5706C13.5501 22.713 13.2769 23.1125 13.3081 23.5587L14.1988 36.0146C14.2144 36.2321 14.3024 36.438 14.4489 36.5992L15.6858 37.9618L10.9097 43.3217C10.8702 43.3661 10.8348 43.4138 10.8041 43.4647L7.26873 49.297C7.16792 49.4635 7.11914 49.6563 7.129 49.8506L7.40093 55.2251L0.743582 63.0681C0.208155 63.6989 0.657566 64.6709 1.48542 64.6709H66.0268C66.5642 64.6709 66.9999 64.2352 66.9999 63.6979C66.9997 56.1634 66.9997 12.1065 66.9997 5.34339ZM39.8679 31.1897L36.3542 25.578L40.5267 24.0607L47.0491 29.2243L39.8679 31.1897ZM28.362 42.632L26.5619 39.3742C26.302 38.9039 25.7104 38.7334 25.2396 38.9931C24.7693 39.253 24.5987 39.845 24.8585 40.3154L26.9873 44.168L24.2128 44.46L16.1162 35.5402L15.4719 26.5293L20.5545 32.8602L21.1466 33.5977L22.8131 36.6137C23.073 37.084 23.6648 37.2548 24.1354 36.9948C24.6057 36.7349 24.7763 36.1429 24.5164 35.6725L23.0644 33.0445L27.2467 25.1657L31.3754 34.277L28.362 42.632ZM35.2504 15.1463L39.3001 22.4359L34.8518 24.0535L29.0436 22.4325L35.2504 15.1463ZM32.9683 33.078L29.0625 24.4584L34.2663 25.9105L37.9077 31.7261L32.9683 33.078ZM48.4919 27.8844L41.4609 22.3181L38.1295 16.3215L49.2985 23.4169L48.4919 27.8844ZM21.7913 31.2923L16.2446 24.3833L25.6615 24.0015L21.7913 31.2923ZM9.08791 50.0505L12.4222 44.5499L16.9961 39.417L21.8118 44.713L16.1736 45.3064C15.9248 45.3326 15.6956 45.4537 15.5337 45.6444L9.24009 53.0588L9.08791 50.0505ZM41.3271 56.9546L49.3356 58.6504L49.8295 62.7247H33.8412L35.521 58.1988L41.3271 56.9546ZM51.7898 62.7247L51.1838 57.7255C51.1337 57.3125 50.8265 56.9768 50.4194 56.8907L42.9683 55.3129L44.8559 52.6222C45.1644 52.1822 45.058 51.5755 44.6181 51.2668C44.1781 50.9583 43.5714 51.0646 43.2627 51.5046L40.7488 55.0884L34.5909 56.4079C34.2655 56.4777 33.9984 56.7088 33.8826 57.0208L31.7654 62.7248H3.58769C4.00713 62.2308 15.9454 48.1666 16.7651 47.201L28.6336 45.9517C29.0056 45.9194 29.3329 45.6745 29.4636 45.3142C29.4638 45.3136 29.4641 45.3129 29.4642 45.3124L33.1686 35.0411C35.0392 34.5291 48.3801 30.8779 49.1984 30.6539L55.6011 31.8995L57.7851 40.7814C57.913 41.3017 58.439 41.6227 58.9624 41.4939C59.4842 41.3656 59.8032 40.8385 59.6749 40.3167L57.3423 30.8307C57.2518 30.4625 56.9555 30.1803 56.5832 30.1079L50.2892 28.8835C50.5266 27.5685 52.0865 18.9286 52.2832 17.8392L56.0228 17.3275C56.5552 17.2546 56.9278 16.764 56.8549 16.2316C56.7821 15.6992 56.292 15.3268 55.759 15.3995L51.3193 16.0069C50.9018 16.064 50.5685 16.3834 50.4936 16.798L49.672 21.349L43.007 17.1149L45.8563 10.7665L50.0794 9.81635C50.3308 9.75978 50.5495 9.60578 50.6876 9.38821L54.8658 2.79949L65.0539 6.05422V14.1277L60.0038 14.8186C59.4713 14.8915 59.0987 15.3821 59.1716 15.9145C59.2445 16.4471 59.7362 16.8198 60.2675 16.7467L65.0539 16.0917V46.3343L54.4288 47.6464L49.1076 44.6902C48.6724 44.4482 48.1245 44.5742 47.8385 44.9819L45.7016 48.0282C45.3931 48.4681 45.4995 49.0749 45.9394 49.3835C46.3794 49.6921 46.9862 49.5857 47.2948 49.1457L48.9286 46.8167L53.4392 49.3226L54.7624 53.0584C54.9418 53.565 55.4979 53.83 56.0045 53.6507C56.5111 53.4713 56.7763 52.9153 56.5969 52.4086L55.5552 49.4679L65.0541 48.2949V62.7246H51.7898V62.7247Z" fill="#165425"/>
</svg>
