<svg width="1280" height="338" viewBox="0 0 1280 338" fill="none" xmlns="http://www.w3.org/2000/svg">
<g filter="url(#filter0_d_1940_23431)">
<path d="M940.894 128.148C1046.95 144.947 1097.27 180.613 1053.07 207.656L1032.15 220.457C1019.85 227.993 1033.87 237.919 1063.4 242.595L1338.87 286.219L1281.04 321.605L1005.57 277.98C899.518 261.181 849.199 225.515 893.399 198.472L914.311 185.672C926.612 178.135 912.599 168.209 883.064 163.534C853.53 158.858 819.486 161.183 807.184 168.707L715.872 224.595C671.685 251.639 549.459 259.981 443.406 243.182L408.276 237.613C302.223 220.814 251.904 185.148 296.091 158.104L313.515 147.438C325.817 139.901 311.804 129.975 282.269 125.3L-57.1992 71.532L0.630714 36.1467L340.099 89.9144C446.152 106.713 496.471 142.379 452.284 169.423L434.86 180.089C422.558 187.613 436.572 197.552 466.106 202.227L501.236 207.797C530.77 212.472 564.814 210.148 577.116 202.623L668.428 146.735C712.615 119.692 834.841 111.35 940.894 128.148Z" fill="#020202"/>
</g>
<path d="M288.069 156.635C288.529 156.738 288.989 156.84 289.436 156.929C290.139 157.082 290.841 157.236 291.518 157.402C292.08 157.53 292.617 157.67 293.166 157.811C293.741 157.951 294.303 158.104 294.865 158.245C295.593 158.437 296.283 158.641 296.973 158.845C297.471 158.986 297.982 159.139 298.467 159.28C298.71 159.356 298.953 159.433 299.196 159.51C299.924 159.74 300.639 159.982 301.329 160.225C301.508 160.289 301.699 160.353 301.891 160.417C302.696 160.71 303.475 161.004 304.229 161.311C304.382 161.375 304.548 161.439 304.701 161.502C305.455 161.809 306.196 162.128 306.873 162.448C306.873 162.448 306.899 162.448 306.911 162.461C307.588 162.78 308.214 163.099 308.828 163.431C308.955 163.495 309.083 163.559 309.198 163.636C309.786 163.955 310.335 164.287 310.846 164.607C310.935 164.671 311.025 164.734 311.127 164.785C311.6 165.092 312.047 165.411 312.456 165.731C312.507 165.769 312.558 165.807 312.609 165.846C313.043 166.178 313.426 166.523 313.771 166.868C313.848 166.944 313.925 167.021 314.001 167.085C314.333 167.43 314.64 167.775 314.908 168.12C314.947 168.158 314.959 168.209 314.998 168.247C315.228 168.567 315.432 168.886 315.598 169.218C315.624 169.282 315.662 169.346 315.7 169.397C315.866 169.742 315.981 170.087 316.071 170.419C316.083 170.496 316.096 170.56 316.109 170.636C316.173 170.994 316.224 171.339 316.198 171.696L318.281 128.314C318.293 127.957 318.255 127.612 318.191 127.254C318.178 127.177 318.166 127.114 318.153 127.037C318.063 126.692 317.949 126.347 317.782 126.015C317.757 125.951 317.719 125.887 317.68 125.823C317.514 125.504 317.323 125.185 317.08 124.853C317.054 124.814 317.029 124.763 316.99 124.725C316.735 124.38 316.428 124.035 316.083 123.69C316.007 123.613 315.93 123.537 315.853 123.473C315.496 123.128 315.113 122.796 314.691 122.451C314.64 122.413 314.589 122.374 314.538 122.336C314.129 122.017 313.682 121.71 313.209 121.391C313.12 121.327 313.03 121.263 312.928 121.212C312.417 120.88 311.868 120.56 311.28 120.241C311.152 120.177 311.025 120.1 310.91 120.037C310.309 119.717 309.683 119.398 309.006 119.078C308.994 119.078 308.968 119.066 308.955 119.053C308.265 118.734 307.537 118.414 306.784 118.108C306.63 118.044 306.464 117.98 306.311 117.916C305.634 117.648 304.957 117.38 304.229 117.111C304.152 117.086 304.063 117.06 303.986 117.022C303.807 116.958 303.603 116.894 303.424 116.83C302.734 116.587 302.032 116.358 301.303 116.115C301.061 116.038 300.818 115.962 300.562 115.885C300.384 115.834 300.218 115.77 300.039 115.719C299.732 115.629 299.387 115.54 299.068 115.451C298.378 115.246 297.675 115.055 296.947 114.85C296.743 114.799 296.564 114.735 296.36 114.684C296.002 114.595 295.619 114.505 295.248 114.416C294.699 114.275 294.163 114.148 293.6 114.007C293.383 113.956 293.179 113.905 292.949 113.841C292.489 113.739 291.991 113.637 291.518 113.534C291.058 113.432 290.611 113.33 290.139 113.241C289.972 113.202 289.819 113.164 289.64 113.138C288.887 112.985 288.095 112.832 287.315 112.691C287.047 112.64 286.804 112.589 286.536 112.538C286.485 112.538 286.434 112.512 286.383 112.512C285.323 112.321 284.237 112.129 283.138 111.95C282.947 111.925 282.742 111.886 282.55 111.861L-56.9178 58.0933L-59 101.475L280.468 155.243C281.835 155.46 283.164 155.69 284.454 155.92C284.722 155.971 284.965 156.022 285.233 156.073C286.191 156.252 287.137 156.444 288.056 156.635H288.069Z" fill="url(#paint0_linear_1940_23431)"/>
<path d="M468.42 138.432C468.394 138.572 468.368 138.726 468.343 138.866C468.266 139.313 468.164 139.773 468.036 140.22C467.998 140.348 467.972 140.476 467.934 140.603C467.768 141.153 467.576 141.702 467.346 142.251C467.295 142.379 467.232 142.494 467.18 142.622C467.002 143.031 466.81 143.439 466.593 143.835C466.503 144.001 466.427 144.155 466.337 144.321C466.107 144.742 465.852 145.164 465.571 145.585C465.507 145.688 465.443 145.79 465.379 145.892C465.047 146.39 464.677 146.888 464.293 147.387C464.191 147.514 464.089 147.629 463.987 147.757C463.68 148.14 463.361 148.511 463.016 148.894C462.863 149.06 462.709 149.226 462.556 149.392C462.249 149.724 461.917 150.056 461.585 150.376C461.419 150.529 461.266 150.695 461.1 150.848C460.678 151.244 460.244 151.64 459.784 152.036C459.695 152.113 459.605 152.203 459.503 152.279C458.954 152.752 458.366 153.224 457.753 153.684C457.587 153.812 457.408 153.94 457.229 154.068C456.769 154.413 456.309 154.745 455.824 155.09C455.632 155.23 455.428 155.371 455.224 155.498C454.368 156.073 453.486 156.661 452.554 157.236L435.129 167.902C434.836 168.081 434.554 168.26 434.299 168.439C434.273 168.464 434.248 168.477 434.222 168.503C433.852 168.758 433.507 169.014 433.2 169.282C433.2 169.282 433.2 169.282 433.188 169.282C433.162 169.308 433.136 169.333 433.111 169.359C432.843 169.601 432.587 169.831 432.37 170.074C432.344 170.1 432.306 170.125 432.281 170.151C432.23 170.202 432.191 170.266 432.14 170.317C431.974 170.508 431.808 170.713 431.667 170.904C431.629 170.955 431.578 171.007 431.552 171.058C431.527 171.096 431.514 171.134 431.489 171.185C431.335 171.428 431.208 171.671 431.093 171.914C431.08 171.952 431.041 171.99 431.029 172.029C431.029 172.029 431.029 172.041 431.029 172.054C430.901 172.361 430.824 172.667 430.76 172.974C430.76 172.999 430.735 173.038 430.735 173.063C430.709 173.229 430.697 173.383 430.684 173.549L428.602 216.931C428.602 216.739 428.64 216.547 428.678 216.356C428.729 216.049 428.819 215.743 428.946 215.436C428.972 215.385 428.998 215.347 429.01 215.296C429.125 215.053 429.253 214.81 429.406 214.567C429.47 214.478 429.521 214.389 429.585 214.299C429.726 214.095 429.879 213.903 430.058 213.699C430.135 213.609 430.198 213.533 430.275 213.443C430.505 213.201 430.748 212.958 431.029 212.728C431.054 212.702 431.08 212.677 431.118 212.651C431.425 212.383 431.77 212.128 432.14 211.872C432.434 211.668 432.728 211.476 433.047 211.272L450.471 200.605C451.404 200.03 452.285 199.455 453.141 198.868C453.243 198.804 453.358 198.727 453.461 198.663C453.563 198.599 453.652 198.523 453.742 198.459C454.227 198.127 454.687 197.782 455.134 197.45C455.313 197.322 455.492 197.194 455.658 197.054C456.271 196.581 456.846 196.121 457.408 195.648C457.421 195.648 457.433 195.623 457.459 195.61C457.536 195.546 457.612 195.47 457.689 195.406C458.149 195.01 458.583 194.614 459.005 194.218C459.171 194.064 459.337 193.898 459.49 193.745C459.822 193.413 460.154 193.094 460.461 192.761C460.55 192.672 460.64 192.583 460.729 192.493C460.793 192.417 460.857 192.34 460.921 192.263C461.266 191.893 461.585 191.51 461.892 191.126C461.994 190.999 462.096 190.884 462.198 190.756C462.582 190.258 462.952 189.759 463.284 189.261C463.297 189.236 463.323 189.21 463.335 189.197C463.386 189.121 463.425 189.044 463.476 188.955C463.744 188.533 464.012 188.112 464.242 187.69C464.332 187.524 464.421 187.371 464.498 187.205C464.715 186.796 464.907 186.387 465.085 185.991C465.124 185.902 465.175 185.812 465.213 185.723C465.226 185.684 465.239 185.659 465.251 185.62C465.481 185.071 465.673 184.522 465.839 183.973C465.877 183.845 465.903 183.717 465.941 183.589C466.069 183.142 466.171 182.682 466.248 182.235C466.261 182.146 466.299 182.056 466.312 181.967C466.312 181.916 466.312 181.852 466.325 181.801C466.401 181.277 466.465 180.753 466.491 180.23L468.573 136.848C468.547 137.371 468.483 137.895 468.407 138.419L468.42 138.432Z" fill="url(#paint1_linear_1940_23431)"/>
<path d="M1069.37 175.094C1069.34 175.618 1069.28 176.142 1069.2 176.666C1069.17 176.806 1069.15 176.959 1069.12 177.1C1069.05 177.547 1068.94 178.007 1068.82 178.454C1068.78 178.582 1068.75 178.71 1068.71 178.837C1068.55 179.387 1068.36 179.936 1068.13 180.485C1068.08 180.613 1068.01 180.728 1067.96 180.856C1067.78 181.264 1067.59 181.673 1067.37 182.069C1067.28 182.235 1067.21 182.389 1067.12 182.555C1066.89 182.976 1066.62 183.398 1066.35 183.819C1066.29 183.922 1066.22 184.024 1066.16 184.126C1065.83 184.624 1065.46 185.122 1065.07 185.621C1064.97 185.748 1064.87 185.863 1064.77 185.991C1064.46 186.374 1064.14 186.745 1063.8 187.128C1063.64 187.294 1063.49 187.46 1063.34 187.626C1063.03 187.958 1062.71 188.278 1062.38 188.61C1062.21 188.776 1062.06 188.929 1061.88 189.095C1061.46 189.491 1061.02 189.874 1060.58 190.27C1060.48 190.36 1060.39 190.437 1060.28 190.526C1059.73 190.999 1059.15 191.471 1058.53 191.931C1058.37 192.059 1058.18 192.187 1058.01 192.327C1057.56 192.672 1057.09 193.004 1056.62 193.336C1056.41 193.477 1056.21 193.617 1056.02 193.758C1055.16 194.333 1054.29 194.92 1053.35 195.495L1032.44 208.295C1032.14 208.474 1031.86 208.653 1031.6 208.832C1031.58 208.857 1031.55 208.87 1031.53 208.896C1031.16 209.151 1030.81 209.407 1030.51 209.675C1030.51 209.675 1030.51 209.675 1030.49 209.675C1030.47 209.7 1030.44 209.726 1030.4 209.751C1030.14 209.981 1029.89 210.224 1029.66 210.454C1029.64 210.48 1029.6 210.505 1029.57 210.531C1029.52 210.582 1029.48 210.646 1029.43 210.697C1029.27 210.888 1029.1 211.093 1028.96 211.297C1028.92 211.348 1028.87 211.399 1028.85 211.45C1028.82 211.489 1028.81 211.527 1028.78 211.578C1028.63 211.821 1028.5 212.064 1028.39 212.306C1028.37 212.345 1028.33 212.383 1028.32 212.421C1028.32 212.421 1028.32 212.434 1028.32 212.447C1028.19 212.753 1028.12 213.06 1028.05 213.367C1028.05 213.392 1028.03 213.431 1028.03 213.456C1028 213.622 1027.99 213.775 1027.98 213.941L1025.89 257.324C1025.89 257.132 1025.93 256.94 1025.97 256.749C1026.02 256.442 1026.11 256.136 1026.24 255.829C1026.27 255.778 1026.29 255.739 1026.3 255.688C1026.42 255.446 1026.55 255.203 1026.7 254.96C1026.75 254.871 1026.81 254.781 1026.88 254.692C1027.02 254.488 1027.17 254.296 1027.35 254.092C1027.43 254.002 1027.49 253.926 1027.57 253.836C1027.8 253.593 1028.04 253.363 1028.31 253.121C1028.35 253.095 1028.37 253.057 1028.4 253.031C1028.7 252.763 1029.05 252.508 1029.42 252.252C1029.71 252.048 1030.01 251.843 1030.33 251.652L1051.24 238.852C1052.17 238.277 1053.05 237.702 1053.91 237.114C1054.01 237.05 1054.13 236.974 1054.23 236.91C1054.33 236.846 1054.42 236.769 1054.51 236.706C1054.99 236.373 1055.45 236.029 1055.91 235.684C1056.08 235.556 1056.27 235.428 1056.44 235.3C1057.05 234.828 1057.63 234.368 1058.19 233.895C1058.2 233.895 1058.23 233.87 1058.24 233.857C1058.32 233.78 1058.39 233.716 1058.47 233.64C1058.93 233.244 1059.36 232.86 1059.79 232.464C1059.95 232.298 1060.12 232.145 1060.28 231.979C1060.62 231.647 1060.93 231.328 1061.24 230.995C1061.33 230.906 1061.43 230.817 1061.51 230.714C1061.57 230.638 1061.64 230.561 1061.7 230.484C1062.05 230.114 1062.37 229.731 1062.67 229.347C1062.77 229.22 1062.88 229.105 1062.98 228.977C1063.36 228.479 1063.73 227.981 1064.06 227.482C1064.08 227.457 1064.1 227.431 1064.12 227.419C1064.17 227.342 1064.21 227.252 1064.26 227.176C1064.52 226.754 1064.78 226.333 1065.02 225.911C1065.11 225.758 1065.2 225.592 1065.28 225.438C1065.5 225.03 1065.69 224.621 1065.87 224.212C1065.9 224.123 1065.96 224.033 1065.99 223.944C1066.01 223.906 1066.02 223.88 1066.03 223.842C1066.26 223.292 1066.45 222.743 1066.62 222.194C1066.66 222.066 1066.68 221.938 1066.72 221.811C1066.85 221.363 1066.94 220.904 1067.03 220.456C1067.04 220.367 1067.08 220.278 1067.09 220.188C1067.09 220.137 1067.09 220.073 1067.1 220.022C1067.18 219.498 1067.25 218.975 1067.27 218.451L1069.35 175.069L1069.37 175.094Z" fill="url(#paint2_linear_1940_23431)"/>
<path d="M888.854 194.869C889.313 194.972 889.761 195.061 890.22 195.163C890.923 195.316 891.626 195.47 892.315 195.636C892.878 195.764 893.414 195.904 893.951 196.045C894.525 196.185 895.1 196.338 895.662 196.492C896.378 196.683 897.08 196.888 897.77 197.079C898.268 197.22 898.792 197.373 899.278 197.526C899.52 197.603 899.776 197.68 900.018 197.756C900.747 197.986 901.462 198.229 902.152 198.472C902.331 198.536 902.522 198.6 902.701 198.663C903.506 198.957 904.285 199.251 905.039 199.558C905.205 199.621 905.358 199.685 905.511 199.749C906.265 200.056 906.993 200.375 907.683 200.695C907.696 200.695 907.721 200.707 907.734 200.72C908.411 201.039 909.037 201.359 909.638 201.678C909.765 201.742 909.88 201.806 910.008 201.87C910.596 202.189 911.145 202.521 911.656 202.853C911.745 202.917 911.835 202.981 911.924 203.032C912.397 203.339 912.844 203.658 913.253 203.978C913.304 204.016 913.355 204.054 913.406 204.093C913.84 204.425 914.224 204.77 914.569 205.114C914.645 205.191 914.722 205.268 914.799 205.332C915.131 205.677 915.437 206.021 915.706 206.366C915.744 206.405 915.757 206.456 915.795 206.494C916.025 206.813 916.229 207.133 916.395 207.465C916.421 207.529 916.459 207.593 916.497 207.644C916.664 207.989 916.779 208.334 916.868 208.679C916.881 208.755 916.894 208.819 916.906 208.896C916.97 209.253 917.021 209.598 916.996 209.956L919.078 166.574C919.091 166.216 919.052 165.871 918.988 165.514C918.976 165.437 918.963 165.373 918.95 165.297C918.861 164.952 918.746 164.607 918.58 164.262C918.554 164.198 918.516 164.134 918.478 164.083C918.311 163.764 918.12 163.444 917.877 163.112C917.852 163.074 917.826 163.023 917.788 162.984C917.532 162.639 917.226 162.294 916.881 161.95C916.804 161.873 916.727 161.796 916.651 161.732C916.293 161.388 915.91 161.055 915.488 160.71C915.437 160.672 915.386 160.634 915.335 160.595C914.926 160.276 914.479 159.97 914.006 159.65C913.917 159.586 913.828 159.522 913.738 159.471C913.227 159.139 912.678 158.82 912.09 158.488C911.975 158.424 911.848 158.36 911.72 158.296C911.12 157.977 910.493 157.657 909.816 157.338C909.804 157.338 909.778 157.325 909.765 157.312C909.076 156.993 908.347 156.674 907.594 156.367C907.44 156.303 907.274 156.239 907.121 156.176C906.444 155.907 905.754 155.639 905.039 155.371C904.962 155.345 904.873 155.32 904.796 155.281C904.617 155.217 904.426 155.154 904.247 155.09C903.557 154.847 902.842 154.604 902.113 154.374C901.871 154.298 901.628 154.221 901.373 154.144C901.194 154.093 901.028 154.029 900.849 153.978C900.542 153.889 900.197 153.799 899.878 153.71C899.188 153.506 898.498 153.314 897.77 153.122C897.566 153.071 897.387 153.007 897.183 152.956C896.825 152.867 896.429 152.778 896.071 152.688C895.535 152.548 894.985 152.42 894.436 152.279C894.206 152.228 894.002 152.164 893.772 152.113C893.312 152.011 892.814 151.909 892.341 151.807C891.881 151.704 891.434 151.602 890.961 151.513C890.795 151.475 890.642 151.436 890.463 151.411C889.709 151.257 888.93 151.117 888.151 150.964C887.883 150.912 887.627 150.861 887.359 150.81C887.308 150.81 887.257 150.785 887.206 150.785C886.145 150.593 885.072 150.401 883.961 150.223C883.769 150.197 883.565 150.159 883.373 150.133C882.492 149.993 881.598 149.865 880.703 149.737C880.691 149.737 880.665 149.737 880.652 149.737C879.63 149.597 878.608 149.456 877.586 149.328C877.535 149.328 877.484 149.316 877.433 149.303C877.19 149.277 876.935 149.252 876.692 149.213C875.964 149.124 875.236 149.035 874.508 148.958C874.393 148.945 874.265 148.932 874.15 148.92C873.895 148.894 873.626 148.869 873.371 148.843C872.707 148.779 872.055 148.702 871.391 148.651C871.212 148.639 871.021 148.613 870.842 148.6C870.624 148.575 870.407 148.562 870.19 148.549C869.526 148.485 868.874 148.434 868.21 148.383C867.967 148.37 867.737 148.345 867.495 148.319C867.341 148.319 867.188 148.294 867.035 148.294C866.307 148.243 865.591 148.192 864.876 148.153C864.62 148.14 864.365 148.115 864.109 148.102C864.033 148.102 863.956 148.102 863.88 148.102C862.819 148.038 861.772 147.987 860.724 147.949C860.711 147.949 860.686 147.949 860.673 147.949C860.584 147.949 860.482 147.949 860.392 147.949C859.383 147.91 858.387 147.872 857.39 147.847C857.262 147.847 857.135 147.847 857.007 147.834C856.828 147.834 856.649 147.834 856.47 147.834C855.41 147.808 854.35 147.795 853.289 147.783C853.136 147.783 852.983 147.783 852.83 147.783C852.779 147.783 852.74 147.783 852.689 147.783C850.913 147.783 849.151 147.783 847.4 147.834C847.324 147.834 847.26 147.834 847.183 147.834C847.145 147.834 847.107 147.834 847.068 147.834C845.842 147.859 844.616 147.91 843.415 147.962C843.134 147.962 842.853 147.987 842.572 148C841.358 148.064 840.145 148.128 838.957 148.204C837.769 148.281 836.606 148.383 835.456 148.485C835.188 148.511 834.92 148.536 834.652 148.562C833.527 148.664 832.416 148.779 831.33 148.92C831.292 148.92 831.254 148.92 831.215 148.92C831.113 148.92 831.024 148.945 830.922 148.958C829.887 149.086 828.865 149.226 827.868 149.367C827.664 149.392 827.447 149.431 827.242 149.456C826.182 149.622 825.147 149.788 824.138 149.967C824.062 149.98 823.972 149.993 823.896 150.005C823.678 150.044 823.474 150.095 823.257 150.133C822.835 150.21 822.414 150.299 822.005 150.376C821.685 150.44 821.366 150.504 821.06 150.58C820.664 150.67 820.268 150.759 819.872 150.849C819.718 150.887 819.565 150.912 819.412 150.951C819.31 150.976 819.233 151.002 819.131 151.027C818.134 151.27 817.176 151.513 816.256 151.781C816.205 151.794 816.154 151.807 816.116 151.819C816.014 151.845 815.911 151.883 815.809 151.922C815.132 152.126 814.468 152.33 813.829 152.548C813.727 152.586 813.612 152.611 813.51 152.65C813.446 152.675 813.395 152.688 813.344 152.714C812.68 152.944 812.028 153.186 811.428 153.442C811.402 153.442 811.377 153.455 811.364 153.467C811.274 153.506 811.185 153.544 811.096 153.582C810.636 153.774 810.188 153.966 809.767 154.17C809.703 154.208 809.614 154.234 809.55 154.272C809.435 154.323 809.345 154.387 809.23 154.438C808.911 154.604 808.604 154.758 808.298 154.924C808.196 154.975 808.094 155.026 808.004 155.077C807.838 155.179 807.659 155.269 807.506 155.371L716.194 211.259C715.555 211.642 714.904 212.025 714.24 212.409C713.435 212.869 712.604 213.328 711.749 213.776C711.595 213.852 711.442 213.929 711.289 214.005C710.573 214.376 709.845 214.746 709.104 215.104C708.81 215.245 708.517 215.385 708.223 215.526C707.546 215.845 706.856 216.164 706.153 216.484C705.821 216.637 705.489 216.778 705.157 216.931C704.429 217.25 703.675 217.57 702.921 217.889C702.64 218.004 702.359 218.119 702.078 218.247C700.98 218.694 699.868 219.128 698.719 219.562C698.463 219.665 698.195 219.754 697.927 219.856C697.007 220.201 696.074 220.533 695.129 220.865C694.784 220.993 694.439 221.108 694.082 221.223C692.753 221.683 691.412 222.13 690.032 222.564C689.943 222.59 689.84 222.615 689.751 222.654C688.448 223.063 687.107 223.471 685.74 223.867C685.408 223.97 685.063 224.059 684.731 224.161C683.096 224.634 681.422 225.094 679.71 225.541C679.429 225.617 679.135 225.694 678.842 225.771C677.053 226.231 675.239 226.691 673.387 227.125C673.336 227.125 673.285 227.15 673.246 227.163C670.781 227.751 668.264 228.3 665.684 228.837C665.48 228.875 665.288 228.913 665.084 228.964C662.644 229.475 660.14 229.961 657.61 230.421C657.266 230.485 656.921 230.548 656.563 230.612C654.775 230.932 652.961 231.251 651.134 231.558C651.044 231.57 650.968 231.583 650.891 231.596C649 231.915 647.072 232.209 645.13 232.503C644.708 232.567 644.299 232.631 643.878 232.694C641.962 232.976 640.02 233.257 638.066 233.512C637.772 233.55 637.465 233.589 637.159 233.627C635.345 233.87 633.518 234.1 631.678 234.317C631.333 234.355 630.976 234.406 630.631 234.445C628.676 234.675 626.709 234.892 624.729 235.109C624.295 235.16 623.873 235.198 623.439 235.249C621.599 235.441 619.747 235.62 617.882 235.799C617.639 235.824 617.397 235.85 617.154 235.875C615.11 236.067 613.053 236.246 610.984 236.412C610.498 236.45 610.013 236.489 609.54 236.527C605.325 236.859 601.058 237.153 596.727 237.395C596.229 237.421 595.731 237.447 595.233 237.485C593.087 237.6 590.941 237.715 588.769 237.817C588.513 237.817 588.245 237.843 587.977 237.855C585.997 237.945 584.004 238.021 582.011 238.098C581.526 238.111 581.04 238.136 580.555 238.149C578.383 238.226 576.199 238.29 574.002 238.341C573.682 238.341 573.363 238.354 573.056 238.366C570.029 238.43 567.001 238.481 563.935 238.507C563.603 238.507 563.271 238.507 562.939 238.507C559.911 238.532 556.871 238.545 553.818 238.52C553.524 238.52 553.243 238.52 552.949 238.52C548.236 238.494 543.483 238.43 538.719 238.302C538.45 238.302 538.169 238.29 537.901 238.277C533.749 238.175 529.585 238.034 525.408 237.855C525.305 237.855 525.203 237.855 525.101 237.855C521.179 237.689 517.232 237.485 513.298 237.255C512.978 237.242 512.659 237.217 512.339 237.204C508.648 236.987 504.956 236.744 501.264 236.463C500.97 236.437 500.676 236.425 500.383 236.399C496.537 236.105 492.692 235.786 488.86 235.441C488.732 235.441 488.592 235.415 488.464 235.403C484.747 235.058 481.042 234.687 477.337 234.291C476.98 234.253 476.635 234.215 476.29 234.176C472.713 233.793 469.149 233.372 465.585 232.924C465.304 232.886 465.01 232.861 464.729 232.822C460.961 232.35 457.192 231.851 453.449 231.315C453.296 231.289 453.13 231.264 452.977 231.251C449.885 230.804 446.819 230.344 443.753 229.859L408.624 224.289C406.465 223.944 404.344 223.599 402.236 223.241C401.802 223.165 401.355 223.101 400.921 223.024C398.685 222.641 396.488 222.245 394.303 221.849C393.639 221.734 393 221.606 392.349 221.479C390.791 221.185 389.232 220.891 387.712 220.597C386.933 220.444 386.153 220.291 385.374 220.137C384.007 219.869 382.653 219.588 381.312 219.307C380.43 219.128 379.562 218.936 378.68 218.758C377.39 218.477 376.113 218.195 374.835 217.914C374.005 217.723 373.162 217.544 372.344 217.352C371.182 217.084 370.032 216.816 368.882 216.548C367.899 216.318 366.902 216.075 365.919 215.845C364.794 215.577 363.696 215.296 362.597 215.015C361.652 214.772 360.707 214.542 359.774 214.299C358.918 214.069 358.075 213.852 357.232 213.622C355.903 213.265 354.575 212.907 353.285 212.549C352.429 212.306 351.586 212.064 350.743 211.821C349.516 211.463 348.29 211.118 347.089 210.748C345.939 210.403 344.79 210.058 343.678 209.713C343.295 209.598 342.912 209.483 342.529 209.356C340.906 208.845 339.309 208.334 337.738 207.81C337.406 207.695 337.087 207.593 336.767 207.478C335.49 207.043 334.225 206.609 332.986 206.175C332.577 206.034 332.169 205.881 331.76 205.74C330.316 205.217 328.886 204.693 327.493 204.169C327.289 204.093 327.084 204.016 326.88 203.926C325.564 203.428 324.287 202.917 323.035 202.406C322.818 202.317 322.6 202.227 322.383 202.138C321.042 201.589 319.739 201.039 318.462 200.49C318.193 200.375 317.925 200.26 317.657 200.132C316.367 199.57 315.102 198.996 313.876 198.421C313.824 198.395 313.761 198.37 313.709 198.344C312.521 197.782 311.372 197.22 310.248 196.658C310.018 196.543 309.788 196.428 309.558 196.313C308.434 195.738 307.348 195.163 306.275 194.588C306.07 194.473 305.866 194.371 305.674 194.256C304.665 193.707 303.682 193.145 302.736 192.583C302.647 192.532 302.545 192.468 302.442 192.417C301.446 191.829 300.488 191.229 299.543 190.628C299.351 190.5 299.147 190.373 298.955 190.245C298.035 189.645 297.154 189.057 296.298 188.457C296.183 188.38 296.068 188.29 295.953 188.214C295.174 187.652 294.42 187.09 293.692 186.528C293.564 186.425 293.424 186.323 293.296 186.221C292.529 185.621 291.801 185.02 291.111 184.407C290.971 184.279 290.818 184.152 290.677 184.024C289.975 183.398 289.297 182.785 288.672 182.159C288.659 182.146 288.646 182.133 288.633 182.108C288.02 181.494 287.445 180.881 286.883 180.255C286.768 180.128 286.653 180 286.551 179.872C286.014 179.259 285.516 178.646 285.056 178.033C284.967 177.918 284.89 177.803 284.801 177.688C284.379 177.1 283.971 176.525 283.613 175.938C283.575 175.874 283.523 175.797 283.485 175.733C283.102 175.107 282.77 174.494 282.45 173.868C282.387 173.74 282.323 173.6 282.259 173.472C281.965 172.846 281.697 172.233 281.48 171.607C281.454 171.53 281.428 171.454 281.403 171.377C281.198 170.802 281.032 170.215 280.905 169.64C280.879 169.525 280.854 169.423 280.828 169.308C280.7 168.694 280.598 168.081 280.547 167.468C280.547 167.34 280.521 167.213 280.521 167.085C280.47 166.446 280.458 165.82 280.483 165.194L278.401 208.576C278.375 209.202 278.401 209.841 278.439 210.467C278.439 210.595 278.452 210.722 278.465 210.85C278.529 211.463 278.618 212.077 278.746 212.69C278.771 212.805 278.797 212.907 278.822 213.022C278.963 213.597 279.129 214.184 279.321 214.759C279.346 214.836 279.372 214.912 279.397 214.989C279.614 215.615 279.883 216.228 280.177 216.854C280.24 216.982 280.304 217.122 280.368 217.25C280.675 217.876 281.02 218.489 281.403 219.115C281.441 219.179 281.492 219.256 281.531 219.32C281.901 219.907 282.297 220.482 282.719 221.07C282.808 221.185 282.885 221.3 282.974 221.415C283.434 222.028 283.932 222.641 284.469 223.254C284.584 223.382 284.699 223.51 284.801 223.637C285.35 224.251 285.925 224.877 286.551 225.49C286.564 225.502 286.577 225.515 286.589 225.541C287.215 226.167 287.892 226.793 288.595 227.406C288.735 227.534 288.876 227.661 289.029 227.789C289.732 228.39 290.447 229.003 291.214 229.603C291.341 229.705 291.482 229.807 291.622 229.91C292.351 230.472 293.104 231.034 293.884 231.596C293.999 231.673 294.113 231.762 294.228 231.839C295.072 232.439 295.966 233.039 296.873 233.627C297.064 233.755 297.269 233.883 297.46 234.01C298.393 234.611 299.351 235.211 300.36 235.799C300.45 235.85 300.552 235.914 300.654 235.965C301.599 236.527 302.583 237.076 303.579 237.625C303.784 237.74 303.988 237.855 304.193 237.958C305.253 238.532 306.339 239.107 307.463 239.669C307.693 239.784 307.935 239.899 308.165 240.027C309.29 240.589 310.439 241.151 311.627 241.713C311.678 241.739 311.742 241.764 311.793 241.79C313.02 242.365 314.284 242.927 315.575 243.502C315.843 243.617 316.124 243.744 316.392 243.859C317.67 244.409 318.973 244.958 320.301 245.507C320.518 245.597 320.748 245.686 320.978 245.776C322.23 246.287 323.507 246.785 324.81 247.283C325.015 247.36 325.219 247.449 325.436 247.526C326.548 247.947 327.659 248.369 328.809 248.778C329.103 248.88 329.409 248.982 329.703 249.097C330.112 249.25 330.533 249.391 330.942 249.544C332.169 249.978 333.42 250.413 334.685 250.834C335.017 250.949 335.349 251.064 335.682 251.179C337.24 251.703 338.837 252.214 340.459 252.725C340.842 252.84 341.226 252.955 341.609 253.083C342.35 253.312 343.091 253.542 343.857 253.772C344.24 253.887 344.649 254.002 345.032 254.117C346.233 254.475 347.46 254.833 348.686 255.19C349.529 255.433 350.372 255.676 351.228 255.918C352.531 256.276 353.847 256.634 355.175 256.992C355.801 257.158 356.402 257.336 357.028 257.49C357.258 257.554 357.488 257.605 357.717 257.669C358.65 257.911 359.595 258.141 360.541 258.384C361.639 258.665 362.738 258.946 363.862 259.214C364.833 259.457 365.829 259.687 366.826 259.917C367.643 260.108 368.448 260.313 369.278 260.504C369.61 260.581 369.955 260.658 370.288 260.734C371.105 260.926 371.948 261.105 372.779 261.297C374.056 261.578 375.333 261.859 376.624 262.14C377.492 262.331 378.361 262.51 379.242 262.689C379.868 262.817 380.482 262.957 381.12 263.085C381.848 263.238 382.589 263.379 383.317 263.519C384.097 263.673 384.863 263.826 385.642 263.979C387.163 264.273 388.708 264.567 390.267 264.861C390.931 264.988 391.583 265.116 392.26 265.231C392.438 265.269 392.63 265.295 392.809 265.333C394.802 265.691 396.82 266.049 398.864 266.406C399.298 266.483 399.745 266.547 400.18 266.623C401.598 266.866 403.003 267.109 404.446 267.339C405.149 267.454 405.864 267.569 406.58 267.684L441.709 273.253C444.775 273.739 447.867 274.199 450.958 274.646C451.06 274.659 451.175 274.684 451.278 274.697C451.316 274.697 451.354 274.697 451.393 274.71C455.135 275.246 458.904 275.744 462.685 276.217C462.8 276.23 462.902 276.243 463.017 276.255C463.196 276.281 463.362 276.294 463.541 276.319C467.105 276.766 470.669 277.175 474.246 277.571C474.425 277.597 474.616 277.609 474.795 277.635C474.961 277.648 475.127 277.661 475.294 277.686C478.998 278.082 482.703 278.453 486.42 278.797C486.509 278.797 486.599 278.81 486.688 278.823C486.727 278.823 486.778 278.823 486.816 278.823C490.661 279.168 494.506 279.487 498.351 279.781C498.466 279.781 498.581 279.807 498.696 279.807C498.862 279.807 499.041 279.832 499.207 279.845C502.912 280.113 506.604 280.369 510.295 280.586C510.474 280.586 510.653 280.611 510.832 280.624C510.973 280.624 511.113 280.637 511.254 280.65C515.201 280.88 519.135 281.084 523.07 281.25C523.095 281.25 523.134 281.25 523.159 281.25C523.223 281.25 523.274 281.25 523.338 281.25C527.528 281.429 531.705 281.57 535.87 281.672C536.023 281.672 536.189 281.672 536.343 281.685C536.445 281.685 536.56 281.685 536.662 281.685C541.44 281.799 546.179 281.876 550.906 281.902C551.046 281.902 551.187 281.902 551.314 281.902C551.468 281.902 551.621 281.902 551.774 281.902C554.827 281.914 557.868 281.902 560.895 281.889C561.227 281.889 561.559 281.889 561.892 281.889C564.945 281.863 567.985 281.812 571.012 281.748C571.191 281.748 571.383 281.748 571.575 281.748C571.702 281.748 571.843 281.748 571.971 281.748C574.168 281.697 576.352 281.633 578.524 281.557C579.009 281.544 579.495 281.518 579.98 281.506C581.986 281.429 583.966 281.352 585.946 281.263C586.201 281.263 586.47 281.237 586.738 281.225C588.909 281.122 591.056 281.02 593.202 280.893C593.7 280.867 594.198 280.841 594.696 280.803C599.027 280.548 603.294 280.267 607.509 279.934C607.995 279.896 608.48 279.858 608.965 279.819C611.035 279.653 613.091 279.475 615.135 279.283C615.378 279.257 615.621 279.232 615.864 279.206C617.729 279.027 619.581 278.849 621.421 278.657C621.855 278.606 622.289 278.568 622.711 278.516C624.691 278.299 626.671 278.082 628.612 277.852C628.727 277.839 628.855 277.827 628.97 277.814C629.2 277.788 629.43 277.75 629.673 277.724C631.512 277.507 633.339 277.277 635.153 277.035C635.46 276.996 635.753 276.958 636.06 276.92C638.014 276.651 639.956 276.383 641.872 276.102C642.294 276.038 642.716 275.974 643.137 275.91C645.079 275.617 647.008 275.323 648.898 275.003C648.988 274.991 649.064 274.978 649.141 274.965C650.98 274.659 652.782 274.339 654.57 274.02C654.8 273.982 655.03 273.943 655.26 273.905C655.388 273.879 655.503 273.854 655.618 273.828C658.16 273.356 660.651 272.87 663.091 272.372C663.295 272.334 663.487 272.295 663.691 272.244C666.272 271.708 668.788 271.146 671.254 270.571C671.292 270.571 671.317 270.558 671.356 270.545C671.369 270.545 671.381 270.545 671.394 270.545C673.246 270.111 675.06 269.651 676.849 269.191C677.143 269.114 677.424 269.038 677.717 268.974C679.429 268.527 681.103 268.067 682.751 267.594C682.891 267.556 683.044 267.518 683.198 267.467C683.389 267.415 683.568 267.352 683.747 267.3C685.114 266.904 686.455 266.496 687.771 266.087C687.86 266.061 687.963 266.036 688.052 265.997C689.432 265.563 690.786 265.103 692.101 264.656C692.255 264.605 692.421 264.554 692.574 264.503C692.766 264.439 692.945 264.375 693.123 264.299C694.082 263.966 695.027 263.621 695.947 263.277C696.202 263.187 696.47 263.085 696.726 262.995C697.876 262.561 699 262.127 700.098 261.68C700.175 261.654 700.252 261.629 700.315 261.59C700.52 261.501 700.724 261.411 700.929 261.322C701.695 261.003 702.436 260.683 703.177 260.364C703.509 260.211 703.841 260.07 704.173 259.917C704.876 259.597 705.566 259.278 706.243 258.959C706.447 258.869 706.652 258.767 706.856 258.678C706.945 258.639 707.035 258.588 707.124 258.537C707.865 258.18 708.593 257.809 709.309 257.439C709.462 257.362 709.615 257.285 709.769 257.209C710.624 256.762 711.455 256.302 712.26 255.842C712.311 255.816 712.362 255.791 712.413 255.765C713.026 255.407 713.626 255.063 714.214 254.692L805.526 198.804C805.781 198.651 806.062 198.497 806.331 198.344C806.625 198.178 806.944 198.012 807.263 197.859C807.442 197.769 807.608 197.68 807.8 197.59C808.221 197.386 808.668 197.194 809.141 197.003C809.256 196.952 809.358 196.9 809.473 196.862C810.086 196.607 810.725 196.377 811.389 196.134C811.555 196.083 811.721 196.019 811.888 195.968C812.526 195.751 813.178 195.546 813.855 195.342C814.008 195.291 814.149 195.253 814.302 195.201C815.222 194.933 816.193 194.69 817.189 194.448C817.432 194.384 817.674 194.333 817.917 194.269C818.3 194.18 818.696 194.09 819.105 194.001C819.424 193.937 819.731 193.86 820.05 193.796C820.459 193.707 820.893 193.63 821.315 193.554C821.609 193.502 821.89 193.439 822.197 193.388C823.206 193.209 824.24 193.03 825.288 192.877C825.505 192.838 825.709 192.813 825.927 192.787C826.923 192.647 827.945 192.506 828.98 192.378C829.107 192.366 829.235 192.34 829.363 192.327C830.449 192.199 831.573 192.085 832.697 191.97C832.965 191.944 833.234 191.918 833.502 191.893C834.652 191.791 835.814 191.688 837.002 191.612C838.19 191.535 839.404 191.471 840.617 191.407C840.898 191.395 841.179 191.382 841.46 191.369C842.674 191.318 843.888 191.28 845.114 191.241C845.216 191.241 845.331 191.241 845.433 191.241C847.171 191.203 848.933 191.19 850.722 191.19C850.926 191.19 851.118 191.19 851.322 191.19C852.37 191.19 853.43 191.216 854.503 191.241C854.81 191.241 855.116 191.241 855.423 191.267C856.432 191.293 857.454 191.331 858.463 191.369C858.553 191.369 858.655 191.369 858.744 191.369C859.805 191.42 860.865 191.471 861.925 191.535C862.244 191.548 862.564 191.574 862.883 191.599C863.611 191.65 864.339 191.689 865.068 191.74C865.464 191.765 865.847 191.803 866.243 191.829C866.907 191.88 867.559 191.931 868.223 191.995C868.619 192.033 869.028 192.072 869.424 192.11C870.088 192.174 870.739 192.238 871.404 192.302C871.787 192.34 872.157 192.378 872.541 192.417C873.269 192.493 873.997 192.583 874.725 192.672C875.019 192.71 875.325 192.736 875.619 192.774C876.641 192.902 877.663 193.043 878.685 193.183C879.592 193.311 880.499 193.451 881.406 193.592C882.773 193.809 884.101 194.039 885.392 194.269C885.66 194.32 885.916 194.371 886.171 194.422C887.129 194.601 888.074 194.793 888.994 194.984L888.854 194.869Z" fill="url(#paint3_linear_1940_23431)"/>
<path d="M1005.87 264.541C1003.71 264.196 1001.59 263.851 999.467 263.494C999.033 263.417 998.585 263.353 998.151 263.276C995.916 262.893 993.718 262.497 991.534 262.101C990.87 261.986 990.231 261.859 989.579 261.731C988.021 261.437 986.462 261.143 984.942 260.849C984.163 260.696 983.384 260.543 982.605 260.389C981.238 260.121 979.884 259.84 978.555 259.559C977.674 259.38 976.792 259.189 975.924 258.997C974.633 258.716 973.356 258.435 972.078 258.154C971.248 257.962 970.405 257.783 969.587 257.592C968.425 257.324 967.275 257.055 966.126 256.787C965.142 256.557 964.146 256.314 963.175 256.084C962.051 255.803 960.939 255.535 959.841 255.254C958.895 255.011 957.95 254.781 957.03 254.539C956.174 254.309 955.331 254.092 954.475 253.862C953.147 253.504 951.831 253.146 950.528 252.789C949.659 252.546 948.816 252.303 947.973 252.06C946.747 251.703 945.533 251.358 944.332 251C943.17 250.655 942.02 250.31 940.896 249.953C940.526 249.838 940.142 249.723 939.772 249.608C938.15 249.097 936.553 248.573 934.981 248.062C934.649 247.947 934.33 247.845 933.998 247.73C932.72 247.296 931.469 246.861 930.242 246.427C929.833 246.286 929.412 246.133 929.003 245.993C927.559 245.469 926.142 244.945 924.749 244.421C924.545 244.345 924.34 244.268 924.136 244.179C922.833 243.68 921.556 243.169 920.304 242.671C920.074 242.582 919.856 242.492 919.627 242.403C918.285 241.854 916.982 241.304 915.705 240.755C915.437 240.64 915.168 240.525 914.9 240.397C913.61 239.835 912.345 239.26 911.106 238.686C911.055 238.66 911.004 238.635 910.94 238.609C909.752 238.047 908.602 237.485 907.478 236.923C907.248 236.808 907.005 236.68 906.775 236.565C905.651 235.99 904.565 235.428 903.505 234.853C903.301 234.738 903.096 234.623 902.892 234.521C901.883 233.972 900.912 233.41 899.954 232.848C899.864 232.797 899.762 232.733 899.66 232.682C898.664 232.094 897.706 231.494 896.773 230.893C896.569 230.765 896.364 230.638 896.173 230.497C895.266 229.91 894.371 229.309 893.528 228.709C893.413 228.619 893.298 228.543 893.183 228.453C892.404 227.891 891.651 227.342 890.935 226.78C890.807 226.678 890.667 226.575 890.539 226.473C889.773 225.873 889.045 225.272 888.355 224.659C888.201 224.532 888.061 224.404 887.92 224.276C887.218 223.65 886.541 223.037 885.915 222.411C885.902 222.398 885.876 222.373 885.864 222.36C885.25 221.747 884.676 221.134 884.126 220.52C884.011 220.393 883.896 220.265 883.794 220.137C883.258 219.524 882.759 218.911 882.3 218.298C882.21 218.183 882.134 218.068 882.044 217.953C881.623 217.378 881.214 216.79 880.856 216.203C880.818 216.139 880.767 216.062 880.716 215.998C880.332 215.372 880 214.759 879.681 214.133C879.617 213.993 879.553 213.865 879.489 213.724C879.195 213.098 878.927 212.485 878.71 211.859C878.684 211.783 878.659 211.706 878.633 211.629C878.429 211.055 878.263 210.467 878.135 209.892C878.11 209.777 878.084 209.675 878.058 209.56C877.931 208.947 877.829 208.334 877.777 207.72C877.777 207.593 877.752 207.465 877.752 207.337C877.701 206.698 877.688 206.072 877.714 205.447L875.631 248.829C875.606 249.455 875.631 250.093 875.67 250.719C875.67 250.847 875.682 250.975 875.695 251.102C875.759 251.716 875.848 252.329 875.976 252.942C876.002 253.057 876.027 253.159 876.053 253.274C876.193 253.849 876.359 254.437 876.551 255.011C876.577 255.088 876.602 255.165 876.628 255.241C876.845 255.867 877.113 256.48 877.407 257.106C877.471 257.247 877.535 257.375 877.599 257.515C877.905 258.141 878.25 258.754 878.633 259.38C878.672 259.444 878.723 259.521 878.761 259.585C879.132 260.172 879.528 260.747 879.949 261.335C880.038 261.45 880.115 261.565 880.205 261.68C880.664 262.293 881.163 262.906 881.699 263.519C881.814 263.647 881.929 263.775 882.031 263.902C882.581 264.516 883.156 265.129 883.769 265.742C883.781 265.755 883.794 265.767 883.82 265.793C884.446 266.419 885.123 267.032 885.825 267.658C885.966 267.786 886.119 267.914 886.272 268.054C886.975 268.654 887.69 269.268 888.457 269.868C888.585 269.97 888.725 270.072 888.853 270.175C889.581 270.737 890.335 271.299 891.114 271.861C891.229 271.938 891.344 272.027 891.459 272.104C892.302 272.704 893.196 273.304 894.103 273.892C894.295 274.02 894.499 274.148 894.704 274.275C895.636 274.876 896.594 275.476 897.591 276.064C897.68 276.115 897.782 276.179 897.884 276.23C898.83 276.792 899.813 277.341 900.823 277.903C901.027 278.018 901.219 278.12 901.423 278.235C902.483 278.81 903.582 279.385 904.693 279.96C904.923 280.075 905.166 280.19 905.396 280.318C906.52 280.88 907.67 281.442 908.858 282.004C908.909 282.029 908.96 282.055 909.024 282.08C910.25 282.655 911.528 283.23 912.818 283.792C913.086 283.907 913.354 284.022 913.623 284.15C914.9 284.699 916.203 285.261 917.544 285.798C917.762 285.887 917.991 285.977 918.209 286.066C919.46 286.577 920.751 287.075 922.054 287.586C922.258 287.663 922.462 287.74 922.667 287.816C923.778 288.238 924.902 288.659 926.039 289.068C926.333 289.17 926.627 289.272 926.921 289.387C927.33 289.541 927.738 289.681 928.16 289.822C929.399 290.256 930.651 290.69 931.928 291.125C932.26 291.24 932.58 291.342 932.912 291.457C934.483 291.981 936.08 292.492 937.702 293.003C938.073 293.118 938.456 293.233 938.827 293.348C939.58 293.577 940.321 293.82 941.088 294.05C941.471 294.165 941.88 294.28 942.263 294.395C943.464 294.753 944.677 295.11 945.904 295.455C946.747 295.698 947.603 295.941 948.458 296.183C949.761 296.541 951.09 296.899 952.419 297.257C953.045 297.423 953.632 297.589 954.258 297.755C954.475 297.819 954.718 297.87 954.935 297.921C955.868 298.163 956.826 298.406 957.784 298.649C958.882 298.93 959.968 299.198 961.092 299.479C962.076 299.722 963.072 299.952 964.082 300.195C964.899 300.386 965.691 300.591 966.522 300.782C966.854 300.859 967.186 300.936 967.518 300.999C968.348 301.191 969.191 301.37 970.022 301.561C971.286 301.843 972.564 302.124 973.854 302.405C974.723 302.596 975.604 302.775 976.486 302.954C977.112 303.082 977.725 303.222 978.351 303.35C979.066 303.503 979.807 303.644 980.535 303.784C981.314 303.938 982.094 304.091 982.873 304.244C984.406 304.538 985.951 304.845 987.51 305.126C988.161 305.253 988.813 305.368 989.465 305.496C989.656 305.534 989.835 305.573 990.027 305.598C992.019 305.956 994.038 306.314 996.082 306.671C996.516 306.748 996.963 306.812 997.397 306.888C998.815 307.131 1000.22 307.374 1001.66 307.604C1002.37 307.719 1003.08 307.834 1003.8 307.949L1279.27 351.573L1281.35 308.191L1005.88 264.567L1005.87 264.541Z" fill="url(#paint4_linear_1940_23431)"/>
<path d="M941.175 115.974C1047.23 132.773 1097.55 168.439 1053.35 195.482L1032.44 208.282C1020.13 215.819 1034.15 225.745 1063.68 230.421L1339.15 274.045L1281.32 309.431L1005.85 265.806C899.799 249.007 849.48 213.341 893.68 186.298L914.592 173.498C926.894 165.961 912.88 156.035 883.345 151.359C853.811 146.684 819.767 149.009 807.465 156.533L716.153 212.421C671.967 239.465 549.741 247.807 443.687 231.008L408.557 225.439C302.504 208.64 252.185 172.974 296.372 145.93L313.797 135.264C326.098 127.727 312.085 117.801 282.55 113.126L-56.918 59.3579L0.911976 23.9727L340.38 77.7403C446.434 94.5387 496.752 130.205 452.565 157.249L435.141 167.915C422.839 175.439 436.853 185.378 466.387 190.053L501.517 195.623C531.052 200.298 565.096 197.973 577.397 190.449L668.709 134.561C712.896 107.518 835.122 99.1759 941.175 115.974Z" fill="url(#paint5_linear_1940_23431)"/>
<defs>
<filter id="filter0_d_1940_23431" x="-128.736" y="0.378265" width="1503.37" height="392.763" filterUnits="userSpaceOnUse" color-interpolation-filters="sRGB">
<feFlood flood-opacity="0" result="BackgroundImageFix"/>
<feColorMatrix in="SourceAlpha" type="matrix" values="0 0 0 0 0 0 0 0 0 0 0 0 0 0 0 0 0 0 127 0" result="hardAlpha"/>
<feOffset dx="-17.8842" dy="17.8842"/>
<feGaussianBlur stdDeviation="26.8263"/>
<feColorMatrix type="matrix" values="0 0 0 0 0 0 0 0 0 0 0 0 0 0 0 0 0 0 1 0"/>
<feBlend mode="normal" in2="BackgroundImageFix" result="effect1_dropShadow_1940_23431"/>
<feBlend mode="normal" in="SourceGraphic" in2="effect1_dropShadow_1940_23431" result="shape"/>
</filter>
<linearGradient id="paint0_linear_1940_23431" x1="-60.8864" y1="174.338" x2="318.425" y2="-34.5957" gradientUnits="userSpaceOnUse">
<stop stop-color="#C7921F"/>
<stop offset="0.230235" stop-color="#EBCF6B"/>
<stop offset="0.466174" stop-color="#F9EF9B"/>
<stop offset="0.581813" stop-color="#F1DA76"/>
<stop offset="0.798137" stop-color="#C88B1E"/>
<stop offset="1" stop-color="#DBA727"/>
</linearGradient>
<linearGradient id="paint1_linear_1940_23431" x1="428.402" y1="218.793" x2="480.424" y2="214.486" gradientUnits="userSpaceOnUse">
<stop stop-color="#C7921F"/>
<stop offset="0.230235" stop-color="#EBCF6B"/>
<stop offset="0.466174" stop-color="#F9EF9B"/>
<stop offset="0.581813" stop-color="#F1DA76"/>
<stop offset="0.798137" stop-color="#C88B1E"/>
<stop offset="1" stop-color="#DBA727"/>
</linearGradient>
<linearGradient id="paint2_linear_1940_23431" x1="1025.89" y1="257.324" x2="1074.72" y2="254.198" gradientUnits="userSpaceOnUse">
<stop stop-color="#D5AE25"/>
<stop offset="0.250996" stop-color="#EDD274"/>
<stop offset="0.48" stop-color="#EBCD67"/>
<stop offset="0.812719" stop-color="#D6AD3D"/>
<stop offset="1" stop-color="#EBC12D"/>
</linearGradient>
<linearGradient id="paint3_linear_1940_23431" x1="275.187" y1="285.026" x2="790.987" y2="-123.63" gradientUnits="userSpaceOnUse">
<stop stop-color="#C7921F"/>
<stop offset="0.230235" stop-color="#EBCF6B"/>
<stop offset="0.466174" stop-color="#F9EF9B"/>
<stop offset="0.581813" stop-color="#F1DA76"/>
<stop offset="0.798137" stop-color="#C88B1E"/>
<stop offset="1" stop-color="#DBA727"/>
</linearGradient>
<linearGradient id="paint4_linear_1940_23431" x1="873.592" y1="354.972" x2="1312.24" y2="152.97" gradientUnits="userSpaceOnUse">
<stop stop-color="#C7921F"/>
<stop offset="0.230235" stop-color="#EBCF6B"/>
<stop offset="0.466174" stop-color="#F9EF9B"/>
<stop offset="0.581813" stop-color="#F1DA76"/>
<stop offset="0.798137" stop-color="#C88B1E"/>
<stop offset="1" stop-color="#DBA727"/>
</linearGradient>
<linearGradient id="paint5_linear_1940_23431" x1="-56.8924" y1="166.714" x2="1339.16" y2="166.714" gradientUnits="userSpaceOnUse">
<stop stop-color="#F8F8F8"/>
<stop offset="0.02" stop-color="#DFE4F3"/>
<stop offset="0.19" stop-color="#EFEFF0"/>
<stop offset="0.36" stop-color="#E8EBF1"/>
<stop offset="0.53" stop-color="#E3E7F0"/>
<stop offset="0.69" stop-color="#E1E5EF"/>
<stop offset="0.84" stop-color="#E6E8F0"/>
<stop offset="0.98" stop-color="#CED1DD"/>
<stop offset="1" stop-color="#DCE1F3"/>
</linearGradient>
</defs>
</svg>
