<svg width="266" height="301" viewBox="0 0 266 301" fill="none" xmlns="http://www.w3.org/2000/svg">
<path d="M14.2414 160.776L3.26221 7.99184L16.7601 1.27009C18.6242 0.075534 21.3608 0.101286 24.4111 1.62655L255.599 117.246C261.216 120.055 265.769 126.885 265.769 132.502V286.567C265.769 289.279 264.708 291.213 262.977 292.171L248.828 299.25L24.4113 176.032C18.7945 173.223 14.2414 166.393 14.2414 160.776Z" fill="url(#paint0_linear_2009_1687)"/>
<path d="M0.22998 167.784V13.7179C0.22998 8.10112 4.78316 5.82508 10.3999 8.63402L241.588 124.253C247.205 127.062 251.758 133.892 251.758 139.509V293.575C251.758 299.191 247.205 301.467 241.588 298.659L10.3997 183.04C4.78316 180.231 0.22998 173.4 0.22998 167.784Z" fill="url(#paint1_linear_2009_1687)"/>
<path d="M252.317 293.575H251.198V139.509C251.198 134.092 246.774 127.473 241.337 124.754L10.1489 9.13464L10.6496 8.13333L241.838 123.753C247.616 126.642 252.317 133.711 252.317 139.509V293.575Z" fill="url(#paint2_linear_2009_1687)"/>
<path d="M246.125 300.423C244.646 300.423 243.017 299.999 241.337 299.159L10.1484 183.54L10.6491 182.539L241.837 298.158C244.414 299.446 246.805 299.656 248.569 298.75L248.844 298.609C250.788 297.643 262.598 291.734 262.727 291.67L263.227 292.671L249.684 299.445C249.406 299.584 249.216 299.679 249.077 299.74C248.2 300.199 247.202 300.423 246.125 300.423Z" fill="url(#paint3_linear_2009_1687)"/>
<path d="M237.311 283.529L14.6753 172.187V23.7633L237.311 135.105V283.529Z" fill="url(#paint4_linear_2009_1687)"/>
<path opacity="0.3" d="M37.3579 26.6484C37.3579 25.143 37.3792 23.6417 37.4107 22.1427L10.3997 8.63424C4.78316 5.8253 0.22998 8.10133 0.22998 13.7181V167.784C0.22998 173.4 4.78316 180.231 10.3997 183.04L241.588 298.659C247.205 301.468 251.758 299.192 251.758 293.575V271.829C127.013 236.871 37.3579 140.306 37.3579 26.6484Z" fill="url(#paint5_linear_2009_1687)"/>
<path opacity="0.6" d="M14.6753 109.234V172.187L237.312 283.529V244.014C134.404 261.949 124.9 102.217 14.6753 109.234Z" fill="url(#paint6_linear_2009_1687)"/>
<path d="M237.061 284.03L14.1157 172.533V23.7634H15.2353V171.841L237.562 283.029L237.061 284.03Z" fill="url(#paint7_linear_2009_1687)"/>
<path d="M82.2281 118.935L166.543 161.101C168.934 162.297 171.746 160.559 171.746 157.886C171.746 156.524 170.977 155.28 169.759 154.671L85.4439 112.504C83.0536 111.309 80.2409 113.047 80.2409 115.72C80.2411 117.081 81.0103 118.326 82.2281 118.935ZM54.7889 89.0099L193.983 158.622C196.373 159.817 199.186 158.079 199.186 155.407C199.186 154.045 198.416 152.8 197.199 152.191L58.0047 82.5795C55.6145 81.384 52.8018 83.1222 52.8018 85.7948C52.802 87.1562 53.5711 88.4009 54.7889 89.0099ZM52.802 69.5925C52.802 70.9541 53.5711 72.1988 54.7889 72.8079L193.983 142.42C196.373 143.615 199.186 141.877 199.186 139.204C199.186 137.843 198.416 136.598 197.199 135.989L58.0047 66.3772C55.6145 65.182 52.802 66.92 52.802 69.5925Z" fill="url(#paint8_linear_2009_1687)"/>
<path d="M153.31 267.998L135.471 256.281L123.602 263.953L105.493 205.14L135.201 209.185L153.31 267.998Z" fill="url(#paint9_linear_2009_1687)"/>
<path d="M78.3394 230.504L96.1784 236.63L108.047 256.174L126.157 215.475L96.4491 189.805L78.3394 230.504Z" fill="url(#paint10_linear_2009_1687)"/>
<path d="M115.825 158.459L119.086 164.718L123.239 162.946L125.467 169.265L130.329 168.795L131.426 174.899L136.786 175.752L136.704 181.372L142.326 183.511L141.069 188.403L146.708 191.734L144.33 195.683L149.74 200.06L146.346 202.895L151.29 208.128L147.028 209.724L151.29 215.583L146.346 215.87L149.74 222.1L144.33 221.066L146.708 227.394L141.069 225.084L142.326 231.234L136.704 227.749L136.786 233.451L131.426 228.944L130.329 233.95L125.467 228.617L123.239 232.708L119.086 226.782L115.825 229.779L112.563 223.52L108.411 225.292L106.183 218.972L101.32 219.442L100.223 213.339L94.8642 212.486L94.9462 206.865L89.324 204.727L90.5813 199.835L84.9422 196.504L87.3198 192.555L81.91 188.177L85.304 185.342L80.3599 180.11L84.6222 178.514L80.3599 172.655L85.304 172.368L81.91 166.138L87.3198 167.172L84.9422 160.844L90.5813 163.154L89.324 157.004L94.9462 160.489L94.8642 154.787L100.223 159.294L101.32 154.288L106.183 159.621L108.411 155.53L112.563 161.456L115.825 158.459Z" fill="url(#paint11_linear_2009_1687)"/>
<path d="M136.795 204.606C136.795 216.187 127.406 220.881 115.825 215.089C104.243 209.297 94.855 195.213 94.855 183.632C94.855 172.051 104.243 167.357 115.825 173.149C127.406 178.941 136.795 193.025 136.795 204.606Z" fill="url(#paint12_linear_2009_1687)"/>
<path d="M125.206 218.121C122.234 218.121 118.94 217.273 115.574 215.589C103.841 209.721 94.2949 195.385 94.2949 183.632C94.2949 178.265 96.2839 174.081 99.8951 171.849C104.041 169.287 109.938 169.579 116.075 172.648C127.808 178.516 137.354 192.853 137.354 204.606C137.354 209.973 135.365 214.157 131.754 216.389C129.882 217.546 127.653 218.121 125.206 218.121ZM106.446 171.235C104.206 171.235 102.178 171.755 100.484 172.801C97.2147 174.821 95.4145 178.668 95.4145 183.632C95.4145 195.004 104.683 208.891 116.075 214.588C121.858 217.48 127.358 217.789 131.166 215.436C134.435 213.416 136.235 209.57 136.235 204.606C136.235 193.234 126.967 179.347 115.574 173.649C112.364 172.044 109.241 171.235 106.446 171.235Z" fill="url(#paint13_linear_2009_1687)"/>
<defs>
<linearGradient id="paint0_linear_2009_1687" x1="108.904" y1="87.512" x2="192.571" y2="246.572" gradientUnits="userSpaceOnUse">
<stop stop-color="#5CE099"/>
<stop offset="0.4854" stop-color="#3CC191"/>
<stop offset="0.6352" stop-color="#BBF0CA"/>
<stop offset="1" stop-color="#5CE0B0"/>
</linearGradient>
<linearGradient id="paint1_linear_2009_1687" x1="52.8991" y1="226.741" x2="199.089" y2="80.5515" gradientUnits="userSpaceOnUse">
<stop stop-color="#5CE0C0"/>
<stop offset="1" stop-color="#29B07F"/>
</linearGradient>
<linearGradient id="paint2_linear_2009_1687" x1="119.98" y1="162.357" x2="200.827" y2="81.5103" gradientUnits="userSpaceOnUse">
<stop stop-color="white"/>
<stop offset="1" stop-color="white"/>
</linearGradient>
<linearGradient id="paint3_linear_2009_1687" x1="136.688" y1="300.423" x2="136.688" y2="182.539" gradientUnits="userSpaceOnUse">
<stop stop-color="#36B395"/>
<stop offset="0.9949" stop-color="white"/>
<stop offset="1" stop-color="#F7F8FC"/>
</linearGradient>
<linearGradient id="paint4_linear_2009_1687" x1="94.5438" y1="214.126" x2="155.498" y2="96.9074" gradientUnits="userSpaceOnUse">
<stop stop-color="#BDCEFF"/>
<stop offset="1" stop-color="#F0F4FF"/>
</linearGradient>
<linearGradient id="paint5_linear_2009_1687" x1="52.899" y1="226.741" x2="147.454" y2="132.186" gradientUnits="userSpaceOnUse">
<stop stop-color="#5CE0A1"/>
<stop offset="1" stop-color="white"/>
</linearGradient>
<linearGradient id="paint6_linear_2009_1687" x1="225.21" y1="196.269" x2="31.5929" y2="196.269" gradientUnits="userSpaceOnUse">
<stop stop-color="#AFFFC5"/>
<stop offset="1" stop-color="#29B05F"/>
</linearGradient>
<linearGradient id="paint7_linear_2009_1687" x1="125.839" y1="284.03" x2="125.839" y2="23.7633" gradientUnits="userSpaceOnUse">
<stop stop-color="#36B39D"/>
<stop offset="0.9949" stop-color="white"/>
<stop offset="1" stop-color="#F7F8FC"/>
</linearGradient>
<linearGradient id="paint8_linear_2009_1687" x1="44.6451" y1="113.739" x2="185.863" y2="113.739" gradientUnits="userSpaceOnUse">
<stop stop-color="#375D3B"/>
<stop offset="1" stop-color="#46994E"/>
</linearGradient>
<linearGradient id="paint9_linear_2009_1687" x1="130.592" y1="266.933" x2="129.066" y2="228.02" gradientUnits="userSpaceOnUse">
<stop stop-color="#7EFFB2"/>
<stop offset="0.5385" stop-color="#5CE091"/>
<stop offset="0.9949" stop-color="#0E9133"/>
</linearGradient>
<linearGradient id="paint10_linear_2009_1687" x1="88.6916" y1="246.611" x2="105.478" y2="217.362" gradientUnits="userSpaceOnUse">
<stop stop-color="#7EFFC1"/>
<stop offset="0.5385" stop-color="#5CE0B0"/>
<stop offset="0.9949" stop-color="#0E9142"/>
</linearGradient>
<linearGradient id="paint11_linear_2009_1687" x1="95.9109" y1="214.033" x2="135.739" y2="174.205" gradientUnits="userSpaceOnUse">
<stop stop-color="#5CE0A1"/>
<stop offset="1" stop-color="#29A8B0"/>
</linearGradient>
<linearGradient id="paint12_linear_2009_1687" x1="104.1" y1="205.843" x2="127.55" y2="182.394" gradientUnits="userSpaceOnUse">
<stop stop-color="#FCF81E"/>
<stop offset="1" stop-color="#FCAA13"/>
</linearGradient>
<linearGradient id="paint13_linear_2009_1687" x1="103.712" y1="206.232" x2="127.937" y2="182.006" gradientUnits="userSpaceOnUse">
<stop stop-color="white"/>
<stop offset="1" stop-color="white"/>
</linearGradient>
</defs>
</svg>
