<svg width="162" height="16" viewBox="0 0 162 16" fill="none" xmlns="http://www.w3.org/2000/svg">
<path d="M162 2.17041C161.316 1.57685 160.582 1.8096 159.931 1.82124C131.637 2.31746 103.361 1.53981 75.0775 1.02878C52.9143 0.628849 30.7547 -0.0630894 8.58172 0.00462484C6.27668 0.0120311 3.96673 -0.0101948 1.68497 0.341071C1.02936 0.442642 0.237734 0.38975 0 1.11767C0.199746 1.70594 0.705852 1.5483 1.10779 1.54724C20.4427 1.52291 39.758 2.27199 59.0843 2.63172C85.8576 3.12899 112.622 4.08121 139.409 3.99445C146.149 3.97223 152.878 3.58923 159.601 3.17342C160.538 3.11417 161.525 3.13322 162 2.17041Z" fill="url(#paint0_linear_1959_16728)"/>
<path d="M81.1297 11.7539C81.2617 9.99165 80.7901 8.31258 80.6326 6.58942C80.5522 5.70781 79.8656 5.50344 79.325 6.10254C79.1971 6.2438 79.0937 6.43113 79.0117 6.61948C78.1586 8.56804 77.6476 10.6438 77.6402 12.8569C77.6344 14.7353 78.3284 15.9586 79.2971 15.9986C80.3553 16.0427 81.0042 15.0098 81.1256 13.0583C81.1518 12.6255 81.1289 12.1887 81.1297 11.7539Z" fill="url(#paint1_linear_1959_16728)"/>
<path d="M77.0912 5.02557C75.5614 5.33914 74.1595 5.87313 72.9545 7.0052C72.6116 7.32779 72.3836 7.76457 72.5231 8.3276C72.6592 8.87961 73.0308 9.08799 73.4623 9.18216C74.3219 9.3695 75.102 9.14409 75.8305 8.56002C76.5359 7.99499 77.0346 7.17449 77.6228 6.46619C77.8328 6.21273 78.0838 5.96129 77.9501 5.54954C77.7868 5.04261 77.3759 5.14378 77.0912 5.02557Z" fill="url(#paint2_linear_1959_16728)"/>
<path d="M83.4461 5.6648C83.1401 5.65378 82.8522 5.70789 82.6791 6.06354C82.4986 6.43422 82.6455 6.76081 82.8087 7.06436C83.6044 8.54607 84.7946 9.30645 86.1629 9.65709C86.8609 9.83642 87.4975 9.51986 87.7296 8.63725C87.933 7.86383 87.3982 7.47511 86.9536 7.12047C85.8881 6.27091 84.6322 6.09058 83.4461 5.6648Z" fill="url(#paint3_linear_1959_16728)"/>
<defs>
<linearGradient id="paint0_linear_1959_16728" x1="0" y1="0" x2="0.197411" y2="7.99513" gradientUnits="userSpaceOnUse">
<stop stop-color="#DCD285"/>
<stop offset="0.300425" stop-color="#F9F7B7"/>
<stop offset="0.647318" stop-color="#F1D164"/>
<stop offset="1" stop-color="#F3E57D"/>
</linearGradient>
<linearGradient id="paint1_linear_1959_16728" x1="77.6401" y1="5.76066" x2="83.9256" y2="7.91688" gradientUnits="userSpaceOnUse">
<stop stop-color="#DCD285"/>
<stop offset="0.300425" stop-color="#F9F7B7"/>
<stop offset="0.647318" stop-color="#F1D164"/>
<stop offset="1" stop-color="#F3E57D"/>
</linearGradient>
<linearGradient id="paint2_linear_1959_16728" x1="72.4814" y1="5.02557" x2="76.5576" y2="10.3428" gradientUnits="userSpaceOnUse">
<stop stop-color="#DCD285"/>
<stop offset="0.300425" stop-color="#F9F7B7"/>
<stop offset="0.647318" stop-color="#F1D164"/>
<stop offset="1" stop-color="#F3E57D"/>
</linearGradient>
<linearGradient id="paint3_linear_1959_16728" x1="82.5962" y1="5.66352" x2="86.5171" y2="10.6865" gradientUnits="userSpaceOnUse">
<stop stop-color="#DCD285"/>
<stop offset="0.300425" stop-color="#F9F7B7"/>
<stop offset="0.647318" stop-color="#F1D164"/>
<stop offset="1" stop-color="#F3E57D"/>
</linearGradient>
</defs>
</svg>
