<svg width="71" height="65" viewBox="0 0 71 65" fill="none" xmlns="http://www.w3.org/2000/svg">
<path d="M32.5625 58.0259C46.8334 61.4019 61.134 52.5485 64.5037 38.2514C67.8735 23.9542 59.0364 9.62735 44.7655 6.25139C30.4946 2.87543 16.1941 11.7288 12.8243 26.0259C9.45454 40.3231 18.2916 54.65 32.5625 58.0259Z" fill="white" stroke="#165425" stroke-width="3.18753" stroke-miterlimit="10"/>
<ellipse cx="51.885" cy="60.3273" rx="0.434155" ry="0.433357" transform="rotate(90 51.885 60.3273)" fill="#9A8DF7"/>
<path d="M51.8851 60.3266L51.8926 60.3232" stroke="#165425" stroke-width="0.796922" stroke-linecap="round" stroke-linejoin="round"/>
<path d="M53.4129 59.552C53.4994 59.5052 53.5851 59.4585 53.6708 59.4109C63.2535 54.1087 69.7441 43.8835 69.7441 32.14C69.7441 19.985 62.7911 9.45713 52.6526 4.33008" stroke="#165425" stroke-width="0.796922" stroke-linecap="round" stroke-linejoin="round"/>
<ellipse cx="51.885" cy="3.95454" rx="0.434155" ry="0.433357" transform="rotate(90 51.885 3.95454)" fill="#9A8DF7"/>
<path d="M41.4964 32.267C40.8471 32.267 40.3516 32.1474 40.0098 31.9082C40.044 32.1987 40.0611 32.4806 40.0611 32.754C40.0782 33.0274 40.0867 33.3435 40.0867 33.7024V39.6232H36.8315V33.3948C36.8315 32.3695 36.8059 31.4981 36.7546 30.7804C36.7034 30.0627 36.6265 29.4134 36.524 28.8324C36.4385 28.2515 36.3275 27.7047 36.1908 27.192C36.0541 26.6623 35.9003 26.0984 35.7294 25.5004L38.8051 24.3982C38.9248 24.8425 39.0444 25.2868 39.164 25.731C39.2836 26.1753 39.4032 26.6196 39.5228 27.0639C39.5741 27.2689 39.6339 27.474 39.7022 27.679C39.7706 27.8841 39.856 28.072 39.9586 28.2429C40.0782 28.3967 40.2234 28.5249 40.3943 28.6274C40.5652 28.7128 40.7958 28.7555 41.0863 28.7555C41.4964 28.7555 41.7784 28.6616 41.9322 28.4736C42.103 28.2685 42.1885 28.0293 42.1885 27.7559C42.1885 27.3458 42.0518 26.4573 41.7784 25.0903L44.8798 24.3982C45.1703 25.6969 45.3155 26.8674 45.3155 27.9097C45.3155 28.5419 45.2301 29.1315 45.0592 29.6783C44.8883 30.208 44.632 30.6693 44.2902 31.0624C43.9656 31.4383 43.564 31.7373 43.0856 31.9594C42.6242 32.1645 42.0945 32.267 41.4964 32.267Z" fill="#165425"/>
<path d="M7.5625 36.6818L4.28283 32.1404L7.5625 27.6" stroke="#165425" stroke-width="1.17346" stroke-miterlimit="10" stroke-linecap="round" stroke-linejoin="round"/>
<path d="M4.28125 36.6818L1.00158 32.1404L4.28125 27.6" stroke="#165425" stroke-width="1.17346" stroke-miterlimit="10" stroke-linecap="round" stroke-linejoin="round"/>
</svg>
