<svg width="71" height="65" viewBox="0 0 71 65" fill="none" xmlns="http://www.w3.org/2000/svg">
<path d="M32.5567 58.5259C46.8276 61.9019 61.1282 53.0485 64.498 38.7514C67.8678 24.4542 59.0306 10.1273 44.7597 6.75139C30.4888 3.37543 16.1882 12.2288 12.8184 26.5259C9.44865 40.8231 18.2858 55.15 32.5567 58.5259Z" fill="white" stroke="#165425" stroke-width="2.96491" stroke-miterlimit="10"/>
<ellipse cx="51.8752" cy="60.8273" rx="0.434155" ry="0.433358" transform="rotate(90 51.8752 60.8273)" fill="#9A8DF7"/>
<path d="M51.874 60.8274L51.8828 60.8234" stroke="#165425" stroke-width="0.741263" stroke-linecap="round" stroke-linejoin="round"/>
<path d="M53.4069 60.0521C53.4935 60.0054 53.5792 59.9586 53.6649 59.911C63.2477 54.6088 69.7383 44.3836 69.7383 32.6401C69.7383 20.4851 62.7852 9.95726 52.6466 4.8302" stroke="#165425" stroke-width="0.741263" stroke-linecap="round" stroke-linejoin="round"/>
<ellipse cx="51.8752" cy="4.45466" rx="0.434155" ry="0.433358" transform="rotate(90 51.8752 4.45466)" fill="#9A8DF7"/>
<path d="M40.6755 27.5589C40.4848 27.4794 40.2702 27.4159 40.0318 27.3682C39.7934 27.3205 39.5788 27.2967 39.3881 27.2967C38.9907 27.2967 38.6649 27.392 38.4106 27.5827C38.1722 27.7576 38.053 28.0119 38.053 28.3457C38.053 28.6159 38.1484 28.8622 38.3391 29.0847C38.5457 29.2914 38.8477 29.3947 39.2451 29.3947C39.6424 29.3947 40.0636 29.339 40.5086 29.2278C40.9537 29.1006 41.4067 28.9417 41.8676 28.751L43.3219 30.9443C42.702 31.5483 42.1298 32.1444 41.6053 32.7324C41.0808 33.3046 40.5802 33.9086 40.1033 34.5444C39.6424 35.1642 39.1894 35.8159 38.7444 36.4993C38.3152 37.1828 37.8702 37.9219 37.4093 38.7166L34.906 37C35.5099 36.0146 36.0821 35.1483 36.6225 34.4013C37.1788 33.6543 37.7907 32.947 38.4583 32.2795C38.204 32.2477 37.9656 32.2 37.7431 32.1364C37.5205 32.0728 37.3219 32.0013 37.147 31.9218C36.3841 31.5881 35.8437 31.1192 35.5258 30.5152C35.208 29.8953 35.049 29.2119 35.049 28.4649C35.049 27.9086 35.1444 27.3761 35.3351 26.8675C35.5258 26.343 35.796 25.8821 36.1457 25.4847C36.4954 25.0715 36.9086 24.7456 37.3854 24.5072C37.8782 24.2688 38.4186 24.1496 39.0066 24.1496C39.404 24.1496 39.8093 24.1973 40.2225 24.2927C40.6358 24.3721 41.0967 24.539 41.6053 24.7933L40.6755 27.5589Z" fill="#165425"/>
<path d="M7.56055 37.1819L4.28087 32.6406L7.56055 28.1001" stroke="#165425" stroke-width="1.0915" stroke-miterlimit="10" stroke-linecap="round" stroke-linejoin="round"/>
<path d="M4.2793 37.1819L0.999619 32.6406L4.2793 28.1001" stroke="#165425" stroke-width="1.0915" stroke-miterlimit="10" stroke-linecap="round" stroke-linejoin="round"/>
</svg>
