<svg width="71" height="65" viewBox="0 0 71 65" fill="none" xmlns="http://www.w3.org/2000/svg">
<path d="M32.564 58.5259C46.8344 61.9019 61.1345 53.0485 64.5041 38.7514C67.8737 24.4542 59.0369 10.1273 44.7665 6.75139C30.4962 3.37543 16.1961 12.2288 12.8265 26.5259C9.45682 40.8231 18.2936 55.15 32.564 58.5259Z" fill="white" stroke="#165425" stroke-width="2.96488" stroke-miterlimit="10"/>
<ellipse cx="51.885" cy="60.8274" rx="0.434155" ry="0.433342" transform="rotate(90 51.885 60.8274)" fill="#9A8DF7"/>
<path d="M51.8877 60.8274L51.8965 60.8234" stroke="#165425" stroke-width="0.741255" stroke-linecap="round" stroke-linejoin="round"/>
<path d="M53.4173 60.052C53.5039 60.0053 53.5896 59.9585 53.6753 59.9109C63.2577 54.6087 69.748 44.3835 69.748 32.64C69.748 20.485 62.7952 9.95716 52.657 4.83011" stroke="#165425" stroke-width="0.741255" stroke-linecap="round" stroke-linejoin="round"/>
<ellipse cx="51.885" cy="4.45457" rx="0.434155" ry="0.433342" transform="rotate(90 51.885 4.45457)" fill="#9A8DF7"/>
<path d="M38.745 32.1014C38.0933 32.1014 37.4576 32.0379 36.8377 31.9107C36.2337 31.7836 35.7251 31.5769 35.3119 31.2909C35.3119 31.4816 35.3119 31.6882 35.3119 31.9107C35.3278 32.1173 35.3357 32.316 35.3357 32.5067V38.014H32.3079V32.2207C32.3079 31.267 32.2841 30.4564 32.2364 29.7889C32.1887 29.1213 32.1172 28.5174 32.0218 27.977C31.9424 27.4366 31.8391 26.928 31.7119 26.4512C31.5848 25.9584 31.4417 25.4339 31.2828 24.8777L34.1437 23.8525C34.3503 24.5677 34.5172 25.2035 34.6443 25.7598C34.7715 26.3161 34.9145 26.8565 35.0735 27.381C35.1847 27.7783 35.3039 28.0644 35.4311 28.2392C35.5741 28.4141 35.8046 28.565 36.1225 28.6922C35.9953 28.422 35.9159 28.1677 35.8841 27.9293C35.8682 27.675 35.8602 27.4445 35.8602 27.2379C35.8602 26.777 35.9556 26.3399 36.1463 25.9267C36.3529 25.4975 36.6311 25.124 36.9808 24.8061C37.3304 24.4724 37.7437 24.2101 38.2205 24.0194C38.7132 23.8128 39.2377 23.7095 39.794 23.7095C40.1913 23.7095 40.5966 23.7492 41.0099 23.8287C41.4231 23.9081 41.892 24.0432 42.4165 24.234L41.5582 27.1902C41.145 27.0631 40.8112 26.9757 40.5569 26.928C40.3185 26.8803 40.0642 26.8565 39.794 26.8565C39.4761 26.8565 39.198 26.9518 38.9595 27.1425C38.7211 27.3174 38.6019 27.5717 38.6019 27.9055C38.6019 28.2392 38.6973 28.5015 38.888 28.6922C39.0787 28.867 39.341 28.9544 39.6748 28.9544C40.0721 28.9544 40.4774 28.8988 40.8907 28.7876C41.3039 28.6604 41.7728 28.5015 42.2973 28.3107L43.0602 31.0524C42.2019 31.4498 41.4311 31.7279 40.7476 31.8869C40.0801 32.0299 39.4125 32.1014 38.745 32.1014Z" fill="#165425"/>
<path d="M7.56055 37.1818L4.28099 32.6404L7.56055 28.1" stroke="#165425" stroke-width="1.09149" stroke-miterlimit="10" stroke-linecap="round" stroke-linejoin="round"/>
<path d="M4.2793 37.1818L0.999741 32.6404L4.2793 28.1" stroke="#165425" stroke-width="1.09149" stroke-miterlimit="10" stroke-linecap="round" stroke-linejoin="round"/>
</svg>
