<svg width="71" height="65" viewBox="0 0 71 65" fill="none" xmlns="http://www.w3.org/2000/svg">
<path d="M32.564 58.0259C46.8344 61.4019 61.1345 52.5485 64.5041 38.2514C67.8737 23.9542 59.0369 9.62735 44.7665 6.25139C30.4962 2.87543 16.1961 11.7288 12.8265 26.0259C9.45682 40.3231 18.2936 54.65 32.564 58.0259Z" fill="white" stroke="#165425" stroke-width="2.96488" stroke-miterlimit="10"/>
<ellipse cx="51.885" cy="60.3274" rx="0.434155" ry="0.433342" transform="rotate(90 51.885 60.3274)" fill="#9A8DF7"/>
<path d="M51.8877 60.3274L51.8965 60.3234" stroke="#165425" stroke-width="0.741255" stroke-linecap="round" stroke-linejoin="round"/>
<path d="M53.4173 59.552C53.5039 59.5053 53.5896 59.4585 53.6753 59.4109C63.2577 54.1087 69.748 43.8835 69.748 32.14C69.748 19.985 62.7952 9.45716 52.657 4.3301" stroke="#165425" stroke-width="0.741255" stroke-linecap="round" stroke-linejoin="round"/>
<ellipse cx="51.885" cy="3.95456" rx="0.434155" ry="0.433342" transform="rotate(90 51.885 3.95456)" fill="#9A8DF7"/>
<path d="M38.9307 28.6314C39.2009 29.8394 39.336 30.9281 39.336 31.8976C39.336 31.9771 39.336 32.0566 39.336 32.136C39.336 32.1996 39.3201 32.2711 39.2883 32.3506C39.4631 32.4778 39.63 32.5652 39.789 32.6129C39.9479 32.6605 40.0989 32.6844 40.2419 32.6844C40.6393 32.6844 40.9095 32.597 41.0525 32.4221C41.2115 32.2314 41.2909 32.0089 41.2909 31.7546C41.2909 31.3731 41.1638 30.5466 40.9095 29.2751L43.7704 28.6314C44.0406 29.8394 44.1757 30.9281 44.1757 31.8976C44.1757 32.4857 44.0962 33.034 43.9373 33.5427C43.7783 34.0354 43.5479 34.4645 43.2459 34.8301C42.9439 35.1797 42.5704 35.4579 42.1254 35.6645C41.6962 35.8552 41.2035 35.9506 40.6472 35.9506C40.2181 35.9506 39.781 35.8791 39.336 35.736C38.9069 35.5771 38.5095 35.3148 38.1439 34.9493C37.8261 35.2671 37.4764 35.5135 37.0949 35.6883C36.7294 35.8632 36.2923 35.9506 35.7837 35.9506C35.1797 35.9506 34.7188 35.8393 34.4009 35.6168C34.4327 35.887 34.4486 36.1493 34.4486 36.4036C34.4645 36.6579 34.4724 36.9519 34.4724 37.2857V42.7929H31.4447V36.9996C31.4447 36.0459 31.4208 35.2354 31.3731 34.5678C31.3255 33.9003 31.2539 33.2963 31.1586 32.7559C31.0791 32.2155 30.9758 31.7069 30.8486 31.2301C30.7215 30.7374 30.5784 30.2129 30.4195 29.6566L33.2804 28.6314C33.3917 29.0447 33.5029 29.4579 33.6142 29.8712C33.7254 30.2844 33.8367 30.6976 33.9479 31.1109C33.9956 31.3016 34.0513 31.4923 34.1148 31.6831C34.1784 31.8738 34.2579 32.0486 34.3532 32.2076C34.4645 32.3506 34.5996 32.4698 34.7585 32.5652C34.9175 32.6446 35.132 32.6844 35.4022 32.6844C35.7837 32.6844 36.0459 32.597 36.189 32.4221C36.3479 32.2314 36.4274 32.0089 36.4274 31.7546C36.4274 31.3731 36.3003 30.5466 36.0459 29.2751L38.9307 28.6314Z" fill="#165425"/>
<path d="M7.56055 36.6818L4.28099 32.1404L7.56055 27.6" stroke="#165425" stroke-width="1.09149" stroke-miterlimit="10" stroke-linecap="round" stroke-linejoin="round"/>
<path d="M4.2793 36.6818L0.999741 32.1404L4.2793 27.6" stroke="#165425" stroke-width="1.09149" stroke-miterlimit="10" stroke-linecap="round" stroke-linejoin="round"/>
</svg>
