<svg width="71" height="65" viewBox="0 0 71 65" fill="none" xmlns="http://www.w3.org/2000/svg">
<path d="M32.5586 58.5259C46.8296 61.9019 61.1302 53.0485 64.4999 38.7514C67.8697 24.4542 59.0326 10.1273 44.7617 6.75139C30.4907 3.37543 16.1901 12.2288 12.8204 26.5259C9.45061 40.8231 18.2877 55.15 32.5586 58.5259Z" fill="white" stroke="#165425" stroke-width="2.96491" stroke-miterlimit="10"/>
<ellipse cx="51.8772" cy="60.8273" rx="0.434155" ry="0.433358" transform="rotate(90 51.8772 60.8273)" fill="#9A8DF7"/>
<path d="M51.876 60.8274L51.8848 60.8234" stroke="#165425" stroke-width="0.741263" stroke-linecap="round" stroke-linejoin="round"/>
<path d="M53.4089 60.0521C53.4955 60.0054 53.5812 59.9586 53.6669 59.911C63.2496 54.6088 69.7402 44.3836 69.7402 32.6401C69.7402 20.4851 62.7872 9.95726 52.6486 4.8302" stroke="#165425" stroke-width="0.741263" stroke-linecap="round" stroke-linejoin="round"/>
<ellipse cx="51.8772" cy="4.45466" rx="0.434155" ry="0.433358" transform="rotate(90 51.8772 4.45466)" fill="#9A8DF7"/>
<path d="M31.0803 34.4617C31.0803 33.969 31.1359 33.4603 31.2471 32.9358C31.3743 32.4113 31.5889 31.8391 31.8909 31.2193C32.2087 30.5835 32.6379 29.8762 33.1783 29.0974C33.7187 28.3186 34.418 27.4365 35.2763 26.451L34.3703 25.6643L36.1823 23.4471C37.7558 24.7345 39.0273 25.8868 39.9969 26.904C40.9823 27.9212 41.7452 28.8511 42.2856 29.6934C42.826 30.5358 43.1916 31.3146 43.3823 32.0299C43.573 32.7292 43.6684 33.4047 43.6684 34.0564C43.6684 34.7239 43.5571 35.312 43.3346 35.8206C43.128 36.3292 42.8419 36.7504 42.4763 37.0842C42.1267 37.4339 41.7293 37.6961 41.2843 37.871C40.8392 38.0458 40.3863 38.1332 39.9253 38.1332C39.3214 38.1332 38.8127 38.0378 38.3995 37.8471C37.9862 37.6564 37.6207 37.3623 37.3028 36.965C36.969 37.3623 36.5637 37.6564 36.0869 37.8471C35.6101 38.0378 35.1412 38.1332 34.6803 38.1332C33.5518 38.1332 32.6697 37.7994 32.0339 37.1319C31.3981 36.4802 31.0803 35.5902 31.0803 34.4617ZM40.7836 33.9372C40.7836 33.6829 40.7439 33.3809 40.6644 33.0312C40.6008 32.6656 40.4419 32.2603 40.1876 31.8153C39.9492 31.3544 39.5916 30.8378 39.1147 30.2656C38.6538 29.6775 38.026 29.0259 37.2313 28.3107C36.0551 29.614 35.2127 30.7107 34.7041 31.6007C34.2114 32.4749 33.965 33.206 33.965 33.7941C33.965 34.0643 34.0366 34.3107 34.1796 34.5332C34.3386 34.7557 34.6167 34.867 35.0141 34.867C35.3478 34.867 35.626 34.7796 35.8485 34.6047C36.071 34.4299 36.1823 34.0723 36.1823 33.5319V32.2206H38.8286V33.1504C38.8286 33.4206 38.8127 33.659 38.781 33.8656C38.7651 34.0564 38.7333 34.255 38.6856 34.4617C38.8127 34.5888 38.9717 34.6921 39.1624 34.7716C39.3531 34.8352 39.5439 34.867 39.7346 34.867C40.0684 34.867 40.3227 34.7796 40.4975 34.6047C40.6882 34.4299 40.7836 34.2074 40.7836 33.9372Z" fill="#165425"/>
<path d="M7.5625 37.1819L4.28282 32.6406L7.5625 28.1001" stroke="#165425" stroke-width="1.0915" stroke-miterlimit="10" stroke-linecap="round" stroke-linejoin="round"/>
<path d="M4.28125 37.1819L1.00157 32.6406L4.28125 28.1001" stroke="#165425" stroke-width="1.0915" stroke-miterlimit="10" stroke-linecap="round" stroke-linejoin="round"/>
</svg>
