<svg width="71" height="65" viewBox="0 0 71 65" fill="none" xmlns="http://www.w3.org/2000/svg">
<path d="M32.5634 58.5259C46.8331 61.9019 61.1325 53.0485 64.502 38.7514C67.8715 24.4542 59.0351 10.1273 44.7654 6.75139C30.4956 3.37543 16.1962 12.2288 12.8267 26.5259C9.45725 40.8231 18.2936 55.15 32.5634 58.5259Z" fill="white" stroke="#165425" stroke-width="3.47313" stroke-miterlimit="10"/>
<ellipse cx="51.8831" cy="60.8275" rx="0.434155" ry="0.433322" transform="rotate(90 51.8831 60.8275)" fill="#9A8DF7"/>
<path d="M51.8857 60.8274L51.8945 60.8234" stroke="#165425" stroke-width="0.868324" stroke-linecap="round" stroke-linejoin="round"/>
<path d="M53.4161 60.0521C53.5027 60.0054 53.5884 59.9586 53.674 59.911C63.256 54.6088 69.7461 44.3836 69.7461 32.6401C69.7461 20.4851 62.7936 9.95726 52.6559 4.8302" stroke="#165425" stroke-width="0.868324" stroke-linecap="round" stroke-linejoin="round"/>
<ellipse cx="51.8831" cy="4.45466" rx="0.434155" ry="0.433322" transform="rotate(90 51.8831 4.45466)" fill="#9A8DF7"/>
<path d="M36.9965 42.2633V35.4768C36.9965 34.3597 36.9686 33.4102 36.9128 32.6282C36.8569 31.8462 36.7731 31.1387 36.6614 30.5057C36.5683 29.8726 36.4473 29.2768 36.2983 28.7183C36.1494 28.1411 35.9818 27.5267 35.7956 26.8751L39.147 25.6742C39.389 26.4003 39.5938 27.0985 39.7614 27.7687C39.9476 28.4204 40.0965 29.1186 40.2082 29.8633C40.3199 30.6081 40.4037 31.418 40.4596 32.293C40.5154 33.1681 40.5434 34.1828 40.5434 35.3372V42.2633H36.9965Z" fill="#165425"/>
<path d="M7.56445 37.1818L4.28505 32.6404L7.56445 28.1" stroke="#165425" stroke-width="1.2786" stroke-miterlimit="10" stroke-linecap="round" stroke-linejoin="round"/>
<path d="M4.2832 37.1818L1.0038 32.6404L4.2832 28.1" stroke="#165425" stroke-width="1.2786" stroke-miterlimit="10" stroke-linecap="round" stroke-linejoin="round"/>
</svg>
