<svg width="882" height="598" viewBox="0 0 882 598" fill="none" xmlns="http://www.w3.org/2000/svg">
<path d="M848.924 65.8918C845.581 67.8464 841.454 67.8521 838.104 65.9069L818.41 54.4758C766.613 24.4128 682.594 24.4128 631.133 54.4758C579.672 84.5408 579.947 133.466 631.743 163.529L681.96 192.676C745.707 229.676 746.045 289.872 682.712 326.871C619.379 363.871 516.005 363.873 452.259 326.873L402.042 297.726C350.245 267.663 266.226 267.663 214.765 297.726C163.305 327.791 163.579 376.717 215.376 406.78L265.593 435.927C329.339 472.926 329.677 533.122 266.344 570.122C203.011 607.121 99.6376 607.123 35.8915 570.124L26.9215 564.917C19.738 560.747 19.7229 550.328 26.8952 546.138C30.239 544.185 34.3661 544.178 37.7155 546.123L57.4101 557.554C109.226 587.628 193.226 587.617 244.687 557.552C296.147 527.489 295.892 478.573 244.076 448.499L193.859 419.351C130.113 382.352 129.775 322.156 193.108 285.156C256.441 248.157 359.815 248.155 423.561 285.156L473.778 314.303C525.593 344.378 609.594 344.367 661.054 314.303C712.515 284.239 712.259 235.324 660.444 205.25L610.227 176.103C546.479 139.103 546.142 78.9073 609.475 41.9078C672.808 4.90829 776.182 4.9064 839.928 41.9059L848.898 47.1125C856.084 51.2824 856.099 61.7012 848.924 65.8918Z" fill="#CCCBC9"/>
<path d="M24.9865 551.046C25.319 551.239 25.3209 551.55 24.9902 551.743C24.6709 551.93 24.1355 551.93 23.803 551.737L19.6402 549.32C19.3077 549.127 19.3058 548.816 19.6252 548.629C19.9558 548.436 20.4912 548.436 20.8237 548.629L24.9865 551.046Z" fill="#494949"/>
<path d="M676.142 317.352C674.3 318.566 672.37 319.756 670.377 320.921C669.588 321.382 668.788 321.837 667.976 322.298C667.653 322.475 667.122 322.471 666.808 322.29C666.466 322.081 666.475 321.775 666.817 321.588C667.606 321.14 668.405 320.685 669.184 320.23C671.155 319.078 673.065 317.899 674.886 316.698C675.194 316.506 675.729 316.479 676.073 316.666C676.086 316.674 676.101 316.681 676.112 316.689C676.42 316.866 676.45 317.161 676.142 317.352Z" fill="#494949"/>
<path d="M252.367 564.405C252.709 564.604 252.699 564.921 252.369 565.102C249.521 566.704 246.577 568.222 243.57 569.655C243.23 569.818 242.747 569.801 242.448 569.629C242.43 569.618 242.411 569.606 242.394 569.593C242.093 569.382 242.144 569.077 242.507 568.902C245.473 567.482 248.384 565.98 251.199 564.4C251.535 564.216 252.044 564.218 252.367 564.405Z" fill="#494949"/>
<path d="M234.382 573.113C234.65 573.333 234.555 573.637 234.183 573.791C230.938 575.1 227.619 576.326 224.234 577.466C223.905 577.585 223.492 577.546 223.227 577.391C223.174 577.361 223.127 577.325 223.088 577.285C222.849 577.06 222.988 576.756 223.394 576.618C226.736 575.491 230.003 574.282 233.213 572.981C233.551 572.851 233.999 572.877 234.277 573.04C234.316 573.062 234.348 573.087 234.382 573.113Z" fill="#494949"/>
<path d="M273.339 549.283C273.067 549.124 273.009 548.873 273.23 548.678C275.317 546.76 277.252 544.805 279.046 542.805C279.26 542.569 279.762 542.475 280.181 542.607C280.258 542.629 280.326 542.66 280.384 542.694C280.635 542.839 280.709 543.068 280.538 543.26C278.719 545.285 276.751 547.258 274.647 549.201C274.401 549.432 273.877 549.5 273.491 549.351C273.435 549.332 273.384 549.309 273.339 549.283Z" fill="#494949"/>
<path d="M214.213 580.02C214.418 580.264 214.238 580.556 213.821 580.675C210.265 581.654 206.654 582.562 203 583.372C202.679 583.44 202.333 583.395 202.108 583.265C202.027 583.217 201.961 583.159 201.918 583.093C201.757 582.838 201.958 582.556 202.395 582.464C206.006 581.654 209.585 580.762 213.088 579.792C213.417 579.699 213.8 579.744 214.048 579.888C214.114 579.926 214.17 579.969 214.213 580.02Z" fill="#494949"/>
<path d="M284.23 537.217C283.993 537.079 283.903 536.864 284.042 536.677C285.57 534.585 286.95 532.468 288.168 530.33C288.325 530.075 288.797 529.937 289.236 530.018C289.36 530.045 289.469 530.086 289.558 530.137C289.779 530.266 289.873 530.458 289.776 530.641C288.525 532.809 287.136 534.945 285.586 537.062C285.404 537.306 284.914 537.429 284.486 537.317C284.386 537.293 284.302 537.259 284.23 537.217Z" fill="#494949"/>
<path d="M192.197 584.748C192.294 584.805 192.369 584.877 192.411 584.96C192.54 585.209 192.285 585.483 191.847 585.564C188.075 586.206 184.26 586.76 180.411 587.234C180.125 587.266 179.843 587.209 179.646 587.096C179.535 587.031 179.453 586.95 179.413 586.854C179.314 586.586 179.614 586.323 180.063 586.274C183.856 585.808 187.63 585.266 191.359 584.624C191.667 584.571 191.984 584.625 192.197 584.748Z" fill="#494949"/>
<path d="M291.653 524.281C291.452 524.164 291.356 523.988 291.425 523.815C292.365 521.615 293.154 519.392 293.785 517.161C293.858 516.893 294.294 516.714 294.743 516.763C294.923 516.78 295.081 516.829 295.201 516.899C295.389 517.007 295.487 517.167 295.444 517.33C294.803 519.579 294.003 521.82 293.052 524.051C292.947 524.311 292.487 524.468 292.038 524.406C291.886 524.387 291.754 524.342 291.653 524.281Z" fill="#494949"/>
<path d="M169.271 587.536C169.399 587.61 169.487 587.71 169.515 587.825C169.581 588.088 169.25 588.329 168.802 588.367C164.898 588.66 160.974 588.866 157.049 588.971C156.8 588.979 156.574 588.922 156.413 588.828C156.268 588.745 156.176 588.63 156.159 588.505C156.148 588.237 156.497 588.006 156.97 587.993C160.842 587.882 164.712 587.682 168.572 587.402C168.843 587.381 169.095 587.434 169.271 587.536Z" fill="#494949"/>
<path d="M295.478 510.818C295.305 510.718 295.209 510.576 295.234 510.429C295.564 508.174 295.745 505.908 295.763 503.646C295.762 503.372 296.145 503.16 296.616 503.16C296.844 503.164 297.05 503.219 297.201 503.306C297.355 503.394 297.449 503.517 297.443 503.653C297.424 505.94 297.244 508.231 296.904 510.518C296.872 510.786 296.457 510.979 295.996 510.96C295.79 510.948 295.611 510.897 295.478 510.818Z" fill="#494949"/>
<path d="M145.874 588.195C146.031 588.288 146.127 588.416 146.116 588.56C146.108 588.828 145.725 589.039 145.263 589.034C141.328 588.971 137.401 588.803 133.494 588.56C133.291 588.548 133.113 588.497 132.981 588.42C132.806 588.318 132.709 588.173 132.733 588.018C132.786 587.75 133.201 587.557 133.661 587.587C137.523 587.831 141.418 587.991 145.312 588.054C145.53 588.059 145.729 588.112 145.874 588.195Z" fill="#494949"/>
<path d="M295.625 497.168C295.488 497.088 295.396 496.979 295.381 496.858C295.101 494.597 294.671 492.348 294.081 490.107C294.027 489.838 294.346 489.591 294.795 489.553C295.069 489.527 295.334 489.583 295.518 489.691C295.64 489.763 295.731 489.857 295.761 489.965C296.341 492.225 296.781 494.505 297.061 496.79C297.094 497.058 296.743 497.288 296.283 497.307C296.026 497.321 295.791 497.264 295.625 497.168Z" fill="#494949"/>
<path d="M122.562 586.721C122.751 586.832 122.847 586.993 122.802 587.159C122.706 587.427 122.269 587.595 121.808 587.552C117.944 587.123 114.112 586.611 110.312 586.007C110.165 585.982 110.038 585.939 109.938 585.88C109.729 585.759 109.636 585.58 109.722 585.402C109.838 585.148 110.297 584.993 110.746 585.053C114.505 585.657 118.303 586.162 122.115 586.585C122.293 586.605 122.445 586.653 122.562 586.721Z" fill="#494949"/>
<path d="M292.124 483.674C292.015 483.61 291.932 483.529 291.894 483.434C291.006 481.23 289.978 479.043 288.789 476.889C288.66 476.626 288.892 476.352 289.33 476.271C289.644 476.211 289.967 476.264 290.183 476.388C290.277 476.443 290.348 476.511 290.392 476.588C291.592 478.775 292.64 480.985 293.531 483.217C293.639 483.478 293.352 483.746 292.892 483.802C292.603 483.842 292.319 483.787 292.124 483.674Z" fill="#494949"/>
<path d="M99.9194 583.125C100.145 583.255 100.231 583.453 100.117 583.64C99.9664 583.89 99.4761 584.026 99.0365 583.933C95.3546 583.161 91.7008 582.296 88.1016 581.348C88.0057 581.323 87.9212 581.289 87.8517 581.248C87.6094 581.108 87.5305 580.889 87.6695 580.7C87.8592 580.451 88.3626 580.345 88.791 580.456C92.347 581.391 95.9576 582.243 99.6094 583.01C99.7315 583.036 99.8349 583.076 99.9194 583.125Z" fill="#494949"/>
<path d="M285.001 470.662C284.922 470.617 284.858 470.562 284.817 470.5C283.338 468.413 281.734 466.351 279.968 464.321C279.765 464.077 279.923 463.784 280.34 463.667C280.684 463.565 281.071 463.611 281.321 463.756C281.381 463.79 281.434 463.832 281.475 463.879C283.263 465.934 284.89 468.02 286.365 470.132C286.549 470.387 286.346 470.668 285.908 470.774C285.589 470.847 285.234 470.797 285.001 470.662Z" fill="#494949"/>
<path d="M78.5295 577.48C78.7925 577.633 78.8601 577.869 78.6835 578.066C78.4487 578.302 77.9377 578.391 77.5414 578.26C74.113 577.152 70.7355 575.962 67.4349 574.691C67.3898 574.672 67.3485 574.653 67.309 574.631C67.031 574.47 66.9821 574.209 67.2057 574.013C67.4612 573.788 67.9759 573.726 68.361 573.875C71.6296 575.139 74.9528 576.311 78.3491 577.399C78.4168 577.422 78.4769 577.45 78.5295 577.48Z" fill="#494949"/>
<path d="M274.416 458.473C274.371 458.446 274.33 458.418 274.296 458.384C272.274 456.452 270.112 454.565 267.815 452.722C267.546 452.503 267.629 452.193 268.003 452.037C268.339 451.897 268.807 451.923 269.092 452.089C269.124 452.106 269.152 452.127 269.179 452.15C271.501 454.018 273.693 455.925 275.725 457.874C275.971 458.104 275.846 458.405 275.451 458.546C275.107 458.663 274.681 458.625 274.416 458.473Z" fill="#494949"/>
<path d="M58.9702 569.922C59.2745 570.1 59.3158 570.375 59.0472 570.577C58.7711 570.789 58.2357 570.827 57.86 570.659C54.7923 569.252 51.7904 567.769 48.8731 566.2C48.5387 566.005 48.5237 565.703 48.8374 565.509C49.1361 565.31 49.6696 565.297 50.0133 565.484C52.9006 567.035 55.8706 568.498 58.9063 569.888C58.927 569.898 58.9495 569.911 58.9702 569.922Z" fill="#494949"/>
<path d="M260.628 447.411C260.615 447.404 260.6 447.394 260.587 447.387C258.075 445.679 255.434 444.01 252.654 442.397C252.321 442.205 252.31 441.899 252.639 441.706C252.969 441.513 253.505 441.513 253.837 441.706C256.647 443.338 259.32 445.026 261.866 446.75C262.168 446.962 262.125 447.26 261.774 447.441C261.426 447.609 260.942 447.592 260.628 447.411Z" fill="#494949"/>
<path d="M41.6426 560.714C41.9638 560.901 41.9657 561.212 41.637 561.405C41.3176 561.592 40.7822 561.592 40.4591 561.405L32.1316 556.572C31.7991 556.379 31.8085 556.074 32.1278 555.887C32.4584 555.694 32.9826 555.688 33.3151 555.881L41.6426 560.714Z" fill="#494949"/>
<path d="M245.515 437.57C245.184 437.762 244.66 437.757 244.328 437.564L236.011 432.737C235.677 432.543 235.666 432.238 235.996 432.046C236.327 431.853 236.862 431.853 237.195 432.046L245.511 436.873C245.844 437.065 245.845 437.375 245.515 437.57Z" fill="#494949"/>
<path d="M448.933 313.467C448.602 313.66 448.067 313.66 447.746 313.473L439.418 308.64C439.086 308.447 439.084 308.136 439.414 307.943C439.734 307.756 440.269 307.756 440.602 307.949L448.929 312.782C449.25 312.969 449.252 313.28 448.933 313.467Z" fill="#494949"/>
<path d="M228.868 427.211C229.201 427.404 229.203 427.716 228.872 427.908C228.542 428.101 228.017 428.095 227.685 427.903L227.578 427.84L219.357 423.07C219.034 422.883 219.023 422.577 219.354 422.384C219.684 422.192 220.218 422.192 220.541 422.379L228.761 427.149L228.868 427.211Z" fill="#494949"/>
<path d="M432.29 303.806C431.96 303.999 431.424 303.999 431.092 303.806L422.775 298.979C422.443 298.786 422.441 298.475 422.772 298.282C423.091 298.095 423.626 298.095 423.959 298.288L432.275 303.115C432.608 303.307 432.61 303.619 432.29 303.806Z" fill="#494949"/>
<path d="M212.224 417.552C212.547 417.739 212.547 418.051 212.218 418.243C211.888 418.436 211.364 418.43 211.041 418.243L202.713 413.411C202.379 413.216 202.367 412.912 202.698 412.718C203.029 412.525 203.564 412.525 203.897 412.718L212.224 417.552Z" fill="#494949"/>
<path d="M414.448 294.146L410.413 291.804C408.985 290.975 407.539 290.173 406.068 289.381C405.724 289.181 405.707 288.879 406.009 288.69C406.331 288.49 406.864 288.479 407.197 288.658C408.688 289.462 410.159 290.278 411.596 291.111L415.631 293.453C415.964 293.646 415.966 293.957 415.644 294.144C415.316 294.339 414.78 294.339 414.448 294.146Z" fill="#494949"/>
<path d="M195.943 407.742C196.232 407.948 196.191 408.259 195.851 408.433C195.521 408.603 195.026 408.591 194.718 408.412C194.7 408.401 194.681 408.389 194.664 408.376C192.075 406.626 189.628 404.831 187.326 402.988C187.06 402.771 187.131 402.465 187.516 402.303C187.858 402.161 188.318 402.189 188.608 402.358C188.636 402.373 188.66 402.392 188.685 402.409C190.973 404.235 193.377 406.017 195.943 407.742Z" fill="#494949"/>
<path d="M398.34 284.898C398.053 285.115 397.529 285.147 397.164 284.985C394.076 283.576 390.912 282.25 387.687 281.011C387.632 280.992 387.585 280.97 387.542 280.945C387.27 280.786 387.227 280.533 387.446 280.339C387.693 280.108 388.215 280.054 388.602 280.201C391.87 281.453 395.075 282.792 398.186 284.212C398.214 284.225 398.242 284.239 398.269 284.256C398.571 284.427 398.605 284.707 398.34 284.898Z" fill="#494949"/>
<path d="M182.19 396.768C182.438 396.998 182.31 397.297 181.916 397.44C181.568 397.557 181.142 397.519 180.879 397.366C180.834 397.34 180.794 397.31 180.759 397.278C178.685 395.315 176.769 393.31 174.992 391.274C174.778 391.038 174.947 390.738 175.352 390.613C175.685 390.519 176.072 390.56 176.324 390.706C176.387 390.743 176.442 390.787 176.487 390.838C178.243 392.851 180.146 394.824 182.19 396.768Z" fill="#494949"/>
<path d="M378.833 277.31C378.609 277.54 378.096 277.627 377.7 277.497C374.272 276.401 370.789 275.385 367.244 274.458C367.15 274.433 367.068 274.401 367 274.362C366.761 274.224 366.682 274.005 366.821 273.816C367.013 273.567 367.503 273.455 367.934 273.567C371.51 274.501 375.036 275.529 378.497 276.643C378.57 276.666 378.636 276.694 378.692 276.726C378.946 276.875 379.015 277.111 378.833 277.31Z" fill="#494949"/>
<path d="M167.614 378.262C168.803 380.418 170.131 382.541 171.619 384.647C171.792 384.896 171.591 385.189 171.163 385.289C170.836 385.364 170.473 385.312 170.238 385.174C170.163 385.13 170.101 385.079 170.058 385.021C168.57 382.89 167.21 380.736 166.012 378.562C165.871 378.294 166.115 378.026 166.553 377.944C166.866 377.884 167.189 377.939 167.405 378.063C167.498 378.116 167.571 378.186 167.614 378.262Z" fill="#494949"/>
<path d="M357.505 271.624C357.347 271.879 356.866 272.011 356.427 271.916C352.766 271.155 349.05 270.477 345.293 269.886C345.148 269.864 345.024 269.82 344.925 269.763C344.72 269.644 344.624 269.465 344.71 269.289C344.816 269.027 345.287 268.878 345.736 268.94C349.525 269.539 353.273 270.224 356.989 271.002C357.113 271.029 357.22 271.068 357.308 271.119C357.53 271.248 357.62 271.44 357.505 271.624Z" fill="#494949"/>
<path d="M162.268 365.04C162.858 367.271 163.596 369.499 164.498 371.71C164.607 371.973 164.319 372.239 163.859 372.296C163.572 372.336 163.282 372.285 163.087 372.169C162.978 372.107 162.897 372.024 162.864 371.928C161.952 369.697 161.212 367.442 160.613 365.182C160.536 364.914 160.855 364.664 161.316 364.621C161.584 364.598 161.849 364.655 162.033 364.761C162.153 364.834 162.242 364.929 162.268 365.04Z" fill="#494949"/>
<path d="M334.906 267.981C334.821 268.255 334.386 268.423 333.935 268.373C330.091 267.956 326.25 267.626 322.387 267.384C322.184 267.373 322.006 267.322 321.874 267.246C321.7 267.144 321.606 267.001 321.636 266.849C321.687 266.581 322.104 266.389 322.553 266.413C326.469 266.663 330.352 266.993 334.228 267.416C334.402 267.433 334.556 267.48 334.671 267.548C334.863 267.656 334.957 267.818 334.906 267.981Z" fill="#494949"/>
<path d="M160.557 351.492C160.538 353.766 160.666 356.027 160.959 358.281C160.981 358.555 160.64 358.791 160.179 358.81C159.931 358.82 159.702 358.765 159.535 358.669C159.394 358.587 159.3 358.474 159.28 358.349C158.988 356.07 158.847 353.777 158.878 351.485C158.876 351.224 159.261 350.999 159.719 351.005C159.952 351.005 160.159 351.06 160.309 351.147C160.461 351.237 160.555 351.36 160.557 351.492Z" fill="#494949"/>
<path d="M310.747 266.935C306.864 266.867 302.97 266.891 299.089 267.01C298.843 267.014 298.614 266.956 298.45 266.861C298.308 266.778 298.214 266.669 298.199 266.544C298.176 266.27 298.537 266.045 298.997 266.027C302.933 265.915 306.859 265.883 310.785 265.953C311.01 265.959 311.215 266.013 311.362 266.098C311.521 266.191 311.615 266.317 311.612 266.455C311.602 266.723 311.217 266.935 310.747 266.935Z" fill="#494949"/>
<path d="M162.49 337.976C161.872 340.212 161.382 342.46 161.074 344.715C161.021 344.983 160.617 345.181 160.168 345.157C159.956 345.145 159.772 345.092 159.635 345.011C159.466 344.913 159.372 344.777 159.394 344.632C159.725 342.352 160.204 340.073 160.833 337.818C160.907 337.55 161.344 337.37 161.805 337.414C161.985 337.431 162.141 337.48 162.261 337.55C162.445 337.661 162.543 337.818 162.49 337.976Z" fill="#494949"/>
<path d="M288.189 267.065C288.265 267.333 287.936 267.577 287.466 267.613C283.628 267.905 279.789 268.285 275.985 268.748C275.692 268.783 275.404 268.727 275.209 268.612C275.098 268.547 275.017 268.466 274.978 268.374C274.891 268.113 275.179 267.843 275.628 267.794C279.477 267.32 283.358 266.94 287.248 266.642C287.521 266.619 287.776 266.676 287.953 266.78C288.079 266.853 288.167 266.952 288.189 267.065Z" fill="#494949"/>
<path d="M168.054 324.815C166.836 326.965 165.756 329.144 164.828 331.336C164.712 331.591 164.265 331.754 163.814 331.691C163.658 331.669 163.523 331.622 163.419 331.561C163.215 331.442 163.121 331.267 163.19 331.093C164.129 328.881 165.219 326.683 166.47 324.504C166.607 324.249 167.077 324.111 167.528 324.198C167.652 324.221 167.761 324.26 167.849 324.311C168.065 324.44 168.151 324.634 168.054 324.815Z" fill="#494949"/>
<path d="M265.251 269.805C265.383 270.066 265.127 270.342 264.678 270.415C260.96 271.052 257.275 271.779 253.653 272.597C253.33 272.665 252.979 272.616 252.751 272.483C252.669 272.436 252.603 272.378 252.56 272.31C252.387 272.06 252.61 271.781 253.037 271.681C256.711 270.857 260.44 270.117 264.192 269.475C264.503 269.424 264.826 269.479 265.041 269.605C265.135 269.66 265.208 269.728 265.251 269.805Z" fill="#494949"/>
<path d="M176.974 311.774C177.225 311.919 177.299 312.15 177.118 312.348C175.321 314.359 173.664 316.402 172.168 318.476C171.977 318.725 171.486 318.837 171.068 318.731C170.959 318.704 170.867 318.669 170.791 318.625C170.557 318.489 170.48 318.28 170.615 318.096C172.142 315.991 173.81 313.93 175.629 311.893C175.852 311.649 176.365 311.562 176.773 311.689C176.85 311.709 176.915 311.74 176.974 311.774Z" fill="#494949"/>
<path d="M243.329 274.626C243.536 274.87 243.365 275.168 242.938 275.28C239.456 276.251 236.029 277.316 232.655 278.462C232.323 278.572 231.91 278.538 231.645 278.385C231.594 278.354 231.549 278.32 231.511 278.283C231.273 278.047 231.412 277.754 231.806 277.61C235.212 276.458 238.693 275.388 242.217 274.404C242.548 274.309 242.929 274.356 243.171 274.498C243.235 274.534 243.29 274.577 243.329 274.626Z" fill="#494949"/>
<path d="M189.426 300.239C189.725 300.412 189.77 300.686 189.515 300.879C187.172 302.697 184.978 304.567 182.925 306.465C182.68 306.695 182.156 306.765 181.76 306.62C181.709 306.601 181.664 306.578 181.625 306.556C181.347 306.395 181.277 306.144 181.501 305.948C183.576 304.023 185.801 302.137 188.164 300.291C188.451 300.074 188.975 300.031 189.34 300.191C189.372 300.208 189.4 300.224 189.426 300.239Z" fill="#494949"/>
<path d="M196.844 295.623C196.547 295.821 196.012 295.845 195.668 295.658C195.655 295.653 195.64 295.645 195.627 295.638C195.321 295.46 195.293 295.166 195.589 294.967C197.582 293.653 199.651 292.369 201.804 291.111C202.433 290.745 203.085 290.376 203.723 290.016C204.054 289.823 204.589 289.834 204.911 290.021C205.232 290.221 205.222 290.527 204.894 290.72C204.264 291.075 203.624 291.436 202.996 291.804C200.862 293.05 198.817 294.321 196.844 295.623Z" fill="#494949"/>
<path d="M619.34 47.9008C618.989 47.6968 618.999 47.3909 619.329 47.1983C622.164 45.5912 625.089 44.0709 628.085 42.6206C628.425 42.4581 628.919 42.4789 629.218 42.6527C629.237 42.664 629.255 42.6753 629.272 42.6885C629.573 42.9 629.52 43.206 629.169 43.3741C626.205 44.8074 623.304 46.3126 620.5 47.9027C620.186 48.0859 619.665 48.0896 619.34 47.9008Z" fill="#494949"/>
<path d="M637.255 39.1528C636.987 38.9224 637.081 38.6164 637.464 38.4673C640.687 37.1472 643.995 35.914 647.358 34.762C647.7 34.6468 648.123 34.6865 648.384 34.8376C648.434 34.8659 648.48 34.8999 648.515 34.9358C648.752 35.1737 648.624 35.4721 648.218 35.6081C644.888 36.7412 641.621 37.963 638.42 39.2699C638.086 39.4096 637.629 39.3775 637.344 39.2132C637.312 39.1943 637.282 39.1736 637.255 39.1528Z" fill="#494949"/>
<path d="M591.483 69.6881C591.234 69.5446 591.168 69.3123 591.331 69.1159C593.138 67.0971 595.086 65.1104 597.181 63.1615C597.425 62.9311 597.94 62.8688 598.336 63.0123C598.391 63.0331 598.443 63.0557 598.487 63.0803C598.757 63.237 598.806 63.4863 598.597 63.6846C596.533 65.6033 594.607 67.5768 592.823 69.5711C592.622 69.8147 592.109 69.9015 591.701 69.7769C591.617 69.7542 591.544 69.724 591.483 69.6881Z" fill="#494949"/>
<path d="M603.904 58.1443C603.615 57.9762 603.568 57.7024 603.812 57.5022C606.155 55.6836 608.617 53.9084 611.217 52.1766C611.525 51.9708 612.05 51.9519 612.403 52.1332C612.418 52.1407 612.431 52.1464 612.444 52.154C612.75 52.3315 612.778 52.628 612.493 52.8187C609.902 54.5316 607.473 56.2879 605.163 58.0876C604.896 58.3067 604.363 58.3558 603.987 58.1877C603.959 58.1726 603.931 58.1594 603.904 58.1443Z" fill="#494949"/>
<path d="M212.397 286.136C212.096 285.925 212.149 285.619 212.5 285.451C215.551 283.982 218.677 282.605 221.889 281.304C222.218 281.166 222.663 281.192 222.941 281.355C222.979 281.377 223.013 281.4 223.044 281.428C223.313 281.648 223.229 281.957 222.845 282.106C219.688 283.389 216.592 284.76 213.573 286.199C213.233 286.363 212.75 286.344 212.453 286.172C212.435 286.161 212.416 286.15 212.397 286.136Z" fill="#494949"/>
<path d="M657.366 32.1883C657.162 31.9447 657.342 31.652 657.757 31.533C661.302 30.5359 664.924 29.6218 668.578 28.7984C668.893 28.7248 669.239 28.7758 669.468 28.9099C669.549 28.9571 669.615 29.0137 669.66 29.0798C669.832 29.3291 669.62 29.6162 669.182 29.7087C665.572 30.5321 662.005 31.4272 658.492 32.4187C658.161 32.5131 657.78 32.4659 657.532 32.3224C657.464 32.2846 657.41 32.2393 657.366 32.1883Z" fill="#494949"/>
<path d="M587.71 75.1684C587.945 75.3043 588.026 75.5177 587.881 75.7066C586.386 77.7934 585.028 79.9104 583.799 82.052C583.662 82.3069 583.19 82.4448 582.753 82.3635C582.619 82.339 582.507 82.2975 582.416 82.2446C582.197 82.1181 582.11 81.9273 582.216 81.7422C583.435 79.5818 584.812 77.4384 586.341 75.3213C586.523 75.0777 587.023 74.9606 587.442 75.0664C587.545 75.089 587.635 75.1249 587.71 75.1684Z" fill="#494949"/>
<path d="M679.381 27.3972C679.285 27.3405 679.21 27.2707 679.168 27.1876C679.029 26.9326 679.285 26.6569 679.721 26.5776C683.495 25.9242 687.308 25.3576 691.146 24.876C691.437 24.8402 691.719 24.8949 691.91 25.0064C692.023 25.0724 692.106 25.1574 692.143 25.2556C692.239 25.5238 691.954 25.7788 691.505 25.8411C687.71 26.3094 683.949 26.8684 680.207 27.5162C679.901 27.5672 679.587 27.5162 679.381 27.3972Z" fill="#494949"/>
<path d="M580.383 88.1103C580.588 88.2293 580.686 88.4011 580.616 88.5749C579.686 90.7806 578.918 92.9921 578.3 95.2281C578.227 95.4962 577.8 95.67 577.338 95.6265C577.158 95.6096 577.002 95.5604 576.882 95.4906C576.696 95.3829 576.6 95.2262 576.651 95.0657C577.259 92.8108 578.037 90.5691 578.967 88.3388C579.093 88.0763 579.542 87.9139 579.991 87.9762C580.145 88.0026 580.278 88.048 580.383 88.1103Z" fill="#494949"/>
<path d="M702.286 24.5453C702.158 24.4717 702.068 24.3735 702.042 24.2583C701.987 23.9901 702.307 23.7427 702.765 23.7106C706.657 23.4122 710.582 23.2064 714.517 23.0817C714.758 23.0742 714.983 23.1308 715.146 23.2252C715.287 23.3065 715.381 23.4179 715.396 23.5425C715.419 23.8163 715.066 24.0467 714.596 24.06C710.713 24.1789 706.843 24.3905 702.983 24.6813C702.722 24.704 702.466 24.6492 702.286 24.5453Z" fill="#494949"/>
<path d="M576.66 101.573C576.831 101.673 576.926 101.813 576.904 101.966C576.586 104.215 576.427 106.481 576.419 108.75C576.41 109.018 576.036 109.235 575.576 109.229C575.341 109.229 575.131 109.174 574.978 109.088C574.826 108.999 574.734 108.878 574.738 108.744C574.747 106.451 574.905 104.16 575.236 101.879C575.266 101.611 575.672 101.413 576.132 101.43C576.342 101.441 576.524 101.494 576.66 101.573Z" fill="#494949"/>
<path d="M725.69 23.8241C725.532 23.7334 725.438 23.605 725.442 23.4634C725.451 23.1952 725.835 22.9837 726.295 22.9894C730.232 23.0517 734.158 23.1952 738.073 23.4313C738.271 23.4445 738.443 23.4955 738.573 23.571C738.748 23.673 738.845 23.8184 738.817 23.9733C738.787 24.2415 738.37 24.4341 737.9 24.4095C734.038 24.1791 730.153 24.0224 726.27 23.9676C726.043 23.9638 725.838 23.9091 725.69 23.8241Z" fill="#494949"/>
<path d="M576.606 115.224C576.745 115.305 576.839 115.411 576.852 115.532C577.143 117.787 577.585 120.042 578.195 122.283C578.261 122.546 577.953 122.801 577.481 122.838C577.207 122.865 576.942 122.808 576.76 122.702C576.638 122.633 576.553 122.538 576.527 122.434C575.915 120.166 575.475 117.887 575.173 115.602C575.139 115.333 575.479 115.097 575.941 115.079C576.195 115.067 576.435 115.126 576.606 115.224Z" fill="#494949"/>
<path d="M749.006 25.2443C748.816 25.1348 748.72 24.9724 748.767 24.8081C748.852 24.5475 749.289 24.3662 749.75 24.4209C753.614 24.8383 757.446 25.3368 761.258 25.9355C761.406 25.9601 761.532 26.0054 761.631 26.062C761.836 26.181 761.93 26.3566 761.859 26.5323C761.731 26.7948 761.273 26.9496 760.822 26.876C757.067 26.2962 753.266 25.792 749.455 25.3822C749.276 25.3614 749.124 25.3123 749.006 25.2443Z" fill="#494949"/>
<path d="M580.214 128.717C580.319 128.778 580.398 128.857 580.438 128.95C581.328 131.156 582.387 133.335 583.586 135.497C583.738 135.758 583.481 136.032 583.043 136.113C582.735 136.17 582.41 136.118 582.192 135.992C582.1 135.939 582.029 135.873 581.984 135.796C580.774 133.616 579.712 131.399 578.801 129.18C578.704 128.912 578.98 128.651 579.431 128.589C579.722 128.546 580.013 128.6 580.214 128.717Z" fill="#494949"/>
<path d="M771.662 28.7849C771.436 28.6545 771.35 28.4544 771.465 28.2693C771.602 28.0144 772.083 27.8822 772.532 27.969C776.227 28.7358 779.877 29.5894 783.478 30.5223C783.574 30.5468 783.658 30.5808 783.728 30.6224C783.97 30.764 784.049 30.9812 783.908 31.17C783.718 31.4193 783.215 31.5251 782.796 31.4193C779.229 30.4902 775.62 29.6498 771.968 28.8963C771.852 28.8736 771.746 28.834 771.662 28.7849Z" fill="#494949"/>
<path d="M587.433 141.721C587.509 141.764 587.571 141.815 587.612 141.878C589.1 143.972 590.727 146.032 592.513 148.063C592.727 148.299 592.56 148.597 592.143 148.716C591.82 148.814 591.427 148.771 591.177 148.627C591.113 148.589 591.059 148.546 591.016 148.499C589.22 146.45 587.571 144.363 586.062 142.257C585.88 142.002 586.092 141.715 586.519 141.615C586.842 141.542 587.202 141.587 587.433 141.721Z" fill="#494949"/>
<path d="M793.064 34.364C792.806 34.2148 792.731 33.9749 792.917 33.7823C793.129 33.5444 793.642 33.4575 794.05 33.5821C797.49 34.685 800.865 35.8616 804.177 37.125C804.226 37.1438 804.269 37.1646 804.307 37.1873C804.585 37.3478 804.641 37.6028 804.425 37.8048C804.17 38.0296 803.636 38.09 803.249 37.9427C799.98 36.6906 796.648 35.5273 793.24 34.4414C793.176 34.4206 793.116 34.3942 793.064 34.364Z" fill="#494949"/>
<path d="M598.115 153.893C598.16 153.919 598.199 153.948 598.235 153.982C600.266 155.906 602.437 157.787 604.748 159.624C605.026 159.849 604.943 160.148 604.581 160.31C604.229 160.457 603.761 160.423 603.47 160.253C603.444 160.238 603.418 160.221 603.393 160.204C601.062 158.342 598.859 156.442 596.803 154.492C596.557 154.261 596.683 153.963 597.078 153.819C597.408 153.7 597.842 153.734 598.115 153.893Z" fill="#494949"/>
<path d="M812.667 41.8607C812.368 41.6869 812.342 41.4112 812.607 41.2129C812.885 41.0014 813.418 40.9636 813.783 41.1261C816.862 42.5273 819.877 44.0041 822.804 45.5678C822.817 45.5754 822.832 45.581 822.845 45.5886C823.16 45.7718 823.168 46.0664 822.862 46.259C822.542 46.4573 822.009 46.4705 821.676 46.2892C818.78 44.7444 815.808 43.2808 812.751 41.9041C812.72 41.889 812.693 41.8758 812.667 41.8607Z" fill="#494949"/>
<path d="M611.994 164.918C612.007 164.925 612.021 164.933 612.034 164.942C614.418 166.549 616.918 168.111 619.537 169.631L620.008 169.905C620.341 170.098 620.343 170.409 620.01 170.604C619.691 170.791 619.157 170.791 618.825 170.598L618.353 170.324C615.703 168.785 613.168 167.205 610.764 165.586C610.454 165.38 610.493 165.069 610.845 164.887C611.183 164.725 611.679 164.734 611.994 164.918Z" fill="#494949"/>
<path d="M830.064 51.0463C829.731 50.8537 829.729 50.5421 830.06 50.3495C830.379 50.1625 830.915 50.1625 831.247 50.3552L839.575 55.1878C839.898 55.3748 839.9 55.6864 839.578 55.8734C839.248 56.066 838.712 56.066 838.391 55.879L830.064 51.0463Z" fill="#494949"/>
<path d="M627.135 174.74C627.466 174.545 628.001 174.545 628.333 174.74L636.661 179.574C636.982 179.761 636.984 180.071 636.652 180.265C636.332 180.452 635.799 180.452 635.478 180.265L627.15 175.431C626.817 175.236 626.816 174.925 627.135 174.74Z" fill="#494949"/>
<path d="M643.796 185.091C643.473 184.904 643.473 184.592 643.791 184.405C644.123 184.211 644.657 184.211 644.98 184.4L653.307 189.232C653.64 189.425 653.63 189.731 653.3 189.925C652.98 190.112 652.456 190.118 652.124 189.925L643.796 185.091Z" fill="#494949"/>
<path d="M660.446 194.756C660.114 194.563 660.112 194.252 660.431 194.065C660.762 193.87 661.297 193.87 661.63 194.065L669.7 198.748L669.946 198.892C670.279 199.084 670.28 199.396 669.95 199.591C669.619 199.783 669.097 199.778 668.764 199.583L668.518 199.439L660.446 194.756Z" fill="#494949"/>
<path d="M457.246 317.609L461.764 320.232C463.03 320.967 464.319 321.69 465.626 322.387C465.96 322.581 465.975 322.884 465.662 323.078C465.342 323.276 464.816 323.284 464.486 323.103C463.156 322.393 461.858 321.664 460.58 320.923L456.062 318.3C455.741 318.113 455.739 317.802 456.07 317.609C456.389 317.422 456.925 317.422 457.246 317.609Z" fill="#494949"/>
<path d="M676.674 204.585C676.384 204.382 676.426 204.068 676.766 203.894C677.108 203.73 677.602 203.743 677.9 203.915C677.919 203.926 677.936 203.938 677.955 203.949C680.532 205.705 682.959 207.511 685.247 209.362C685.516 209.581 685.443 209.885 685.069 210.041C684.725 210.187 684.267 210.157 683.981 209.99C683.949 209.972 683.919 209.951 683.891 209.928C681.625 208.104 679.219 206.323 676.674 204.585Z" fill="#494949"/>
<path d="M473.312 326.881C473.599 326.675 474.135 326.637 474.488 326.807C477.565 328.222 480.717 329.553 483.944 330.805C483.989 330.822 484.033 330.843 484.07 330.866C484.348 331.028 484.397 331.287 484.172 331.485C483.916 331.71 483.392 331.765 483.007 331.615C479.759 330.352 476.564 329.006 473.455 327.574C473.426 327.561 473.4 327.548 473.374 327.533C473.081 327.363 473.045 327.083 473.312 326.881Z" fill="#494949"/>
<path d="M690.342 215.598C690.094 215.368 690.22 215.068 690.616 214.926C690.964 214.809 691.386 214.847 691.657 215.003C691.704 215.03 691.747 215.06 691.781 215.094C693.825 217.062 695.741 219.067 697.484 221.111C697.709 221.352 697.529 221.647 697.125 221.772C696.793 221.866 696.398 221.821 696.148 221.677C696.084 221.641 696.032 221.598 695.991 221.549C694.257 219.534 692.374 217.547 690.342 215.598Z" fill="#494949"/>
<path d="M492.754 334.532C492.98 334.302 493.493 334.215 493.908 334.345C497.315 335.454 500.798 336.483 504.332 337.416C504.428 337.44 504.512 337.474 504.582 337.516C504.824 337.656 504.899 337.875 504.743 338.063C504.563 338.307 504.061 338.413 503.642 338.305C500.066 337.359 496.54 336.318 493.089 335.197C493.015 335.174 492.95 335.146 492.893 335.114C492.642 334.966 492.572 334.73 492.754 334.532Z" fill="#494949"/>
<path d="M704.76 234.12C703.594 231.965 702.275 229.835 700.81 227.729C700.637 227.48 700.849 227.193 701.277 227.095C701.597 227.021 701.952 227.07 702.183 227.206C702.262 227.251 702.326 227.306 702.371 227.369C703.859 229.499 705.187 231.648 706.365 233.835C706.504 234.09 706.271 234.364 705.812 234.445C705.508 234.501 705.192 234.449 704.978 234.324C704.881 234.269 704.805 234.201 704.76 234.12Z" fill="#494949"/>
<path d="M514.062 340.28C514.22 340.025 514.701 339.893 515.14 339.988C518.815 340.768 522.517 341.453 526.265 342.05C526.411 342.074 526.539 342.12 526.639 342.176C526.847 342.297 526.941 342.477 526.857 342.652C526.74 342.909 526.28 343.064 525.833 342.988C522.042 342.392 518.283 341.687 514.579 340.902C514.456 340.877 514.351 340.835 514.267 340.786C514.043 340.658 513.955 340.46 514.062 340.28Z" fill="#494949"/>
<path d="M710.01 247.351C709.432 245.115 708.712 242.887 707.833 240.673C707.726 240.411 708.012 240.156 708.461 240.094C708.754 240.054 709.05 240.111 709.253 240.228C709.36 240.29 709.441 240.371 709.481 240.462C710.36 242.698 711.089 244.947 711.667 247.208C711.742 247.476 711.425 247.725 710.965 247.768C710.687 247.791 710.429 247.736 710.249 247.633C710.123 247.559 710.037 247.463 710.01 247.351Z" fill="#494949"/>
<path d="M536.652 343.978C536.746 343.71 537.183 343.543 537.634 343.593C541.465 344.016 545.306 344.359 549.18 344.609C549.377 344.622 549.55 344.673 549.679 344.748C549.854 344.85 549.952 344.996 549.922 345.151C549.871 345.419 549.454 345.611 548.994 345.581C545.088 345.326 541.204 344.984 537.328 344.559C537.157 344.539 537.011 344.49 536.896 344.424C536.703 344.31 536.605 344.148 536.652 343.978Z" fill="#494949"/>
<path d="M711.624 260.891C711.666 258.631 711.545 256.365 711.265 254.102C711.232 253.834 711.583 253.604 712.054 253.579C712.302 253.57 712.533 253.624 712.699 253.721C712.84 253.802 712.934 253.915 712.956 254.042C713.215 256.327 713.345 258.614 713.315 260.905C713.306 261.173 712.922 261.398 712.462 261.392C712.235 261.388 712.026 261.331 711.872 261.243C711.716 261.15 711.62 261.026 711.624 260.891Z" fill="#494949"/>
<path d="M560.822 345.094C564.705 345.162 568.599 345.151 572.48 345.045C572.725 345.041 572.95 345.098 573.112 345.192C573.256 345.276 573.35 345.389 573.36 345.519C573.382 345.78 573.031 346.012 572.559 346.023C568.635 346.129 564.7 346.142 560.773 346.074C560.546 346.069 560.343 346.014 560.195 345.927C560.037 345.834 559.941 345.708 559.945 345.568C559.967 345.294 560.351 345.081 560.822 345.094Z" fill="#494949"/>
<path d="M709.582 274.406C710.233 272.176 710.724 269.928 711.052 267.673C711.105 267.405 711.509 267.207 711.982 267.232C712.18 267.243 712.358 267.296 712.491 267.373C712.661 267.471 712.762 267.613 712.743 267.76C712.392 270.04 711.903 272.314 711.24 274.574C711.167 274.842 710.741 275.016 710.282 274.973C710.102 274.956 709.944 274.906 709.824 274.837C709.636 274.729 709.536 274.57 709.582 274.406Z" fill="#494949"/>
<path d="M583.36 345.013C583.305 344.745 583.634 344.503 584.094 344.471C587.944 344.184 591.781 343.817 595.587 343.357C595.877 343.323 596.164 343.377 596.357 343.491C596.47 343.557 596.553 343.642 596.585 343.738C596.682 344.006 596.395 344.261 595.937 344.318C592.088 344.779 588.207 345.158 584.305 345.44C584.044 345.46 583.792 345.406 583.614 345.3C583.482 345.222 583.392 345.124 583.36 345.013Z" fill="#494949"/>
<path d="M703.932 287.567C705.172 285.418 706.262 283.244 707.212 281.051C707.318 280.789 707.776 280.634 708.227 280.696C708.373 280.719 708.505 280.764 708.608 280.825C708.813 280.944 708.914 281.119 708.83 281.293C707.879 283.51 706.778 285.703 705.518 287.876C705.37 288.139 704.9 288.275 704.451 288.188C704.327 288.161 704.218 288.12 704.132 288.071C703.906 287.942 703.818 287.752 703.932 287.567Z" fill="#494949"/>
<path d="M606.329 342.33C606.19 342.075 606.446 341.799 606.893 341.726C610.613 341.091 614.298 340.373 617.929 339.576C618.253 339.508 618.604 339.558 618.831 339.69C618.914 339.737 618.98 339.795 619.023 339.863C619.196 340.113 618.972 340.392 618.534 340.487C614.849 341.302 611.129 342.024 607.368 342.66C607.07 342.717 606.754 342.662 606.544 342.541C606.448 342.483 606.371 342.411 606.329 342.33Z" fill="#494949"/>
<path d="M694.894 300.605C694.642 300.46 694.569 300.229 694.751 300.031C696.57 298.02 698.236 295.982 699.765 293.903C699.945 293.659 700.447 293.542 700.875 293.654C700.973 293.678 701.057 293.712 701.129 293.754C701.364 293.89 701.448 294.103 701.319 294.294C699.769 296.386 698.08 298.462 696.23 300.492C696.017 300.728 695.516 300.822 695.097 300.692C695.022 300.668 694.952 300.637 694.894 300.605Z" fill="#494949"/>
<path d="M628.642 336.915C632.134 335.95 635.574 334.904 638.946 333.771C639.29 333.654 639.712 333.699 639.977 333.854C640.024 333.881 640.068 333.911 640.103 333.945C640.34 334.183 640.191 334.481 639.786 334.617C636.38 335.769 632.899 336.829 629.366 337.807C629.033 337.894 628.661 337.854 628.421 337.714C628.351 337.675 628.295 337.626 628.252 337.571C628.047 337.327 628.225 337.034 628.642 336.915Z" fill="#494949"/>
<path d="M267.885 554.21C268.178 554.38 268.209 554.654 267.959 554.847C265.616 556.665 263.144 558.435 260.512 560.159C260.213 560.359 259.667 560.378 259.327 560.202C259.319 560.199 259.314 560.195 259.304 560.189C258.981 560.002 258.955 559.706 259.257 559.504C261.848 557.804 264.297 556.048 266.619 554.254C266.897 554.042 267.42 553.999 267.784 554.161C267.822 554.176 267.853 554.193 267.885 554.21Z" fill="#494949"/>
<path d="M659.271 326.146C659.571 326.358 659.521 326.662 659.156 326.838C656.094 328.288 652.957 329.659 649.747 330.949C649.412 331.089 648.956 331.058 648.67 330.892C648.638 330.873 648.608 330.853 648.58 330.83C648.321 330.605 648.417 330.301 648.79 330.144C651.971 328.873 655.065 327.516 658.106 326.077C658.429 325.922 658.912 325.929 659.203 326.099C659.228 326.114 659.25 326.131 659.271 326.146Z" fill="#494949"/>
<path d="M682.346 312.108C682.047 311.934 682.006 311.66 682.267 311.46C684.621 309.647 686.834 307.791 688.9 305.898C689.144 305.668 689.669 305.598 690.065 305.742C690.114 305.76 690.157 305.779 690.196 305.804C690.474 305.966 690.538 306.223 690.315 306.42C688.23 308.338 685.994 310.219 683.608 312.051C683.319 312.27 682.797 312.314 682.432 312.151C682.402 312.138 682.372 312.123 682.346 312.108Z" fill="#494949"/>
<path d="M852.546 62.7195C852.867 62.9065 852.869 63.2181 852.55 63.405C852.219 63.5977 851.684 63.5977 851.363 63.4107L847.189 60.9877C846.856 60.7951 846.854 60.4835 847.185 60.2909C847.504 60.1039 848.04 60.1039 848.372 60.2966L852.546 62.7195Z" fill="#494949"/>
<path d="M832.784 86.7095C811.405 91.7576 789.982 78.519 784.934 57.1403C779.885 35.7616 793.124 14.3384 814.503 9.29032C835.882 4.24221 857.305 17.4808 862.353 38.8595C867.401 60.2382 854.162 81.6614 832.784 86.7095Z" fill="white" stroke="#165425" stroke-width="5.19333" stroke-miterlimit="10"/>
<path d="M824.024 41.7528C823.69 41.6136 823.314 41.5022 822.897 41.4187C822.479 41.3352 822.103 41.2934 821.769 41.2934C821.073 41.2934 820.503 41.4605 820.057 41.7945C819.64 42.1008 819.431 42.5462 819.431 43.1309C819.431 43.6042 819.598 44.0357 819.932 44.4254C820.294 44.7874 820.823 44.9683 821.519 44.9683C822.215 44.9683 822.953 44.8709 823.732 44.676C824.512 44.4533 825.305 44.1749 826.112 43.8408L828.66 47.6827C827.574 48.7406 826.572 49.7847 825.653 50.8147C824.734 51.817 823.857 52.8749 823.022 53.9885C822.215 55.0743 821.421 56.2157 820.642 57.4128C819.89 58.61 819.111 59.9045 818.303 61.2965L813.918 58.2898C814.976 56.5637 815.979 55.0464 816.925 53.7379C817.9 52.4295 818.971 51.1906 820.141 50.0213C819.695 49.9656 819.278 49.8821 818.888 49.7707C818.498 49.6594 818.15 49.5341 817.844 49.3949C816.508 48.8102 815.561 47.989 815.004 46.931C814.447 45.8453 814.169 44.6482 814.169 43.3397C814.169 42.3653 814.336 41.4326 814.67 40.5417C815.004 39.623 815.477 38.8157 816.09 38.1197C816.702 37.3958 817.426 36.8251 818.261 36.4075C819.125 35.9899 820.071 35.7811 821.101 35.7811C821.797 35.7811 822.507 35.8646 823.231 36.0317C823.955 36.1709 824.762 36.4632 825.653 36.9086L824.024 41.7528Z" fill="#165425"/>
<ellipse cx="0.649197" cy="0.649198" rx="0.649197" ry="0.649198" transform="matrix(0 1 1 0 803.184 89.5016)" fill="#9A8DF7"/>
<path d="M803.833 90.1518L803.818 90.1449" stroke="#165425" stroke-width="1.2984" stroke-linecap="round" stroke-linejoin="round"/>
<path d="M801.536 88.9914C801.407 88.9214 801.278 88.8515 801.15 88.7803C786.794 80.8519 777.071 65.562 777.071 48.0018C777.071 29.8263 787.487 14.0839 802.675 6.41736" stroke="#165425" stroke-width="1.2984" stroke-linecap="round" stroke-linejoin="round"/>
<ellipse cx="0.649197" cy="0.649198" rx="0.649197" ry="0.649198" transform="matrix(0 1 1 0 803.182 5.20654)" fill="#9A8DF7"/>
<path d="M870.24 54.7933L875.153 48.0026L870.24 41.2131" stroke="#165425" stroke-width="1.91187" stroke-miterlimit="10" stroke-linecap="round" stroke-linejoin="round"/>
<path d="M875.153 54.7933L880.066 48.0026L875.153 41.2131" stroke="#165425" stroke-width="1.91187" stroke-miterlimit="10" stroke-linecap="round" stroke-linejoin="round"/>
<path d="M43.7446 570.828C65.1233 575.876 86.5465 562.637 91.5946 541.259C96.6427 519.88 83.4041 498.457 62.0254 493.409C40.6468 488.361 19.2236 501.599 14.1755 522.978C9.12739 544.357 22.3659 565.78 43.7446 570.828Z" fill="white" stroke="#165425" stroke-width="5.19332" stroke-miterlimit="10"/>
<ellipse cx="72.695" cy="574.269" rx="0.649197" ry="0.649196" transform="rotate(90 72.695 574.269)" fill="#9A8DF7"/>
<path d="M72.6943 574.27L72.7095 574.263" stroke="#165425" stroke-width="1.29839" stroke-linecap="round" stroke-linejoin="round"/>
<path d="M74.9912 573.11C75.1209 573.04 75.2493 572.97 75.3777 572.899C89.7332 564.97 99.4565 549.681 99.4565 532.12C99.4565 513.945 89.0404 498.202 73.8522 490.536" stroke="#165425" stroke-width="1.29839" stroke-linecap="round" stroke-linejoin="round"/>
<ellipse cx="72.696" cy="489.974" rx="0.649197" ry="0.649196" transform="rotate(90 72.696 489.974)" fill="#9A8DF7"/>
<path d="M50.3785 546.632V536.484C50.3785 534.814 50.3368 533.394 50.2533 532.225C50.1697 531.055 50.0445 529.997 49.8774 529.051C49.7382 528.104 49.5573 527.213 49.3345 526.378C49.1118 525.515 48.8613 524.596 48.5829 523.622L53.5941 521.826C53.956 522.912 54.2622 523.956 54.5128 524.958C54.7912 525.933 55.0139 526.977 55.1809 528.09C55.348 529.204 55.4733 530.415 55.5568 531.723C55.6403 533.032 55.6821 534.549 55.6821 536.275V546.632H50.3785Z" fill="#165425"/>
<path d="M11.2891 538.912L6.37591 532.121L11.2891 525.331" stroke="#165425" stroke-width="1.91187" stroke-miterlimit="10" stroke-linecap="round" stroke-linejoin="round"/>
<path d="M6.37451 538.912L1.46136 532.121L6.37451 525.331" stroke="#165425" stroke-width="1.91187" stroke-miterlimit="10" stroke-linecap="round" stroke-linejoin="round"/>
<path d="M212.526 309.828C233.905 314.876 255.328 301.638 260.376 280.259C265.424 258.88 252.185 237.457 230.807 232.409C209.428 227.361 188.005 240.599 182.957 261.978C177.909 283.357 191.147 304.78 212.526 309.828Z" fill="white" stroke="#165425" stroke-width="5.19332" stroke-miterlimit="10"/>
<path d="M224.443 259.087C224.916 261.203 225.153 263.11 225.153 264.808C225.153 264.947 225.153 265.086 225.153 265.225C225.153 265.337 225.125 265.462 225.069 265.601C225.375 265.824 225.668 265.977 225.946 266.061C226.225 266.144 226.489 266.186 226.74 266.186C227.436 266.186 227.909 266.033 228.159 265.727C228.438 265.393 228.577 265.003 228.577 264.557C228.577 263.889 228.354 262.441 227.909 260.214L232.92 259.087C233.393 261.203 233.63 263.11 233.63 264.808C233.63 265.838 233.491 266.798 233.212 267.689C232.934 268.552 232.53 269.304 232.001 269.944C231.472 270.557 230.818 271.044 230.039 271.406C229.287 271.74 228.424 271.907 227.45 271.907C226.698 271.907 225.932 271.782 225.153 271.531C224.401 271.253 223.705 270.793 223.065 270.153C222.508 270.71 221.895 271.141 221.227 271.448C220.587 271.754 219.821 271.907 218.931 271.907C217.873 271.907 217.065 271.712 216.508 271.322C216.564 271.796 216.592 272.255 216.592 272.701C216.62 273.146 216.634 273.661 216.634 274.246V283.892H211.33V273.745C211.33 272.074 211.288 270.654 211.205 269.485C211.121 268.316 210.996 267.258 210.829 266.311C210.69 265.365 210.509 264.474 210.286 263.639C210.063 262.776 209.813 261.857 209.535 260.882L214.546 259.087C214.741 259.811 214.935 260.534 215.13 261.258C215.325 261.982 215.52 262.706 215.715 263.43C215.799 263.764 215.896 264.098 216.007 264.432C216.119 264.766 216.258 265.072 216.425 265.351C216.62 265.601 216.856 265.81 217.135 265.977C217.413 266.116 217.789 266.186 218.262 266.186C218.931 266.186 219.39 266.033 219.64 265.727C219.919 265.393 220.058 265.003 220.058 264.557C220.058 263.889 219.835 262.441 219.39 260.214L224.443 259.087Z" fill="#165425"/>
<ellipse cx="241.476" cy="313.269" rx="0.649197" ry="0.649196" transform="rotate(90 241.476 313.269)" fill="#9A8DF7"/>
<path d="M241.475 313.27L241.49 313.263" stroke="#165425" stroke-width="1.29839" stroke-linecap="round" stroke-linejoin="round"/>
<path d="M243.772 312.11C243.901 312.04 244.03 311.97 244.158 311.899C258.513 303.971 268.237 288.681 268.237 271.12C268.237 252.945 257.821 237.203 242.633 229.536" stroke="#165425" stroke-width="1.29839" stroke-linecap="round" stroke-linejoin="round"/>
<ellipse cx="241.477" cy="228.975" rx="0.649197" ry="0.649196" transform="rotate(90 241.477 228.975)" fill="#9A8DF7"/>
<path d="M175.068 277.912L170.155 271.121L175.068 264.332" stroke="#165425" stroke-width="1.91187" stroke-miterlimit="10" stroke-linecap="round" stroke-linejoin="round"/>
<path d="M170.155 277.912L165.242 271.121L170.155 264.332" stroke="#165425" stroke-width="1.91187" stroke-miterlimit="10" stroke-linecap="round" stroke-linejoin="round"/>
<path d="M314.949 504.644C293.571 509.692 272.147 496.454 267.099 475.075C262.051 453.696 275.29 432.273 296.668 427.225C318.047 422.177 339.47 435.416 344.518 456.794C349.566 478.173 336.328 499.596 314.949 504.644Z" fill="white" stroke="#165425" stroke-width="5.19332" stroke-miterlimit="10"/>
<path d="M306.801 467.657C305.743 467.657 304.935 467.462 304.379 467.072C304.434 467.546 304.462 468.005 304.462 468.45C304.49 468.896 304.504 469.411 304.504 469.996V479.642H299.2V469.494C299.2 467.824 299.159 466.404 299.075 465.235C298.992 464.066 298.866 463.008 298.699 462.061C298.56 461.115 298.379 460.224 298.156 459.388C297.934 458.525 297.683 457.607 297.405 456.632L302.416 454.837C302.611 455.56 302.806 456.284 303 457.008C303.195 457.732 303.39 458.456 303.585 459.18C303.669 459.514 303.766 459.848 303.877 460.182C303.989 460.516 304.128 460.822 304.295 461.101C304.49 461.351 304.727 461.56 305.005 461.727C305.283 461.866 305.659 461.936 306.132 461.936C306.801 461.936 307.26 461.783 307.511 461.476C307.789 461.142 307.928 460.753 307.928 460.307C307.928 459.639 307.705 458.191 307.26 455.964L312.313 454.837C312.786 456.952 313.023 458.86 313.023 460.558C313.023 461.588 312.884 462.548 312.605 463.439C312.327 464.302 311.909 465.054 311.352 465.694C310.824 466.307 310.169 466.794 309.39 467.156C308.638 467.49 307.775 467.657 306.801 467.657Z" fill="#165425"/>
<ellipse cx="0.649197" cy="0.649196" rx="0.649197" ry="0.649196" transform="matrix(0 1 1 0 285.349 507.436)" fill="#9A8DF7"/>
<path d="M285.999 508.086L285.983 508.079" stroke="#165425" stroke-width="1.29839" stroke-linecap="round" stroke-linejoin="round"/>
<path d="M283.702 506.926C283.572 506.856 283.444 506.786 283.316 506.715C268.96 498.787 259.237 483.497 259.237 465.936C259.237 447.761 269.653 432.019 284.841 424.352" stroke="#165425" stroke-width="1.29839" stroke-linecap="round" stroke-linejoin="round"/>
<ellipse cx="0.649197" cy="0.649196" rx="0.649197" ry="0.649196" transform="matrix(0 1 1 0 285.347 423.141)" fill="#9A8DF7"/>
<path d="M352.404 472.728L357.317 465.937L352.404 459.148" stroke="#165425" stroke-width="1.91187" stroke-miterlimit="10" stroke-linecap="round" stroke-linejoin="round"/>
<path d="M357.317 472.728L362.231 465.937L357.317 459.148" stroke="#165425" stroke-width="1.91187" stroke-miterlimit="10" stroke-linecap="round" stroke-linejoin="round"/>
<path d="M645.548 353.264C624.169 358.312 602.746 345.074 597.698 323.695C592.65 302.316 605.888 280.893 627.267 275.845C648.646 270.797 670.069 284.036 675.117 305.414C680.165 326.793 666.927 348.216 645.548 353.264Z" fill="white" stroke="#165425" stroke-width="5.19332" stroke-miterlimit="10"/>
<path d="M639.335 317.036C638.193 317.036 637.08 316.924 635.994 316.702C634.936 316.479 634.045 316.117 633.321 315.616C633.321 315.95 633.321 316.312 633.321 316.702C633.349 317.064 633.363 317.412 633.363 317.746V327.392H628.06V317.245C628.06 315.574 628.018 314.154 627.934 312.985C627.851 311.816 627.726 310.758 627.559 309.811C627.419 308.865 627.238 307.974 627.016 307.139C626.793 306.276 626.542 305.357 626.264 304.382L631.275 302.587C631.637 303.84 631.929 304.953 632.152 305.928C632.375 306.902 632.625 307.849 632.904 308.767C633.099 309.463 633.308 309.964 633.53 310.271C633.781 310.577 634.184 310.841 634.741 311.064C634.519 310.591 634.379 310.145 634.324 309.728C634.296 309.282 634.282 308.879 634.282 308.517C634.282 307.709 634.449 306.944 634.783 306.22C635.145 305.468 635.632 304.814 636.245 304.257C636.857 303.673 637.581 303.213 638.416 302.879C639.279 302.517 640.198 302.336 641.172 302.336C641.868 302.336 642.578 302.406 643.302 302.545C644.026 302.684 644.847 302.921 645.766 303.255L644.263 308.433C643.539 308.21 642.954 308.057 642.509 307.974C642.091 307.89 641.646 307.849 641.172 307.849C640.616 307.849 640.128 308.016 639.711 308.35C639.293 308.656 639.084 309.101 639.084 309.686C639.084 310.271 639.251 310.73 639.585 311.064C639.92 311.37 640.379 311.523 640.964 311.523C641.66 311.523 642.369 311.426 643.093 311.231C643.817 311.008 644.638 310.73 645.557 310.396L646.893 315.198C645.39 315.894 644.04 316.381 642.843 316.66C641.673 316.91 640.504 317.036 639.335 317.036Z" fill="#165425"/>
<ellipse cx="0.649197" cy="0.649196" rx="0.649197" ry="0.649196" transform="matrix(0 1 1 0 615.947 356.056)" fill="#9A8DF7"/>
<path d="M616.597 356.706L616.582 356.7" stroke="#165425" stroke-width="1.29839" stroke-linecap="round" stroke-linejoin="round"/>
<path d="M614.301 355.546C614.171 355.476 614.043 355.406 613.914 355.335C599.559 347.407 589.835 332.117 589.835 314.557C589.835 296.381 600.252 280.639 615.44 272.972" stroke="#165425" stroke-width="1.29839" stroke-linecap="round" stroke-linejoin="round"/>
<ellipse cx="0.649197" cy="0.649196" rx="0.649197" ry="0.649196" transform="matrix(0 1 1 0 615.946 271.761)" fill="#9A8DF7"/>
<path d="M683.003 321.348L687.916 314.558L683.003 307.768" stroke="#165425" stroke-width="1.91187" stroke-miterlimit="10" stroke-linecap="round" stroke-linejoin="round"/>
<path d="M687.917 321.348L692.83 314.557L687.917 307.768" stroke="#165425" stroke-width="1.91187" stroke-miterlimit="10" stroke-linecap="round" stroke-linejoin="round"/>
<path d="M523.115 129.738C544.493 134.786 565.917 121.547 570.965 100.169C576.013 78.7899 562.774 57.3668 541.396 52.3186C520.017 47.2705 498.594 60.5091 493.546 81.8878C488.498 103.267 501.736 124.69 523.115 129.738Z" fill="white" stroke="#165425" stroke-width="5.19332" stroke-miterlimit="10"/>
<path d="M520.792 95.8396C520.792 94.9766 520.889 94.0857 521.084 93.167C521.307 92.2483 521.683 91.246 522.212 90.1603C522.769 89.0467 523.52 87.8078 524.467 86.4436C525.413 85.0795 526.638 83.5343 528.142 81.8083L526.555 80.4302L529.729 76.5465C532.485 78.8015 534.712 80.8199 536.41 82.6017C538.136 84.3835 539.473 86.0121 540.419 87.4876C541.366 88.9632 542.006 90.3273 542.34 91.5801C542.674 92.8051 542.841 93.9883 542.841 95.1297C542.841 96.299 542.646 97.3291 542.257 98.22C541.895 99.1108 541.394 99.8486 540.753 100.433C540.141 101.046 539.445 101.505 538.665 101.811C537.886 102.118 537.092 102.271 536.285 102.271C535.227 102.271 534.336 102.104 533.612 101.77C532.889 101.435 532.248 100.92 531.691 100.224C531.107 100.92 530.397 101.435 529.562 101.77C528.726 102.104 527.905 102.271 527.098 102.271C525.121 102.271 523.576 101.686 522.462 100.517C521.349 99.3753 520.792 97.8163 520.792 95.8396ZM537.788 94.9209C537.788 94.4755 537.719 93.9465 537.58 93.334C537.468 92.6937 537.19 91.9838 536.744 91.2043C536.327 90.3969 535.7 89.4921 534.865 88.4899C534.058 87.4598 532.958 86.3184 531.566 85.0656C529.506 87.3484 528.03 89.2694 527.14 90.8284C526.277 92.3596 525.845 93.6403 525.845 94.6704C525.845 95.1436 525.97 95.5752 526.221 95.9649C526.499 96.3547 526.986 96.5496 527.682 96.5496C528.267 96.5496 528.754 96.3964 529.144 96.0902C529.534 95.784 529.729 95.1576 529.729 94.211V91.9142H534.364V93.5428C534.364 94.0161 534.336 94.4337 534.281 94.7956C534.253 95.1297 534.197 95.4777 534.113 95.8396C534.336 96.0624 534.615 96.2433 534.949 96.3825C535.283 96.4939 535.617 96.5496 535.951 96.5496C536.536 96.5496 536.981 96.3964 537.287 96.0902C537.621 95.784 537.788 95.3942 537.788 94.9209Z" fill="#165425"/>
<ellipse cx="552.066" cy="133.179" rx="0.649197" ry="0.649196" transform="rotate(90 552.066 133.179)" fill="#9A8DF7"/>
<path d="M552.065 133.18L552.081 133.173" stroke="#165425" stroke-width="1.29839" stroke-linecap="round" stroke-linejoin="round"/>
<path d="M554.361 132.02C554.491 131.95 554.619 131.88 554.748 131.809C569.103 123.88 578.827 108.59 578.827 91.0301C578.827 72.8546 568.411 57.1122 553.222 49.4457" stroke="#165425" stroke-width="1.29839" stroke-linecap="round" stroke-linejoin="round"/>
<ellipse cx="552.067" cy="48.8842" rx="0.649197" ry="0.649196" transform="rotate(90 552.067 48.8842)" fill="#9A8DF7"/>
<path d="M485.659 97.8216L480.746 91.0309L485.659 84.2415" stroke="#165425" stroke-width="1.91187" stroke-miterlimit="10" stroke-linecap="round" stroke-linejoin="round"/>
<path d="M480.746 97.8216L475.832 91.0309L480.746 84.2415" stroke="#165425" stroke-width="1.91187" stroke-miterlimit="10" stroke-linecap="round" stroke-linejoin="round"/>
</svg>
