<svg width="115" height="1039" viewBox="0 0 115 1039" fill="none" xmlns="http://www.w3.org/2000/svg">
<g filter="url(#filter0_d_2236_7656)">
<path d="M96 134.624C96 174.697 75.0385 195.281 58.1968 211.824C40.7174 228.995 29.9953 240.706 29.9953 264.258C29.9953 287.81 40.7087 299.521 58.1968 316.693C75.0385 333.235 96 353.819 96 393.882C96 433.944 75.0385 454.539 58.1968 471.071C40.7174 488.242 29.9953 499.953 29.9953 523.505C29.9953 547.058 40.7087 558.769 58.1968 575.94C75.0385 592.483 96 613.066 96 653.129C96 693.192 75.0385 713.775 58.1968 730.318C40.7174 747.489 29.9953 759.201 29.9953 782.753C29.9953 806.305 40.7087 818.016 58.1968 835.187C75.0385 851.73 96 872.314 96 912.376C96 952.439 75.0385 973.023 58.1968 989.566C40.7174 1006.74 29.9953 1018.45 29.9953 1042H5C5 1001.94 25.9615 981.354 42.8032 964.811C60.2826 947.64 71.0047 935.929 71.0047 912.376C71.0047 888.824 60.2913 877.113 42.8032 859.942C25.9615 843.399 5 822.815 5 782.753C5 742.69 25.9615 722.096 42.8032 705.564C60.2826 688.392 71.0047 676.681 71.0047 653.129C71.0047 629.577 60.2913 617.866 42.8032 600.695C25.9615 584.152 5 563.568 5 523.505C5 483.443 25.9615 462.848 42.8032 446.316C60.2826 429.145 71.0047 417.434 71.0047 393.882C71.0047 370.33 60.2913 358.618 42.8032 341.447C25.9615 324.904 5 304.321 5 264.258C5 224.196 25.9615 203.601 42.8032 187.069C60.2826 169.898 71.0047 158.187 71.0047 134.634C71.0047 111.082 60.2913 99.3603 42.8032 82.1999C25.9615 65.6571 5 45.0733 5 4.99994H29.9953C29.9953 28.5521 40.7087 40.274 58.1968 57.4344C75.0385 73.9773 96 94.561 96 134.624Z" fill="url(#paint0_linear_2236_7656)"/>
<path d="M105.002 135.26C105.002 175.277 84.1128 195.832 67.3294 212.351C49.9103 229.498 39.2253 241.193 39.2253 264.712C39.2253 288.231 49.9017 299.925 67.3294 317.072C84.1128 333.592 105.002 354.147 105.002 394.153C105.002 434.159 84.1128 454.724 67.3294 471.233C49.9103 488.38 39.2253 500.075 39.2253 523.594C39.2253 547.113 49.9017 558.807 67.3294 575.954C84.1128 592.474 105.002 613.029 105.002 653.035C105.002 693.041 84.1128 713.595 67.3294 730.115C49.9103 747.262 39.2253 758.957 39.2253 782.476C39.2253 805.995 49.9017 817.689 67.3294 834.836C84.1128 851.356 105.002 871.91 105.002 911.916C105.002 951.923 84.1128 972.477 67.3294 988.997C49.9103 1006.14 39.2253 1017.84 39.2253 1041.36H14.3164C14.3164 1001.35 35.2055 980.797 51.9889 964.277C69.408 947.13 80.093 935.435 80.093 911.916C80.093 888.398 69.4166 876.703 51.9889 859.556C35.2055 843.036 14.3164 822.482 14.3164 782.476C14.3164 742.47 35.2055 721.904 51.9889 705.395C69.408 688.248 80.093 676.554 80.093 653.035C80.093 629.516 69.4166 617.821 51.9889 600.674C35.2055 584.155 14.3164 563.6 14.3164 523.594C14.3164 483.588 35.2055 463.022 51.9889 446.513C69.408 429.366 80.093 417.672 80.093 394.153C80.093 370.634 69.4166 358.939 51.9889 341.792C35.2055 325.273 14.3164 304.718 14.3164 264.712C14.3164 224.706 35.2055 204.14 51.9889 187.631C69.408 170.484 80.093 158.79 80.093 135.271C80.093 111.752 69.4166 100.047 51.9889 82.9103C35.2055 66.3908 14.3164 45.836 14.3164 5.81915H39.2253C39.2253 29.3381 49.9017 41.0435 67.3294 58.1797C84.1128 74.6993 105.002 95.254 105.002 135.26Z" fill="#E2E5EF" stroke="#EDD473" stroke-width="1.66395" stroke-miterlimit="10"/>
<path d="M26.7695 1041.67C26.7695 1040.56 26.7868 1039.48 26.8298 1038.42" stroke="#7B7B7D" stroke-width="1.66395" stroke-miterlimit="10"/>
<path d="M26.8181 9.35303C26.7836 8.29283 26.7578 7.211 26.7578 6.10754" stroke="#7B7B7D" stroke-width="1.66395" stroke-miterlimit="10"/>
</g>
<defs>
<filter id="filter0_d_2236_7656" x="0.840133" y="0.827194" width="114.146" height="1050.51" filterUnits="userSpaceOnUse" color-interpolation-filters="sRGB">
<feFlood flood-opacity="0" result="BackgroundImageFix"/>
<feColorMatrix in="SourceAlpha" type="matrix" values="0 0 0 0 0 0 0 0 0 0 0 0 0 0 0 0 0 0 127 0" result="hardAlpha"/>
<feOffset dx="2.49592" dy="2.49592"/>
<feGaussianBlur stdDeviation="3.32789"/>
<feColorMatrix type="matrix" values="0 0 0 0 0.439216 0 0 0 0 0.439216 0 0 0 0 0.439216 0 0 0 0.5 0"/>
<feBlend mode="normal" in2="BackgroundImageFix" result="effect1_dropShadow_2236_7656"/>
<feBlend mode="normal" in="SourceGraphic" in2="effect1_dropShadow_2236_7656" result="shape"/>
</filter>
<linearGradient id="paint0_linear_2236_7656" x1="98.1163" y1="1047.19" x2="-463.612" y2="749.983" gradientUnits="userSpaceOnUse">
<stop stop-color="#C7921F"/>
<stop offset="0.230235" stop-color="#EBCF6B"/>
<stop offset="0.466174" stop-color="#F9EF9B"/>
<stop offset="0.581813" stop-color="#F1DA76"/>
<stop offset="0.798137" stop-color="#C88B1E"/>
<stop offset="1" stop-color="#DBA727"/>
</linearGradient>
</defs>
</svg>
