<svg width="3148" height="1080" viewBox="0 0 3148 1080" fill="none" xmlns="http://www.w3.org/2000/svg">
<mask id="mask0_3500_6133" style="mask-type:alpha" maskUnits="userSpaceOnUse" x="0" y="0" width="3148" height="1080">
<rect width="3147.35" height="1080" fill="url(#paint0_radial_3500_6133)"/>
</mask>
<g mask="url(#mask0_3500_6133)">
<g opacity="0.1">
<path d="M2352.97 618.107L2013.28 400.111V-35.8752L2352.97 -253.871L2692.67 -35.8752V400.111L2352.97 618.107ZM2019.7 395.474L2352.17 608.828L2684.63 395.474V-31.2383L2352.17 -244.597L2019.7 -31.2383V395.474Z" fill="#165425"/>
<path d="M1779.28 1255.39L1439.58 1037.4V601.395L1779.27 383.405L2118.97 601.395V1037.39L1779.28 1255.39ZM1446.01 1032.76L1778.48 1246.11L2110.94 1032.76V606.048L1778.48 392.689L1446.01 606.048V1032.76Z" fill="#165425"/>
<path d="M2446.12 1247.92L2231.77 1110.36V835.249L2446.12 697.694L2660.49 835.249V1110.36L2446.12 1247.92ZM2235.82 1107.43L2445.61 1242.07L2655.4 1107.43V838.175L2445.61 703.545L2235.82 838.175V1107.43Z" fill="#165425"/>
<path d="M2847.41 1628L2452.37 1374.49V867.47L2847.41 613.954L3242.45 867.465V1374.48L2847.41 1628ZM2459.84 1369.1L2846.47 1617.24L3233.1 1369.12V872.866L2846.47 624.751L2459.84 872.866L2459.84 1369.1Z" fill="#165425"/>
<path d="M1531.87 618.284L1386.38 524.948V338.264L1531.87 244.923L1677.32 338.264V524.948L1531.87 618.284ZM1389.15 522.959L1531.5 614.312L1673.86 522.959V340.238L1531.5 248.879L1389.15 340.238V522.959Z" fill="#165425"/>
<path d="M1981 705.803L1753.39 559.732V267.587L1981 121.517L2208.62 267.587V559.732L1981 705.803ZM1757.69 556.645L1980.46 699.612L2203.24 556.645V270.696L1980.46 127.755L1757.69 270.716V556.645Z" fill="#165425"/>
<path d="M1367.91 1440.86L1118.64 1280.92V960.995L1367.91 801.034L1617.17 960.995V1280.92L1367.91 1440.86ZM1123.36 1277.52L1367.32 1434.06L1611.27 1277.5V964.402L1367.32 807.843L1123.36 964.402V1277.52Z" fill="#165425"/>
<path d="M2093.67 849.047L1880.12 712.005V437.915L2093.67 300.873L2307.22 437.915V712.005L2093.67 849.047ZM1884.14 709.09L2093.15 843.217L2302.17 709.09V440.83L2093.16 306.703L1884.16 440.83L1884.14 709.09Z" fill="#165425"/>
<path d="M2013.35 294.303L1799.77 157.261V-116.829L2013.33 -253.871L2226.87 -116.829V157.261L2013.35 294.303ZM1803.82 154.346L2012.83 288.473L2221.83 154.346V-113.914L2012.84 -248.02L1803.83 -113.893L1803.82 154.346Z" fill="#165425"/>
<path d="M2720.1 733.581L2447.03 558.344V207.864L2720.1 32.627L2993.16 207.864V558.344L2720.1 733.581ZM2452.19 554.591L2719.44 726.102L2986.7 554.591V211.596L2719.44 40.0849L2452.19 211.596V554.591Z" fill="#165425"/>
<path d="M2321.33 141.527L2048.26 -33.7103V-384.185L2321.33 -559.422L2594.42 -384.185V-33.7103L2321.33 141.527ZM2053.42 -37.4627L2320.68 134.048L2587.94 -37.4627V-380.432L2320.68 -551.938L2053.43 -380.432L2053.42 -37.4627Z" fill="#165425"/>
<path d="M2235.66 348.546L2106.1 265.399V99.1114L2235.66 15.9648L2365.22 99.1114V265.399L2235.66 348.546ZM2108.53 263.63L2235.34 345.008L2362.14 263.63V100.865L2235.35 19.5028L2108.55 100.88L2108.53 263.63Z" fill="#165425"/>
<path d="M2277.43 1009.62L2147.87 926.472V760.206L2277.43 677.059L2407 760.206V926.493L2277.43 1009.62ZM2150.31 924.703L2277.11 1006.08L2403.91 924.703V761.938L2277.11 680.56L2150.32 761.974L2150.31 924.703Z" fill="#165425"/>
<path d="M1692.18 1157.38L1490.38 1027.87V768.871L1692.18 639.365L1893.99 768.871V1027.88L1692.18 1157.38ZM1494.19 1025.12L1691.7 1151.87L1889.23 1025.12V771.618L1691.72 644.871L1494.19 771.618V1025.12Z" fill="#165425"/>
<path d="M1885.68 1069.68L1683.88 940.178V681.166L1885.68 551.676L2087.47 681.166V940.178L1885.68 1069.68ZM1687.72 937.419L1885.22 1064.17L2082.73 937.419V683.924L1885.22 557.176L1687.72 683.924V937.419Z" fill="#165425"/>
<path d="M2599.32 740.72L2397.51 611.22V352.208L2599.32 222.702L2801.12 352.208V611.22L2599.32 740.72ZM2401.33 608.462L2598.84 735.21L2796.35 608.462V354.966L2598.84 228.239L2401.33 354.992V608.462Z" fill="#165425"/>
<path d="M1752.64 62.0439L1623.08 -21.1026V-187.396L1752.64 -270.526L1882.2 -187.38V-21.0868L1752.64 62.0439ZM1625.51 -22.8716L1752.32 58.5059L1879.12 -22.8716V-185.637L1752.32 -267.015L1625.51 -185.637V-22.8716Z" fill="#165425"/>
<path d="M337.887 618.107L-1.80542 400.111V-35.8752L337.887 -253.871L677.58 -35.8752V400.111L337.887 618.107ZM4.617 395.474L337.082 608.828L669.548 395.474V-31.2383L337.082 -244.597L4.617 -31.2383V395.474Z" fill="#165425"/>
<path d="M-235.811 1255.39L-575.508 1037.4V601.395L-235.816 383.405L103.882 601.395V1037.39L-235.811 1255.39ZM-569.077 1032.76L-236.611 1246.11L95.8539 1032.76V606.048L-236.611 392.689L-569.077 606.048V1032.76Z" fill="#165425"/>
<path d="M431.031 1247.92L216.682 1110.36V835.249L431.031 697.694L645.403 835.249V1110.36L431.031 1247.92ZM220.736 1107.43L430.527 1242.07L640.313 1107.43V838.175L430.527 703.545L220.736 838.175V1107.43Z" fill="#165425"/>
<path d="M832.321 1628L437.28 1374.49V867.47L832.321 613.954L1227.36 867.465V1374.48L832.321 1628ZM444.757 1369.1L831.379 1617.24L1218.01 1369.12V872.866L831.379 624.751L444.753 872.866L444.757 1369.1Z" fill="#165425"/>
<path d="M-34.0817 705.803L-261.699 559.732V267.587L-34.0817 121.517L193.535 267.587V559.732L-34.0817 705.803ZM-257.395 556.645L-34.6232 699.612L188.153 556.645V270.696L-34.6232 127.755L-257.395 270.716V556.645Z" fill="#165425"/>
<path d="M78.5851 849.047L-134.963 712.005V437.915L78.5851 300.873L292.138 437.915V712.005L78.5851 849.047ZM-130.942 709.09L78.0626 843.217L287.086 709.09V440.83L78.0767 306.703L-130.928 440.83L-130.942 709.09Z" fill="#165425"/>
<path d="M-1.74107 294.303L-215.313 157.261V-116.829L-1.75992 -253.871L211.788 -116.829V157.261L-1.74107 294.303ZM-211.268 154.346L-2.25905 288.473L206.745 154.346V-113.914L-2.2449 -248.02L-211.254 -113.893L-211.268 154.346Z" fill="#165425"/>
<path d="M705.014 733.581L431.946 558.344V207.864L705.014 32.627L978.077 207.864V558.344L705.014 733.581ZM437.102 554.591L704.355 726.102L971.613 554.591V211.596L704.355 40.0849L437.102 211.596V554.591Z" fill="#165425"/>
<path d="M306.246 141.527L33.1782 -33.7103V-384.185L306.246 -559.422L579.338 -384.185V-33.7103L306.246 141.527ZM38.334 -37.4627L305.592 134.048L572.849 -37.4627V-380.432L305.592 -551.938L38.3434 -380.432L38.334 -37.4627Z" fill="#165425"/>
<path d="M220.57 348.546L91.0071 265.399V99.1114L220.57 15.9648L350.133 99.1114V265.399L220.57 348.546ZM93.4413 263.63L220.245 345.008L347.049 263.63V100.865L220.264 19.5028L93.4602 100.88L93.4413 263.63Z" fill="#165425"/>
<path d="M262.344 1009.62L132.781 926.472V760.206L262.344 677.059L391.907 760.206V926.493L262.344 1009.62ZM135.215 924.703L262.019 1006.08L388.823 924.703V761.938L262.019 680.56L135.234 761.974L135.215 924.703Z" fill="#165425"/>
<path d="M-129.407 1069.68L-331.208 940.178V681.166L-129.407 551.676L72.3793 681.166V940.178L-129.407 1069.68ZM-327.37 937.419L-129.864 1064.17L67.6425 937.419V683.924L-129.864 557.176L-327.37 683.924V937.419Z" fill="#165425"/>
<path d="M584.232 740.72L382.427 611.22V352.208L584.232 222.702L786.033 352.208V611.22L584.232 740.72ZM386.246 608.462L583.752 735.21L781.263 608.462V354.966L583.752 228.239L386.246 354.992V608.462Z" fill="#165425"/>
</g>
</g>
<defs>
<radialGradient id="paint0_radial_3500_6133" cx="0" cy="0" r="1" gradientUnits="userSpaceOnUse" gradientTransform="translate(1207.88 540) scale(1756.17 3778.16)">
<stop stop-color="#D9D9D9" stop-opacity="0"/>
<stop offset="0.312505" stop-color="#D9D9D9" stop-opacity="0.245917"/>
<stop offset="1" stop-color="#D9D9D9"/>
</radialGradient>
</defs>
</svg>
