<svg width="24" height="24" viewBox="0 0 24 24" fill="none" xmlns="http://www.w3.org/2000/svg">
<path d="M13.9858 13.4345L18.1989 10.1342L18.8566 4.38847L13.9858 1.70703L12.0085 4.42438C13.0318 4.93817 13.7585 5.96384 13.8459 7.16047C13.9555 8.66567 13.0428 10.067 11.6255 10.5678C9.74223 11.2342 8.47656 13.032 8.47656 15.0418V15.9053C8.47656 17.03 9.38828 17.9417 10.5124 17.9417H13.4905L13.9858 13.4345Z" fill="url(#paint0_radial_1959_13394)"/>
<path d="M13.9858 13.4345L18.1989 10.1342L18.8566 4.38847L13.9858 1.70703L12.0085 4.42438C13.0318 4.93817 13.7585 5.96384 13.8459 7.16047C13.9555 8.66567 13.0428 10.067 11.6255 10.5678C9.74223 11.2342 8.47656 13.032 8.47656 15.0418V15.9053C8.47656 17.03 9.38828 17.9417 10.5124 17.9417H13.4905L13.9858 13.4345Z" fill="#787878" fill-opacity="0.2"/>
<path d="M8.11169 9.4511H5.13381C4.00928 9.4511 3.09766 8.53947 3.09766 7.41494C3.09766 7.07022 3.1217 6.72316 3.16909 6.38341C3.70258 2.56005 7.14573 -0.23731 11.0078 0.0161902H13.9862L11.8673 2.15561" fill="url(#paint1_radial_1959_13394)"/>
<path d="M8.11169 9.4511H5.13381C4.00928 9.4511 3.09766 8.53947 3.09766 7.41494C3.09766 7.07022 3.1217 6.72316 3.16909 6.38341C3.70258 2.56005 7.14573 -0.23731 11.0078 0.0161902H13.9862L11.8673 2.15561" fill="#787878" fill-opacity="0.2"/>
<path d="M13.4906 19.9104H10.5127C9.38819 19.9104 8.47656 20.822 8.47656 21.9466V21.9634C8.47656 23.088 9.38819 23.9996 10.5127 23.9996H13.1285" fill="url(#paint2_radial_1959_13394)"/>
<path d="M13.4906 19.9104H10.5127C9.38819 19.9104 8.47656 20.822 8.47656 21.9466V21.9634C8.47656 23.088 9.38819 23.9996 10.5127 23.9996H13.1285" fill="#787878" fill-opacity="0.2"/>
<path d="M13.4891 17.9414C12.3646 17.9414 11.4529 17.0298 11.4529 15.9053V15.0416C11.4529 13.0318 12.7185 11.234 14.6022 10.568C16.0191 10.067 16.9322 8.6658 16.8224 7.16055C16.7022 5.51228 15.3678 4.18788 13.7183 4.07988C11.9735 3.96461 10.4191 5.22466 10.1789 6.94619C10.1574 7.10008 10.1465 7.25781 10.1465 7.41499C10.1465 8.53952 9.23491 9.45114 8.11038 9.45114C6.98584 9.45114 6.07422 8.53952 6.07422 7.41499C6.07422 7.07027 6.09827 6.7232 6.14566 6.38345C6.67914 2.56005 10.1223 -0.23731 13.9843 0.0161902C17.6507 0.256284 20.617 3.20041 20.884 6.86444C21.1268 10.1946 19.1019 13.2964 15.9598 14.4074C15.6999 14.4993 15.5253 14.7542 15.5253 15.0416V15.9053C15.5253 17.0298 14.6137 17.9414 13.4891 17.9414Z" fill="white"/>
<path d="M13.4893 23.9996C12.3648 23.9996 11.4531 23.088 11.4531 21.9634V21.9466C11.4531 20.822 12.3648 19.9104 13.4893 19.9104C14.6138 19.9104 15.5254 20.822 15.5254 21.9466V21.9634C15.5255 23.088 14.6139 23.9996 13.4893 23.9996Z" fill="white"/>
<path d="M7.94561 6.38361C7.8978 6.72331 7.87441 7.07009 7.87441 7.4149C7.87441 8.21633 8.33716 8.90994 9.01042 9.24153C8.73888 9.37578 8.43377 9.45106 8.11033 9.45106C6.9865 9.45106 6.07422 8.53981 6.07422 7.41495C6.07422 7.07019 6.09864 6.72336 6.14641 6.38365C6.67938 2.55955 10.1231 -0.237346 13.9848 0.01592C14.1231 0.0250606 14.2604 0.0382794 14.3967 0.0555763C11.1269 0.458326 8.41445 3.02534 7.94561 6.38361Z" fill="white"/>
<path d="M16.402 10.5673C14.5185 11.2334 13.2523 13.0316 13.2523 15.0413V15.9048C13.2523 16.7062 13.7161 17.3998 14.3893 17.7314C14.1178 17.8656 13.8127 17.9409 13.4892 17.9409C12.3644 17.9409 11.4531 17.0296 11.4531 15.9048V15.0413C11.4531 13.0316 12.7183 11.2335 14.6029 10.5673C16.0196 10.0659 16.9319 8.66543 16.8221 7.16018C16.7194 5.74446 15.7206 4.56771 14.3954 4.19651C14.7524 4.09582 15.1307 4.0541 15.5182 4.07956C17.1679 4.18737 18.5022 5.51154 18.6222 7.16018C18.7321 8.66543 17.8187 10.0659 16.402 10.5673Z" fill="white"/>
<path d="M14.3893 23.7904C14.1178 23.9246 13.8127 23.9999 13.4892 23.9999C12.3644 23.9999 11.4531 23.0887 11.4531 21.9638V21.9465C11.4531 20.8227 12.3644 19.9104 13.4892 19.9104C13.8127 19.9104 14.1178 19.9857 14.3893 20.1199C13.7161 20.4525 13.2523 21.1461 13.2523 21.9466V21.9639C13.2523 22.7652 13.7161 23.4588 14.3893 23.7904Z" fill="white"/>
<defs>
<radialGradient id="paint0_radial_1959_13394" cx="0" cy="0" r="1" gradientUnits="userSpaceOnUse" gradientTransform="translate(13.6666 9.82435) scale(5.77812 7.43114)">
<stop stop-color="white"/>
<stop offset="0.7349" stop-color="#F8E8BF"/>
</radialGradient>
<radialGradient id="paint1_radial_1959_13394" cx="0" cy="0" r="1" gradientUnits="userSpaceOnUse" gradientTransform="translate(8.5419 4.72567) scale(6.06116 4.32597)">
<stop stop-color="white"/>
<stop offset="0.7349" stop-color="#F8E8BF"/>
</radialGradient>
<radialGradient id="paint2_radial_1959_13394" cx="0" cy="0" r="1" gradientUnits="userSpaceOnUse" gradientTransform="translate(10.9836 21.955) scale(2.79112 1.87176)">
<stop stop-color="white"/>
<stop offset="0.7349" stop-color="#F8E8BF"/>
</radialGradient>
</defs>
</svg>
