<svg width="64" height="64" viewBox="0 0 64 64" fill="none" xmlns="http://www.w3.org/2000/svg">
<g clip-path="url(#clip0_2662_675)">
<rect width="64" height="64" rx="16" fill="white"/>
<path d="M94.7207 45.8389C102.718 10.9784 80.9404 -23.7644 46.0799 -31.7613C11.2194 -39.7582 -23.5234 -17.981 -31.5203 16.8795C-39.5172 51.74 -17.74 86.4828 17.1205 94.4797C51.981 102.477 86.7238 80.6994 94.7207 45.8389Z" fill="url(#paint0_linear_2662_675)"/>
<path d="M31.821 49.2356C40.1203 49.2356 46.8481 39.917 46.8481 28.422C46.8481 16.9269 40.1203 7.60834 31.821 7.60834C23.5218 7.60834 16.7939 16.9269 16.7939 28.422C16.7939 39.917 23.5218 49.2356 31.821 49.2356Z" fill="white"/>
<path d="M31.5822 47.9053C19.0069 47.9053 7.75602 50.9178 0.28125 55.6604C3.83462 60.6921 8.54018 64.8007 14.0051 67.6431C19.4699 70.4856 25.5355 71.9793 31.6954 71.9998C37.8552 72.0202 43.9306 70.5667 49.4142 67.7606C54.8978 64.9545 59.6306 60.8772 63.2172 55.8692C55.7425 51.0073 44.3484 47.9053 31.5822 47.9053Z" fill="white"/>
<path d="M34.1123 33.3614H29.5308C26.3613 33.3614 23.792 35.9307 23.792 39.1002V52.1587C23.792 55.3281 26.3613 57.8975 29.5308 57.8975H34.1123C37.2818 57.8975 39.8511 55.3281 39.8511 52.1587V39.1002C39.8511 35.9307 37.2818 33.3614 34.1123 33.3614Z" fill="white"/>
<path d="M19.1672 29.6031C19.6146 32.9438 18.8749 35.837 17.5088 36.0697C16.1427 36.3024 14.6752 33.779 14.2278 30.4442C13.7804 27.1095 14.5141 24.2163 15.8802 23.9836C17.2463 23.751 18.7138 26.2445 19.1672 29.6031Z" fill="white"/>
<path d="M44.4781 29.6031C44.0247 32.9438 44.7645 35.837 46.1306 36.0697C47.4967 36.3024 48.9642 33.779 49.4175 30.4442C49.8709 27.1095 49.1252 24.2163 47.7591 23.9836C46.393 23.751 44.9255 26.2445 44.4781 29.6031Z" fill="white"/>
<path d="M17.3369 27.6047C16.8278 24.268 16.3227 20.9353 15.8216 17.6065C15.6367 16.4134 15.4577 15.1189 15.8992 13.9795C16.3406 12.8401 17.6351 11.9274 18.7865 12.3569C18.3271 10.0423 20.8923 8.33017 23.1234 7.58448C26.8573 6.21635 30.8557 5.72447 34.8098 6.14679C38.7778 6.59153 42.4598 8.42828 45.2017 11.3308C46.0654 12.2393 46.7334 13.3154 47.1644 14.4925C47.9339 16.7773 47.4447 19.2649 46.9496 21.6511L45.7565 27.2766C45.701 27.7093 45.5346 28.1203 45.2733 28.4697C44.808 28.9887 44.0205 29.0245 43.3226 29.0245L20.9639 29.0782C19.562 29.0782 17.7366 28.7322 17.5516 27.3422" fill="white"/>
</g>
<rect x="0.5" y="0.5" width="63" height="63" rx="15.5" stroke="url(#paint1_linear_2662_675)"/>
<defs>
<linearGradient id="paint0_linear_2662_675" x1="-31.5203" y1="16.8795" x2="94.7207" y2="45.8389" gradientUnits="userSpaceOnUse">
<stop stop-color="#007E6E"/>
<stop offset="0.48" stop-color="#015548"/>
<stop offset="1" stop-color="#022D24"/>
</linearGradient>
<linearGradient id="paint1_linear_2662_675" x1="32" y1="0" x2="32" y2="64" gradientUnits="userSpaceOnUse">
<stop stop-color="#007E6E"/>
<stop offset="0.48" stop-color="#015548"/>
<stop offset="1" stop-color="#022D24"/>
</linearGradient>
<clipPath id="clip0_2662_675">
<rect width="64" height="64" rx="16" fill="white"/>
</clipPath>
</defs>
</svg>
