<svg width="36" height="42" viewBox="0 0 36 42" fill="none" xmlns="http://www.w3.org/2000/svg">
<path d="M15.9193 12.6329C16.6172 13.0997 17.7099 14.0619 18.0934 15.6736H8.46729C5.69159 15.6736 3.43325 17.9388 3.43325 20.7232C3.43325 21.7573 3.74582 22.7189 4.2792 23.5204C2.13288 24.0981 0.548068 26.0643 0.548068 28.3962C0.548068 30.7279 2.13276 32.6949 4.27905 33.2719C3.74499 34.0735 3.43325 35.0351 3.43325 36.0691C3.43325 38.8527 5.69069 41.1187 8.46729 41.1187H30.4181C33.1938 41.1187 35.4521 38.8536 35.4521 36.0691C35.4521 33.7362 33.867 31.7698 31.7204 31.1931C32.2544 30.3916 32.566 29.4301 32.566 28.3962C32.566 27.3621 32.2535 26.4005 31.7201 25.599C33.8664 25.0213 35.4512 23.0551 35.4512 20.7232C35.4512 17.9397 33.1938 15.6736 30.4172 15.6736H20.651V14.4909C20.651 13.0355 21.2114 11.6669 22.2305 10.6329C22.8578 10.9784 23.5641 11.163 24.2996 11.163C25.4505 11.163 26.532 10.7137 27.3456 9.89758L27.3456 9.89754C28.5786 8.65976 29.5062 7.20778 29.9518 5.80369C30.4804 4.14193 30.2856 2.6985 29.3575 1.76738C28.43 0.836969 26.9907 0.64157 25.3331 1.17098L25.3331 1.17099C23.9341 1.61804 22.4858 2.54865 21.2527 3.7856C20.4392 4.60172 19.9914 5.68737 19.9914 6.84071C19.9914 7.57781 20.1756 8.28715 20.5202 8.91668C19.6905 9.75553 19.0721 10.7491 18.6885 11.8315C18.2918 11.4054 17.8852 11.0645 17.5222 10.8003C17.7832 10.2375 17.922 9.61981 17.922 8.98059C17.922 7.82636 17.4743 6.74159 16.6607 5.92548C15.4268 4.68765 13.9793 3.75791 12.5804 3.31086C10.9236 2.78056 9.48431 2.976 8.55599 3.90726C7.62866 4.83752 7.43392 6.28093 7.96158 7.94263L7.9616 7.9427C8.40805 9.34583 9.33475 10.7987 10.5678 12.0365L10.5678 12.0366C11.3814 12.8527 12.4638 13.302 13.6139 13.302C14.4427 13.302 15.2358 13.0681 15.9193 12.6329ZM22.965 5.50229L23.042 5.42512C23.9819 4.50329 25.0815 3.79944 26.0693 3.48357C26.436 3.36634 26.7682 3.30979 27.0399 3.30979C27.3388 3.30979 27.5422 3.37819 27.6477 3.48407C27.7492 3.58587 27.8164 3.77846 27.8213 4.06105C27.8262 4.33938 27.7699 4.68527 27.6483 5.06837C27.3247 6.08693 26.5925 7.22384 25.6359 8.18351C25.2786 8.54191 24.8046 8.73851 24.3005 8.73851C23.7963 8.73851 23.3214 8.54186 22.9651 8.18361L22.965 8.18351C22.6078 7.8251 22.4116 7.34938 22.4116 6.84334C22.4116 6.33724 22.6078 5.86067 22.965 5.50229ZM15.5035 8.98234C15.5035 9.48849 15.3149 9.94313 14.9717 10.2982C14.9615 10.3079 14.9501 10.3196 14.9412 10.3287C14.9378 10.3322 14.9347 10.3353 14.9323 10.3378C14.2059 11.0489 13.0458 11.0558 12.3124 10.3566L12.2784 10.3225C11.2578 9.29865 10.6237 8.23813 10.3145 7.36915C10.1598 6.93429 10.0878 6.5513 10.0869 6.24723C10.086 5.93904 10.1579 5.73195 10.2665 5.62314L10.2666 5.62307C10.368 5.52135 10.5597 5.45403 10.8412 5.4491C11.1185 5.44424 11.4632 5.5006 11.8451 5.62258C12.8602 5.9472 13.9935 6.68162 14.9501 7.64129C15.3074 7.99969 15.5035 8.4754 15.5035 8.98234ZM8.46642 18.0999H30.4172C31.8589 18.0999 33.0327 19.2769 33.0327 20.7241C33.0327 22.1713 31.8589 23.3483 30.4172 23.3483H8.46642C7.02473 23.3483 5.85085 22.1713 5.85085 20.7241C5.85085 19.2769 7.02473 18.0999 8.46642 18.0999ZM2.96654 28.397C2.96654 26.9499 4.14042 25.7728 5.58211 25.7728H27.5329C28.9746 25.7728 30.1484 26.9499 30.1484 28.397C30.1484 29.8442 28.9746 31.0212 27.5329 31.0212H5.58211C4.14042 31.0212 2.96654 29.8442 2.96654 28.397ZM30.4172 38.6942H8.46642C7.02473 38.6942 5.85085 37.5171 5.85085 36.07C5.85085 34.6228 7.02473 33.4458 8.46642 33.4458H30.4172C31.8589 33.4458 33.0327 34.6228 33.0327 36.07C33.0327 37.5171 31.8589 38.6942 30.4172 38.6942Z" fill="#165425" stroke="#165425" stroke-width="0.237359"/>
</svg>
