<svg width="28" height="27" viewBox="0 0 28 27" fill="none" xmlns="http://www.w3.org/2000/svg">
<path fill-rule="evenodd" clip-rule="evenodd" d="M18.5022 1.28815C17.7729 0.576837 16.5905 0.576837 15.8612 1.28815C12.8769 4.19911 5.6407 11.2575 2.65642 14.1685C1.92718 14.8798 1.92718 16.0333 2.65642 16.7446L10.5793 24.4728C11.3085 25.1841 12.491 25.1841 13.2203 24.4728L26.4251 11.5924C27.1543 10.8811 27.1543 9.72768 26.4251 9.01637C24.3955 7.03666 20.5318 3.26786 18.5022 1.28815Z" fill="#F8AB02"/>
<path fill-rule="evenodd" clip-rule="evenodd" d="M3.97852 18.0327L19.8243 2.57629L22.4652 5.15236L6.61948 20.6088L3.97852 18.0327Z" fill="#E0E0E0"/>
<path fill-rule="evenodd" clip-rule="evenodd" d="M23.2564 13.5128C23.2564 12.5066 22.4202 11.6909 21.3887 11.6909C17.1677 11.6909 6.93253 11.6909 2.71147 11.6909C1.68002 11.6909 0.84375 12.5066 0.84375 13.5128V24.4437C0.84375 25.4499 1.68002 26.2656 2.71147 26.2656H21.3887C22.4202 26.2656 23.2564 25.4499 23.2564 24.4437C23.2564 21.6436 23.2564 16.3129 23.2564 13.5128Z" fill="#FFEABC"/>
<path fill-rule="evenodd" clip-rule="evenodd" d="M0.84375 15.3345H23.2564V18.9781H0.84375V15.3345Z" fill="#E0E0E0"/>
<path fill-rule="evenodd" clip-rule="evenodd" d="M21.3878 21.711C21.3878 21.2077 20.9699 20.8 20.4539 20.8H18.5862C18.0702 20.8 17.6523 21.2077 17.6523 21.711V23.5328C17.6523 24.0361 18.0702 24.4437 18.5862 24.4437H20.4539C20.9699 24.4437 21.3878 24.0361 21.3878 23.5328V21.711Z" fill="#F8AB02"/>
<path fill-rule="evenodd" clip-rule="evenodd" d="M13.9173 23.5318C13.9173 23.0295 13.4994 22.6218 12.9843 22.6218C10.8743 22.6218 5.75579 22.6218 3.6448 22.6218C3.39733 22.6218 3.15966 22.7179 2.98456 22.8887C2.80946 23.0595 2.71094 23.2913 2.71094 23.5327C2.71094 23.7741 2.80946 24.006 2.98456 24.1768C3.15966 24.3476 3.39733 24.4437 3.6448 24.4437H12.9843C13.4994 24.4437 13.9173 24.036 13.9173 23.5337C13.9173 23.5332 13.9173 23.5323 13.9173 23.5318Z" fill="#F8AB02"/>
<path fill-rule="evenodd" clip-rule="evenodd" d="M1.30886 19.4334H22.7877V24.4435C22.7877 25.1982 22.1606 25.8099 21.3869 25.8099H8.31282C8.05508 25.8099 7.84589 26.0139 7.84589 26.2653C7.84589 26.5167 8.05508 26.7208 8.31282 26.7208H21.3869C22.6761 26.7208 23.7215 25.701 23.7215 24.4435V14.898L26.7734 11.9211C27.6849 11.0316 27.6849 9.59008 26.7734 8.70057L18.8491 0.970988C18.4111 0.544224 17.8177 0.304199 17.198 0.304199C16.5789 0.304199 15.9854 0.544224 15.5474 0.970988L5.0247 11.2352H2.70965C1.42046 11.2352 0.375 12.255 0.375 13.5125V24.4435C0.375 25.0474 0.621068 25.6268 1.05858 26.054C1.49656 26.4807 2.0905 26.7208 2.70965 26.7208H6.4451C6.70285 26.7208 6.91203 26.5167 6.91203 26.2653C6.91203 26.0139 6.70285 25.8099 6.4451 25.8099C6.4451 25.8099 4.33924 25.8099 2.70965 25.8099C2.33798 25.8099 1.98171 25.6659 1.71929 25.4095C1.45641 25.1535 1.30886 24.806 1.30886 24.4435V19.4334ZM22.7877 18.5225V13.5125C22.7877 12.7578 22.1606 12.1461 21.3869 12.1461H2.70965C1.93595 12.1461 1.30886 12.7578 1.30886 13.5125V14.8789H21.3869C21.6446 14.8789 21.8538 15.0829 21.8538 15.3343C21.8538 15.5857 21.6446 15.7898 21.3869 15.7898H1.30886V18.5225H22.7877ZM22.4809 5.80203L16.9109 11.2352H21.3869C22.6761 11.2352 23.7215 12.255 23.7215 13.5125V13.6095L26.1127 11.2771C26.6599 10.7433 26.6599 9.87838 26.1127 9.34459L22.4809 5.80203ZM11.6285 11.2352H15.5904L21.8207 5.15801L19.8395 3.22551L11.6285 11.2352ZM19.1792 2.58149L18.1889 1.61546C17.926 1.35904 17.5697 1.21512 17.198 1.21512C16.8268 1.21512 16.4706 1.35904 16.2077 1.61546L6.34564 11.2352H10.3076L19.1792 2.58149Z" fill="black"/>
<path fill-rule="evenodd" clip-rule="evenodd" d="M21.8529 21.7111C21.8529 20.9564 21.2258 20.3447 20.4521 20.3447H18.5844C17.8107 20.3447 17.1836 20.9564 17.1836 21.7111V23.5329C17.1836 24.2876 17.8107 24.8993 18.5844 24.8993H20.4521C21.2258 24.8993 21.8529 24.2876 21.8529 23.5329V21.7111ZM20.919 21.7111V23.5329C20.919 23.7843 20.7099 23.9884 20.4521 23.9884H18.5844C18.3266 23.9884 18.1175 23.7843 18.1175 23.5329V21.7111C18.1175 21.4597 18.3266 21.2556 18.5844 21.2556H20.4521C20.7099 21.2556 20.919 21.4597 20.919 21.7111Z" fill="black"/>
<path fill-rule="evenodd" clip-rule="evenodd" d="M2.24219 23.5326C2.24219 23.8952 2.38974 24.2427 2.65262 24.4987C2.91503 24.7551 3.2713 24.899 3.64298 24.899H12.9825C13.7558 24.899 14.3824 24.2878 14.3824 23.5335V23.5317C14.3824 22.7775 13.7558 22.1663 12.9825 22.1663H3.64298C3.2713 22.1663 2.91503 22.3102 2.65262 22.5666C2.38974 22.8226 2.24219 23.1701 2.24219 23.5326ZM13.4485 23.5335V23.5317C13.4485 23.2808 13.2398 23.0772 12.9825 23.0772H3.64298C3.51924 23.0772 3.40018 23.125 3.31286 23.2106C3.22508 23.2958 3.17605 23.4119 3.17605 23.5326C3.17605 23.6533 3.22508 23.7695 3.31286 23.8546C3.40018 23.9403 3.51924 23.9881 3.64298 23.9881H12.9825C13.2398 23.9881 13.4485 23.7845 13.4485 23.5335Z" fill="black"/>
</svg>
