<svg width="28" height="27" viewBox="0 0 28 27" fill="none" xmlns="http://www.w3.org/2000/svg">
<path d="M3.49803 13.1503H1.49971C1.22373 13.1503 1 12.9266 1 12.6506V10.2321C1 9.95616 1.22373 9.73242 1.49971 9.73242H3.49803C3.77401 9.73242 3.99774 9.95616 3.99774 10.2321V12.6506C3.99774 12.9266 3.77401 13.1503 3.49803 13.1503Z" fill="#FFEABC"/>
<path d="M3.65406 9.73242H2.45898C2.73496 9.73242 2.95869 9.95616 2.95869 10.2321V12.6506C2.95869 12.9266 2.73496 13.1503 2.45898 13.1503H3.65406C3.93004 13.1503 4.15377 12.9266 4.15377 12.6506V10.2321C4.15377 9.95616 3.93004 9.73242 3.65406 9.73242Z" fill="#FFEABC"/>
<path d="M12.6113 13.1503H10.613C10.337 13.1503 10.1133 12.9266 10.1133 12.6506V10.2321C10.1133 9.95616 10.337 9.73242 10.613 9.73242H12.6113C12.8873 9.73242 13.111 9.95616 13.111 10.2321V12.6506C13.111 12.9266 12.8873 13.1503 12.6113 13.1503Z" fill="#FFEABC"/>
<path d="M12.7673 9.73242H11.5723C11.8482 9.73242 12.072 9.95616 12.072 10.2321V12.6506C12.072 12.9266 11.8482 13.1503 11.5723 13.1503H12.7673C13.0433 13.1503 13.2671 12.9266 13.2671 12.6506V10.2321C13.2671 9.95616 13.0433 9.73242 12.7673 9.73242Z" fill="#FFEABC"/>
<path d="M8.05662 10.0965H6.0583C5.78233 10.0965 5.55859 9.87273 5.55859 9.59675V6.13448C5.55859 5.8585 5.78233 5.63477 6.0583 5.63477H8.05662C8.3326 5.63477 8.55633 5.8585 8.55633 6.13448V9.59675C8.55633 9.87273 8.3326 10.0965 8.05662 10.0965Z" fill="#F8AB02"/>
<path d="M8.2107 5.63477H7.01562C7.2916 5.63477 7.51534 5.8585 7.51534 6.13448V9.59675C7.51534 9.87273 7.2916 10.0965 7.01562 10.0965H8.2107C8.48668 10.0965 8.71041 9.87273 8.71041 9.59675V6.13448C8.71041 5.8585 8.48668 5.63477 8.2107 5.63477Z" fill="#F8AB02"/>
<path d="M17.1699 13.1991H15.1716C14.8956 13.1991 14.6719 12.9754 14.6719 12.6994V9.68379C14.6719 9.40782 14.8956 9.18408 15.1716 9.18408H17.1699C17.4459 9.18408 17.6696 9.40782 17.6696 9.68379V12.6994C17.6696 12.9754 17.4459 13.1991 17.1699 13.1991Z" fill="#FFEABC"/>
<path d="M17.324 9.18408H16.1289C16.4049 9.18408 16.6286 9.40782 16.6286 9.68379V12.6994C16.6286 12.9754 16.4049 13.1991 16.1289 13.1991H17.324C17.6 13.1991 17.8237 12.9754 17.8237 12.6994V9.68379C17.8237 9.40782 17.6 9.18408 17.324 9.18408Z" fill="#FFEABC"/>
<path d="M21.7246 9.51256H19.7263C19.4503 9.51256 19.2266 9.28883 19.2266 9.01285V6.14449C19.2266 5.86851 19.4503 5.64478 19.7263 5.64478H21.7246C22.0006 5.64478 22.2243 5.86851 22.2243 6.14449V9.01285C22.2243 9.28883 22.0006 9.51256 21.7246 9.51256Z" fill="#FFEABC"/>
<path d="M21.8806 5.64478H20.6855C20.9615 5.64478 21.1853 5.86851 21.1853 6.14449V9.01285C21.1853 9.28883 20.9615 9.51256 20.6855 9.51256H21.8806C22.1566 9.51256 22.3803 9.28883 22.3803 9.01285V6.14449C22.3804 5.86851 22.1567 5.64478 21.8806 5.64478Z" fill="#FFEABC"/>
<path d="M26.2832 9.67238H24.2849C24.0089 9.67238 23.7852 9.44865 23.7852 9.17267V1.6147C23.7852 1.33872 24.0089 1.11499 24.2849 1.11499H26.2832C26.5592 1.11499 26.7829 1.33872 26.7829 1.6147V9.17267C26.7829 9.44865 26.5592 9.67238 26.2832 9.67238Z" fill="#F8AB02"/>
<path d="M26.4373 1.11499H25.2422C25.5182 1.11499 25.7419 1.33872 25.7419 1.6147V9.17267C25.7419 9.44865 25.5182 9.67238 25.2422 9.67238H26.4373C26.7132 9.67238 26.937 9.44865 26.937 9.17267V1.6147C26.937 1.33872 26.7133 1.11499 26.4373 1.11499Z" fill="#F8AB02"/>
<path d="M20.2183 26.3296H7.67601C7.39972 26.3296 7.17578 26.1057 7.17578 25.8294V20.0547C7.17578 19.7784 7.39972 19.5544 7.67601 19.5544H20.2183C20.4946 19.5544 20.7185 19.7784 20.7185 20.0547V25.8294C20.7185 26.1057 20.4945 26.3296 20.2183 26.3296Z" fill="#FFEABC"/>
<path d="M20.2618 19.5544H18.9453C19.2216 19.5544 19.4455 19.7784 19.4455 20.0547V25.8295C19.4455 26.1057 19.2216 26.3297 18.9453 26.3297H20.2618C20.5381 26.3297 20.7621 26.1057 20.7621 25.8295V20.0547C20.7621 19.7784 20.5381 19.5544 20.2618 19.5544Z" fill="#FFEABC"/>
<path d="M3.65349 9.34089H2.96746V7.39362C2.96746 7.17745 2.79227 7.0022 2.57605 7.0022C2.35983 7.0022 2.18463 7.17745 2.18463 7.39362V9.34089H1.4986C1.00724 9.34089 0.607422 9.74066 0.607422 10.2321V12.6506C0.607422 13.142 1.00719 13.5417 1.49855 13.5417H2.18463V13.9234C2.18463 14.1396 2.35983 14.3148 2.57605 14.3148C2.79227 14.3148 2.96746 14.1396 2.96746 13.9234V13.5417H3.65349C4.14485 13.5417 4.54462 13.142 4.54462 12.6506V10.2321C4.54462 9.74066 4.14485 9.34089 3.65349 9.34089ZM3.76178 12.6506C3.76178 12.7103 3.71319 12.7589 3.65349 12.7589H1.4986C1.43885 12.7589 1.39031 12.7103 1.39031 12.6506V10.2321C1.39031 10.1724 1.4389 10.1238 1.4986 10.1238H3.65349C3.71325 10.1238 3.76178 10.1724 3.76178 10.2321V12.6506Z" fill="black"/>
<path d="M10.6118 13.5416H11.2979V13.9233C11.2979 14.1395 11.4731 14.3147 11.6893 14.3147C11.9055 14.3147 12.0807 14.1395 12.0807 13.9233V13.5416H12.7668C13.2581 13.5416 13.6579 13.1419 13.6579 12.6505V10.232C13.6579 9.74061 13.2581 9.34089 12.7668 9.34089H12.0807V7.39362C12.0807 7.17745 11.9055 7.0022 11.6893 7.0022C11.4731 7.0022 11.2979 7.17745 11.2979 7.39362V9.34089H10.6118C10.1205 9.34089 9.7207 9.74066 9.7207 10.232V12.6505C9.7207 13.1419 10.1205 13.5416 10.6118 13.5416ZM10.5035 10.232C10.5035 10.1723 10.5521 10.1237 10.6118 10.1237H12.7667C12.8265 10.1237 12.875 10.1723 12.875 10.232V12.6505C12.875 12.7102 12.8264 12.7588 12.7667 12.7588H10.6118C10.5521 12.7588 10.5035 12.7102 10.5035 12.6505V10.232Z" fill="black"/>
<path d="M7.13459 12.8266C7.35081 12.8266 7.52601 12.6513 7.52601 12.4352V10.4879H8.21208C8.70344 10.4879 9.10321 10.0881 9.10321 9.59675V6.13447C9.10321 5.64306 8.70344 5.24334 8.21208 5.24334H7.52601V3.29596C7.52601 3.07979 7.35081 2.90454 7.13459 2.90454C6.91837 2.90454 6.74317 3.07979 6.74317 3.29596V5.24329H6.05714C5.56578 5.24329 5.16602 5.64306 5.16602 6.13442V7.10879C5.16602 7.32496 5.34121 7.50021 5.55743 7.50021C5.77365 7.50021 5.94885 7.32496 5.94885 7.10879V6.13442C5.94885 6.07471 5.99744 6.02613 6.05714 6.02613H8.21203C8.27179 6.02613 8.32032 6.07471 8.32032 6.13442V9.5967C8.32032 9.6564 8.27174 9.70499 8.21203 9.70499H6.05714C5.99739 9.70499 5.94885 9.6564 5.94885 9.5967V8.62227C5.94885 8.40611 5.77365 8.23085 5.55743 8.23085C5.34121 8.23085 5.16602 8.40611 5.16602 8.62227V9.5967C5.16602 10.0881 5.56578 10.4878 6.05714 10.4878H6.74317V12.4351C6.74317 12.6513 6.91837 12.8266 7.13459 12.8266Z" fill="black"/>
<path d="M15.1704 13.5905H15.8565V14.5439C15.8565 14.7601 16.0316 14.9353 16.2479 14.9353C16.4641 14.9353 16.6393 14.7601 16.6393 14.5439V13.5905H17.3253C17.8167 13.5905 18.2164 13.1908 18.2164 12.6993V9.6837C18.2164 9.19228 17.8167 8.79257 17.3253 8.79257H16.6393V7.66925C16.6393 7.45308 16.4641 7.27783 16.2479 7.27783C16.0316 7.27783 15.8565 7.45308 15.8565 7.66925V8.79257H15.1704C14.6791 8.79257 14.2793 9.19234 14.2793 9.6837V12.6993C14.2793 13.1908 14.6791 13.5905 15.1704 13.5905ZM15.0621 9.6837C15.0621 9.62399 15.1107 9.5754 15.1704 9.5754H17.3253C17.385 9.5754 17.4336 9.62399 17.4336 9.6837V12.6993C17.4336 12.7591 17.385 12.8077 17.3253 12.8077H15.1704C15.1107 12.8077 15.0621 12.7591 15.0621 12.6993V9.6837Z" fill="black"/>
<path d="M21.8801 5.25355H21.194V4.87189C21.194 4.65572 21.0188 4.48047 20.8026 4.48047C20.5863 4.48047 20.4111 4.65572 20.4111 4.87189V5.25355H19.7251C19.2338 5.25355 18.834 5.65331 18.834 6.14467V9.01304C18.834 9.50445 19.2338 9.90417 19.7251 9.90417H20.4111V10.467C20.4111 10.6832 20.5863 10.8584 20.8026 10.8584C21.0188 10.8584 21.194 10.6832 21.194 10.467V9.90417H21.8801C22.3714 9.90417 22.7712 9.5044 22.7712 9.01304V6.14467C22.7712 5.65331 22.3714 5.25355 21.8801 5.25355ZM21.9883 9.01309C21.9883 9.0728 21.9398 9.12138 21.8801 9.12138H19.7252C19.6654 9.12138 19.6169 9.0728 19.6169 9.01309V6.14473C19.6169 6.08502 19.6655 6.03643 19.7252 6.03643H21.8801C21.9398 6.03643 21.9883 6.08502 21.9883 6.14473V9.01309Z" fill="black"/>
<path d="M20.2583 19.1631H7.67485C7.18318 19.1631 6.7832 19.5631 6.7832 20.0547V25.8295C6.7832 26.3211 7.18318 26.7211 7.67485 26.7211H12.8176C13.0338 26.7211 13.209 26.5459 13.209 26.3297C13.209 26.1135 13.0338 25.9383 12.8176 25.9383H7.67485C7.61489 25.9383 7.56604 25.8894 7.56604 25.8295V20.0547C7.56604 19.9948 7.61489 19.9459 7.67485 19.9459H20.2583C20.3182 19.9459 20.3671 19.9948 20.3671 20.0547V25.8295C20.3671 25.8894 20.3182 25.9383 20.2583 25.9383H14.4278C14.2116 25.9383 14.0364 26.1135 14.0364 26.3297C14.0364 26.5459 14.2116 26.7211 14.4278 26.7211H20.2583C20.7499 26.7211 21.1499 26.3211 21.1499 25.8295V20.0547C21.1499 19.5631 20.7499 19.1631 20.2583 19.1631Z" fill="black"/>
<path d="M26.9384 5.98565C27.1546 5.98565 27.3298 5.8104 27.3298 5.59424V1.61482C27.3298 1.12346 26.93 0.723689 26.4386 0.723689H25.7526V0.391662C25.7526 0.175495 25.5774 0.000244141 25.3612 0.000244141C25.145 0.000244141 24.9698 0.175495 24.9698 0.391662V0.723637H24.2838C23.7923 0.723637 23.3926 1.12341 23.3926 1.61477V9.17268C23.3926 9.66404 23.7923 10.0638 24.2838 10.0638H24.9698V11.9976C24.9698 12.2138 25.145 12.389 25.3612 12.389C25.5774 12.389 25.7526 12.2138 25.7526 11.9976V10.0639H26.4386C26.93 10.0639 27.3298 9.6641 27.3298 9.17274V7.10772C27.3298 6.89155 27.1546 6.7163 26.9384 6.7163C26.7221 6.7163 26.5469 6.89155 26.5469 7.10772V9.17274C26.5469 9.23244 26.4984 9.28103 26.4386 9.28103H24.2838C24.2241 9.28103 24.1755 9.23244 24.1755 9.17274V1.61482C24.1755 1.55511 24.2241 1.50653 24.2838 1.50653H26.4386C26.4984 1.50653 26.5469 1.55511 26.5469 1.61482V5.59424C26.5469 5.8104 26.7222 5.98565 26.9384 5.98565Z" fill="black"/>
<path d="M19.4486 16.9963H8.48517C8.26895 16.9963 8.09375 17.1715 8.09375 17.3878C8.09375 17.604 8.26895 17.7792 8.48517 17.7792H19.4486C19.6648 17.7792 19.84 17.604 19.84 17.3878C19.84 17.1715 19.6648 16.9963 19.4486 16.9963Z" fill="black"/>
<path d="M19.4486 15.4106H8.48517C8.26895 15.4106 8.09375 15.5858 8.09375 15.8021C8.09375 16.0183 8.26895 16.1935 8.48517 16.1935H19.4486C19.6648 16.1935 19.84 16.0183 19.84 15.8021C19.84 15.5858 19.6648 15.4106 19.4486 15.4106Z" fill="black"/>
<path d="M15.0008 20.9482C14.7846 20.9482 14.6094 21.1234 14.6094 21.3397V24.5415C14.6094 24.7321 14.7467 24.895 14.9346 24.9273C14.9627 24.9321 14.9844 24.9358 15.3384 24.9358C15.5098 24.9358 15.7593 24.9349 16.125 24.9329C16.3412 24.9317 16.5154 24.7555 16.5142 24.5393C16.513 24.3238 16.338 24.15 16.1229 24.15C16.1221 24.15 16.1214 24.15 16.1206 24.15C15.87 24.1515 15.6013 24.1525 15.3922 24.1527V21.3397C15.3922 21.1234 15.217 20.9482 15.0008 20.9482Z" fill="black"/>
<path d="M17.4539 20.9482C17.2377 20.9482 17.0625 21.1234 17.0625 21.3397V24.5415C17.0625 24.7321 17.1999 24.895 17.3878 24.9273C17.4159 24.9321 17.4376 24.9358 17.7913 24.9358C17.9627 24.9358 18.2122 24.9349 18.5782 24.9329C18.7943 24.9317 18.9686 24.7555 18.9674 24.5393C18.9662 24.3238 18.7912 24.15 18.576 24.15C18.5753 24.15 18.5746 24.15 18.5738 24.15C18.3231 24.1515 18.0545 24.1525 17.8453 24.1527V21.3397C17.8453 21.1234 17.6701 20.9482 17.4539 20.9482Z" fill="black"/>
<path d="M13.8016 21.746C14.0178 21.746 14.193 21.5708 14.193 21.3546C14.193 21.1383 14.0178 20.9631 13.8016 20.9631H12.4637C12.2475 20.9631 12.0723 21.1383 12.0723 21.3546V24.5298C12.0723 24.746 12.2475 24.9212 12.4637 24.9212H13.8016C14.0178 24.9212 14.193 24.746 14.193 24.5298C14.193 24.3136 14.0178 24.1384 13.8016 24.1384H12.8551V23.3336H13.703C13.9192 23.3336 14.0944 23.1584 14.0944 22.9421C14.0944 22.7259 13.9192 22.5507 13.703 22.5507H12.8551V21.746H13.8016Z" fill="black"/>
<path d="M10.4749 24.1527C10.1539 24.1527 9.84488 24.0232 9.64828 23.8062C9.50309 23.646 9.25561 23.634 9.09534 23.779C8.93522 23.9242 8.92301 24.1717 9.06815 24.3319C9.41067 24.7098 9.93657 24.9355 10.4749 24.9355C11.1457 24.9355 11.7091 24.5077 11.8143 23.9183C11.8935 23.4752 11.6918 22.8961 10.8886 22.5998C10.4935 22.4541 10.1257 22.2953 10.0144 22.2466C9.92259 22.1736 9.92567 22.0714 9.93172 22.0288C9.94012 21.9706 9.98234 21.8281 10.193 21.7647C10.6491 21.6273 11.0707 21.9601 11.0833 21.9702C11.2488 22.1075 11.4943 22.0857 11.6329 21.9209C11.772 21.7554 11.7506 21.5085 11.5851 21.3694C11.555 21.3441 10.8379 20.753 9.96726 21.0151C9.5283 21.1474 9.21783 21.4932 9.15687 21.9177C9.09972 22.3157 9.27231 22.6986 9.60721 22.9169C9.62448 22.9282 9.64265 22.9381 9.66149 22.9465C9.67996 22.9547 10.121 23.1511 10.6177 23.3342C10.7603 23.3869 11.0874 23.5357 11.0437 23.7807C11.0111 23.9636 10.7894 24.1527 10.4749 24.1527Z" fill="black"/>
</svg>
