<svg width="28" height="27" viewBox="0 0 28 27" fill="none" xmlns="http://www.w3.org/2000/svg">
<g clip-path="url(#clip0_703_13570)">
<path d="M24.0292 9.26782H3.68479C3.18252 9.26782 2.77539 9.67495 2.77539 10.1772V12.62H24.9386V10.1772C24.9386 9.67495 24.5315 9.26782 24.0292 9.26782Z" fill="#FFB125"/>
<path d="M16.642 4.21755L14.7996 22.8688C14.7533 23.3373 14.336 23.6796 13.8675 23.6333L4.53238 22.7112C4.06388 22.6649 3.72157 22.2476 3.76786 21.7791L5.61025 3.12784C5.65654 2.65934 6.07384 2.31703 6.54235 2.36332L15.8775 3.28545C16.346 3.33175 16.6883 3.74905 16.642 4.21755Z" fill="#FFEABC"/>
<path d="M15.8798 3.28545L6.54465 2.36332C6.07615 2.31703 5.65879 2.65934 5.61255 3.12784L5.44727 4.80119C5.58729 4.73005 5.74824 4.69602 5.91619 4.71262L15.2513 5.63475C15.7198 5.68104 16.0621 6.09835 16.0158 6.56685L14.3387 23.5448C14.5895 23.4174 14.7723 23.1694 14.802 22.8688L16.6444 4.21761C16.6906 3.74905 16.3483 3.33175 15.8798 3.28545Z" fill="#FFEABC"/>
<path d="M6.60052 5.77227L5.25644 19.3788C5.23718 19.5736 5.32893 19.7634 5.49499 19.8669C5.95269 20.1522 6.30706 20.5803 6.50183 21.0829C6.57181 21.2635 6.73908 21.3881 6.93181 21.4072L11.7711 21.8852C11.9639 21.9043 12.1522 21.8148 12.2563 21.6514C12.5456 21.1966 12.9769 20.8461 13.4816 20.6558C13.6647 20.5868 13.7918 20.4186 13.811 20.2239L15.1551 6.61732C15.1743 6.42255 15.0826 6.23273 14.9165 6.12924C14.4588 5.84392 14.1044 5.41582 13.9097 4.91324C13.8397 4.73261 13.6724 4.60803 13.4797 4.58898L8.64038 4.11093C8.4476 4.09188 8.25925 4.18133 8.15523 4.34479C7.8659 4.79957 7.4346 5.15002 6.92993 5.3403C6.7468 5.40935 6.61972 5.5775 6.60052 5.77227Z" fill="#FFEABC"/>
<path d="M14.9179 6.12924C14.4602 5.84392 14.1058 5.41582 13.9111 4.91323C13.8411 4.73261 13.6738 4.60803 13.4811 4.58898L8.64179 4.11093C8.44901 4.09188 8.26066 4.18133 8.15664 4.34479C7.86731 4.79957 7.43601 5.15002 6.93134 5.3403C6.74821 5.40935 6.62118 5.57755 6.60193 5.77227L6.55078 6.29025L12.8212 6.89032C13.0139 6.90937 13.1812 7.03394 13.2511 7.21457C13.4459 7.71715 13.8003 8.14521 14.258 8.43058C14.424 8.53412 14.5157 8.72393 14.4965 8.91865L13.3308 20.7196C13.3808 20.6968 13.4314 20.6753 13.483 20.6558C13.6662 20.5868 13.7932 20.4186 13.8124 20.2239L15.1565 6.61732C15.1757 6.4226 15.084 6.23279 14.9179 6.12924Z" fill="#FFEABC"/>
<path d="M24.5584 6.99629L14.004 22.484C13.7389 22.873 13.2086 22.9734 12.8195 22.7083L5.06779 17.4257C4.67872 17.1606 4.5783 16.6303 4.84343 16.2412L15.3979 0.753578C15.663 0.364507 16.1933 0.264095 16.5823 0.529216L24.3341 5.81181C24.7231 6.07693 24.8235 6.60722 24.5584 6.99629Z" fill="#FFEABC"/>
<path d="M24.3336 5.81184L16.5818 0.529203C16.1928 0.264082 15.6625 0.364546 15.3973 0.753564L14.4946 2.07839C14.5729 2.10292 14.6491 2.13898 14.7205 2.18757L22.4722 7.47016C22.8612 7.73528 22.9616 8.26557 22.6965 8.65464L13.0449 22.8175C13.3938 22.9267 13.7871 22.8016 14.0035 22.4839L24.558 6.99628C24.8231 6.60726 24.7226 6.07697 24.3336 5.81184Z" fill="#FFEABC"/>
<path d="M14.997 3.5491L7.29723 14.8477C7.18701 15.0095 7.17657 15.22 7.27271 15.3905C7.53772 15.8602 7.64361 16.4058 7.57373 16.9402C7.54863 17.1323 7.63568 17.3218 7.79575 17.4309L11.8142 20.1694C11.9743 20.2785 12.1825 20.2902 12.3521 20.1966C12.8239 19.936 13.3704 19.8351 13.9045 19.9099C14.0984 19.9371 14.2905 19.8503 14.4007 19.6886L22.1004 8.38996C22.2107 8.22823 22.2211 8.0177 22.125 7.84725C21.8599 7.37749 21.7541 6.83191 21.8239 6.29749C21.849 6.10543 21.762 5.91594 21.6019 5.80681L17.5835 3.06834C17.4234 2.95926 17.2152 2.94752 17.0456 3.04115C16.5738 3.30167 16.0272 3.40261 15.4931 3.32777C15.2993 3.30063 15.1071 3.38737 14.997 3.5491Z" fill="#FFEABC"/>
<path d="M22.1281 7.84725C21.8631 7.37749 21.7572 6.83196 21.8271 6.29749C21.8522 6.10543 21.7651 5.91593 21.6051 5.80681L17.5866 3.06834C17.4265 2.95926 17.2183 2.94752 17.0488 3.04115C16.5769 3.30167 16.0304 3.40261 15.4963 3.32777C15.3024 3.30063 15.1103 3.38737 15.0001 3.5491L14.6792 4.02001L19.7014 7.40531C19.8614 7.51439 19.9485 7.70388 19.9234 7.89599C19.8535 8.43046 19.9594 8.976 20.2244 9.44575C20.3205 9.6162 20.3101 9.82673 20.1999 9.98847L13.4531 19.8888C13.6044 19.8821 13.7566 19.8887 13.9077 19.9099C14.1016 19.937 14.2937 19.8503 14.4039 19.6886L22.1036 8.38996C22.2138 8.22823 22.2243 8.0177 22.1281 7.84725Z" fill="#FFEABC"/>
<path d="M15.8787 13.3297C17.4017 13.3297 18.6363 12.0951 18.6363 10.5721C18.6363 9.04908 17.4017 7.81445 15.8787 7.81445C14.3557 7.81445 13.1211 9.04908 13.1211 10.5721C13.1211 12.0951 14.3557 13.3297 15.8787 13.3297Z" fill="#FFEABC"/>
<path d="M24.3431 26.34H3.09862C2.37429 26.34 1.78711 25.7528 1.78711 25.0285V12.0493C1.78711 11.325 2.37429 10.7378 3.09862 10.7378H24.3431C25.0675 10.7378 25.6546 11.325 25.6546 12.0493V25.0285C25.6547 25.7528 25.0675 26.34 24.3431 26.34Z" fill="#FFEABC"/>
<path d="M24.345 10.7378H21.959C22.6833 10.7378 23.2705 11.325 23.2705 12.0494V25.0286C23.2705 25.7529 22.6833 26.3401 21.959 26.3401H24.345C25.0693 26.3401 25.6565 25.7529 25.6565 25.0286V12.0494C25.6565 11.325 25.0693 10.7378 24.345 10.7378Z" fill="#FFEABC"/>
<path d="M26.437 16.032H21.6555C20.2709 16.032 19.1484 17.1544 19.1484 18.539C19.1484 19.9236 20.2709 21.046 21.6555 21.046H26.437C26.6995 21.046 26.9122 20.8332 26.9122 20.5708V16.5071C26.9122 16.2448 26.6994 16.032 26.437 16.032Z" fill="#F8AB02"/>
<path d="M26.437 16.032H24.0425C24.305 16.032 24.5177 16.2448 24.5177 16.5072V19.9301C24.5177 20.21 24.2908 20.4369 24.011 20.4369H21.6555C20.374 20.4369 19.3179 19.4753 19.1675 18.2344C19.1554 18.3343 19.1484 18.4358 19.1484 18.539C19.1484 19.9236 20.2709 21.0461 21.6555 21.0461H24.0426H26.437C26.6995 21.0461 26.9122 20.8333 26.9122 20.5709V19.9617V16.5072C26.9122 16.2448 26.6994 16.032 26.437 16.032Z" fill="#F8AB02"/>
<path d="M24.3431 10.7378H3.09862C2.37429 10.7378 1.78711 11.325 1.78711 12.0493V13.4865H25.6547V12.0493C25.6547 11.325 25.0675 10.7378 24.3431 10.7378Z" fill="#F8AB02"/>
<path d="M25.4325 11.3161C25.3854 11.2463 25.3317 11.1813 25.2723 11.122C25.2716 11.1213 25.2709 11.1207 25.2702 11.12C25.2114 11.0615 25.1472 11.0084 25.0782 10.9618C25.0607 10.95 25.043 10.9387 25.0249 10.9277C24.9981 10.9114 24.9705 10.8964 24.9424 10.882C24.9243 10.8726 24.9058 10.8638 24.8872 10.8553C24.7219 10.7801 24.5384 10.7378 24.3449 10.7378H21.959C22.6833 10.7378 23.2704 11.325 23.2704 12.0494V13.4866H25.6564V12.0494C25.6564 11.8231 25.599 11.6101 25.4981 11.4242C25.478 11.3871 25.456 11.351 25.4325 11.3161Z" fill="#F8AB02"/>
<path d="M3.09868 26.3403H24.3432C25.0675 26.3403 25.6547 25.7531 25.6547 25.0288V23.5916H1.78711V25.0288C1.78711 25.7531 2.37434 26.3403 3.09868 26.3403Z" fill="#F8AB02"/>
<path d="M23.2687 23.5916V25.0288C23.2687 25.0295 23.2687 25.0303 23.2687 25.031C23.2685 25.1521 23.1671 25.2489 23.046 25.2489H3.09862C2.37429 25.2489 1.78711 24.6617 1.78711 23.9374V25.0288C1.78711 25.7532 2.37429 26.3404 3.09862 26.3404H21.9572H24.3432C24.3691 26.3404 24.3947 26.3394 24.4203 26.3379C24.4282 26.3374 24.4361 26.3367 24.4441 26.3361C24.4619 26.3347 24.4795 26.3331 24.4971 26.331C24.5058 26.33 24.5146 26.3289 24.5233 26.3277C24.5408 26.3253 24.5581 26.3225 24.5754 26.3194C24.583 26.318 24.5907 26.3168 24.5983 26.3153C24.6228 26.3105 24.647 26.3051 24.6708 26.299C24.6708 26.299 24.6709 26.299 24.6709 26.299C24.6814 26.2963 24.6917 26.2931 24.702 26.2902C24.7539 26.2755 24.8046 26.258 24.8536 26.2373C24.8733 26.229 24.8926 26.2202 24.9117 26.211C24.9308 26.2018 24.9497 26.1921 24.9683 26.1821L24.9683 26.182C25.0055 26.1619 25.0415 26.14 25.0764 26.1164L25.0764 26.1164L25.0765 26.1163C25.1062 26.0963 25.1348 26.0748 25.1626 26.0524C25.164 26.0514 25.1653 26.0503 25.1666 26.0493C25.1948 26.0265 25.222 26.0024 25.2483 25.9774C25.2792 25.9479 25.3086 25.9169 25.3365 25.8846C25.3802 25.834 25.42 25.7801 25.4556 25.7232C25.4566 25.7217 25.4576 25.7201 25.4586 25.7186C25.4717 25.6974 25.4843 25.676 25.4962 25.6541C25.4962 25.6541 25.4963 25.654 25.4963 25.654V25.6539C25.528 25.5955 25.5553 25.5344 25.578 25.4711C25.5806 25.4639 25.5829 25.4565 25.5854 25.4493C25.5909 25.4331 25.5961 25.4168 25.6009 25.4003C25.6034 25.392 25.6058 25.3836 25.6081 25.3752C25.6126 25.3586 25.6167 25.3419 25.6206 25.3252C25.6224 25.3175 25.6243 25.3099 25.6259 25.3022C25.631 25.2779 25.6357 25.2536 25.6395 25.2289C25.6395 25.2288 25.6396 25.2287 25.6396 25.2285C25.6396 25.2285 25.6396 25.2284 25.6396 25.2283C25.6439 25.1995 25.6471 25.1703 25.6495 25.1409C25.6501 25.1334 25.6507 25.126 25.6512 25.1186C25.6532 25.0889 25.6546 25.059 25.6546 25.0288V23.9374V23.5916H23.2687V23.5916Z" fill="#F8AB02"/>
<path d="M21.7441 19.7033C22.387 19.7033 22.9081 19.1821 22.9081 18.5393C22.9081 17.8964 22.387 17.3752 21.7441 17.3752C21.1012 17.3752 20.5801 17.8964 20.5801 18.5393C20.5801 19.1821 21.1012 19.7033 21.7441 19.7033Z" fill="#F2F2F2"/>
<path d="M26.4372 15.6512H26.0373V13.4867V12.0494C26.0373 11.4792 25.7535 10.9743 25.3201 10.6676V10.1771C25.3201 9.46575 24.7414 8.88702 24.03 8.88702H23.7314L24.8738 7.21071C25.2567 6.64884 25.1111 5.88014 24.5492 5.49718L16.7975 0.214536C16.5253 0.0290039 16.1973 -0.0394683 15.8735 0.0219584C15.5499 0.0832807 15.2694 0.266934 15.084 0.539153L8.39326 10.3571H6.53141L6.9806 5.8099C6.98566 5.75865 7.01896 5.71423 7.06541 5.69675C7.64413 5.47855 8.14567 5.07105 8.47759 4.54937C8.50374 4.5083 8.55306 4.48481 8.6041 4.48998L11.5243 4.77848C11.7337 4.79878 11.92 4.64629 11.9407 4.43701C11.9613 4.22773 11.8085 4.04136 11.5992 4.02069L8.67894 3.73219C8.33997 3.699 8.01671 3.8552 7.83509 4.14057C7.59106 4.52416 7.22229 4.82373 6.79679 4.98416C6.4765 5.10492 6.25658 5.39259 6.22276 5.735L5.76621 10.3571H5.28069L5.99109 3.16521C6.01666 2.90635 6.24771 2.71617 6.50688 2.74211L12.4081 3.32506C12.6174 3.34526 12.8038 3.19287 12.8244 2.98359C12.8451 2.77431 12.6922 2.58794 12.483 2.56728L6.58172 1.98432C5.90514 1.91757 5.30011 2.41363 5.23325 3.09032L4.66063 8.88697H3.68548C2.97414 8.88697 2.39536 9.4657 2.39536 10.1771V10.5116C1.8134 10.7796 1.4082 11.3678 1.4082 12.0494V13.4866V23.5913V25.0285C1.4082 25.9617 2.16735 26.7208 3.10054 26.7208H24.345C25.2782 26.7208 26.0373 25.9617 26.0373 25.0285V23.5913V21.4268H26.4372C26.9092 21.4268 27.2932 21.0428 27.2932 20.5709V16.5072C27.2932 16.0352 26.9092 15.6512 26.4372 15.6512ZM24.03 9.64846C24.3215 9.64846 24.5586 9.88561 24.5586 10.1771V10.3711C24.4886 10.3623 24.4174 10.3572 24.345 10.3572H22.7295L23.2124 9.64852H24.03V9.64846ZM15.7132 0.96794C15.7842 0.863822 15.8914 0.793576 16.0152 0.77009C16.0448 0.764506 16.0745 0.761688 16.104 0.761688C16.1978 0.761688 16.2894 0.789766 16.3687 0.843729L24.1204 6.12632C24.3353 6.27281 24.391 6.56685 24.2446 6.78176L21.8081 10.357H21.2233L22.4179 8.60416C22.6116 8.31988 22.6276 7.95811 22.4594 7.65995C22.236 7.26383 22.1454 6.79742 22.2043 6.34656C22.2482 6.01114 22.1006 5.6837 21.8192 5.49196L17.8007 2.75349C17.5193 2.56169 17.1605 2.54411 16.8644 2.70761C16.4665 2.92733 15.9992 3.0136 15.5488 2.95055C15.2148 2.90369 14.876 3.05452 14.6852 3.33451L9.89949 10.3571H9.31476L15.7132 0.96794ZM15.8809 7.43371C14.2228 7.43371 12.8617 8.72659 12.7508 10.3571H10.8209L15.3143 3.76335C15.3144 3.76335 15.3144 3.76335 15.3144 3.76335C15.3399 3.72583 15.3822 3.70349 15.4257 3.70349C15.4315 3.70349 15.4373 3.70391 15.4431 3.70469C16.0557 3.79038 16.6911 3.67317 17.2324 3.37428C17.275 3.35069 17.3297 3.35408 17.3718 3.38279L21.3903 6.12131C21.4324 6.15001 21.4555 6.1997 21.4493 6.24792C21.3691 6.86109 21.4923 7.4954 21.7962 8.03409C21.8206 8.07736 21.8176 8.13278 21.7887 8.17532L20.3019 10.357H19.0111C18.9001 8.72659 17.5391 7.43371 15.8809 7.43371ZM18.2476 10.3571H13.5143C13.6233 9.14692 14.6428 8.19526 15.8809 8.19526C17.119 8.1952 18.1385 9.14692 18.2476 10.3571ZM3.15685 10.1771C3.15685 9.88556 3.39395 9.64841 3.68548 9.64841H4.58543L4.51544 10.3571H3.15685V10.1771ZM2.1697 12.0494C2.1697 11.5361 2.58726 11.1186 3.10054 11.1186H24.345C24.8583 11.1186 25.2758 11.5361 25.2758 12.0494V13.1059H2.1697V12.0494ZM25.2758 23.2106H6.66089C6.45057 23.2106 6.28017 23.3811 6.28017 23.5913C6.28017 23.8016 6.45062 23.972 6.66089 23.972H25.2758V25.0286C25.2758 25.5418 24.8583 25.9594 24.345 25.9594H3.10054C2.58726 25.9594 2.1697 25.5418 2.1697 25.0286V23.972H4.22292C4.43325 23.972 4.60364 23.8016 4.60364 23.5913C4.60364 23.3811 4.43319 23.2106 4.22292 23.2106H2.1697V13.8674H25.2758V15.6512H21.6557H21.6556C20.515 15.6512 19.5269 16.3161 19.058 17.2785C19.0564 17.2818 19.0547 17.2849 19.0531 17.2881C19.0491 17.2963 19.0456 17.3048 19.0418 17.3131C18.9859 17.4317 18.9374 17.5545 18.8979 17.6812C18.8978 17.6816 18.8977 17.6819 18.8976 17.6823C18.8133 17.9531 18.7678 18.2408 18.7678 18.539C18.7678 20.1313 20.0633 21.4268 21.6556 21.4268H21.6556H25.2758V23.2106H25.2758ZM26.5317 20.5708C26.5317 20.6229 26.4893 20.6653 26.4372 20.6653H25.6566H21.6557C20.8496 20.6653 20.1468 20.2144 19.7864 19.5517C19.77 19.5216 19.7543 19.491 19.7393 19.46C19.7094 19.3981 19.6825 19.3345 19.6586 19.2693C19.575 19.0415 19.5294 18.7955 19.5294 18.539C19.5294 18.2825 19.5751 18.0365 19.6586 17.8087C19.6825 17.7436 19.7095 17.68 19.7393 17.618C19.7543 17.587 19.77 17.5564 19.7864 17.5263C20.1468 16.8636 20.8496 16.4127 21.6557 16.4127H25.6566H26.4372C26.4893 16.4127 26.5317 16.4551 26.5317 16.5072V20.5708Z" fill="black"/>
<path d="M21.746 16.9941C20.8941 16.9941 20.2012 17.6872 20.2012 18.5389C20.2012 19.3907 20.8941 20.0837 21.746 20.0837C22.5978 20.0837 23.2908 19.3907 23.2908 18.5389C23.2908 17.6872 22.5978 16.9941 21.746 16.9941ZM21.746 19.3222C21.3141 19.3222 20.9627 18.9708 20.9627 18.5389C20.9627 18.1071 21.3141 17.7556 21.746 17.7556C22.1779 17.7556 22.5293 18.107 22.5293 18.5389C22.5293 18.9709 22.1779 19.3222 21.746 19.3222Z" fill="black"/>
</g>
<defs>
<clipPath id="clip0_703_13570">
<rect width="26.7208" height="26.7208" fill="white" transform="translate(0.988281)"/>
</clipPath>
</defs>
</svg>
