<svg width="75" height="69" viewBox="0 0 75 69" fill="none" xmlns="http://www.w3.org/2000/svg">
<path d="M7.90568 47.0016L10.0089 41.8605L45.9967 56.5828L43.8935 61.7239C42.7034 64.633 39.7099 66.618 35.6018 67.3444C31.5064 68.0685 26.4309 67.5064 21.3697 65.4359C16.3084 63.3654 12.2943 60.209 9.88069 56.8221C7.45955 53.4247 6.7156 49.9107 7.90568 47.0016Z" fill="#62A6DE" stroke="#0762AF" stroke-width="1.70913"/>
<path d="M30.5225 68.4538L33.8272 60.3755L31.8499 59.5667L28.3071 68.2268C29.0563 68.3346 29.7947 68.4102 30.5225 68.4538Z" fill="#0762AF"/>
<path d="M20.0642 65.8062C20.3873 65.9508 20.7146 66.0911 21.0462 66.2269C21.3779 66.3626 21.7097 66.492 22.0416 66.6151L25.931 57.1077L23.9536 56.2987L20.0642 65.8062Z" fill="#0762AF"/>
<path d="M12.7263 61.1736C13.2754 61.6517 13.8552 62.1153 14.4656 62.5644L18.303 53.1841L16.3257 52.3751L12.7263 61.1736Z" fill="#0762AF"/>
<path d="M9.5075 57.7562L12.8997 49.4641L10.9224 48.6553L8.09033 55.578C8.50899 56.3377 8.98264 57.0657 9.5075 57.7562Z" fill="#0762AF"/>
<path d="M32.8904 37.357C37.9542 39.4295 41.9701 42.5884 44.3846 45.9777C46.8065 49.3775 47.5504 52.8938 46.359 55.8045C45.1677 58.7152 42.172 60.7009 38.0614 61.427C33.9634 62.1508 28.8851 61.5876 23.8214 59.515C18.7576 57.4425 14.7417 54.2836 12.3272 50.8943C9.90524 47.4945 9.16139 43.9783 10.3527 41.0675C11.544 38.1568 14.5398 36.1711 18.6504 35.445C22.7483 34.7212 27.8266 35.2844 32.8904 37.357Z" fill="#99BEDD" stroke="#0762AF" stroke-width="1.70913"/>
<path d="M36.5088 44.9381C36.2931 44.4198 35.9768 43.9495 35.5782 43.5543C35.1795 43.1591 34.7064 42.8469 34.1863 42.6358L33.1747 42.2219L33.9439 40.3417L31.9665 39.5327L31.1973 41.413L29.2429 40.6134L30.0518 38.6361L28.0745 37.8271L27.2655 39.8046L25.2882 38.9956L24.4792 40.973L26.4566 41.7819L22.412 51.6687L20.4347 50.8598L19.6257 52.8371L21.6031 53.646L20.7942 55.6233L22.7716 56.4323L23.5805 54.4549L25.5578 55.2639L24.7489 57.2412L26.7262 58.0501L27.5352 56.0728L28.5239 56.4772C29.306 56.7972 30.1655 56.878 30.9936 56.7095C31.8217 56.541 32.5813 56.1308 33.1762 55.5306C33.7712 54.9304 34.1748 54.1673 34.336 53.3378C34.4973 52.5082 34.4089 51.6495 34.0821 50.8701C34.0468 50.7859 34.0081 50.7037 33.9679 50.6226C34.5196 50.4321 35.0264 50.1305 35.4569 49.7364C35.8874 49.3422 36.2324 48.8639 36.4705 48.3311C36.7087 47.7982 36.835 47.2222 36.8416 46.6385C36.8482 46.0549 36.7349 45.4762 36.5088 44.9381ZM32.119 53.3315C31.9039 53.8554 31.4898 54.2727 30.9674 54.4917C30.4451 54.7107 29.8573 54.7137 29.3328 54.4999L24.3894 52.4776L26.0072 48.5229L30.9506 50.5452C31.475 50.7597 31.8927 51.1738 32.1119 51.6964C32.331 52.2189 32.3336 52.8071 32.119 53.3315ZM34.5458 47.3994C34.3306 47.9234 33.9165 48.3406 33.3942 48.5596C32.8719 48.7787 32.284 48.7816 31.7595 48.5678L26.8161 46.5456L28.4339 42.5908L33.3773 44.6131C33.9018 44.8277 34.3195 45.2418 34.5386 45.7643C34.7577 46.2868 34.7603 46.875 34.5458 47.3994Z" fill="#0762AF"/>
<mask id="path-8-inside-1_9_2171" fill="white">
<path d="M65.2799 50.8192L60.4065 54.9819C55.0235 59.5799 44.7579 56.398 37.4777 47.8749C30.1974 39.3518 28.6594 28.715 34.0425 24.117L38.9159 19.9542"/>
</mask>
<path d="M65.2799 50.8192L60.4065 54.9819C55.0235 59.5799 44.7579 56.398 37.4777 47.8749C30.1974 39.3518 28.6594 28.715 34.0425 24.117L38.9159 19.9542" fill="#62A6DE"/>
<path d="M60.4065 54.9819L59.2964 53.6823L60.4065 54.9819ZM34.0425 24.117L35.1525 25.4165L35.1525 25.4165L34.0425 24.117ZM64.1698 49.5196L59.2964 53.6823L61.5165 56.2815L66.3899 52.1187L64.1698 49.5196ZM59.2964 53.6823C57.2081 55.4661 53.9798 55.9005 50.1595 54.7163C46.3639 53.5398 42.2404 50.8193 38.7772 46.7648L36.1781 48.985C39.9951 53.4537 44.6446 56.5856 49.1475 57.9813C53.6258 59.3694 58.2219 59.0957 61.5165 56.2815L59.2964 53.6823ZM38.7772 46.7648C35.314 42.7104 33.2716 38.2124 32.7029 34.2794C32.1305 30.321 33.0642 27.2003 35.1525 25.4165L32.9324 22.8174C29.6377 25.6316 28.6489 30.1284 29.3198 34.7686C29.9944 39.4344 32.361 44.5163 36.1781 48.985L38.7772 46.7648ZM35.1525 25.4165L40.0259 21.2538L37.8058 18.6546L32.9324 22.8174L35.1525 25.4165Z" fill="#0762AF" mask="url(#path-8-inside-1_9_2171)"/>
<path d="M43.3729 41.2993L36.689 46.9137C36.9442 47.2366 37.207 47.557 37.4776 47.8749C37.6721 48.1025 37.8688 48.3261 38.0677 48.5456L44.747 42.9351L43.3729 41.2993Z" fill="#0762AF"/>
<path d="M42.8772 52.8762C43.4914 53.319 44.111 53.7285 44.7361 54.1048L50.8031 49.0086L49.429 47.3728L42.8772 52.8762Z" fill="#0762AF"/>
<path d="M51.4796 56.8105L57.8551 51.4553L56.481 49.8195L48.9756 56.1238C49.7927 56.4126 50.6295 56.6421 51.4796 56.8105Z" fill="#0762AF"/>
<path d="M61.2682 27.6912C64.7898 31.8745 66.8799 36.5335 67.4455 40.6537C68.0128 44.7867 67.0405 48.2444 64.636 50.2686C62.2315 52.2927 58.6587 52.6613 54.6829 51.3976C50.7195 50.1378 46.485 47.284 42.9634 43.1007C39.4417 38.9174 37.3516 34.2583 36.7861 30.1381C36.2187 26.0051 37.191 22.5474 39.5955 20.5233C42 18.4991 45.5728 18.1306 49.5486 19.3943C53.5121 20.654 57.7465 23.5079 61.2682 27.6912Z" fill="#99BEDD" stroke="#0762AF" stroke-width="1.70913"/>
<path d="M34.9075 68.2627C35.8211 68.1789 36.7238 68.0531 37.6083 67.8862L41.3167 61.4261L38.7849 62.2807L34.9075 68.2627Z" fill="#0762AF"/>
<path d="M12.4934 39.6369L8.86811 34.8786L40.4765 10.7961L44.1018 15.5543C46.1268 18.2122 46.2916 21.9684 44.806 25.9588C43.3226 29.9431 40.2111 34.0966 35.8072 37.452C31.4034 40.8073 26.5729 42.7047 22.3378 43.0774C18.0963 43.4506 14.5185 42.2948 12.4934 39.6369Z" fill="#62A6DE" stroke="#0762AF" stroke-width="0.854567"/>
<path d="M45.811 24.1433L40.4715 17.1353L38.7722 18.43L45.0082 26.6147C45.3357 25.8116 45.604 24.9856 45.811 24.1433Z" fill="#0762AF"/>
<path d="M42.7877 30.7507L36.4759 22.4666L34.7766 23.7613L41.4694 32.5455C41.942 31.9544 42.3814 31.3561 42.7877 30.7507Z" fill="#0762AF"/>
<path d="M31.0008 29.3811L29.3015 30.6758L35.2057 38.4251C35.4941 38.2199 35.7809 38.0088 36.0661 37.7918C36.3511 37.5746 36.6308 37.3541 36.905 37.1304L31.0008 29.3811Z" fill="#0762AF"/>
<path d="M23.4772 33.6073L21.7778 34.902L27.4934 42.4037C28.1838 42.1726 28.8772 41.9077 29.5737 41.6091L23.4772 33.6073Z" fill="#0762AF"/>
<path d="M15.859 34.184L14.1597 35.4787L20.3204 43.5646C21.1874 43.5886 22.055 43.5492 22.9163 43.4466L15.859 34.184Z" fill="#0762AF"/>
<path d="M39.859 10.7088C41.7636 13.2075 41.9587 16.7926 40.5046 20.7011C39.0549 24.5975 36.0006 28.6874 31.6533 32.0012C27.3059 35.315 22.5529 37.1764 18.4117 37.5417C14.2575 37.9082 10.8523 36.7701 8.94765 34.2714C7.04301 31.7728 6.84792 28.1876 8.30205 24.2791C9.75168 20.3827 12.806 16.2928 17.1533 12.979C21.5007 9.66523 26.2537 7.80382 30.395 7.4385C34.5491 7.07204 37.9543 8.21017 39.859 10.7088Z" fill="#99BEDD" stroke="#0762AF" stroke-width="1.70913"/>
<path d="M35.4592 14.0814L19.8816 16.5495L13.3674 30.9133L28.945 28.4452L35.4592 14.0814Z" fill="#62A6DE"/>
<path d="M7.60674 16.7299L5.83374 15.5381C7.62682 12.8706 10.0332 10.3493 12.7928 8.2469C14.0188 7.31166 15.3089 6.46357 16.6535 5.70886L17.6972 7.57301C16.44 8.27875 15.2339 9.07177 14.0876 9.94623C11.5119 11.9086 9.27086 14.2544 7.60674 16.7299Z" fill="#0762AF"/>
<path d="M65.2997 25.325C64.9851 24.91 64.6548 24.4962 64.3179 24.0951C61.155 20.3296 57.2602 17.4798 53.3511 16.0707L54.0755 14.0609C58.3338 15.5958 62.5522 18.6713 65.9538 22.7209C66.3135 23.1492 66.6662 23.5911 67.0023 24.0344L65.2997 25.325Z" fill="#0762AF"/>
<path d="M51.1347 15.4318C50.4813 15.2905 49.8185 15.1966 49.1516 15.1509L49.2917 13.019C50.0617 13.0716 50.827 13.1798 51.5814 13.3426L51.1347 15.4318Z" fill="#0762AF"/>
<path d="M51.3719 63.1453L51.3438 61.009L51.487 61.0069C52.129 60.9957 52.7758 60.9646 53.4101 60.9144L53.5784 63.0442C52.9006 63.0977 52.2099 63.131 51.5253 63.1429L51.3719 63.1453Z" fill="#0762AF"/>
<path d="M55.7875 62.7938L55.4739 60.6804C58.9347 60.1669 62.121 59.0682 64.6885 57.5028L65.8006 59.3269C62.9911 61.0398 59.5286 62.2386 55.7875 62.7938Z" fill="#0762AF"/>
<path d="M19.8816 16.5495L21.0146 25.0869L35.4591 14.0814L19.8816 16.5495Z" fill="#0762AF"/>
<path d="M21.0146 25.087L13.3674 30.9134L28.945 28.4453L21.0146 25.087Z" fill="#0762AF"/>
<path d="M21.0146 25.0869L28.945 28.4452L35.4592 14.0814L21.0146 25.0869Z" fill="#62A6DE"/>
<path d="M61.2768 34.6305C60.9297 34.2174 60.4839 33.8986 59.9808 33.7037C59.4777 33.5088 58.9335 33.444 58.3987 33.5154C57.8639 33.5868 57.3558 33.7921 56.9214 34.1122C56.4871 34.4323 56.1406 34.8569 55.9141 35.3466L53.099 34.5245L52.7751 31.6097C53.5038 31.4161 54.1409 30.9718 54.5743 30.3549C55.0078 29.738 55.2098 28.988 55.1449 28.2369C55.08 27.4857 54.7523 26.7815 54.2195 26.2481C53.6867 25.7147 52.9828 25.3863 52.2317 25.3205C51.4806 25.2548 50.7304 25.4561 50.1131 25.8888C49.4957 26.3216 49.0507 26.9582 48.8564 27.6867C48.662 28.4152 48.7307 29.1888 49.0505 29.8716C49.3702 30.5544 49.9205 31.1026 50.6044 31.4198L50.9911 34.9L49.6528 36.0242C49.0015 35.6405 48.2354 35.4994 47.4902 35.6259C46.7449 35.7524 46.0683 36.1383 45.58 36.7154C45.0917 37.2925 44.8231 38.0237 44.8218 38.7796C44.8204 39.5356 45.0864 40.2677 45.5726 40.8465C46.0588 41.4254 46.734 41.8137 47.4788 41.9429C48.2237 42.072 48.9902 41.9337 49.6429 41.5524C50.2957 41.1711 50.7926 40.5712 51.0458 39.859C51.2991 39.1467 51.2924 38.3678 51.0269 37.66L52.3652 36.5359L55.7264 37.5175C55.8501 37.9813 56.0764 38.4113 56.3885 38.7759C56.7007 39.1405 57.0908 39.4304 57.53 39.624C57.9692 39.8176 58.4462 39.9102 58.926 39.8947C59.4057 39.8793 59.8758 39.7563 60.3017 39.5348C60.7275 39.3133 61.0981 38.999 61.3862 38.6151C61.6743 38.2311 61.8724 37.7874 61.966 37.3166C62.0596 36.8459 62.0463 36.3601 61.927 35.8952C61.8077 35.4303 61.5855 34.9981 61.2768 34.6305Z" fill="#0762AF"/>
</svg>
