<svg width="79" height="69" viewBox="0 0 79 69" fill="none" xmlns="http://www.w3.org/2000/svg">
<path d="M14.0793 52.9904L13.6021 16.2508C13.5674 13.5752 11.3885 11.4244 8.7127 11.4244C6.01213 11.4244 3.82288 13.6137 3.82288 16.3143V53.057C3.82288 55.8893 6.11894 58.1854 8.95128 58.1854C11.8097 58.1854 14.1164 55.8485 14.0793 52.9904Z" fill="#0762AF" fill-opacity="0.3" stroke="#0762AF" stroke-width="1.94331"/>
<path d="M27.9034 53.2739L27.5432 37.1996C27.4869 34.687 25.4339 32.6794 22.9206 32.6794C20.367 32.6794 18.2969 34.7496 18.2969 37.3032V53.3816C18.2969 56.0347 20.4476 58.1854 23.1007 58.1854C25.796 58.1854 27.9638 55.9685 27.9034 53.2739Z" fill="#0762AF" fill-opacity="0.3" stroke="#0762AF" stroke-width="1.94331"/>
<path d="M41.8058 53.2909L41.3775 25.0711C41.3392 22.5542 39.288 20.5338 36.7708 20.5338C34.2263 20.5338 32.1636 22.5965 32.1636 25.141V53.3641C32.1636 56.0269 34.3222 58.1855 36.985 58.1855C39.6764 58.1855 41.8467 55.982 41.8058 53.2909Z" fill="#0762AF" fill-opacity="0.3" stroke="#0762AF" stroke-width="1.94331"/>
<path d="M55.6958 53.302L55.2228 8.07813C55.1965 5.55849 53.1465 3.52979 50.6267 3.52979C48.0882 3.52979 46.0303 5.58767 46.0303 8.1262V53.3526C46.0303 56.0217 48.194 58.1854 50.8632 58.1854C53.552 58.1854 55.7239 55.9908 55.6958 53.302Z" fill="#0762AF" fill-opacity="0.3" stroke="#0762AF" stroke-width="1.94331"/>
<path d="M69.5212 53.2823L69.1272 32.3498C69.0799 29.8351 67.0277 27.8212 64.5125 27.8212C61.9634 27.8212 59.897 29.8876 59.897 32.4367V53.3729C59.897 56.0308 62.0516 58.1854 64.7095 58.1854C67.4029 58.1854 69.5719 55.9752 69.5212 53.2823Z" fill="#0762AF" fill-opacity="0.3" stroke="#0762AF" stroke-width="1.94331"/>
<path d="M73.9952 63.0808H45.2825C44.2819 63.0808 43.4709 63.8918 43.4709 64.8923C43.4709 65.8929 44.2819 66.7039 45.2825 66.7039H73.9952C74.9952 66.7039 75.8068 65.893 75.8068 64.8923C75.8068 63.8917 74.9952 63.0808 73.9952 63.0808Z" fill="#0762AF" stroke="#0762AF" stroke-width="0.65875"/>
<path d="M33.4249 63.0808H4.71217C3.71158 63.0808 2.90061 63.8918 2.90061 64.8923C2.90061 65.8929 3.71158 66.7039 4.71217 66.7039H33.4249C34.4255 66.7039 35.2365 65.8929 35.2365 64.8923C35.2365 63.8918 34.4255 63.0808 33.4249 63.0808Z" fill="#0762AF" stroke="#0762AF" stroke-width="0.65875"/>
<path d="M39.3538 63.0808C38.3555 63.0808 37.5422 63.8941 37.5422 64.8923C37.5422 65.8906 38.3555 66.7039 39.3538 66.7039C40.352 66.7039 41.1653 65.8906 41.1653 64.8923C41.1653 63.8941 40.352 63.0808 39.3538 63.0808Z" fill="#0762AF" stroke="#0762AF" stroke-width="0.65875"/>
</svg>
