<svg width="71" height="69" viewBox="0 0 71 69" fill="none" xmlns="http://www.w3.org/2000/svg">
<path d="M15.6762 38.6815H42.2344C50.1909 38.6815 56.6694 45.16 56.6694 53.1165C56.6694 61.073 50.1909 67.5514 42.2344 67.5514H15.6762C7.71964 67.5514 1.24119 61.073 1.24119 53.1165C1.24119 45.16 7.71964 38.6815 15.6762 38.6815Z" fill="#98BEDD" stroke="#0762AF" stroke-width="1.48237"/>
<path d="M43.3902 15.176C43.3902 23.1482 36.9274 29.611 28.9552 29.611C20.983 29.611 14.5202 23.1482 14.5202 15.176C14.5202 7.20382 20.983 0.741065 28.9552 0.741065C36.9274 0.741065 43.3902 7.20382 43.3902 15.176Z" fill="#98BEDD" stroke="#0762AF" stroke-width="1.48237"/>
<path d="M63.2326 56.5743L69.5504 51.3471V51.3444C70.4076 50.6093 70.7226 49.4076 70.3381 48.3388C69.9536 47.2701 68.9523 46.5567 67.8308 46.5567H59.8174L56.9816 38.4732C56.5944 37.4126 55.5931 36.7073 54.4796 36.7073C53.3661 36.7073 52.3674 37.4126 51.9776 38.4732L49.1418 46.5567H41.1284C40.0096 46.5567 39.0109 47.2647 38.6237 48.3334C38.2365 49.4022 38.5489 50.6011 39.4034 51.3363L45.7506 56.5824L43.2379 64.7636C42.8988 65.8622 43.2753 67.0611 44.1832 67.7501C44.6585 68.1109 45.2219 68.2926 45.7853 68.2926C46.3033 68.2926 46.8213 68.1407 47.2699 67.8342L54.5009 62.919L61.8548 67.7827C62.8027 68.4093 64.0417 68.3605 64.9416 67.6579C65.8414 66.9553 66.2046 65.7509 65.8468 64.6578L63.2326 56.5743Z" fill="#62A6DE"/>
<path d="M62.5951 55.8038L62.0723 56.2363L62.2811 56.882L64.8953 64.9655L64.8964 64.9688C65.1246 65.666 64.8904 66.4292 64.3262 66.8697C63.7641 67.3085 62.9947 67.3375 62.4062 66.9485L55.0526 62.0849L54.4933 61.715L53.9388 62.092L46.7078 67.0072L46.7058 67.0086C46.4279 67.1985 46.1075 67.2926 45.7853 67.2926C45.4376 67.2926 45.087 67.1808 44.7878 66.9536L44.7877 66.9535C44.2212 66.5236 43.9757 65.7638 44.1934 65.0585L44.1938 65.0572L46.7065 56.876L46.9027 56.2373L46.3877 55.8116L40.049 50.5725C39.5169 50.1099 39.3181 49.3527 39.5639 48.674C39.8107 47.9929 40.4391 47.5567 41.1284 47.5567H49.1418H49.8507L50.0854 46.8877L52.9185 38.812C53.1683 38.1401 53.7962 37.7073 54.4796 37.7073C55.1649 37.7073 55.7936 38.1418 56.0403 38.8109L58.8738 46.8877L59.1084 47.5567H59.8174H67.8308C68.5215 47.5567 69.1524 47.997 69.3972 48.6774C69.6422 49.3585 69.4391 50.1225 68.8994 50.5853L68.8163 50.6566L62.5951 55.8038Z" stroke="#0762AF" stroke-width="2"/>
</svg>
