<svg width="63" height="68" viewBox="0 0 63 68" fill="none" xmlns="http://www.w3.org/2000/svg">
<path d="M4.64899 38.2914C3.86915 37.9828 3.39597 37.1861 3.49819 36.354C5.32277 21.4536 17.5996 10.0727 32.4295 9.1969V6.3247C32.4295 3.61086 33.9652 2.39575 35.4864 2.39575C36.4837 2.39575 37.4747 2.88093 38.4321 3.83833M4.64899 38.2914L38.4321 3.83833M4.64899 38.2914C4.86974 38.3787 5.09962 38.4209 5.32661 38.4209C5.90153 38.4209 6.45918 38.1517 6.8143 37.6665L4.64899 38.2914ZM38.4321 3.83833L39.0331 3.23731L49.4781 13.6827C49.4781 13.6828 49.4781 13.6828 49.4782 13.6828C52.1036 16.3078 52.1035 20.5782 49.4782 23.2035L39.0331 33.649L39.033 33.6492C37.9748 34.7067 36.7803 35.3405 35.4864 35.3405C34.1566 35.3405 32.9906 34.653 32.298 33.504L32.2979 33.5038C31.8017 32.68 31.5795 31.6741 31.5795 30.5616V28.12C30.3345 27.932 29.0813 27.8373 27.8339 27.8373C19.838 27.8373 12.2346 31.6997 7.50022 38.1685L7.5002 38.1686C6.98092 38.878 6.1656 39.2709 5.32661 39.2709C4.99402 39.2709 4.65794 39.209 4.33627 39.0817L4.33625 39.0817C3.19674 38.6308 2.50517 37.4669 2.65451 36.2505C4.49647 21.2088 16.7033 9.65978 31.5795 8.4057V6.3247C31.5795 4.80738 32.0111 3.6079 32.7534 2.77644C33.4963 1.94438 34.4952 1.54575 35.4864 1.54575C36.7801 1.54575 37.9747 2.17892 39.0331 3.23729L38.4321 3.83833Z" fill="#98BEDD" stroke="#0762AF" stroke-width="1.7"/>
<path d="M57.6389 28.6113L57.6387 28.6113C56.4987 28.1604 55.1986 28.5362 54.4749 29.525C49.7405 35.9933 42.1371 39.8558 34.1412 39.8558C32.8942 39.8558 31.641 39.761 30.3956 39.573V37.1315C30.3956 35.6142 29.9642 34.4147 29.2219 33.5832C28.4791 32.7511 27.4801 32.3525 26.4887 32.3525C25.1948 32.3525 24.0001 32.9864 22.9423 34.0447L12.497 44.4895L12.497 44.4896C9.87155 47.115 9.87164 51.3848 12.4969 54.0107L12.497 54.0107L22.9423 64.4556C24.0003 65.5141 25.195 66.1473 26.4887 66.1473C27.4801 66.1473 28.4791 65.7487 29.2219 64.9166C29.9642 64.0851 30.3956 62.8856 30.3956 61.3684V59.2873C45.2723 58.0333 57.479 46.4846 59.3206 31.4431C59.47 30.2264 58.7786 29.0623 57.6389 28.6113Z" fill="#98BEDD" stroke="#0762AF" stroke-width="1.7"/>
<path d="M32.4294 30.5616C32.4294 31.566 32.6305 32.4087 33.0259 33.0652C33.572 33.9713 34.4685 34.4906 35.4864 34.4906C36.4836 34.4906 37.4746 34.0049 38.432 33.048L48.877 22.6025C51.1705 20.309 51.1705 16.5773 48.877 14.2839L38.432 3.83833C37.4746 2.88093 36.4836 2.39575 35.4864 2.39575C33.9651 2.39575 32.4294 3.61086 32.4294 6.3247V9.1969C31.9461 9.2257 31.4653 9.26601 30.9873 9.31688V27.1826C31.4691 27.2421 31.9505 27.3132 32.4294 27.3991V30.5616Z" fill="#98BEDD"/>
<path d="M57.3262 29.4017C56.5459 29.0931 55.6561 29.3503 55.1609 30.027C50.2668 36.7135 42.4089 40.7058 34.1412 40.7058C33.0912 40.7058 32.0373 40.639 30.9873 40.5104V58.3762C45.165 56.8741 56.7119 45.7538 58.477 31.3395C58.5792 30.5069 58.106 29.7103 57.3262 29.4017Z" fill="#98BEDD"/>
</svg>
