<svg width="106" height="352" viewBox="0 0 106 352" fill="none" xmlns="http://www.w3.org/2000/svg">
<path d="M105.612 349.565H0.374512V351.65H105.612V349.565Z" fill="white"/>
<path d="M105.612 340.708H0.374512V343.833H105.612V340.708Z" fill="white"/>
<path d="M105.612 332.894H0.374512V334.979H105.612V332.894Z" fill="white"/>
<path d="M105.612 322.129H0.374512V324.214H105.612V322.129Z" fill="white"/>
<path d="M105.612 308.587H0.374512V314.838H105.612V308.587Z" fill="white"/>
<path d="M105.612 300.774H0.374512V303.9H105.612V300.774Z" fill="white"/>
<path d="M105.612 289.658H0.374512V292.783H105.612V289.658Z" fill="white"/>
<path d="M105.612 272.125H0.374512V278.375H105.612V272.125Z" fill="white"/>
<path d="M105.612 256.838H0.374512V263.089H105.612V256.838Z" fill="white"/>
<path d="M105.612 248.858H0.374512V250.944H105.612V248.858Z" fill="white"/>
<path d="M105.612 240.173H0.374512V242.258H105.612V240.173Z" fill="white"/>
<path d="M105.612 225.414H0.374512V228.539H105.612V225.414Z" fill="white"/>
<path d="M105.612 213.603H0.374512V216.728H105.612V213.603Z" fill="white"/>
<path d="M105.612 200.234H0.374512V206.485H105.612V200.234Z" fill="white"/>
<path d="M105.612 193.116H0.374512V196.241H105.612V193.116Z" fill="white"/>
<path d="M105.612 181.311H0.374512V184.436H105.612V181.311Z" fill="white"/>
<path d="M105.612 170.718H0.374512V172.803H105.612V170.718Z" fill="white"/>
<path d="M105.612 157.867H0.374512V159.952H105.612V157.867Z" fill="white"/>
<path d="M105.612 145.889H0.374512V149.014H105.612V145.889Z" fill="white"/>
<path d="M105.612 138.942H0.374512V142.068H105.612V138.942Z" fill="white"/>
<path d="M105.612 130.09H0.374512V132.175H105.612V130.09Z" fill="white"/>
<path d="M105.612 122.444H0.374512V124.529H105.612V122.444Z" fill="white"/>
<path d="M105.612 107.167H0.374512V113.418H105.612V107.167Z" fill="white"/>
<path d="M105.612 96.5747H0.374512V99.6999H105.612V96.5747Z" fill="white"/>
<path d="M105.612 71.7456H0.374512V73.8307H105.612V71.7456Z" fill="white"/>
<path d="M105.612 58.5498H0.374512V64.8003H105.612V58.5498Z" fill="white"/>
<path d="M105.612 50.3867H0.374512V53.512H105.612V50.3867Z" fill="white"/>
<path d="M105.612 33.3696H0.374512V36.4949H105.612V33.3696Z" fill="white"/>
<path d="M105.612 21.7373H0.374512V23.8224H105.612V21.7373Z" fill="white"/>
<path d="M105.612 7.8457H0.374512V14.0962H105.612V7.8457Z" fill="white"/>
<path d="M105.612 0.0327148H0.374512V3.15794H105.612V0.0327148Z" fill="white"/>
</svg>
