<svg width="310" height="198" viewBox="0 0 310 198" fill="none" xmlns="http://www.w3.org/2000/svg">
<g opacity="0.2">
<path d="M15.1484 32.5921C15.9732 34.3823 18.0824 36.5963 21.4788 40.5557C18.6551 35.7933 17.0761 32.8358 15.7995 31.6792C17.9058 32.7701 21.9448 31.9014 29.2654 30.9567C21.9444 30.012 17.9054 29.1433 15.7995 30.2342C17.0761 29.0776 18.6551 26.1201 21.4788 21.3577C18.0824 25.3171 15.9732 27.5311 15.1484 29.3213C15.926 26.3677 15.3068 20.7043 14.6327 10.4395C13.959 20.7049 13.3395 26.3683 14.1174 29.3218C13.2926 27.5317 11.1834 25.3177 7.78698 21.3583C10.6107 26.1206 12.1897 29.0781 13.4664 30.2347C11.36 29.1439 7.321 30.0126 0 30.9573C7.321 31.9019 11.36 32.7706 13.466 31.6798C12.1893 32.8364 10.6103 35.7939 7.78657 40.5563C11.183 36.5969 13.2922 34.3828 14.117 32.5927C13.3391 35.5462 13.9586 41.2097 14.6323 51.4745C15.3068 41.2091 15.9264 35.5457 15.1484 32.5921Z" fill="#B1B0C9"/>
<path d="M266.558 144.155C267.106 145.346 268.509 146.817 270.767 149.45C268.889 146.283 267.839 144.317 266.991 143.548C268.391 144.273 271.077 143.695 275.944 143.067C271.077 142.439 268.391 141.861 266.991 142.586C267.839 141.817 268.889 139.851 270.767 136.685C268.509 139.317 267.106 140.79 266.558 141.98C267.075 140.016 266.663 136.25 266.215 129.425C265.767 136.25 265.355 140.016 265.873 141.98C265.324 140.79 263.922 139.317 261.664 136.685C263.541 139.851 264.591 141.818 265.44 142.586C264.039 141.861 261.354 142.439 256.486 143.067C261.354 143.695 264.039 144.273 265.44 143.548C264.591 144.317 263.541 146.283 261.664 149.45C263.922 146.817 265.324 145.345 265.873 144.155C265.355 146.119 265.767 149.884 266.215 156.709C266.663 149.884 267.075 146.119 266.558 144.155Z" fill="#D2D3DC"/>
<path d="M128.133 80.4421C128.711 81.6961 130.188 83.2471 132.568 86.021C130.59 82.685 129.484 80.6126 128.589 79.8023C130.065 80.5662 132.895 79.9581 138.023 79.2962C132.895 78.6344 130.065 78.0257 128.589 78.7902C129.484 77.9798 130.59 75.908 132.568 72.5714C130.189 75.3453 128.711 76.8963 128.133 78.1504C128.678 76.0815 128.245 72.1141 127.772 64.9224C127.3 72.1135 126.866 76.0815 127.412 78.1504C126.834 76.8963 125.356 75.3453 122.977 72.5714C124.955 75.9075 126.061 77.9798 126.955 78.7902C125.48 78.0263 122.65 78.6344 117.521 79.2962C122.65 79.9581 125.48 80.5667 126.955 79.8028C126.061 80.6132 124.955 82.685 122.977 86.0216C125.356 83.2477 126.834 81.6967 127.411 80.4426C126.866 82.5116 127.3 86.4789 127.772 93.6707C128.244 86.4789 128.678 82.511 128.133 80.4421Z" fill="#9090A6"/>
<path d="M97.0334 48.7555L100.199 47.5603L97.0334 46.3652L98.0292 43.9404L96.2999 45.3361L95.4472 40.8967L94.5949 45.3361L92.8655 43.9404L93.8613 46.3652L90.6953 47.5603L93.8613 48.7555L92.8655 51.1803L94.5949 49.7846L95.4472 54.2239L96.2999 49.7846L98.0292 51.1803L97.0334 48.7555Z" fill="#D2D3DC"/>
<path d="M67.4941 45.5549L71.9566 43.8701L67.4941 42.1854L68.8972 38.7677L66.4599 40.7352L65.2588 34.4785L64.0573 40.7352L61.6199 38.7677L63.0231 42.1854L58.5605 43.8701L63.0231 45.5549L61.6199 48.9725L64.0573 47.0044L65.2588 53.2617L66.4599 47.0044L68.8972 48.9725L67.4941 45.5549Z" fill="#D2D3DC"/>
<path d="M106.424 22.3747L108.441 21.6137L106.424 20.852L107.059 19.3073L105.957 20.197L105.414 17.3687L104.871 20.197L103.769 19.3073L104.403 20.852L102.387 21.6137L104.403 22.3747L103.769 23.9195L104.871 23.0304L105.414 25.8581L105.957 23.0304L107.059 23.9195L106.424 22.3747Z" fill="#D2D3DC"/>
<path d="M40.2751 24.4924L44.4604 22.9125L40.2751 21.332L41.5914 18.1269L39.3052 19.9726L38.1784 14.104L37.0517 19.9726L34.7655 18.1269L36.0818 21.332L31.8965 22.9125L36.0818 24.4924L34.7655 27.6975L37.0517 25.8524L38.1784 31.7204L39.3052 25.8524L41.5914 27.6975L40.2751 24.4924Z" fill="#D2D3DC"/>
<path d="M62.3294 139.012L64.4374 138.216L62.3294 137.42L62.9922 135.806L61.8408 136.735L61.2734 133.779L60.7056 136.735L59.5542 135.806L60.2174 137.42L58.1094 138.216L60.2174 139.012L59.5542 140.626L60.7056 139.697L61.2734 142.653L61.8408 139.697L62.9922 140.626L62.3294 139.012Z" fill="#D2D3DC"/>
<path d="M68.4378 1.33618L69.4037 13.2971L77.8151 10.8893L70.0006 15.8738L74.2336 26.3466L68.4378 17.4656L62.6424 26.3466L66.875 15.8738L59.0605 10.8893L67.4719 13.2971L68.4378 1.33618Z" fill="#9090A6"/>
<path d="M74.5322 3.55088L69.1074 14.8573L78.2001 19.6684L68.8548 15.9283L68.4017 29.5406L68.0506 15.9221L58.6777 19.5245L67.806 14.8477L62.4665 3.46191L68.4591 14.1897L74.5322 3.55088Z" fill="#9090A6"/>
<path d="M117.583 28.4695C118.867 28.0767 119.737 27.9481 120.193 27.9141C119.737 27.8795 118.867 27.7509 117.583 27.3588C117.303 25.5584 117.211 24.3384 117.187 23.6997C117.163 24.3384 117.071 25.5584 116.791 27.3582C115.507 27.7509 114.637 27.8795 114.182 27.9141C114.637 27.9481 115.507 28.0773 116.791 28.4695C117.071 30.2698 117.163 31.4899 117.187 32.128C117.211 31.4899 117.303 30.2698 117.583 28.4695Z" fill="#B1B0C9"/>
<path d="M102.87 92.0005C104.555 91.4854 105.697 91.316 106.294 91.2718C105.697 91.227 104.555 91.0576 102.87 90.5424C102.503 88.18 102.382 86.5791 102.35 85.741C102.318 86.5791 102.197 88.18 101.83 90.5419C100.145 91.0576 99.004 91.2264 98.4062 91.2712C99.004 91.316 100.146 91.4854 101.83 92C102.198 94.3625 102.318 95.9633 102.35 96.8014C102.382 95.9639 102.503 94.363 102.87 92.0005Z" fill="#B1B0C9"/>
<path d="M85.802 101.279C86.8515 100.958 87.5628 100.853 87.935 100.825C87.5628 100.797 86.8515 100.692 85.802 100.37C85.5732 98.8987 85.4981 97.9013 85.4783 97.3794C85.4584 97.9013 85.3833 98.8987 85.1541 100.37C84.1046 100.691 83.3937 100.796 83.0215 100.824C83.3937 100.852 84.105 100.957 85.1541 101.278C85.3833 102.75 85.458 103.747 85.4783 104.269C85.4981 103.748 85.5732 102.75 85.802 101.279Z" fill="#B1B0C9"/>
<path d="M20.9016 175.805C21.9511 175.484 22.6624 175.379 23.0346 175.351C22.6624 175.323 21.9511 175.218 20.9016 174.896C20.6728 173.425 20.5977 172.427 20.5779 171.906C20.5577 172.427 20.4829 173.425 20.2537 174.896C19.2042 175.217 18.4933 175.322 18.1211 175.35C18.4933 175.378 19.2046 175.484 20.2541 175.804C20.4833 177.276 20.5581 178.273 20.5783 178.795C20.5977 178.274 20.6724 177.277 20.9016 175.805Z" fill="#9090A6"/>
<path d="M79.9582 48.9974C81.0078 48.6767 81.7191 48.5713 82.0913 48.5435C81.7191 48.5157 81.0078 48.4103 79.9582 48.0896C79.7295 46.6179 79.6543 45.6205 79.6345 45.0986C79.6143 45.6205 79.5395 46.6179 79.3104 48.089C78.2608 48.4098 77.5499 48.5152 77.1777 48.5435C77.5499 48.5713 78.2612 48.6767 79.3104 48.9974C79.5391 50.4691 79.6143 51.4664 79.6345 51.9883C79.6543 51.4664 79.7291 50.4691 79.9582 48.9974Z" fill="#B1B0C9"/>
<path d="M50.0217 38.9015C51.7651 38.3682 52.9468 38.1931 53.5652 38.1472C52.9468 38.1008 51.7651 37.9257 50.0217 37.393C49.6414 34.9483 49.5169 33.2913 49.4838 32.4243C49.4506 33.2913 49.3257 34.9483 48.9454 37.3924C47.202 37.9257 46.0207 38.1008 45.4023 38.1472C46.0207 38.1931 47.2024 38.3688 48.9458 38.9015C49.3261 41.3461 49.4506 43.0031 49.4842 43.8701C49.5169 43.0031 49.6414 41.3461 50.0217 38.9015Z" fill="#EEF0F7"/>
<path d="M100.73 71.7303C103.035 71.0259 104.596 70.7941 105.414 70.7335C104.596 70.6717 103.035 70.4405 100.73 69.7361C100.228 66.5049 100.063 64.3158 100.019 63.1694C99.975 64.3158 99.8105 66.5055 99.3078 69.7356C97.0034 70.4405 95.4422 70.6717 94.625 70.7335C95.4422 70.7947 97.0038 71.0259 99.3078 71.7303C99.8105 74.9615 99.975 77.1512 100.019 78.297C100.063 77.1512 100.228 74.9615 100.73 71.7303Z" fill="#EEF0F7"/>
<path d="M48.275 0.974365L48.9394 2.86255L50.4251 3.16515L49.35 4.63456L49.6038 6.70917L48.275 5.72995L46.9462 6.70917L47.2 4.63456L46.125 3.16515L47.6106 2.86255L48.275 0.974365Z" fill="#D2D3DC"/>
<path d="M113.242 53.3945L113.906 55.2827L115.392 55.5853L114.317 57.0547L114.571 59.1293L113.242 58.1501L111.913 59.1293L112.167 57.0547L111.092 55.5853L112.577 55.2827L113.242 53.3945Z" fill="#D2D3DC"/>
<path d="M165.599 109.369L166.264 111.257L167.749 111.559L166.674 113.029L166.928 115.104L165.599 114.124L164.27 115.104L164.524 113.029L163.449 111.559L164.935 111.257L165.599 109.369Z" fill="#D2D3DC"/>
<path d="M88.6427 13.4331L90.1376 17.6809L93.4806 18.3621L91.0614 21.6681L91.6325 26.337L88.6427 24.1326L85.6524 26.337L86.2235 21.6681L83.8047 18.3621L87.1473 17.6809L88.6427 13.4331Z" fill="#EEF0F7"/>
<path d="M256.976 113.082L256.992 117.315L259.488 119.697L256.622 121.027L255.778 125.091L253.99 121.68L250.973 121.811L252.734 118.373L251.713 114.389L254.589 115.675L256.976 113.082Z" fill="#9090A6"/>
<path d="M68.7879 67.6033L69.8783 70.7008L72.3165 71.1977L70.552 73.609L70.9687 77.0136L68.7879 75.4065L66.6072 77.0136L67.0238 73.609L65.2598 71.1977L67.6975 70.7008L68.7879 67.6033Z" fill="#D2D3DC"/>
<path d="M163.448 132.033L164.444 134.862L166.67 135.316L165.059 137.518L165.44 140.627L163.448 139.159L161.457 140.627L161.837 137.518L160.227 135.316L162.453 134.862L163.448 132.033Z" fill="#B1B0C9"/>
<path d="M110.376 130.469L111.371 133.298L113.598 133.751L111.987 135.953L112.367 139.062L110.376 137.594L108.385 139.062L108.765 135.953L107.154 133.751L109.38 133.298L110.376 130.469Z" fill="#B1B0C9"/>
<path d="M39.7293 82.8231C39.2577 81.7997 38.0517 80.5337 36.1102 78.2704C37.7248 80.9933 38.6272 82.6843 39.3571 83.345C38.1531 82.7217 35.8435 83.2181 31.6582 83.7581C35.8435 84.2982 38.1527 84.7952 39.3571 84.1712C38.6272 84.8326 37.7243 86.5235 36.1102 89.2459C38.0521 86.982 39.2581 85.7166 39.7293 84.6932C39.2847 86.3813 39.6388 89.6193 40.0239 95.4884C40.4091 89.6199 40.7631 86.3819 40.3185 84.6932C40.7902 85.7166 41.9961 86.9825 43.9376 89.2459C42.3231 86.523 41.4206 84.832 40.6907 84.1712C41.8951 84.7946 44.2043 84.2982 48.3896 83.7581C44.2043 83.2181 41.8951 82.7217 40.6907 83.345C41.4206 82.6837 42.3235 80.9927 43.9376 78.2704C41.9957 80.5343 40.7898 81.7997 40.3185 82.8231C40.7631 81.135 40.4091 77.8969 40.0239 72.0278C39.6388 77.8964 39.2847 81.1344 39.7293 82.8231Z" fill="#D2D3DC"/>
<path d="M35.1629 124.193C34.3017 123.798 33.3297 122.708 31.8368 120.901C33.0375 122.851 33.7949 124.167 34.1218 125.314C31.4015 126.69 24.1125 126.15 24.1133 126.464C24.1133 126.779 31.5454 126.221 34.1715 127.61C33.8777 128.803 33.1026 130.156 31.8356 132.213C33.3531 130.375 34.3336 129.281 35.2041 128.902C36.2904 132.318 35.8495 143.275 36.1021 143.275C36.3555 143.274 35.9089 132.491 36.8979 129.098C37.6831 129.595 38.5912 130.625 39.9034 132.212C38.7424 130.325 37.9987 129.033 37.6556 127.914C40.0356 126.183 48.0909 126.76 48.0917 126.463C48.0913 126.165 40.0655 126.747 37.6972 125.068C38.0581 123.976 38.788 122.714 39.9034 120.9C38.6247 122.447 37.7304 123.466 36.9577 123.979C35.9049 120.661 36.3567 109.651 36.1025 109.653C35.8426 109.652 36.3167 121.101 35.1629 124.193Z" fill="#EEF0F7"/>
<path d="M32.2244 164.793L29.3926 165.862L32.2244 166.931L31.3341 169.1L32.8807 167.851L33.6433 171.822L34.4059 167.851L35.9526 169.1L35.0619 166.931L37.8941 165.862L35.0619 164.793L35.9526 162.624L34.4059 163.873L33.6433 159.901L32.8807 163.873L31.3341 162.624L32.2244 164.793Z" fill="#9090A6"/>
<path d="M10.7828 116.322L7.61719 117.517L10.7828 118.713L9.78742 121.138L11.5167 119.741L12.3691 124.181L13.2214 119.741L14.9507 121.138L13.9553 118.713L17.1214 117.517L13.9553 116.322L14.9507 113.897L13.2214 115.294L12.3691 110.854L11.5167 115.294L9.78742 113.897L10.7828 116.322Z" fill="#B1B0C9"/>
<path d="M54.0284 92.3186L52.0117 93.0797L54.0284 93.8413L53.3943 95.3855L54.496 94.4964L55.0387 97.3241L55.5819 94.4964L56.6836 95.3855L56.0495 93.8413L58.0661 93.0797L56.0495 92.3186L56.6836 90.7738L55.5819 91.663L55.0387 88.8352L54.496 91.663L53.3943 90.7738L54.0284 92.3186Z" fill="#EEF0F7"/>
<path d="M71.8314 95.4831L68.707 96.6629L71.8314 97.8422L70.849 100.235L72.5553 98.8577L73.3967 103.238L74.2377 98.8577L75.944 100.235L74.9615 97.8422L78.0859 96.6629L74.9615 95.4831L75.944 93.0906L74.2377 94.4682L73.3967 90.0872L72.5553 94.4682L70.849 93.0906L71.8314 95.4831Z" fill="#B1B0C9"/>
<path d="M148.57 156.912L143.666 158.764L148.57 160.615L147.028 164.371L149.707 162.209L151.027 169.086L152.348 162.209L155.027 164.371L153.485 160.615L158.389 158.764L153.485 156.912L155.027 153.156L152.348 155.319L151.027 148.441L149.707 155.319L147.028 153.156L148.57 156.912Z" fill="#EEF0F7"/>
<path d="M28.9282 51.9873L23.0039 54.224L28.9282 56.4601L27.0651 60.9975L30.3007 58.3851L31.8958 66.6915L33.4909 58.3851L36.7265 60.9975L34.8638 56.4601L40.7877 54.224L34.8638 51.9873L36.7265 47.4504L33.4909 50.0623L31.8958 41.7559L30.3007 50.0623L27.0651 47.4504L28.9282 51.9873Z" fill="#EEF0F7"/>
<path d="M49.1589 179.65L45.2031 181.144L49.1589 182.638L47.9149 185.667L50.0758 183.923L51.1412 189.47L52.2061 183.923L54.367 185.667L53.1231 182.638L57.0788 181.144L53.1231 179.65L54.367 176.621L52.2061 178.365L51.1412 172.818L50.0758 178.365L47.9149 176.621L49.1589 179.65Z" fill="#D2D3DC"/>
<path d="M136.117 170.345L134.1 171.106L136.117 171.867L135.482 173.412L136.584 172.522L137.127 175.351L137.67 172.522L138.771 173.412L138.137 171.867L140.154 171.106L138.137 170.345L138.771 168.8L137.67 169.689L137.127 166.861L136.584 169.689L135.482 168.8L136.117 170.345Z" fill="#B1B0C9"/>
<path d="M90.2031 117.035L84.1875 119.306L90.2031 121.577L88.3113 126.185L91.5974 123.532L93.2172 131.967L94.837 123.532L98.1231 126.185L96.2313 121.577L102.247 119.306L96.2313 117.035L98.1231 112.427L94.837 115.08L93.2172 106.645L91.5974 115.08L88.3113 112.427L90.2031 117.035Z" fill="#B1B0C9"/>
<path d="M51.1018 112.779L46.1875 114.634L51.1018 116.489L49.5564 120.253L52.2407 118.086L53.5639 124.977L54.887 118.086L57.5713 120.253L56.0259 116.489L60.9406 114.634L56.0259 112.779L57.5713 109.015L54.887 111.182L53.5639 104.291L52.2407 111.182L49.5564 109.015L51.1018 112.779Z" fill="#D2D3DC"/>
<path d="M128.31 133.277L124.365 134.766L128.31 136.255L127.069 139.276L129.224 137.536L130.286 143.068L131.348 137.536L133.502 139.276L132.262 136.255L136.207 134.766L132.262 133.277L133.502 130.256L131.348 131.995L130.286 126.464L129.224 131.995L127.069 130.256L128.31 133.277Z" fill="#B1B0C9"/>
<path d="M17.1175 165.862L16.1516 153.901L7.74023 156.309L15.5547 151.325L11.3221 140.851L17.1175 149.732L22.9129 140.851L18.6803 151.325L26.4948 156.309L18.0834 153.901L17.1175 165.862Z" fill="#9090A6"/>
<path d="M11.0254 163.647L16.4502 152.341L7.35742 147.53L16.7028 151.27L17.1558 137.657L17.507 151.276L26.8798 147.674L17.7515 152.35L23.091 163.736L17.0984 153.008L11.0254 163.647Z" fill="#9090A6"/>
<path d="M137.843 112.236L137.195 104.215L131.555 105.83L136.795 102.488L133.956 95.4653L137.843 101.42L141.729 95.4653L138.891 102.488L144.131 105.83L138.491 104.215L137.843 112.236Z" fill="#D2D3DC"/>
<path d="M133.756 110.751L137.394 103.169L131.297 99.9432L137.563 102.451L137.867 93.3232L138.103 102.455L144.388 100.04L138.267 103.176L141.847 110.81L137.829 103.617L133.756 110.751Z" fill="#D2D3DC"/>
<path d="M88.6433 198L87.4713 183.489L77.2676 186.411L86.7471 180.364L81.6125 167.659L88.6433 178.432L95.6737 167.659L90.5391 180.364L100.019 186.411L89.8149 183.489L88.6433 198Z" fill="#B1B0C9"/>
<path d="M81.2508 195.313L87.8314 181.597L76.8008 175.761L88.1377 180.298L88.6878 163.785L89.1137 180.305L100.484 175.936L89.4104 181.609L95.8875 195.422L88.6178 182.407L81.2508 195.313Z" fill="#B1B0C9"/>
<path d="M65.8904 160.739C63.3071 161.528 61.5568 161.788 60.6406 161.856C61.5568 161.925 63.3075 162.184 65.8904 162.974C66.4538 166.596 66.6385 169.051 66.6874 170.336C66.7367 169.051 66.9214 166.596 67.4847 162.975C70.068 162.185 71.8179 161.926 72.7341 161.857C71.8179 161.788 70.0672 161.528 67.4843 160.739C66.9206 157.117 66.7363 154.663 66.687 153.378C66.6385 154.661 66.4538 157.116 65.8904 160.739Z" fill="#EEF0F7"/>
<path d="M115.587 103.994C111.751 105.167 109.152 105.552 107.791 105.654C109.151 105.757 111.751 106.142 115.587 107.314C116.423 112.692 116.697 116.337 116.771 118.245C116.844 116.337 117.118 112.692 117.955 107.315C121.79 106.142 124.389 105.757 125.75 105.654C124.389 105.553 121.79 105.167 117.954 103.994C117.117 98.6161 116.843 94.9712 116.77 93.0637C116.698 94.9712 116.423 98.6161 115.587 103.994Z" fill="#EEF0F7"/>
<path d="M25.4083 95.7735C23.0328 96.4994 21.4227 96.7385 20.5801 96.8014C21.4227 96.8649 23.0328 97.1035 25.4083 97.8294C25.9264 101.16 26.0962 103.418 26.1415 104.6C26.1867 103.418 26.3565 101.16 26.875 97.83C29.2505 97.1029 30.8602 96.8649 31.7028 96.8014C30.8602 96.7385 29.2501 96.5 26.875 95.7735C26.3565 92.4425 26.1871 90.1849 26.1415 89.0039C26.0962 90.1854 25.9264 92.4425 25.4083 95.7735Z" fill="#B1B0C9"/>
<path d="M72.1291 123.727C71.0796 124.048 70.3683 124.153 69.9961 124.181C70.3683 124.208 71.0796 124.314 72.1291 124.635C72.3579 126.106 72.4331 127.104 72.4529 127.626C72.4731 127.104 72.5478 126.106 72.777 124.635C73.8265 124.314 74.5374 124.209 74.9096 124.181C74.5374 124.153 73.8261 124.048 72.777 123.727C72.5478 122.255 72.4731 121.258 72.4529 120.736C72.4331 121.258 72.3579 122.255 72.1291 123.727Z" fill="#B1B0C9"/>
<path d="M120.467 165.577C117.498 166.484 115.486 166.783 114.434 166.861C115.486 166.94 117.498 167.238 120.467 168.146C121.114 172.308 121.326 175.128 121.383 176.605C121.439 175.128 121.652 172.308 122.299 168.147C125.268 167.238 127.279 166.941 128.332 166.862C127.279 166.783 125.267 166.485 122.299 165.577C121.652 161.415 121.439 158.594 121.383 157.119C121.326 158.594 121.114 161.415 120.467 165.577Z" fill="#EEF0F7"/>
<path d="M101.237 154.82C99.4934 155.353 98.3117 155.528 97.6934 155.574C98.3117 155.62 99.4934 155.795 101.237 156.329C101.617 158.773 101.742 160.43 101.775 161.297C101.808 160.43 101.933 158.773 102.313 156.329C104.057 155.796 105.238 155.621 105.856 155.574C105.238 155.528 104.056 155.353 102.313 154.82C101.932 152.376 101.808 150.719 101.774 149.852C101.742 150.718 101.617 152.375 101.237 154.82Z" fill="#B1B0C9"/>
<path d="M56.7408 61.0582C54.9973 61.5909 53.8156 61.7665 53.1973 61.8124C53.8156 61.8589 54.9973 62.034 56.7408 62.5673C57.1211 65.0119 57.2455 66.6689 57.2787 67.5359C57.3118 66.6689 57.4367 65.0119 57.817 62.5678C59.5605 62.0346 60.7418 61.8595 61.3601 61.813C60.7418 61.7665 59.5601 61.5914 57.8166 61.0587C57.4363 58.6141 57.3114 56.9571 57.2783 56.0901C57.2455 56.9565 57.1211 58.6135 56.7408 61.0582Z" fill="#9090A6"/>
<path d="M81.6031 143.199C79.2987 143.903 77.7371 144.135 76.9199 144.195C77.7371 144.257 79.2987 144.488 81.6031 145.193C82.1054 148.424 82.2703 150.614 82.314 151.759C82.358 150.613 82.5225 148.423 83.0253 145.193C85.3297 144.488 86.8909 144.257 87.708 144.195C86.8909 144.134 85.3293 143.903 83.0253 143.199C82.5225 139.967 82.358 137.778 82.314 136.632C82.2703 137.778 82.1054 139.968 81.6031 143.199Z" fill="#9090A6"/>
<path d="M82.6597 70.5188C80.3553 71.2232 78.7937 71.455 77.9766 71.5156C78.7937 71.5774 80.3557 71.8086 82.6597 72.513C83.1621 75.7442 83.327 77.9339 83.371 79.0797C83.4151 77.9333 83.5796 75.7436 84.0823 72.5135C86.3867 71.8086 87.9479 71.5774 88.7651 71.5156C87.9479 71.4544 86.3859 71.2232 84.0819 70.5188C83.5792 67.2876 83.4147 65.098 83.3706 63.9521C83.327 65.0985 83.1625 67.2882 82.6597 70.5188Z" fill="#9090A6"/>
<path d="M48.0934 149.009L47.429 147.122L45.9434 146.819L47.0184 145.35L46.7646 143.274L48.0934 144.254L49.4222 143.274L49.1684 145.35L50.2438 146.819L48.7578 147.122L48.0934 149.009Z" fill="#EEF0F7"/>
<path d="M8.71289 87.4808L6.49295 81.1742L1.5293 80.1627L5.12089 75.2535L4.27301 68.3213L8.71289 71.5944L13.1524 68.3213L12.3045 75.2535L15.8961 80.1627L10.9324 81.1742L8.71289 87.4808Z" fill="#9090A6"/>
<path d="M165.785 172.784L167.877 166.986L165.656 161.282L170.236 162.28L173.417 157.556L174.156 163.971L178.343 166.755L174.22 169.722L173.626 176.166L170.34 171.585L165.785 172.784Z" fill="#9090A6"/>
<path d="M169.338 47.0781C168.387 47.9389 167.213 50.1405 165.111 53.6856C167.639 50.7383 169.209 49.0904 169.822 47.7581C169.243 49.9563 169.704 54.1718 170.206 61.813C170.708 54.1718 171.169 49.9563 170.59 47.7581C171.203 49.091 172.774 50.7383 175.302 53.6856C173.2 50.1411 172.025 47.9395 171.075 47.0787C172.642 47.8908 175.649 47.2442 181.098 46.5409C175.649 45.8377 172.642 45.1911 171.075 46.0031C172.025 45.1424 173.2 42.9408 175.302 39.3956C172.774 42.343 171.204 43.9909 170.59 45.3231C171.169 43.125 170.708 38.9094 170.206 31.2683C169.704 38.9089 169.243 43.125 169.822 45.3231C169.209 43.9903 167.639 42.343 165.111 39.3956C167.213 42.9402 168.387 45.1418 169.338 46.0031C167.77 45.1911 164.764 45.8377 159.314 46.5409C164.763 47.2436 167.77 47.8902 169.338 47.0781Z" fill="#D2D3DC"/>
<path d="M220.853 99.258C220.633 100.199 220.027 101.261 219.023 102.893C220.106 101.581 220.838 100.753 221.475 100.396C222.24 103.368 221.94 111.333 222.114 111.332C222.29 111.332 221.979 103.211 222.751 100.342C223.414 100.662 224.166 101.509 225.309 102.894C224.288 101.236 223.68 100.164 223.469 99.2133C225.368 98.0261 231.457 98.5078 231.457 98.2318C231.456 97.9552 225.464 98.4426 223.578 97.3625C223.855 96.5045 224.426 95.5123 225.309 94.0786C224.26 95.3474 223.542 96.1594 222.92 96.5346C221.958 93.9341 222.279 85.1324 222.114 85.1318C221.948 85.1324 222.272 93.9018 221.338 96.4892C220.732 96.0954 220.031 95.2975 219.022 94.0786C219.882 95.4755 220.448 96.453 220.733 97.2973C218.889 98.4477 212.771 97.9541 212.771 98.2318C212.772 98.5151 219.134 97.9972 220.853 99.258Z" fill="#9090A6"/>
<path d="M281.041 10.6191L281.803 14.5904L282.566 10.6191L284.113 11.868L283.222 9.69935L286.054 8.63003L283.222 7.56071L284.113 5.39201L282.566 6.64041L281.803 2.66968L281.041 6.64041L279.494 5.39201L280.385 7.56071L277.553 8.63003L280.385 9.69935L279.494 11.868L281.041 10.6191Z" fill="#B1B0C9"/>
<path d="M258.051 81.2853L258.813 85.2566L259.576 81.2853L261.123 82.5343L260.232 80.365L263.064 79.2963L260.232 78.2269L261.123 76.0583L259.576 77.3067L258.813 73.3359L258.051 77.3067L256.504 76.0583L257.395 78.2269L254.562 79.2963L257.395 80.365L256.504 82.5343L258.051 81.2853Z" fill="#B1B0C9"/>
<path d="M248.81 38.1041L249.662 42.5434L250.515 38.1041L252.244 39.5004L251.248 37.0755L254.414 35.8804L251.248 34.6847L252.244 32.2604L250.515 33.6562L249.662 29.2168L248.81 33.6562L247.08 32.2604L248.076 34.6847L244.91 35.8804L248.076 37.0755L247.08 39.5004L248.81 38.1041Z" fill="#B1B0C9"/>
<path d="M187.773 53.5218L188.316 56.3495L188.859 53.5218L189.961 54.4109L189.327 52.8662L191.343 52.1051L189.327 51.3435L189.961 49.7987L188.859 50.6884L188.316 47.8601L187.773 50.6884L186.672 49.7987L187.306 51.3435L185.289 52.1051L187.306 52.8662L186.672 54.4109L187.773 53.5218Z" fill="#9090A6"/>
<path d="M271.457 32.1807L272 35.0085L272.543 32.1807L273.644 33.0699L273.01 31.5251L275.027 30.764L273.01 30.0024L273.644 28.4577L272.543 29.3473L272 26.519L271.457 29.3473L270.355 28.4577L270.989 30.0024L268.973 30.764L270.989 31.5251L270.355 33.0699L271.457 32.1807Z" fill="#D2D3DC"/>
<path d="M302.338 99.9517L302.881 102.78L303.424 99.9517L304.525 100.841L303.891 99.2966L305.908 98.535L303.891 97.7739L304.525 96.2291L303.424 97.1183L302.881 94.2905L302.338 97.1183L301.236 96.2291L301.87 97.7739L299.854 98.535L301.87 99.2966L301.236 100.841L302.338 99.9517Z" fill="#9090A6"/>
<path d="M147.79 125.597L148.334 128.425L148.876 125.597L149.978 126.487L149.344 124.942L151.361 124.181L149.344 123.419L149.978 121.875L148.876 122.764L148.334 119.936L147.79 122.764L146.689 121.875L147.323 123.419L145.307 124.181L147.323 124.942L146.689 126.487L147.79 125.597Z" fill="#B1B0C9"/>
<path d="M207.578 124.439L208.531 129.4L209.483 124.439L211.415 125.999L210.303 123.289L213.841 121.954L210.303 120.618L211.415 117.909L209.483 119.469L208.531 114.509L207.578 119.469L205.646 117.909L206.759 120.618L203.221 121.954L206.759 123.289L205.646 125.999L207.578 124.439Z" fill="#D2D3DC"/>
<path d="M243.304 108.697L243.871 111.653L244.439 108.697L245.59 109.627L244.927 108.012L247.035 107.217L244.927 106.42L245.59 104.806L244.439 105.736L243.871 102.78L243.304 105.736L242.152 104.806L242.815 106.42L240.707 107.217L242.815 108.012L242.152 109.627L243.304 108.697Z" fill="#D2D3DC"/>
<path d="M179.112 112.295L180.175 117.826L181.237 112.295L183.391 114.034L182.15 111.013L186.095 109.524L182.15 108.035L183.391 105.014L181.237 106.754L180.175 101.222L179.112 106.754L176.958 105.014L178.198 108.035L174.254 109.524L178.198 111.013L176.958 114.034L179.112 112.295Z" fill="#D2D3DC"/>
<path d="M299.882 125.568L291.351 126.923L293.069 138.717L289.514 127.76L282.045 133.695L288.378 125.568L282.045 117.442L289.514 123.377L293.069 112.419L291.351 124.214L299.882 125.568Z" fill="#EEF0F7"/>
<path d="M298.301 134.112L290.237 126.506L286.806 139.255L289.473 126.152L279.766 125.516L289.478 125.023L286.909 111.881L290.244 124.68L298.364 117.194L290.713 125.597L298.301 134.112Z" fill="#EEF0F7"/>
<path d="M197.997 141.672L189.466 143.026L191.184 154.821L187.629 143.863L180.16 149.798L186.494 141.672L180.16 133.545L187.629 139.48L191.184 128.523L189.466 140.317L197.997 141.672Z" fill="#B1B0C9"/>
<path d="M196.416 150.215L188.353 142.609L184.921 155.358L187.589 142.255L177.881 141.619L187.593 141.127L185.024 127.985L188.359 140.784L196.479 133.297L188.829 141.7L196.416 150.215Z" fill="#B1B0C9"/>
<path d="M210.13 163.785L205.767 164.478L206.646 170.51L204.827 164.906L201.008 167.941L204.247 163.785L201.008 159.629L204.827 162.664L206.646 157.06L205.767 163.093L210.13 163.785Z" fill="#EEF0F7"/>
<path d="M209.323 168.155L205.199 164.265L203.445 170.785L204.809 164.083L199.844 163.758L204.811 163.506L203.497 156.785L205.203 163.331L209.356 159.502L205.443 163.8L209.323 168.155Z" fill="#EEF0F7"/>
<path d="M244.997 75.1699L238.665 76.1752L239.94 84.9292L237.301 76.7962L231.758 81.2016L236.459 75.1699L231.758 69.1381L237.301 73.5429L239.94 65.4099L238.665 74.1646L244.997 75.1699Z" fill="#B1B0C9"/>
<path d="M243.824 81.5109L237.839 75.8656L235.292 85.3286L237.272 75.6027L230.066 75.1306L237.275 74.7651L235.369 65.0103L237.844 74.5107L243.871 68.9538L238.192 75.1907L243.824 81.5109Z" fill="#B1B0C9"/>
<path d="M183.479 80.9561C184.315 86.3345 184.59 89.9794 184.663 91.8874C184.736 89.98 185.01 86.3345 185.847 80.9561C189.682 79.7831 192.282 79.3989 193.642 79.2963C192.282 79.1938 189.682 78.809 185.847 77.6359C185.01 72.2576 184.736 68.6133 184.663 66.7058C184.59 68.6133 184.315 72.2587 183.479 77.6365C179.643 78.8101 177.044 79.1943 175.684 79.2969C177.044 79.3983 179.643 79.7831 183.479 80.9561Z" fill="#B1B0C9"/>
<path d="M298.783 79.1597C299.063 80.96 299.155 82.1801 299.179 82.8187C299.204 82.1801 299.295 80.96 299.575 79.1597C300.859 78.7669 301.729 78.6383 302.185 78.6043C301.729 78.5697 300.859 78.4411 299.575 78.0484C299.295 76.2481 299.204 75.0285 299.179 74.3899C299.155 75.0285 299.063 76.2486 298.783 78.0484C297.499 78.4411 296.629 78.5697 296.174 78.6043C296.629 78.6383 297.499 78.7669 298.783 79.1597Z" fill="#EEF0F7"/>
<path d="M276.894 59.9492C277.174 61.7495 277.266 62.9696 277.29 63.6082C277.315 62.9696 277.407 61.7495 277.686 59.9492C278.97 59.5565 279.84 59.4279 280.296 59.3939C279.84 59.3593 278.97 59.2306 277.687 58.8379C277.407 57.0376 277.315 55.8181 277.29 55.1794C277.266 55.8181 277.174 57.0382 276.894 58.8379C275.61 59.2306 274.74 59.3593 274.285 59.3939C274.74 59.4279 275.61 59.5565 276.894 59.9492Z" fill="#B1B0C9"/>
<path d="M305.535 41.0424C305.903 43.4049 306.023 45.0058 306.055 45.8439C306.087 45.0058 306.208 43.4049 306.575 41.0424C308.26 40.5273 309.402 40.3584 309.999 40.3137C309.402 40.2689 308.26 40.0995 306.575 39.5844C306.208 37.2219 306.087 35.6216 306.055 34.7834C306.023 35.6216 305.903 37.2224 305.536 39.5844C303.851 40.1 302.709 40.2683 302.111 40.3137C302.709 40.3584 303.85 40.5273 305.535 41.0424Z" fill="#B1B0C9"/>
<path d="M218.24 31.4927C218.608 33.8552 218.728 35.4561 218.76 36.2942C218.792 35.4561 218.913 33.8552 219.28 31.4927C220.965 30.9776 222.107 30.8087 222.704 30.7634C222.107 30.7186 220.965 30.5492 219.281 30.0341C218.913 27.6716 218.792 26.0713 218.76 25.2332C218.728 26.0713 218.607 27.6721 218.24 30.0341C216.555 30.5498 215.414 30.7181 214.816 30.7634C215.414 30.8087 216.555 30.9776 218.24 31.4927Z" fill="#B1B0C9"/>
<path d="M215.435 141.081C215.664 142.553 215.739 143.55 215.759 144.072C215.779 143.55 215.854 142.553 216.083 141.081C217.133 140.76 217.844 140.655 218.216 140.627C217.844 140.599 217.133 140.494 216.084 140.173C215.854 138.701 215.78 137.704 215.759 137.182C215.74 137.704 215.665 138.701 215.436 140.173C214.386 140.494 213.675 140.599 213.303 140.628C213.675 140.655 214.386 140.76 215.435 141.081Z" fill="#B1B0C9"/>
<path d="M210.656 14.4098C210.885 15.8814 210.96 16.8788 210.98 17.4007C211 16.8788 211.075 15.8814 211.304 14.4098C212.353 14.089 213.065 13.9836 213.437 13.9558C213.065 13.9275 212.353 13.8227 211.304 13.5014C211.075 12.0297 211 11.0329 210.98 10.511C210.96 11.0329 210.885 12.0303 210.656 13.5014C209.607 13.8221 208.896 13.9275 208.523 13.9558C208.896 13.9836 209.607 14.0884 210.656 14.4098Z" fill="#B1B0C9"/>
<path d="M278.702 89.0289C279.349 93.1912 279.562 96.0116 279.618 97.4883C279.674 96.0121 279.887 93.1912 280.534 89.0289C283.502 88.1211 285.514 87.8236 286.567 87.7442C285.514 87.6649 283.502 87.3674 280.535 86.459C279.887 82.2967 279.675 79.4769 279.618 78.0007C279.562 79.4769 279.35 82.2979 278.703 86.4596C275.734 87.368 273.722 87.6649 272.67 87.7442C273.722 87.8236 275.734 88.1211 278.702 89.0289Z" fill="#9090A6"/>
<path d="M287.508 160.014C288.137 164.063 288.344 166.808 288.399 168.244C288.454 166.808 288.661 164.063 289.29 160.014C292.178 159.131 294.135 158.841 295.16 158.764C294.135 158.687 292.178 158.398 289.291 157.514C288.661 153.464 288.454 150.72 288.399 149.284C288.345 150.721 288.138 153.465 287.508 157.514C284.62 158.398 282.663 158.687 281.639 158.764C282.662 158.841 284.62 159.13 287.508 160.014Z" fill="#9090A6"/>
<path d="M231.545 19.1866C232.047 22.4178 232.212 24.6074 232.256 25.7533C232.3 24.6074 232.465 22.4172 232.967 19.1866C235.271 18.4822 236.833 18.251 237.65 18.1892C236.833 18.1275 235.271 17.8968 232.967 17.1919C232.465 13.9606 232.3 11.7716 232.256 10.6257C232.212 11.7716 232.047 13.9618 231.545 17.1919C229.24 17.8968 227.678 18.1275 226.861 18.1892C227.678 18.2504 229.24 18.4816 231.545 19.1866Z" fill="#EEF0F7"/>
<path d="M225.166 164.782C225.668 168.013 225.833 170.203 225.876 171.348C225.921 170.203 226.085 168.013 226.588 164.782C228.892 164.077 230.454 163.846 231.271 163.785C230.453 163.723 228.892 163.493 226.588 162.788C226.085 159.556 225.921 157.367 225.876 156.221C225.833 157.367 225.668 159.557 225.166 162.788C222.861 163.493 221.3 163.724 220.482 163.786C221.3 163.846 222.861 164.077 225.166 164.782Z" fill="#EEF0F7"/>
<path d="M262.902 56.3785L261.556 57.3101L261.34 59.3938L260.292 57.8859L258.812 58.2423L259.511 56.3785L258.812 54.5153L260.292 54.8711L261.34 53.3638L261.556 55.4469L262.902 56.3785Z" fill="#D2D3DC"/>
<path d="M270.06 6.78374L267.031 8.87989L266.545 13.5675L264.187 10.1753L260.857 10.9766L262.43 6.78374L260.857 2.59087L264.187 3.39158L266.545 0L267.031 4.68759L270.06 6.78374Z" fill="#9090A6"/>
<path d="M274.291 171.106L273.306 171.788L273.148 173.311L272.381 172.209L271.299 172.469L271.81 171.106L271.299 169.743L272.381 170.004L273.148 168.9L273.306 170.425L274.291 171.106Z" fill="#D2D3DC"/>
<path d="M301.347 20.1709L300.362 20.8526L300.204 22.3764L299.438 21.2736L298.355 21.5337L298.867 20.1709L298.355 18.808L299.438 19.0681L300.204 17.9653L300.362 19.4891L301.347 20.1709Z" fill="#D2D3DC"/>
<path d="M289.43 70.5575L289.062 68.6438L288.695 70.5575L287.949 69.9557L288.378 71.0012L287.014 71.5163L288.378 72.0314L287.949 73.0769L288.695 72.4751L289.062 74.3888L289.43 72.4751L290.175 73.0769L289.746 72.0314L291.111 71.5163L289.746 71.0012L290.175 69.9557L289.43 70.5575Z" fill="#B1B0C9"/>
<path d="M153.443 30.8417L153.076 28.928L152.709 30.8417L151.963 30.2398L152.392 31.2848L151.027 31.8005L152.392 32.3156L151.963 33.3611L152.709 32.7593L153.076 34.673L153.443 32.7593L154.189 33.3611L153.76 32.3156L155.125 31.8005L153.76 31.2848L154.189 30.2398L153.443 30.8417Z" fill="#B1B0C9"/>
<path d="M270.428 104.696L270.06 102.782L269.693 104.696L268.947 104.094L269.376 105.14L268.012 105.655L269.376 106.17L268.947 107.215L269.693 106.614L270.06 108.527L270.428 106.614L271.173 107.215L270.744 106.17L272.109 105.655L270.744 105.14L271.173 104.094L270.428 104.696Z" fill="#B1B0C9"/>
<path d="M152.736 64.2893L151.431 57.4897L150.125 64.2893L147.476 62.1513L149.001 65.8647L144.152 67.6957L149.001 69.5261L147.476 73.2401L150.125 71.102L151.431 77.901L152.736 71.102L155.385 73.2401L153.86 69.5261L158.709 67.6957L153.86 65.8647L155.385 62.1513L152.736 64.2893Z" fill="#D2D3DC"/>
<path d="M239.997 129.55L238.377 121.115L236.758 129.55L233.471 126.897L235.364 131.505L229.348 133.776L235.364 136.048L233.471 140.655L236.758 138.003L238.377 146.438L239.997 138.003L243.283 140.655L241.391 136.048L247.407 133.776L241.391 131.505L243.283 126.897L239.997 129.55Z" fill="#D2D3DC"/>
<path d="M201.726 99.3442L201.159 96.3884L200.591 99.3442L199.439 98.4143L200.103 100.029L197.994 100.825L200.103 101.621L199.439 103.235L200.591 102.306L201.159 105.262L201.726 102.306L202.877 103.235L202.215 101.621L204.323 100.825L202.215 100.029L202.877 98.4143L201.726 99.3442Z" fill="#EEF0F7"/>
<path d="M205.659 64.9246L204.596 59.3938L203.534 64.9246L201.38 63.1854L202.621 66.2064L198.676 67.6957L202.621 69.1849L201.38 72.2059L203.534 70.4667L204.596 75.9975L205.659 70.4667L207.813 72.2059L206.573 69.1849L210.517 67.6957L206.573 66.2064L207.813 63.1854L205.659 64.9246Z" fill="#B1B0C9"/>
<path d="M215.197 58.5179L220.917 57.6095L219.766 49.7009L222.149 57.0485L227.158 53.0687L222.911 58.5179L227.158 63.9671L222.149 59.9873L219.766 67.3349L220.917 59.4263L215.197 58.5179Z" fill="#D2D3DC"/>
<path d="M216.257 52.7887L221.665 57.8894L223.965 49.3398L222.177 58.1268L228.686 58.5529L222.174 58.8827L223.896 67.6958L221.66 59.1128L216.215 64.1331L221.345 58.4985L216.257 52.7887Z" fill="#D2D3DC"/>
<path d="M198.103 36.4872C197.267 31.1088 196.992 27.4639 196.919 25.5559C196.846 27.4634 196.571 31.1088 195.735 36.4872C191.9 37.6602 189.3 38.0444 187.939 38.147C189.3 38.2496 191.9 38.6343 195.735 39.8079C196.571 45.1863 196.846 48.8306 196.919 50.7381C196.991 48.8306 197.266 45.1852 198.103 39.8079C201.938 38.6343 204.538 38.2501 205.898 38.1476C204.538 38.0444 201.938 37.6596 198.103 36.4872Z" fill="#EEF0F7"/>
<path d="M181.838 24.4789C181.459 22.0343 181.333 20.3773 181.301 19.5103C181.267 20.3773 181.143 22.0343 180.762 24.4789C179.019 25.0122 177.837 25.1867 177.219 25.2332C177.837 25.2796 179.019 25.4547 180.762 25.988C181.142 28.4326 181.267 30.089 181.3 30.9561C181.333 30.089 181.458 28.4321 181.838 25.9874C183.582 25.4542 184.763 25.2796 185.382 25.2326C184.764 25.1867 183.582 25.0122 181.838 24.4789Z" fill="#B1B0C9"/>
<path d="M191.41 169.772C191.163 168.181 191.082 167.103 191.06 166.539C191.038 167.103 190.958 168.181 190.71 169.772C189.576 170.119 188.807 170.233 188.404 170.263C188.807 170.293 189.576 170.407 190.71 170.754C190.957 172.345 191.038 173.423 191.06 173.987C191.082 173.423 191.163 172.345 191.41 170.754C192.545 170.406 193.314 170.293 193.716 170.262C193.314 170.233 192.545 170.119 191.41 169.772Z" fill="#9090A6"/>
<path d="M163.412 86.7476C162.91 83.5164 162.744 81.3267 162.701 80.1809C162.657 81.3267 162.492 83.5164 161.99 86.7476C159.685 87.452 158.124 87.6832 157.307 87.7444C158.124 87.8062 159.686 88.0368 161.989 88.7418C162.492 91.973 162.657 94.1621 162.701 95.3079C162.745 94.1621 162.91 91.9718 163.412 88.7418C165.716 88.0368 167.278 87.8062 168.095 87.7444C167.278 87.6832 165.716 87.4525 163.412 86.7476Z" fill="#B1B0C9"/>
<path d="M122.568 39.9341L127.066 36.8213L127.788 29.8613L131.289 34.898L136.232 33.7091L133.898 39.9341L136.232 46.1591L131.289 44.9702L127.788 50.0068L127.066 43.0469L122.568 39.9341Z" fill="#9090A6"/>
<path d="M236.359 161.856L242.879 167.227L249.73 162.743L248.101 173.095L253.26 180.846L245.735 181.874L242.072 191.149L239.05 181.431L231.627 179.412L237.285 172.379L236.359 161.856Z" fill="#B1B0C9"/>
<path d="M232.256 41.4838L233.24 40.8021L233.398 39.2783L234.165 40.3811L235.248 40.121L234.736 41.4838L235.248 42.8467L234.165 42.5866L233.398 43.6894L233.24 42.1656L232.256 41.4838Z" fill="#EEF0F7"/>
<path d="M303.609 171.106L302.624 171.788L302.467 173.311L301.7 172.209L300.617 172.469L301.128 171.106L300.617 169.743L301.7 170.004L302.467 168.9L302.624 170.425L303.609 171.106Z" fill="#D2D3DC"/>
<path d="M296.283 46.5403L294.698 47.6369L294.444 50.0895L293.211 48.3146L291.469 48.734L292.291 46.5403L291.469 44.3467L293.211 44.7655L294.444 42.9912L294.698 45.4432L296.283 46.5403Z" fill="#D2D3DC"/>
<path d="M156.445 101.222L154.861 102.319L154.607 104.771L153.373 102.997L151.631 103.416L152.453 101.222L151.631 99.0289L153.373 99.4477L154.607 97.6729L154.861 100.125L156.445 101.222Z" fill="#9090A6"/>
<path d="M203.222 26.3473C203.661 26.3473 204.017 25.8485 204.017 25.2332C204.017 24.6179 203.661 24.1191 203.222 24.1191C202.783 24.1191 202.428 24.6179 202.428 25.2332C202.428 25.8485 202.783 26.3473 203.222 26.3473Z" fill="#9090A6"/>
<path d="M145.308 142.786C145.747 142.786 146.103 142.287 146.103 141.672C146.103 141.057 145.747 140.558 145.308 140.558C144.869 140.558 144.514 141.057 144.514 141.672C144.514 142.287 144.869 142.786 145.308 142.786Z" fill="#D2D3DC"/>
<path d="M160.656 123.068C161.095 123.068 161.45 122.569 161.45 121.954C161.45 121.339 161.095 120.84 160.656 120.84C160.217 120.84 159.861 121.339 159.861 121.954C159.861 122.569 160.217 123.068 160.656 123.068Z" fill="#9090A6"/>
<path d="M203.222 146.438C203.222 147.053 202.866 147.552 202.427 147.552C201.988 147.552 201.633 147.053 201.633 146.438C201.633 145.822 201.988 145.323 202.427 145.323C202.866 145.323 203.222 145.822 203.222 146.438Z" fill="#9090A6"/>
<path d="M215.308 171.349C215.747 171.349 216.103 170.85 216.103 170.234C216.103 169.619 215.747 169.12 215.308 169.12C214.869 169.12 214.514 169.619 214.514 170.234C214.514 170.85 214.869 171.349 215.308 171.349Z" fill="#9090A6"/>
<path d="M258.812 172.463C259.251 172.463 259.607 171.964 259.607 171.349C259.607 170.734 259.251 170.235 258.812 170.235C258.373 170.235 258.018 170.734 258.018 171.349C258.018 171.964 258.373 172.463 258.812 172.463Z" fill="#9090A6"/>
<path d="M174.755 145.186C175.194 145.186 175.55 144.687 175.55 144.072C175.55 143.456 175.194 142.958 174.755 142.958C174.317 142.958 173.961 143.456 173.961 144.072C173.961 144.687 174.317 145.186 174.755 145.186Z" fill="#9090A6"/>
<path d="M198.677 178.395C199.116 178.395 199.472 177.896 199.472 177.281C199.472 176.665 199.116 176.167 198.677 176.167C198.239 176.167 197.883 176.665 197.883 177.281C197.883 177.896 198.239 178.395 198.677 178.395Z" fill="#D2D3DC"/>
<path d="M158.39 177.281C158.829 177.281 159.185 176.782 159.185 176.167C159.185 175.551 158.829 175.052 158.39 175.052C157.951 175.052 157.596 175.551 157.596 176.167C157.596 176.782 157.951 177.281 158.39 177.281Z" fill="#9090A6"/>
<path d="M169.146 71.5162C169.146 72.1316 168.79 72.6303 168.351 72.6303C167.912 72.6303 167.557 72.1316 167.557 71.5162C167.557 70.9008 167.912 70.4021 168.351 70.4021C168.79 70.4021 169.146 70.9008 169.146 71.5162Z" fill="#9090A6"/>
<path d="M191.343 65.0668C191.782 65.0668 192.138 64.568 192.138 63.9527C192.138 63.3374 191.782 62.8386 191.343 62.8386C190.905 62.8386 190.549 63.3374 190.549 63.9527C190.549 64.568 190.905 65.0668 191.343 65.0668Z" fill="#9090A6"/>
<path d="M193.644 116.218C194.083 116.218 194.439 115.719 194.439 115.104C194.439 114.488 194.083 113.99 193.644 113.99C193.205 113.99 192.85 114.488 192.85 115.104C192.85 115.719 193.205 116.218 193.644 116.218Z" fill="#D2D3DC"/>
<path d="M226.861 121.05C227.3 121.05 227.655 120.552 227.655 119.936C227.655 119.321 227.3 118.822 226.861 118.822C226.422 118.822 226.066 119.321 226.066 119.936C226.066 120.552 226.422 121.05 226.861 121.05Z" fill="#9090A6"/>
<path d="M171.316 94.7841C171.755 94.7841 172.111 94.2853 172.111 93.67C172.111 93.0547 171.755 92.5559 171.316 92.5559C170.877 92.5559 170.521 93.0547 170.521 93.67C170.521 94.2853 170.877 94.7841 171.316 94.7841Z" fill="#9090A6"/>
<path d="M210.13 47.6545C210.569 47.6545 210.925 47.1557 210.925 46.5404C210.925 45.9251 210.569 45.4263 210.13 45.4263C209.692 45.4263 209.336 45.9251 209.336 46.5404C209.336 47.1557 209.692 47.6545 210.13 47.6545Z" fill="#D2D3DC"/>
<path d="M221.179 18.5141C221.618 18.5141 221.974 18.0153 221.974 17.4C221.974 16.7847 221.618 16.2859 221.179 16.2859C220.74 16.2859 220.385 16.7847 220.385 17.4C220.385 18.0153 220.74 18.5141 221.179 18.5141Z" fill="#9090A6"/>
<path d="M196.06 88.8591C196.499 88.8591 196.855 88.3603 196.855 87.745C196.855 87.1297 196.499 86.6309 196.06 86.6309C195.621 86.6309 195.266 87.1297 195.266 87.745C195.266 88.3603 195.621 88.8591 196.06 88.8591Z" fill="#9090A6"/>
<path d="M146.216 86.8551C146.655 86.8551 147.011 86.3563 147.011 85.741C147.011 85.1258 146.655 84.627 146.216 84.627C145.778 84.627 145.422 85.1258 145.422 85.741C145.422 86.3563 145.778 86.8551 146.216 86.8551Z" fill="#9090A6"/>
<path d="M120.332 16.3146C120.77 16.3146 121.126 15.8158 121.126 15.2005C121.126 14.5852 120.77 14.0864 120.332 14.0864C119.893 14.0864 119.537 14.5852 119.537 15.2005C119.537 15.8158 119.893 16.3146 120.332 16.3146Z" fill="#D2D3DC"/>
<path d="M112.525 78.0008C112.525 78.6162 112.169 79.1149 111.73 79.1149C111.291 79.1149 110.936 78.6162 110.936 78.0008C110.936 77.3854 111.291 76.8867 111.73 76.8867C112.169 76.8867 112.525 77.3854 112.525 78.0008Z" fill="#9090A6"/>
<path d="M122.57 59.7187C123.009 59.7187 123.364 59.2199 123.364 58.6046C123.364 57.9893 123.009 57.4905 122.57 57.4905C122.131 57.4905 121.775 57.9893 121.775 58.6046C121.775 59.2199 122.131 59.7187 122.57 59.7187Z" fill="#9090A6"/>
<path d="M116.771 152.874C117.21 152.874 117.566 152.375 117.566 151.76C117.566 151.145 117.21 150.646 116.771 150.646C116.332 150.646 115.977 151.145 115.977 151.76C115.977 152.375 116.332 152.874 116.771 152.874Z" fill="#9090A6"/>
<path d="M128.332 115.623C128.77 115.623 129.126 115.124 129.126 114.509C129.126 113.893 128.77 113.395 128.332 113.395C127.893 113.395 127.537 113.893 127.537 114.509C127.537 115.124 127.893 115.623 128.332 115.623Z" fill="#9090A6"/>
<path d="M133.17 159.878C133.608 159.878 133.964 159.38 133.964 158.764C133.964 158.149 133.608 157.65 133.17 157.65C132.731 157.65 132.375 158.149 132.375 158.764C132.375 159.38 132.731 159.878 133.17 159.878Z" fill="#9090A6"/>
<path d="M33.6461 152.874C34.0849 152.874 34.4406 152.375 34.4406 151.76C34.4406 151.145 34.0849 150.646 33.6461 150.646C33.2073 150.646 32.8516 151.145 32.8516 151.76C32.8516 152.375 33.2073 152.874 33.6461 152.874Z" fill="#9090A6"/>
<path d="M56.5367 28.2587C56.9755 28.2587 57.3313 27.7599 57.3313 27.1446C57.3313 26.5293 56.9755 26.0305 56.5367 26.0305C56.0979 26.0305 55.7422 26.5293 55.7422 27.1446C55.7422 27.7599 56.0979 28.2587 56.5367 28.2587Z" fill="#9090A6"/>
<path d="M99.3277 7.82316C99.7666 7.82316 100.122 7.32436 100.122 6.70907C100.122 6.09377 99.7666 5.59497 99.3277 5.59497C98.8889 5.59497 98.5332 6.09377 98.5332 6.70907C98.5332 7.32436 98.8889 7.82316 99.3277 7.82316Z" fill="#9090A6"/>
<path d="M9.2711 2.45036C9.70991 2.45036 10.0656 1.95156 10.0656 1.33626C10.0656 0.720967 9.70991 0.222168 9.2711 0.222168C8.83229 0.222168 8.47656 0.720967 8.47656 1.33626C8.47656 1.95156 8.83229 2.45036 9.2711 2.45036Z" fill="#9090A6"/>
<path d="M27.1949 40.3925C27.6337 40.3925 27.9895 39.8937 27.9895 39.2784C27.9895 38.6631 27.6337 38.1643 27.1949 38.1643C26.7561 38.1643 26.4004 38.6631 26.4004 39.2784C26.4004 39.8937 26.7561 40.3925 27.1949 40.3925Z" fill="#9090A6"/>
<path d="M87.8492 38.6857C88.288 38.6857 88.6438 38.1869 88.6438 37.5716C88.6438 36.9563 88.288 36.4575 87.8492 36.4575C87.4104 36.4575 87.0547 36.9563 87.0547 37.5716C87.0547 38.1869 87.4104 38.6857 87.8492 38.6857Z" fill="#9090A6"/>
<path d="M45.775 60.508C46.2138 60.508 46.5695 60.0092 46.5695 59.3939C46.5695 58.7786 46.2138 58.2798 45.775 58.2798C45.3362 58.2798 44.9805 58.7786 44.9805 59.3939C44.9805 60.0092 45.3362 60.508 45.775 60.508Z" fill="#9090A6"/>
<path d="M8.05626 54.5085C8.49507 54.5085 8.8508 54.0097 8.8508 53.3944C8.8508 52.7791 8.49507 52.2803 8.05626 52.2803C7.61745 52.2803 7.26172 52.7791 7.26172 53.3944C7.26172 54.0097 7.61745 54.5085 8.05626 54.5085Z" fill="#9090A6"/>
<path d="M11.7125 97.7768C12.1513 97.7768 12.507 97.278 12.507 96.6627C12.507 96.0474 12.1513 95.5486 11.7125 95.5486C11.2737 95.5486 10.918 96.0474 10.918 96.6627C10.918 97.278 11.2737 97.7768 11.7125 97.7768Z" fill="#D2D3DC"/>
<path d="M41.6578 107.759C42.0966 107.759 42.4524 107.26 42.4524 106.645C42.4524 106.03 42.0966 105.531 41.6578 105.531C41.219 105.531 40.8633 106.03 40.8633 106.645C40.8633 107.26 41.219 107.759 41.6578 107.759Z" fill="#D2D3DC"/>
<path d="M50.6949 162.411C51.1337 162.411 51.4895 161.912 51.4895 161.297C51.4895 160.682 51.1337 160.183 50.6949 160.183C50.2561 160.183 49.9004 160.682 49.9004 161.297C49.9004 161.912 50.2561 162.411 50.6949 162.411Z" fill="#9090A6"/>
<path d="M11.5738 172.936C12.0126 172.936 12.3684 172.437 12.3684 171.822C12.3684 171.207 12.0126 170.708 11.5738 170.708C11.135 170.708 10.7793 171.207 10.7793 171.822C10.7793 172.437 11.135 172.936 11.5738 172.936Z" fill="#9090A6"/>
<path d="M60.6422 84.8725C61.081 84.8725 61.4367 84.3737 61.4367 83.7584C61.4367 83.1431 61.081 82.6443 60.6422 82.6443C60.2034 82.6443 59.8477 83.1431 59.8477 83.7584C59.8477 84.3737 60.2034 84.8725 60.6422 84.8725Z" fill="#9090A6"/>
<path d="M73.3981 58.6037C73.8369 58.6037 74.1926 58.1049 74.1926 57.4896C74.1926 56.8743 73.8369 56.3755 73.3981 56.3755C72.9592 56.3755 72.6035 56.8743 72.6035 57.4896C72.6035 58.1049 72.9592 58.6037 73.3981 58.6037Z" fill="#9090A6"/>
<path d="M105.935 41.9679C106.374 41.9679 106.73 41.4691 106.73 40.8538C106.73 40.2385 106.374 39.7397 105.935 39.7397C105.496 39.7397 105.141 40.2385 105.141 40.8538C105.141 41.4691 105.496 41.9679 105.935 41.9679Z" fill="#9090A6"/>
<path d="M94.4 144.182C94.8388 144.182 95.1946 143.683 95.1946 143.068C95.1946 142.452 94.8388 141.954 94.4 141.954C93.9612 141.954 93.6055 142.452 93.6055 143.068C93.6055 143.683 93.9612 144.182 94.4 144.182Z" fill="#9090A6"/>
<path d="M76.2457 113.35C76.6845 113.35 77.0402 112.851 77.0402 112.236C77.0402 111.621 76.6845 111.122 76.2457 111.122C75.8069 111.122 75.4512 111.621 75.4512 112.236C75.4512 112.851 75.8069 113.35 76.2457 113.35Z" fill="#9090A6"/>
<path d="M107.732 117.517C107.732 118.133 107.376 118.631 106.937 118.631C106.498 118.631 106.143 118.133 106.143 117.517C106.143 116.902 106.498 116.403 106.937 116.403C107.376 116.403 107.732 116.902 107.732 117.517Z" fill="#D2D3DC"/>
<path d="M61.5777 175.102C62.0166 175.102 62.3723 174.603 62.3723 173.988C62.3723 173.372 62.0166 172.874 61.5777 172.874C61.1389 172.874 60.7832 173.372 60.7832 173.988C60.7832 174.603 61.1389 175.102 61.5777 175.102Z" fill="#D2D3DC"/>
<path d="M75.4508 155.935C75.8896 155.935 76.2453 155.436 76.2453 154.821C76.2453 154.205 75.8896 153.707 75.4508 153.707C75.012 153.707 74.6562 154.205 74.6562 154.821C74.6562 155.436 75.012 155.935 75.4508 155.935Z" fill="#9090A6"/>
<path d="M241.24 26.3471C241.679 26.3471 242.034 25.8483 242.034 25.233C242.034 24.6177 241.679 24.1189 241.24 24.1189C240.801 24.1189 240.445 24.6177 240.445 25.233C240.445 25.8483 240.801 26.3471 241.24 26.3471Z" fill="#9090A6"/>
<path d="M256.027 18.5141C256.466 18.5141 256.822 18.0153 256.822 17.4C256.822 16.7847 256.466 16.2859 256.027 16.2859C255.588 16.2859 255.232 16.7847 255.232 17.4C255.232 18.0153 255.588 18.5141 256.027 18.5141Z" fill="#9090A6"/>
<path d="M299.921 74.8591C300.36 74.8591 300.716 74.3603 300.716 73.745C300.716 73.1297 300.36 72.6309 299.921 72.6309C299.483 72.6309 299.127 73.1297 299.127 73.745C299.127 74.3603 299.483 74.8591 299.921 74.8591Z" fill="#9090A6"/>
<path d="M284.955 29.0282C285.394 29.0282 285.749 28.5294 285.749 27.9141C285.749 27.2988 285.394 26.8 284.955 26.8C284.516 26.8 284.16 27.2988 284.16 27.9141C284.16 28.5294 284.516 29.0282 284.955 29.0282Z" fill="#D2D3DC"/>
<path d="M302.906 112.996C303.345 112.996 303.7 112.497 303.7 111.881C303.7 111.266 303.345 110.767 302.906 110.767C302.467 110.767 302.111 111.266 302.111 111.881C302.111 112.497 302.467 112.996 302.906 112.996Z" fill="#9090A6"/>
<path d="M303.609 153.988C304.048 153.988 304.404 153.489 304.404 152.874C304.404 152.259 304.048 151.76 303.609 151.76C303.17 151.76 302.814 152.259 302.814 152.874C302.814 153.489 303.17 153.988 303.609 153.988Z" fill="#D2D3DC"/>
<path d="M270.062 73.745C270.501 73.745 270.857 73.2462 270.857 72.6309C270.857 72.0156 270.501 71.5168 270.062 71.5168C269.623 71.5168 269.268 72.0156 269.268 72.6309C269.268 73.2462 269.623 73.745 270.062 73.745Z" fill="#D2D3DC"/>
<path d="M239.652 95.8981C240.091 95.8981 240.447 95.3993 240.447 94.784C240.447 94.1687 240.091 93.6699 239.652 93.6699C239.213 93.6699 238.857 94.1687 238.857 94.784C238.857 95.3993 239.213 95.8981 239.652 95.8981Z" fill="#D2D3DC"/>
<path d="M255.232 101.939C255.671 101.939 256.027 101.44 256.027 100.825C256.027 100.21 255.671 99.7109 255.232 99.7109C254.793 99.7109 254.438 100.21 254.438 100.825C254.438 101.44 254.793 101.939 255.232 101.939Z" fill="#9090A6"/>
<path d="M249.662 150.398C250.101 150.398 250.456 149.899 250.456 149.284C250.456 148.668 250.101 148.17 249.662 148.17C249.223 148.17 248.867 148.668 248.867 149.284C248.867 149.899 249.223 150.398 249.662 150.398Z" fill="#9090A6"/>
<path d="M270.855 125.295C271.294 125.295 271.65 124.796 271.65 124.181C271.65 123.565 271.294 123.067 270.855 123.067C270.416 123.067 270.061 123.565 270.061 124.181C270.061 124.796 270.416 125.295 270.855 125.295Z" fill="#9090A6"/>
<path d="M282.599 175.35C283.038 175.35 283.394 174.851 283.394 174.236C283.394 173.621 283.038 173.122 282.599 173.122C282.16 173.122 281.805 173.621 281.805 174.236C281.805 174.851 282.16 175.35 282.599 175.35Z" fill="#9090A6"/>
<path d="M245.935 58.6037C246.374 58.6037 246.73 58.1049 246.73 57.4896C246.73 56.8743 246.374 56.3755 245.935 56.3755C245.496 56.3755 245.141 56.8743 245.141 57.4896C245.141 58.1049 245.496 58.6037 245.935 58.6037Z" fill="#9090A6"/>
<path d="M215.199 77.5275C215.638 77.5275 215.993 77.0287 215.993 76.4134C215.993 75.7981 215.638 75.2993 215.199 75.2993C214.76 75.2993 214.404 75.7981 214.404 76.4134C214.404 77.0287 214.76 77.5275 215.199 77.5275Z" fill="#9090A6"/>
<path d="M210.13 103.896C210.569 103.896 210.925 103.398 210.925 102.782C210.925 102.167 210.569 101.668 210.13 101.668C209.692 101.668 209.336 102.167 209.336 102.782C209.336 103.398 209.692 103.896 210.13 103.896Z" fill="#9090A6"/>
<path d="M163.496 22.9123C163.935 22.9123 164.29 22.4135 164.29 21.7982C164.29 21.1829 163.935 20.6841 163.496 20.6841C163.057 20.6841 162.701 21.1829 162.701 21.7982C162.701 22.4135 163.057 22.9123 163.496 22.9123Z" fill="#B1B0C9"/>
<path d="M228.036 145.324C228.036 145.939 227.681 146.438 227.242 146.438C226.803 146.438 226.447 145.939 226.447 145.324C226.447 144.708 226.803 144.21 227.242 144.21C227.681 144.21 228.036 144.708 228.036 145.324Z" fill="#B1B0C9"/>
<path d="M183.869 164.899C184.308 164.899 184.663 164.401 184.663 163.785C184.663 163.17 184.308 162.671 183.869 162.671C183.43 162.671 183.074 163.17 183.074 163.785C183.074 164.401 183.43 164.899 183.869 164.899Z" fill="#B1B0C9"/>
<path d="M93.2184 84.8727C93.6572 84.8727 94.0129 84.3739 94.0129 83.7586C94.0129 83.1433 93.6572 82.6445 93.2184 82.6445C92.7796 82.6445 92.4238 83.1433 92.4238 83.7586C92.4238 84.3739 92.7796 84.8727 93.2184 84.8727Z" fill="#B1B0C9"/>
<path d="M183.869 11.424C184.308 11.424 184.663 10.9252 184.663 10.3099C184.663 9.6946 184.308 9.1958 183.869 9.1958C183.43 9.1958 183.074 9.6946 183.074 10.3099C183.074 10.9252 183.43 11.424 183.869 11.424Z" fill="#B1B0C9"/>
<path d="M109.298 175.102C109.737 175.102 110.093 174.603 110.093 173.988C110.093 173.372 109.737 172.874 109.298 172.874C108.86 172.874 108.504 173.372 108.504 173.988C108.504 174.603 108.86 175.102 109.298 175.102Z" fill="#B1B0C9"/>
<path d="M35.2301 6.70915C35.6689 6.70915 36.0246 6.21035 36.0246 5.59505C36.0246 4.97976 35.6689 4.48096 35.2301 4.48096C34.7913 4.48096 34.4355 4.97976 34.4355 5.59505C34.4355 6.21035 34.7913 6.70915 35.2301 6.70915Z" fill="#B1B0C9"/>
<path d="M19.6129 71.8478C20.0517 71.8478 20.4074 71.349 20.4074 70.7337C20.4074 70.1184 20.0517 69.6196 19.6129 69.6196C19.1741 69.6196 18.8184 70.1184 18.8184 70.7337C18.8184 71.349 19.1741 71.8478 19.6129 71.8478Z" fill="#B1B0C9"/>
<path d="M24.9078 118.941C25.3466 118.941 25.7024 118.442 25.7024 117.827C25.7024 117.212 25.3466 116.713 24.9078 116.713C24.469 116.713 24.1133 117.212 24.1133 117.827C24.1133 118.442 24.469 118.941 24.9078 118.941Z" fill="#B1B0C9"/>
<path d="M59.8473 127.578C60.2861 127.578 60.6418 127.079 60.6418 126.464C60.6418 125.849 60.2861 125.35 59.8473 125.35C59.4085 125.35 59.0527 125.849 59.0527 126.464C59.0527 127.079 59.4085 127.578 59.8473 127.578Z" fill="#B1B0C9"/>
<path d="M142.759 55.3383C143.198 55.3383 143.554 54.8395 143.554 54.2242C143.554 53.6089 143.198 53.1101 142.759 53.1101C142.321 53.1101 141.965 53.6089 141.965 54.2242C141.965 54.8395 142.321 55.3383 142.759 55.3383Z" fill="#B1B0C9"/>
<path d="M260.211 41.0483C260.649 41.0483 261.005 40.5495 261.005 39.9342C261.005 39.3189 260.649 38.8201 260.211 38.8201C259.772 38.8201 259.416 39.3189 259.416 39.9342C259.416 40.5495 259.772 41.0483 260.211 41.0483Z" fill="#B1B0C9"/>
<path d="M295.851 7.89811C296.29 7.89811 296.646 7.39932 296.646 6.78402C296.646 6.16872 296.29 5.66992 295.851 5.66992C295.412 5.66992 295.057 6.16872 295.057 6.78402C295.057 7.39932 295.412 7.89811 295.851 7.89811Z" fill="#B1B0C9"/>
<path d="M282.599 142.71C283.038 142.71 283.394 142.211 283.394 141.596C283.394 140.98 283.038 140.481 282.599 140.481C282.16 140.481 281.805 140.98 281.805 141.596C281.805 142.211 282.16 142.71 282.599 142.71Z" fill="#B1B0C9"/>
<path d="M290.959 98.4943C291.397 98.4943 291.753 97.9955 291.753 97.3802C291.753 96.7649 291.397 96.2661 290.959 96.2661C290.52 96.2661 290.164 96.7649 290.164 97.3802C290.164 97.9955 290.52 98.4943 290.959 98.4943Z" fill="#B1B0C9"/>
</g>
</svg>
