<svg width="1280" height="496" viewBox="0 0 1280 496" fill="none" xmlns="http://www.w3.org/2000/svg">
<g filter="url(#filter0_f_524_29222)">
<circle cx="636.5" cy="153.5" r="303.5" fill="#0762AF" fill-opacity="0.15"/>
</g>
<mask id="mask0_524_29222" style="mask-type:alpha" maskUnits="userSpaceOnUse" x="-337" y="1" width="1952" height="495">
<rect x="-337" y="1" width="1952" height="495" fill="url(#paint0_linear_524_29222)"/>
</mask>
<g mask="url(#mask0_524_29222)">
<g opacity="0.05">
<path d="M1609.92 4.50708H-331.917V543.095H1609.92V4.50708Z" fill="white"/>
<path d="M671.004 172.284L1423.64 543.095H1609.92V359.904L950.053 34.8026L671.004 172.284Z" fill="url(#paint1_linear_524_29222)"/>
<path d="M59.3268 4.50708L-331.917 197.265V326.243L321.115 4.50708H59.3268Z" fill="url(#paint2_linear_524_29222)"/>
<path d="M-331.917 4.50708V197.265L59.3268 4.50708H-331.917Z" fill="url(#paint3_linear_524_29222)"/>
<path d="M671.004 172.284L320.036 345.2L721.708 543.095H1423.64L671.004 172.284Z" fill="url(#paint4_linear_524_29222)"/>
<path d="M-81.636 543.095H721.708L320.036 345.199L-81.636 543.095Z" fill="url(#paint5_linear_524_29222)"/>
<path d="M671.004 172.284L950.053 34.8027L1011.54 4.50708H321.115L-331.917 326.243V543.095H-81.6359L320.036 345.199L671.004 172.284Z" fill="url(#paint6_linear_524_29222)"/>
<path d="M1609.92 359.904V4.50708H1011.54L950.053 34.8027L1609.92 359.904Z" fill="url(#paint7_linear_524_29222)"/>
</g>
</g>
<defs>
<filter id="filter0_f_524_29222" x="33" y="-450" width="1207" height="1207" filterUnits="userSpaceOnUse" color-interpolation-filters="sRGB">
<feFlood flood-opacity="0" result="BackgroundImageFix"/>
<feBlend mode="normal" in="SourceGraphic" in2="BackgroundImageFix" result="shape"/>
<feGaussianBlur stdDeviation="150" result="effect1_foregroundBlur_524_29222"/>
</filter>
<linearGradient id="paint0_linear_524_29222" x1="639" y1="380.266" x2="639" y2="544.598" gradientUnits="userSpaceOnUse">
<stop stop-color="#FF0000"/>
<stop offset="1" stop-color="#737373" stop-opacity="0"/>
</linearGradient>
<linearGradient id="paint1_linear_524_29222" x1="1123.24" y1="366.176" x2="1274.29" y2="59.5755" gradientUnits="userSpaceOnUse">
<stop stop-color="white"/>
<stop offset="0.43" stop-color="#3F97E1"/>
<stop offset="0.81" stop-color="#1672C0"/>
<stop offset="1" stop-color="#0762AF"/>
</linearGradient>
<linearGradient id="paint2_linear_524_29222" x1="-223.541" y1="317.452" x2="-112" y2="-138.745" gradientUnits="userSpaceOnUse">
<stop stop-color="white"/>
<stop offset="0.43" stop-color="#3F97E1"/>
<stop offset="0.81" stop-color="#1672C0"/>
<stop offset="1" stop-color="#0762AF"/>
</linearGradient>
<linearGradient id="paint3_linear_524_29222" x1="-106.671" y1="115.481" x2="-170.947" y2="-14.9807" gradientUnits="userSpaceOnUse">
<stop stop-color="white"/>
<stop offset="0.0001" stop-color="white"/>
<stop offset="0.43" stop-color="#3F97E1"/>
<stop offset="0.8101" stop-color="#1672C0"/>
<stop offset="1" stop-color="#0762AF"/>
</linearGradient>
<linearGradient id="paint4_linear_524_29222" x1="547.029" y1="284.119" x2="850.237" y2="899.544" gradientUnits="userSpaceOnUse">
<stop stop-color="white"/>
<stop offset="0.43" stop-color="#3F97E1"/>
<stop offset="0.81" stop-color="#1672C0"/>
<stop offset="1" stop-color="#0762AF"/>
</linearGradient>
<linearGradient id="paint5_linear_524_29222" x1="315.706" y1="547.624" x2="375.225" y2="290.912" gradientUnits="userSpaceOnUse">
<stop stop-color="white"/>
<stop offset="0.43" stop-color="#3F97E1"/>
<stop offset="0.81" stop-color="#1672C0"/>
<stop offset="1" stop-color="#0762AF"/>
</linearGradient>
<linearGradient id="paint6_linear_524_29222" x1="589.152" y1="-77.8154" x2="340.492" y2="921.338" gradientUnits="userSpaceOnUse">
<stop stop-color="white"/>
<stop offset="0.43" stop-color="#3F97E1"/>
<stop offset="0.81" stop-color="#1672C0"/>
<stop offset="1" stop-color="#0762AF"/>
</linearGradient>
<linearGradient id="paint7_linear_524_29222" x1="1339.89" y1="372.225" x2="1314.08" y2="-253.493" gradientUnits="userSpaceOnUse">
<stop stop-color="white"/>
<stop offset="0.43" stop-color="#3F97E1"/>
<stop offset="0.81" stop-color="#1672C0"/>
<stop offset="1" stop-color="#0762AF"/>
</linearGradient>
</defs>
</svg>
