<svg width="29" height="48" viewBox="0 0 29 48" fill="none" xmlns="http://www.w3.org/2000/svg">
<path d="M23.7536 0.898438H5.00539C2.73718 0.898438 0.898438 2.73718 0.898438 5.00539V42.9947C0.898438 45.2629 2.73718 47.1016 5.00539 47.1016H23.7536C26.0218 47.1016 27.8606 45.2629 27.8606 42.9947V5.00539C27.8606 2.73718 26.0218 0.898438 23.7536 0.898438Z" fill="#FFEABC"/>
<path d="M7.84668 0.898438H20.9119V2.95807C20.9119 3.43094 20.7241 3.88443 20.3897 4.2188C20.0553 4.55316 19.6019 4.741 19.129 4.741H9.63166C9.1588 4.741 8.70531 4.55316 8.37094 4.2188C8.03658 3.88443 7.84873 3.43094 7.84873 2.95807V0.898438H7.84668Z" fill="#F8AB02"/>
<path d="M19.9031 43.7221H8.85543C8.61716 43.7221 8.38865 43.6274 8.22016 43.4589C8.05168 43.2905 7.95703 43.062 7.95703 42.8237C7.95703 42.5854 8.05168 42.3569 8.22016 42.1884C8.38865 42.0199 8.61716 41.9253 8.85543 41.9253H19.9031C20.1414 41.9253 20.3699 42.0199 20.5384 42.1884C20.7069 42.3569 20.8015 42.5854 20.8015 42.8237C20.8015 43.062 20.7069 43.2905 20.5384 43.4589C20.3699 43.6274 20.1414 43.7221 19.9031 43.7221Z" fill="#F8AB02"/>
<path d="M0.898396 32.5993C1.01644 32.5994 1.13333 32.5762 1.2424 32.531C1.35146 32.4858 1.45055 32.4196 1.53399 32.3361C1.61743 32.2526 1.6836 32.1535 1.72869 32.0444C1.77378 31.9353 1.79693 31.8184 1.79679 31.7004V30.7763C1.79679 30.5381 1.70214 30.3095 1.53366 30.1411C1.36518 29.9726 1.13667 29.8779 0.898396 29.8779C0.660126 29.8779 0.431615 29.9726 0.263133 30.1411C0.0946516 30.3095 1.46692e-07 30.5381 1.46692e-07 30.7763V31.7004C-6.72946e-05 31.8184 0.0231203 31.9353 0.0682388 32.0444C0.113357 32.1534 0.179523 32.2525 0.262953 32.336C0.346384 32.4195 0.445445 32.4857 0.554477 32.5309C0.663509 32.576 0.780374 32.5993 0.898396 32.5993Z" fill="black"/>
<path d="M23.7536 0H5.00535C3.67831 0.00149465 2.40604 0.529322 1.46768 1.46768C0.529322 2.40604 0.00149465 3.67831 0 5.00535V25.6761C0 25.9144 0.0946514 26.1429 0.263133 26.3114C0.431615 26.4799 0.660126 26.5745 0.898396 26.5745C1.13666 26.5745 1.36518 26.4799 1.53366 26.3114C1.70214 26.1429 1.79679 25.9144 1.79679 25.6761V5.00535C1.79774 4.15468 2.13609 3.33912 2.73761 2.73761C3.33912 2.13609 4.15468 1.79774 5.00535 1.79679H6.94845V2.95803C6.94926 3.66891 7.23202 4.35045 7.73469 4.85312C8.23736 5.35578 8.91889 5.63854 9.62978 5.63936H19.1271C19.838 5.63854 20.5196 5.3558 21.0224 4.85315C21.5251 4.35049 21.808 3.66896 21.8089 2.95803V1.79679H23.7536C24.6043 1.79774 25.4198 2.13609 26.0213 2.73761C26.6228 3.33912 26.9612 4.15468 26.9621 5.00535V42.9947C26.9612 43.8453 26.6228 44.6609 26.0213 45.2624C25.4198 45.8639 24.6043 46.2023 23.7536 46.2032H5.00535C4.15468 46.2023 3.33912 45.8639 2.73761 45.2624C2.13609 44.6609 1.79774 43.8453 1.79679 42.9947V36.7983C1.79679 36.56 1.70214 36.3315 1.53366 36.163C1.36518 35.9945 1.13666 35.8999 0.898396 35.8999C0.660126 35.8999 0.431615 35.9945 0.263133 36.163C0.0946514 36.3315 0 36.56 0 36.7983V42.9947C0.00149465 44.3217 0.529322 45.594 1.46768 46.5323C2.40604 47.4707 3.67831 47.9985 5.00535 48H23.7536C25.0806 47.9985 26.3529 47.4707 27.2912 46.5323C28.2296 45.594 28.7574 44.3217 28.7589 42.9947V5.00535C28.7574 3.67831 28.2296 2.40604 27.2912 1.46768C26.3529 0.529322 25.0806 0.00149465 23.7536 0ZM20.0142 2.95803C20.0138 3.19259 19.9204 3.41742 19.7545 3.58322C19.5886 3.74903 19.3637 3.8423 19.1292 3.84257H9.63183C9.39732 3.8423 9.17249 3.74902 9.00667 3.58319C8.84084 3.41737 8.74757 3.19254 8.74729 2.95803V1.79679H20.0142V2.95803Z" fill="black"/>
<path d="M19.9031 43.7221C20.1414 43.7221 20.3699 43.6274 20.5384 43.4589C20.7069 43.2905 20.8015 43.062 20.8015 42.8237C20.8015 42.5854 20.7069 42.3569 20.5384 42.1884C20.3699 42.0199 20.1414 41.9253 19.9031 41.9253H8.85543C8.61716 41.9253 8.38865 42.0199 8.22016 42.1884C8.05168 42.3569 7.95703 42.5854 7.95703 42.8237C7.95703 43.062 8.05168 43.2905 8.22016 43.4589C8.38865 43.6274 8.61716 43.7221 8.85543 43.7221H19.9031Z" fill="black"/>
</svg>
