<svg width="49" height="48" viewBox="0 0 49 48" fill="none" xmlns="http://www.w3.org/2000/svg">
<path fill-rule="evenodd" clip-rule="evenodd" d="M32.0397 2.31371C30.7608 1.03594 28.687 1.03594 27.4082 2.31371C22.1746 7.54282 9.48437 20.2223 4.2508 25.4514C2.97193 26.7291 2.97193 28.8011 4.2508 30.0789L18.1452 43.9615C19.4241 45.2393 21.4978 45.2393 22.7767 43.9615L45.9341 20.8238C47.213 19.5461 47.213 17.4741 45.9341 16.1963C42.3748 12.64 35.5989 5.86997 32.0397 2.31371Z" fill="#F8AB02"/>
<path fill-rule="evenodd" clip-rule="evenodd" d="M6.56641 32.3926L34.3553 4.62739L38.9867 9.25492L11.1979 37.0201L6.56641 32.3926Z" fill="#E0E0E0"/>
<path fill-rule="evenodd" clip-rule="evenodd" d="M40.3742 24.2731C40.3742 22.4658 38.9076 21.0005 37.0987 21.0005C29.6962 21.0005 11.7468 21.0005 4.34429 21.0005C2.53543 21.0005 1.06885 22.4658 1.06885 24.2731V43.9091C1.06885 45.7164 2.53543 47.1817 4.34429 47.1817H37.0987C38.9076 47.1817 40.3742 45.7164 40.3742 43.9091C40.3742 38.879 40.3742 29.3032 40.3742 24.2731Z" fill="#FFEABC"/>
<path fill-rule="evenodd" clip-rule="evenodd" d="M1.06885 27.5454H40.3742V34.0907H1.06885V27.5454Z" fill="#E0E0E0"/>
<path fill-rule="evenodd" clip-rule="evenodd" d="M37.0987 39.0001C37.0987 38.096 36.3659 37.3638 35.461 37.3638H32.1856C31.2807 37.3638 30.5479 38.096 30.5479 39.0001V42.2727C30.5479 43.1768 31.2807 43.9091 32.1856 43.9091H35.461C36.3659 43.9091 37.0987 43.1768 37.0987 42.2727V39.0001Z" fill="#F8AB02"/>
<path fill-rule="evenodd" clip-rule="evenodd" d="M23.9969 42.2709C23.9969 41.3685 23.264 40.6362 22.3608 40.6362C18.6604 40.6362 9.68403 40.6362 5.98196 40.6362C5.54796 40.6362 5.13116 40.8089 4.82409 41.1157C4.51702 41.4225 4.34424 41.8389 4.34424 42.2726C4.34424 42.7062 4.51702 43.1226 4.82409 43.4294C5.13116 43.7363 5.54796 43.9089 5.98196 43.9089H22.3608C23.264 43.9089 23.9969 43.1766 23.9969 42.2742C23.9969 42.2734 23.9969 42.2717 23.9969 42.2709Z" fill="#F8AB02"/>
<path fill-rule="evenodd" clip-rule="evenodd" d="M1.88772 34.9092H39.5553V43.909C39.5553 45.2647 38.4556 46.3635 37.0987 46.3635H14.1706C13.7186 46.3635 13.3518 46.7301 13.3518 47.1817C13.3518 47.6333 13.7186 47.9999 14.1706 47.9999H37.0987C39.3596 47.9999 41.193 46.168 41.193 43.909V26.762L46.5451 21.4145C48.1435 19.8166 48.1435 17.2271 46.5451 15.6292L32.6482 1.74418C31.8801 0.977556 30.8394 0.546387 29.7527 0.546387C28.6669 0.546387 27.6261 0.977556 26.8581 1.74418L8.40422 20.1823H4.3443C2.08343 20.1823 0.25 22.0142 0.25 24.2731V43.909C0.25 44.9939 0.681531 46.0346 1.4488 46.8021C2.21689 47.5687 3.25849 47.9999 4.3443 47.9999H10.8952C11.3472 47.9999 11.7141 47.6333 11.7141 47.1817C11.7141 46.7301 11.3472 46.3635 10.8952 46.3635C10.8952 46.3635 7.20213 46.3635 4.3443 46.3635C3.69249 46.3635 3.0677 46.105 2.6075 45.6444C2.14648 45.1846 1.88772 44.5603 1.88772 43.909V34.9092ZM39.5553 33.2729V24.2731C39.5553 22.9174 38.4556 21.8186 37.0987 21.8186H4.3443C2.98745 21.8186 1.88772 22.9174 1.88772 24.2731V26.7276H37.0987C37.5507 26.7276 37.9176 27.0942 37.9176 27.5458C37.9176 27.9974 37.5507 28.3639 37.0987 28.3639H1.88772V33.2729H39.5553ZM39.0173 10.4224L29.2491 20.1823H37.0987C39.3596 20.1823 41.193 22.0142 41.193 24.2731V24.4474L45.3864 20.2576C46.3461 19.2987 46.3461 17.745 45.3864 16.7861L39.0173 10.4224ZM19.9854 20.1823H26.9334L37.8594 9.26555L34.385 5.79409L19.9854 20.1823ZM33.2272 4.6372L31.4904 2.90188C31.0293 2.44125 30.4045 2.18271 29.7527 2.18271C29.1017 2.18271 28.4769 2.44125 28.0159 2.90188L10.7208 20.1823H17.6688L33.2272 4.6372Z" fill="black"/>
<path fill-rule="evenodd" clip-rule="evenodd" d="M37.9176 39.0004C37.9176 37.6447 36.8179 36.5459 35.461 36.5459H32.1856C30.8287 36.5459 29.729 37.6447 29.729 39.0004V42.273C29.729 43.6287 30.8287 44.7275 32.1856 44.7275H35.461C36.8179 44.7275 37.9176 43.6287 37.9176 42.273V39.0004ZM36.2799 39.0004V42.273C36.2799 42.7247 35.913 43.0912 35.461 43.0912H32.1856C31.7336 43.0912 31.3667 42.7247 31.3667 42.273V39.0004C31.3667 38.5488 31.7336 38.1822 32.1856 38.1822H35.461C35.913 38.1822 36.2799 38.5488 36.2799 39.0004Z" fill="black"/>
<path fill-rule="evenodd" clip-rule="evenodd" d="M3.52539 42.2728C3.52539 42.9241 3.78415 43.5484 4.24517 44.0082C4.70537 44.4688 5.33016 44.7273 5.98197 44.7273H22.3608C23.7169 44.7273 24.8158 43.6294 24.8158 42.2745V42.2712C24.8158 40.9163 23.7169 39.8184 22.3608 39.8184H5.98197C5.33016 39.8184 4.70537 40.0769 4.24517 40.5375C3.78415 40.9973 3.52539 41.6216 3.52539 42.2728ZM23.1781 42.2745V42.2712C23.1781 41.8204 22.812 41.4547 22.3608 41.4547H5.98197C5.76498 41.4547 5.55616 41.5406 5.40304 41.6944C5.24909 41.8474 5.16311 42.056 5.16311 42.2728C5.16311 42.4897 5.24909 42.6983 5.40304 42.8513C5.55616 43.0051 5.76498 43.091 5.98197 43.091H22.3608C22.812 43.091 23.1781 42.7253 23.1781 42.2745Z" fill="black"/>
</svg>
