<svg width="48" height="48" viewBox="0 0 48 48" fill="none" xmlns="http://www.w3.org/2000/svg">
<g clip-path="url(#clip0_693_12502)">
<path d="M41.3874 16.6479H4.8416C3.93935 16.6479 3.20801 17.3793 3.20801 18.2815V22.6697H43.021V18.2815C43.021 17.3793 42.2896 16.6479 41.3874 16.6479Z" fill="#FFB125"/>
<path d="M28.1194 7.57617L24.8098 41.0804C24.7266 41.922 23.977 42.5369 23.1354 42.4538L6.36623 40.7973C5.52463 40.7141 4.90973 39.9645 4.99288 39.1229L8.30245 5.61867C8.38561 4.77708 9.13524 4.16217 9.97683 4.24533L26.746 5.9018C27.5876 5.98495 28.2025 6.73458 28.1194 7.57617Z" fill="#FFEABC"/>
<path d="M26.7463 5.9018L9.97714 4.24533C9.13555 4.16217 8.38583 4.77708 8.30277 5.61867L8.00586 8.62458C8.25739 8.4968 8.54652 8.43568 8.8482 8.46549L25.6174 10.122C26.459 10.2051 27.0739 10.9547 26.9907 11.7963L23.9781 42.2947C24.4285 42.0658 24.7569 41.6204 24.8102 41.0804L28.1198 7.57627C28.2028 6.73458 27.5879 5.98495 26.7463 5.9018Z" fill="#FFEABC"/>
<path d="M10.0801 10.3693L7.66568 34.8114C7.63108 35.1613 7.7959 35.5023 8.09421 35.6882C8.9164 36.2007 9.55296 36.9698 9.90284 37.8726C10.0286 38.197 10.329 38.4208 10.6752 38.455L19.3683 39.3138C19.7146 39.348 20.053 39.1873 20.2398 38.8937C20.7596 38.0768 21.5343 37.4472 22.4409 37.1054C22.7699 36.9814 22.9981 36.6792 23.0326 36.3294L25.4471 11.8873C25.4817 11.5374 25.3169 11.1964 25.0186 11.0105C24.1964 10.498 23.5598 9.72896 23.2099 8.82614C23.0842 8.50167 22.7837 8.27789 22.4375 8.24367L13.7444 7.38492C13.3981 7.3507 13.0598 7.51139 12.8729 7.80501C12.3532 8.62195 11.5784 9.25149 10.6719 9.5933C10.3429 9.71733 10.1146 10.0194 10.0801 10.3693Z" fill="#FFEABC"/>
<path d="M25.0186 11.0105C24.1964 10.498 23.5598 9.72896 23.21 8.82614C23.0842 8.50167 22.7838 8.27789 22.4376 8.24367L13.7445 7.38492C13.3982 7.3507 13.0598 7.51139 12.873 7.80501C12.3532 8.62195 11.5785 9.25149 10.6719 9.5933C10.3429 9.71733 10.1147 10.0195 10.0802 10.3693L9.98828 11.2997L21.2521 12.3777C21.5984 12.4119 21.8988 12.6357 22.0245 12.9601C22.3744 13.863 23.0109 14.6319 23.8331 15.1445C24.1314 15.3305 24.2962 15.6715 24.2617 16.0213L22.1676 37.2199C22.2575 37.179 22.3483 37.1404 22.441 37.1054C22.77 36.9814 22.9983 36.6792 23.0328 36.3294L25.4472 11.8873C25.4816 11.5375 25.3169 11.1965 25.0186 11.0105Z" fill="#FFEABC"/>
<path d="M42.3379 12.5678L23.3784 40.3891C22.9021 41.088 21.9495 41.2684 21.2506 40.7921L7.32583 31.3027C6.62693 30.8265 6.44655 29.8739 6.9228 29.175L25.8823 1.35367C26.3585 0.654758 27.3111 0.474382 28.01 0.950633L41.9348 10.44C42.6337 10.9163 42.8141 11.8689 42.3379 12.5678Z" fill="#FFEABC"/>
<path d="M41.9352 10.4401L28.0103 0.950608C27.3114 0.474358 26.3588 0.654827 25.8825 1.35364L24.2608 3.73349C24.4016 3.77755 24.5383 3.84233 24.6666 3.92961L38.5914 13.419C39.2903 13.8953 39.4707 14.8479 38.9944 15.5468L21.6567 40.9883C22.2834 41.1843 22.9899 40.9597 23.3787 40.3891L42.3382 12.5678C42.8145 11.8689 42.634 10.9163 41.9352 10.4401Z" fill="#FFEABC"/>
<path d="M25.1658 6.37497L11.3344 26.6713C11.1364 26.9619 11.1176 27.34 11.2903 27.6462C11.7664 28.4901 11.9566 29.4701 11.8311 30.4301C11.786 30.7751 11.9424 31.1156 12.2299 31.3116L19.4485 36.2308C19.736 36.4268 20.1101 36.4479 20.4147 36.2797C21.2623 35.8117 22.244 35.6304 23.2035 35.7648C23.5516 35.8136 23.8967 35.6578 24.0947 35.3672L37.9262 15.0709C38.1242 14.7803 38.1429 14.4021 37.9702 14.096C37.4942 13.2521 37.304 12.272 37.4295 11.312C37.4746 10.967 37.3182 10.6266 37.0307 10.4306L29.8121 5.51135C29.5246 5.31541 29.1505 5.29432 28.8459 5.4625C27.9983 5.9305 27.0166 6.11182 26.0571 5.97738C25.7089 5.92863 25.3637 6.08444 25.1658 6.37497Z" fill="#FFEABC"/>
<path d="M37.9706 14.096C37.4945 13.2521 37.3043 12.2721 37.4298 11.312C37.4749 10.967 37.3185 10.6266 37.031 10.4306L29.8124 5.51135C29.5249 5.31541 29.1508 5.29432 28.8462 5.4625C27.9986 5.9305 27.017 6.11182 26.0574 5.97738C25.7092 5.92863 25.3642 6.08444 25.1662 6.37497L24.5897 7.22088L33.6113 13.3021C33.8988 13.498 34.0553 13.8384 34.0101 14.1835C33.8845 15.1436 34.0748 16.1236 34.5508 16.9674C34.7235 17.2736 34.7048 17.6518 34.5068 17.9423L22.3872 35.7268C22.6589 35.7148 22.9323 35.7267 23.2039 35.7647C23.5521 35.8135 23.8971 35.6577 24.0951 35.3672L37.9266 15.0709C38.1245 14.7803 38.1433 14.4021 37.9706 14.096Z" fill="#FFEABC"/>
<path d="M26.7486 23.9444C29.4844 23.9444 31.7023 21.7266 31.7023 18.9908C31.7023 16.2549 29.4844 14.0371 26.7486 14.0371C24.0128 14.0371 21.7949 16.2549 21.7949 18.9908C21.7949 21.7266 24.0128 23.9444 26.7486 23.9444Z" fill="#FFEABC"/>
<path d="M41.9536 47.3161H3.791C2.48984 47.3161 1.43506 46.2614 1.43506 44.9602V21.645C1.43506 20.3438 2.48984 19.2891 3.791 19.2891H41.9536C43.2548 19.2891 44.3095 20.3438 44.3095 21.645V44.9602C44.3096 46.2613 43.2548 47.3161 41.9536 47.3161Z" fill="#FFEABC"/>
<path d="M41.9536 19.2891H37.6675C38.9686 19.2891 40.0234 20.3438 40.0234 21.6451V44.9603C40.0234 46.2615 38.9686 47.3162 37.6675 47.3162H41.9536C43.2547 47.3162 44.3095 46.2615 44.3095 44.9603V21.6451C44.3096 20.3438 43.2547 19.2891 41.9536 19.2891Z" fill="#FFEABC"/>
<path d="M45.7115 28.7988H37.1221C34.6349 28.7988 32.6187 30.8151 32.6187 33.3023C32.6187 35.7895 34.6349 37.8058 37.1221 37.8058H45.7115C46.183 37.8058 46.5651 37.4236 46.5651 36.9522V29.6523C46.5651 29.181 46.1829 28.7988 45.7115 28.7988Z" fill="#F8AB02"/>
<path d="M45.7114 28.7988H41.4102C41.8816 28.7988 42.2638 29.181 42.2638 29.6524V35.8012C42.2638 36.304 41.8561 36.7115 41.3535 36.7115H37.1221C34.8203 36.7115 32.9231 34.9842 32.6529 32.7552C32.6311 32.9346 32.6187 33.117 32.6187 33.3023C32.6187 35.7895 34.6349 37.8059 37.1222 37.8059H41.4103H45.7115C46.183 37.8059 46.5651 37.4238 46.5651 36.9523V35.8579V29.6524C46.5651 29.181 46.1829 28.7988 45.7114 28.7988Z" fill="#F8AB02"/>
<path d="M41.9536 19.2891H3.791C2.48984 19.2891 1.43506 20.3438 1.43506 21.645V24.2268H44.3096V21.645C44.3096 20.3438 43.2548 19.2891 41.9536 19.2891Z" fill="#F8AB02"/>
<path d="M43.9071 20.3279C43.8225 20.2026 43.726 20.0858 43.6194 19.9793C43.6182 19.978 43.6169 19.9768 43.6156 19.9756C43.51 19.8705 43.3946 19.7753 43.2706 19.6915C43.2393 19.6703 43.2075 19.6499 43.175 19.6302C43.1268 19.601 43.0771 19.574 43.0268 19.5481C42.9942 19.5313 42.9611 19.5154 42.9276 19.5001C42.6306 19.365 42.301 19.2891 41.9534 19.2891H37.6675C38.9685 19.2892 40.0232 20.3439 40.0232 21.6451V24.2269H44.3093V21.6452C44.3093 21.2386 44.2063 20.856 44.025 20.5222C43.9889 20.4554 43.9494 20.3905 43.9071 20.3279Z" fill="#F8AB02"/>
<path d="M3.79061 47.3161H41.9532C43.2544 47.3161 44.3092 46.2614 44.3092 44.9602V42.3784H1.43457V44.9602C1.43457 46.2613 2.48945 47.3161 3.79061 47.3161Z" fill="#F8AB02"/>
<path d="M40.0236 42.3784V44.9602C40.0236 44.9615 40.0236 44.9629 40.0236 44.9642C40.0232 45.1817 39.841 45.3555 39.6235 45.3555H3.791C2.48984 45.3555 1.43506 44.3008 1.43506 42.9996V44.9603C1.43506 46.2615 2.48984 47.3162 3.791 47.3162H37.6676H41.9537C42.0002 47.3162 42.0463 47.3146 42.0922 47.3118C42.1065 47.311 42.1207 47.3097 42.1349 47.3086C42.1669 47.3061 42.1987 47.3032 42.2303 47.2995C42.2459 47.2977 42.2616 47.2956 42.2772 47.2935C42.3086 47.2891 42.3398 47.2841 42.3708 47.2786C42.3846 47.2761 42.3984 47.2739 42.412 47.2711C42.4559 47.2625 42.4994 47.253 42.5423 47.242C42.5423 47.242 42.5424 47.242 42.5424 47.242C42.5613 47.2371 42.5798 47.2314 42.5983 47.2261C42.6915 47.1997 42.7826 47.1683 42.8707 47.1311C42.9059 47.1162 42.9407 47.1004 42.975 47.0839C43.0093 47.0674 43.0432 47.05 43.0766 47.0319L43.0767 47.0318C43.1434 46.9956 43.2082 46.9562 43.2708 46.914L43.2709 46.9139L43.271 46.9138C43.3243 46.8778 43.3757 46.8391 43.4258 46.799C43.4281 46.7971 43.4305 46.7953 43.4329 46.7934C43.4836 46.7524 43.5325 46.7092 43.5796 46.6642C43.6351 46.6112 43.688 46.5556 43.7381 46.4975C43.8165 46.4066 43.8881 46.3097 43.9521 46.2075C43.9539 46.2048 43.9556 46.2021 43.9573 46.1993C43.9809 46.1613 44.0036 46.1229 44.025 46.0835C44.025 46.0834 44.0251 46.0833 44.0252 46.0832V46.0831C44.0821 45.9782 44.131 45.8685 44.1718 45.7547C44.1765 45.7418 44.1806 45.7286 44.1851 45.7156C44.195 45.6865 44.2044 45.6572 44.2131 45.6276C44.2175 45.6126 44.2218 45.5975 44.2259 45.5824C44.234 45.5527 44.2415 45.5227 44.2484 45.4926C44.2516 45.4788 44.2551 45.4651 44.258 45.4513C44.2672 45.4078 44.2755 45.3641 44.2824 45.3197C44.2824 45.3195 44.2825 45.3193 44.2825 45.319C44.2825 45.3189 44.2825 45.3187 44.2825 45.3186C44.2903 45.2669 44.296 45.2144 44.3004 45.1616C44.3015 45.1482 44.3025 45.1349 44.3035 45.1215C44.307 45.0681 44.3095 45.0145 44.3095 44.9603V42.9997V42.3785H40.0236V42.3784Z" fill="#F8AB02"/>
<path d="M37.2824 35.3939C38.4372 35.3939 39.3734 34.4577 39.3734 33.3029C39.3734 32.1481 38.4372 31.2119 37.2824 31.2119C36.1276 31.2119 35.1914 32.1481 35.1914 33.3029C35.1914 34.4577 36.1276 35.3939 37.2824 35.3939Z" fill="#F2F2F2"/>
<path d="M45.7119 28.1151H44.9936V24.2268V21.645C44.9936 20.6207 44.4837 19.7138 43.7052 19.1627V18.2817C43.7052 17.0038 42.6656 15.9642 41.3876 15.9642H40.8513L42.9034 12.953C43.5912 11.9437 43.3297 10.5628 42.3204 9.87487L28.3956 0.385383C27.9067 0.0521012 27.3173 -0.070899 26.7357 0.039445C26.1544 0.149601 25.6507 0.479508 25.3175 0.968509L13.2986 18.6051H9.95406L10.761 10.4366C10.7701 10.3446 10.8299 10.2648 10.9133 10.2334C11.9529 9.8414 12.8538 9.1094 13.4501 8.17227C13.4971 8.09849 13.5857 8.0563 13.6773 8.06559L18.9231 8.58384C19.2993 8.62031 19.6339 8.34637 19.671 7.97043C19.7081 7.59449 19.4335 7.25971 19.0576 7.22258L13.8118 6.70433C13.2029 6.64471 12.6222 6.9253 12.2959 7.43793C11.8576 8.12699 11.1951 8.66512 10.4308 8.95331C9.85543 9.17024 9.46037 9.687 9.39962 10.3021L8.57949 18.605H7.70733L8.98346 5.68583C9.0294 5.22083 9.44443 4.8792 9.91 4.9258L20.5107 5.97299C20.8866 6.00927 21.2214 5.73552 21.2585 5.35958C21.2957 4.98364 21.0211 4.64886 20.6451 4.61174L10.0444 3.56455C8.82905 3.44464 7.74221 4.33573 7.62212 5.5513L6.59349 15.9641H4.84177C3.56395 15.9641 2.52426 17.0037 2.52426 18.2816V18.8826C1.47885 19.3639 0.750977 20.4206 0.750977 21.6449V24.2267V42.3783V44.96C0.750977 46.6363 2.11467 48 3.79101 48H41.9536C43.6299 48 44.9936 46.6363 44.9936 44.96V42.3783V38.4901H45.7119C46.5598 38.4901 47.2495 37.8003 47.2495 36.9525V29.6527C47.2496 28.8048 46.5598 28.1151 45.7119 28.1151ZM41.3876 17.332C41.9113 17.332 42.3372 17.758 42.3372 18.2817V18.6302C42.2114 18.6143 42.0837 18.6052 41.9536 18.6052H39.0516L39.9191 17.3321H41.3876V17.332ZM26.4478 1.73876C26.5753 1.55173 26.768 1.42554 26.9903 1.38335C27.0435 1.37332 27.0968 1.36826 27.1498 1.36826C27.3183 1.36826 27.4829 1.4187 27.6252 1.51564L41.55 11.005C41.9361 11.2682 42.0362 11.7964 41.7732 12.1824L37.3963 18.6049H36.346L38.4918 15.4561C38.8398 14.9454 38.8685 14.2956 38.5664 13.76C38.165 13.0484 38.0022 12.2106 38.1082 11.4007C38.1869 10.7981 37.9218 10.2099 37.4163 9.8655L30.1977 4.94624C29.6921 4.6017 29.0477 4.57011 28.5158 4.86383C27.8009 5.25852 26.9616 5.41349 26.1525 5.30024C25.5525 5.21605 24.944 5.48699 24.6011 5.98996L16.0043 18.605H14.9539L26.4478 1.73876ZM26.749 13.3536C23.7705 13.3536 21.3255 15.676 21.1263 18.605H17.6595L25.7313 6.7603C25.7314 6.7603 25.7314 6.7603 25.7314 6.7603C25.7772 6.6929 25.8532 6.65277 25.9313 6.65277C25.9417 6.65277 25.9522 6.65352 25.9626 6.65493C27.063 6.80887 28.2044 6.5983 29.1768 6.06139C29.2533 6.01902 29.3515 6.02511 29.4273 6.07668L36.646 10.996C36.7215 11.0476 36.763 11.1368 36.7518 11.2235C36.6077 12.3249 36.8291 13.4644 37.375 14.4321C37.4188 14.5098 37.4135 14.6093 37.3615 14.6858L34.6908 18.6049H32.3721C32.1727 15.676 29.7278 13.3536 26.749 13.3536ZM31.0004 18.6051H22.4977C22.6937 16.4311 24.525 14.7216 26.749 14.7216C28.9732 14.7215 30.8046 16.4311 31.0004 18.6051ZM3.89217 18.2816C3.89217 17.7579 4.31808 17.3319 4.84177 17.3319H6.45839L6.33267 18.605H3.89217V18.2816ZM2.11889 21.6449C2.11889 20.723 2.86898 19.9729 3.79101 19.9729H41.9536C42.8757 19.9729 43.6257 20.723 43.6257 21.6449V23.5428H2.11889V21.6449ZM43.6257 41.6944H10.1867C9.80884 41.6944 9.50274 42.0006 9.50274 42.3783C9.50274 42.7561 9.80893 43.0622 10.1867 43.0622H43.6257V44.9601C43.6257 45.8821 42.8757 46.6322 41.9536 46.6322H3.79101C2.86898 46.6322 2.11889 45.8821 2.11889 44.9601V43.0622H5.80721C6.18502 43.0622 6.49111 42.7561 6.49111 42.3783C6.49111 42.0006 6.18493 41.6944 5.80721 41.6944H2.11889V24.9107H43.6257V28.1151H37.1226H37.1225C35.0735 28.1151 33.2986 29.3095 32.4563 31.0383C32.4534 31.0441 32.4503 31.0498 32.4474 31.0556C32.4402 31.0703 32.434 31.0856 32.4271 31.1004C32.3268 31.3135 32.2396 31.5341 32.1686 31.7617C32.1684 31.7624 32.1683 31.7629 32.1681 31.7636C32.0167 32.25 31.935 32.7669 31.935 33.3026C31.935 36.163 34.2621 38.4901 37.1224 38.4901H37.1225H43.6256V41.6944H43.6257ZM45.8817 36.9525C45.8817 37.046 45.8055 37.1221 45.7119 37.1221H44.3096H37.1226C35.6746 37.1221 34.4122 36.3122 33.7646 35.1217C33.7352 35.0676 33.7071 35.0127 33.6802 34.9571C33.6264 34.8458 33.578 34.7315 33.5351 34.6145C33.3849 34.2052 33.303 33.7633 33.303 33.3026C33.303 32.8419 33.385 32.3999 33.5351 31.9906C33.5781 31.8737 33.6265 31.7594 33.6802 31.6481C33.7071 31.5925 33.7352 31.5375 33.7646 31.4834C34.4122 30.2929 35.6746 29.483 37.1226 29.483H44.3096H45.7119C45.8054 29.483 45.8817 29.5591 45.8817 29.6527V36.9525Z" fill="black"/>
<path d="M37.2828 30.5278C35.7526 30.5278 34.5078 31.7727 34.5078 33.3028C34.5078 34.8329 35.7526 36.0777 37.2828 36.0777C38.813 36.0777 40.0578 34.8329 40.0578 33.3028C40.0578 31.7727 38.813 30.5278 37.2828 30.5278ZM37.2828 34.7098C36.5069 34.7098 35.8757 34.0786 35.8757 33.3028C35.8757 32.5271 36.5069 31.8957 37.2828 31.8957C38.0587 31.8957 38.6899 32.527 38.6899 33.3028C38.6899 34.0787 38.0587 34.7098 37.2828 34.7098Z" fill="black"/>
</g>
<defs>
<clipPath id="clip0_693_12502">
<rect width="48" height="48" fill="white"/>
</clipPath>
</defs>
</svg>
