<svg width="49" height="48" viewBox="0 0 49 48" fill="none" xmlns="http://www.w3.org/2000/svg">
<path fill-rule="evenodd" clip-rule="evenodd" d="M37.1459 46.3301L47.3009 36.2229C48.162 35.3658 48.162 33.9621 47.3009 33.105L45.6265 31.4412C44.7654 30.584 43.3577 30.584 42.4966 31.4412L42.4514 31.4836L32.3843 41.5033L32.3416 41.5484C31.4805 42.4055 31.4805 43.8066 32.3416 44.6637L34.016 46.3301C34.1866 46.5 34.3812 46.638 34.5891 46.7414H36.5727C36.7807 46.638 36.9726 46.5 37.1459 46.3301Z" fill="#F8AB02"/>
<path fill-rule="evenodd" clip-rule="evenodd" d="M32.3843 41.5029L42.4513 31.4833L38.047 27.0996C31.4512 23.3768 26.1112 31.9105 27.5801 36.7213L32.3843 41.5029Z" fill="#FFEABC"/>
<path fill-rule="evenodd" clip-rule="evenodd" d="M13.0476 46.7413H15.0312C15.2392 46.6379 15.4311 46.4999 15.6044 46.33L17.2787 44.6636C18.1398 43.8065 18.1398 42.4054 17.2787 41.5483L17.2334 41.5033L7.16635 31.4836L7.12363 31.4412C6.26253 30.584 4.85219 30.584 3.99108 31.4412L2.31948 33.105C1.45828 33.9621 1.45828 35.3658 2.31948 36.2229L12.4717 46.3301C12.645 46.4999 12.8396 46.6379 13.0476 46.7413Z" fill="#F8AB02"/>
<path fill-rule="evenodd" clip-rule="evenodd" d="M29.2119 35.8911L35.429 29.7057L38.0472 27.0999L38.871 26.2801C39.78 25.3725 39.78 23.8919 38.871 22.987C37.9619 22.0795 36.4715 22.0795 35.5624 22.987L36.3916 22.1591C37.3033 21.2543 37.3033 19.771 36.3916 18.8661C35.4824 17.9586 33.9921 17.9586 33.083 18.8661L33.9121 18.0382C34.8239 17.1334 34.8239 15.6501 33.9121 14.7452C33.003 13.8403 31.5127 13.8403 30.6035 14.7452L31.4354 13.92C32.3445 13.0125 32.3445 11.5318 31.4354 10.6243C30.8835 10.0777 30.1211 9.86017 29.4038 9.97689C28.9346 10.0512 28.484 10.2661 28.1241 10.6243L24.8102 13.9253L24.9168 14.0314L24.9354 14.0501C25.8446 14.9548 25.8446 16.4382 24.9354 17.343C24.0264 18.2505 22.5361 18.2505 21.6269 17.343C22.5361 18.2505 22.5361 19.7311 21.6269 20.6386C20.7152 21.5435 19.2275 21.5435 18.3157 20.6386C19.2275 21.5435 19.2275 23.0268 18.3157 23.9317C17.4066 24.8365 15.9189 24.8365 15.0071 23.9317C15.9189 24.8365 15.9189 26.3199 15.0071 27.2247C14.098 28.1322 12.6077 28.1322 11.6985 27.2247L11.5732 27.0999L7.16626 31.4836L17.2332 41.5033L21.4402 37.316C22.6319 36.0875 25.4233 37.1622 27.5801 36.7216C28.1935 36.5969 28.7533 36.3475 29.2119 35.8911Z" fill="#FFEABC"/>
<path fill-rule="evenodd" clip-rule="evenodd" d="M21.6271 17.3428C22.5362 18.2503 24.0265 18.2503 24.9356 17.3428C25.8448 16.4379 25.8448 14.9546 24.9356 14.0498L24.917 14.0312C23.512 13.9304 20.8247 11.5024 20.6647 9.79879C19.7528 8.89129 18.2652 8.89129 17.3535 9.79879C16.4443 10.7037 16.4443 12.187 17.3535 13.0918L18.1853 13.9197L21.6271 17.3428Z" fill="#FFEABC"/>
<path fill-rule="evenodd" clip-rule="evenodd" d="M18.3156 20.6385C19.2275 21.5434 20.7151 21.5434 21.6269 20.6385C22.536 19.731 22.536 18.2504 21.6269 17.3429L18.1851 13.9199C17.2732 13.0124 15.7856 13.0124 14.8765 13.9199C13.9647 14.8247 13.9647 16.3054 14.8765 17.2129L15.7056 18.0382L18.3156 20.6385Z" fill="#FFEABC"/>
<path fill-rule="evenodd" clip-rule="evenodd" d="M15.0072 23.9315C15.919 24.8363 17.4067 24.8363 18.3158 23.9315C19.2276 23.0266 19.2276 21.5433 18.3158 20.6384L15.7057 18.038C14.7967 17.1332 13.3063 17.1332 12.3972 18.038C11.4854 18.9455 11.4854 20.4262 12.3972 21.3337L14.0581 22.9868L15.0072 23.9315Z" fill="#FFEABC"/>
<path fill-rule="evenodd" clip-rule="evenodd" d="M11.6985 27.2245C12.6077 28.132 14.098 28.132 15.0071 27.2245C15.9189 26.3197 15.9189 24.8363 15.0071 23.9315L14.058 22.9868C13.1462 22.0793 11.6585 22.0793 10.7468 22.9868C9.83765 23.8917 9.83765 25.3723 10.7468 26.2799L11.5733 27.0997L11.6985 27.2245Z" fill="#FFEABC"/>
<path fill-rule="evenodd" clip-rule="evenodd" d="M24.8101 13.925L28.124 10.624C28.4839 10.2658 28.9345 10.0509 29.4037 9.97656L23.0025 8.76924C21.7388 8.53037 20.5418 8.52249 20.6644 9.79881C20.8244 11.5023 23.5117 13.9303 24.9167 14.0312L24.8101 13.925Z" fill="#FFEABC"/>
<path d="M24.8103 6.0994C25.3335 6.0994 25.7577 5.67668 25.7577 5.15524V0.94416C25.7577 0.42272 25.3335 0 24.8103 0C24.287 0 23.8628 0.42272 23.8628 0.94416V5.15524C23.8629 5.67668 24.2871 6.0994 24.8103 6.0994Z" fill="black"/>
<path d="M47.9699 32.4365L46.2961 30.7732C45.7007 30.1806 44.9072 29.8542 44.0616 29.8542C43.5209 29.8542 43.0019 29.9883 42.5419 30.2394L39.3878 27.1001L39.5415 26.9472C40.821 25.6696 40.8206 23.5935 39.5414 22.3201C39.0842 21.8638 38.5138 21.5595 37.8921 21.4314C37.9777 21.1369 38.0227 20.8285 38.0227 20.5128C38.0227 19.6358 37.6809 18.8134 37.062 18.1992C36.6048 17.7429 36.0345 17.4386 35.4127 17.3105C35.4983 17.016 35.5434 16.7077 35.5434 16.3919C35.5434 15.5148 35.2015 14.6925 34.5816 14.0774C34.1135 13.6115 33.538 13.3165 32.9337 13.191C33.257 12.0803 32.9808 10.8308 32.1039 9.9555C31.3742 9.23128 30.3837 8.92002 29.4293 9.0209L23.1791 7.84199C22.2259 7.6618 21.0355 7.54264 20.2842 8.22561C20.2368 8.26874 20.1884 8.31833 20.1407 8.37355C18.9757 7.95036 17.6169 8.20236 16.6838 9.13106C16.0649 9.74709 15.7239 10.5691 15.7239 11.4457C15.7239 11.7614 15.7688 12.0698 15.8543 12.3643C15.2332 12.4923 14.6636 12.7962 14.2079 13.2511C13.5878 13.8666 13.2458 14.6876 13.2451 15.5632C13.2448 15.8797 13.2899 16.1891 13.3759 16.4844C12.7545 16.6121 12.1845 16.9154 11.7274 17.3703C11.1073 17.9877 10.7658 18.8101 10.7658 19.6862C10.7658 20.3574 10.9668 20.9966 11.3394 21.5366C10.869 21.6955 10.4381 21.96 10.0773 22.3191C8.79688 23.5935 8.79641 25.6697 10.0781 26.9492L10.2312 27.101L7.07673 30.2388C5.90441 29.6887 4.46002 29.8948 3.4926 30.8576L1.81781 32.5219C1.2221 33.1147 0.894137 33.9056 0.894043 34.7487C0.894043 35.5919 1.2221 36.3829 1.81781 36.9759L3.90796 39.0562C4.27816 39.4247 4.8781 39.4243 5.24784 39.0554C5.61766 38.6865 5.61728 38.0887 5.24708 37.7202L3.15693 35.6399C2.91966 35.4038 2.78898 35.0873 2.78898 34.7488C2.78898 34.4105 2.91966 34.0941 3.15636 33.8585L4.83125 32.1941C5.24972 31.7775 5.89021 31.7155 6.3766 32.0053C6.41084 32.0566 6.45045 32.1054 6.49579 32.1506C6.57689 32.2317 6.66956 32.2939 6.76806 32.3393L16.3729 41.8965C16.4185 41.9956 16.4812 42.0889 16.5629 42.1705C16.6425 42.25 16.7333 42.3113 16.8296 42.3565C17.0327 42.5853 17.145 42.8776 17.145 43.1894C17.145 43.5279 17.0143 43.8443 16.777 44.0804L15.1038 45.7458C14.6095 46.2363 13.8053 46.2362 13.3124 45.7473L11.2221 43.6643C10.8521 43.2956 10.2523 43.2956 9.88227 43.6642C9.51225 44.0329 9.51216 44.6307 9.88217 44.9994L11.9738 47.0839C12.5896 47.6948 13.3981 48.0002 14.2069 48.0002C15.016 48.0002 15.8254 47.6944 16.4418 47.0829L18.1161 45.4165C18.7118 44.8235 19.0398 44.0326 19.0398 43.1894C19.0398 42.5876 18.8719 42.0129 18.5596 41.5173L22.1097 37.9839C22.1135 37.98 22.1173 37.9762 22.1211 37.9724C22.5276 37.5536 23.6597 37.632 24.7545 37.7078C25.5323 37.7616 26.3995 37.8216 27.2468 37.7243L31.1345 41.5938C30.8827 42.0514 30.7483 42.568 30.7483 43.1059C30.7483 43.9483 31.0763 44.7387 31.672 45.3316L33.3463 46.9981C33.9417 47.5907 34.7352 47.9171 35.5808 47.9171C36.4263 47.9171 37.2199 47.5907 37.8153 46.9981L47.9703 36.8908C48.566 36.2979 48.894 35.5071 48.894 34.6639C48.8942 33.8208 48.5662 33.0299 47.9699 32.4365ZM22.8263 9.69731L26.9364 10.4725L24.4763 12.9231C24.0957 12.7408 23.5742 12.4009 23.002 11.8554C22.2188 11.1088 21.6584 10.2468 21.6075 9.70912C21.6074 9.70884 21.6074 9.70856 21.6074 9.70828C21.6074 9.70818 21.6074 9.70809 21.6074 9.708C21.6038 9.66937 21.6028 9.63853 21.6033 9.615C21.727 9.585 22.0563 9.55171 22.8263 9.69731ZM18.0228 10.4671C18.5028 9.98925 19.2485 9.93412 19.7909 10.3001C20.0982 11.5843 21.1975 12.7482 21.6921 13.2198C22.0586 13.5693 23.2347 14.6171 24.4218 14.9051C24.5824 15.1345 24.6698 15.408 24.6698 15.6966C24.6698 16.0683 24.5263 16.4158 24.2649 16.6761C24.0042 16.9363 23.6549 17.0796 23.2812 17.0796C22.9074 17.0796 22.5581 16.9363 22.2962 16.6749L22.2961 16.6748L22.2956 16.6743L18.0227 12.424C17.7622 12.1648 17.6188 11.8173 17.6188 11.4457C17.6189 11.0739 17.7623 10.7264 18.0228 10.4671ZM15.5471 14.5871C15.8077 14.327 16.1567 14.1836 16.5298 14.1836C16.9034 14.1836 17.2535 14.3273 17.5158 14.5885L20.9565 18.0102C21.4983 18.551 21.4983 19.4309 20.9584 19.9698C20.6963 20.23 20.3457 20.3732 19.9714 20.3732C19.5971 20.3732 19.2465 20.23 18.9855 19.9709L18.9855 19.9708L16.3752 17.3703C16.3712 17.3663 16.3668 17.3625 16.3626 17.3584L15.546 16.545C15.284 16.2842 15.1398 15.936 15.1401 15.5646C15.1404 15.1944 15.2842 14.848 15.5471 14.5871ZM13.0666 18.7063C13.3274 18.4468 13.6771 18.3038 14.0514 18.3038C14.4225 18.3038 14.7692 18.4447 15.029 18.6998L17.6472 21.3076C17.9082 21.5668 18.0521 21.9139 18.0521 22.2852C18.0521 22.6563 17.9082 23.0035 17.6461 23.2636C17.3854 23.5231 17.036 23.6661 16.6625 23.6661C16.2883 23.6661 15.9379 23.5228 15.6767 23.2636L14.7275 22.3189C14.7273 22.3186 14.7271 22.3185 14.7269 22.3183L13.0667 20.6658C12.8049 20.4053 12.6608 20.0573 12.6608 19.686C12.6608 19.3149 12.8049 18.9668 13.0666 18.7063ZM11.4164 23.6551C11.6784 23.3943 12.0286 23.2507 12.4024 23.2507C12.776 23.2507 13.126 23.3942 13.388 23.6549L14.3385 24.6009C14.5996 24.86 14.7434 25.2072 14.7434 25.5784C14.7434 25.9497 14.5996 26.2968 14.3365 26.5579C14.0758 26.8181 13.7265 26.9614 13.3528 26.9614C12.9791 26.9614 12.6298 26.8182 12.3672 26.5561L12.2482 26.4379C12.2466 26.4363 12.2453 26.4347 12.2438 26.4332C12.2421 26.4315 12.2402 26.43 12.2384 26.4283L11.4174 25.6133C10.8756 25.0722 10.8751 24.1938 11.4164 23.6551ZM30.7246 34.3855C30.3548 34.0165 29.7549 34.0163 29.3848 34.3847L28.5418 35.2236C27.7408 36.0218 26.2895 35.9213 24.8858 35.8242C23.3616 35.7187 21.7855 35.6097 20.7656 36.6532L17.2758 40.1266L8.5487 31.4428L11.6371 28.3707C12.1476 28.6825 12.7366 28.8497 13.3529 28.8497C14.2333 28.8497 15.0591 28.5095 15.6758 27.8939C16.2966 27.2778 16.6386 26.4555 16.6386 25.5783C16.6386 25.5702 16.638 25.5621 16.638 25.554C16.6462 25.5541 16.6544 25.5545 16.6625 25.5545C17.5418 25.5545 18.3668 25.2154 18.9843 24.6008C19.6052 23.9847 19.9471 23.1623 19.9471 22.2853C19.9471 22.2771 19.9466 22.269 19.9466 22.2609C19.9548 22.2609 19.9631 22.2615 19.9715 22.2615C20.8505 22.2615 21.6759 21.9227 22.2976 21.3058C22.943 20.6616 23.2622 19.8135 23.2561 18.9673C23.2645 18.9673 23.273 18.9678 23.2815 18.9678C24.162 18.9678 24.9875 18.6277 25.6051 18.0111C26.2241 17.3951 26.565 16.5731 26.565 15.6965C26.565 15.0835 26.3978 14.4975 26.0859 13.9898L28.7928 11.2934C28.9945 11.0933 29.2433 10.9676 29.504 10.9158C29.5322 10.9128 29.56 10.9083 29.5876 10.9028C30.0059 10.8454 30.4451 10.9739 30.765 11.2914C31.3068 11.8323 31.3068 12.7122 30.767 13.2511L29.9426 14.0693C29.9398 14.072 29.9369 14.0744 29.9342 14.0772L28.9847 15.0219C28.6145 15.3903 28.6141 15.9881 28.9839 16.3571C29.3538 16.7261 29.9537 16.7263 30.3238 16.3579L31.1515 15.5342C31.1517 15.534 31.1519 15.5338 31.152 15.5336L31.2772 15.4094C31.8205 14.873 32.7007 14.8741 33.2434 15.4142C33.5046 15.6733 33.6484 16.0205 33.6484 16.3917C33.6484 16.7629 33.5046 17.1101 33.2414 17.3712L32.4122 18.1992C32.4121 18.1992 32.412 18.1993 32.412 18.1995L31.4625 19.1418C31.0917 19.5098 31.0905 20.1076 31.4598 20.477C31.829 20.8465 32.4289 20.8476 32.7997 20.4797L33.7534 19.5331C34.0141 19.2729 34.3634 19.1296 34.7371 19.1296C35.1109 19.1296 35.4603 19.2729 35.7229 19.535C35.984 19.7942 36.1278 20.1414 36.1278 20.5125C36.1278 20.8837 35.984 21.2309 35.7214 21.4915L34.0684 23.1393C33.6985 23.5081 33.6986 24.1059 34.0686 24.4745C34.2536 24.6588 34.496 24.7509 34.7384 24.7509C34.981 24.7509 35.2235 24.6586 35.4085 24.4742L36.2186 23.6667C36.2232 23.6623 36.2282 23.6584 36.2328 23.6538C36.4935 23.3936 36.8428 23.2503 37.2165 23.2503C37.5902 23.2503 37.9396 23.3936 38.2012 23.6548C38.7424 24.1936 38.742 25.072 38.2013 25.6118L37.3776 26.4317C37.3774 26.4319 37.377 26.4322 37.3767 26.4325C37.3764 26.4328 37.3761 26.4332 37.3758 26.4334L36.0685 27.7346C35.6983 28.1031 35.6979 28.7009 36.0677 29.0699C36.2527 29.2545 36.4955 29.3468 36.7381 29.3468C36.9804 29.3468 37.2227 29.2548 37.4076 29.0707L38.0471 28.4343L41.1119 31.4848L32.3856 40.17L29.259 37.0581C29.477 36.9184 29.6855 36.7541 29.8813 36.559L30.7238 35.7205C31.0941 35.3523 31.0945 34.7544 30.7246 34.3855ZM46.6313 35.5548L36.4764 45.662C36.2388 45.8985 35.9208 46.0287 35.581 46.0287C35.2412 46.0287 34.9232 45.8985 34.6856 45.6619L33.0112 43.9955C32.774 43.7594 32.6433 43.4435 32.6433 43.1059C32.6433 42.7684 32.774 42.4525 33.0112 42.2163L43.1662 32.1091C43.4039 31.8726 43.7219 31.7423 44.0617 31.7423C44.4015 31.7423 44.7195 31.8726 44.9576 32.1096L46.6313 33.7729C46.8686 34.009 46.9993 34.3253 46.9993 34.6638C46.9993 35.0023 46.8686 35.3187 46.6313 35.5548Z" fill="black"/>
<path d="M12.2292 5.30349C12.4142 5.48742 12.6563 5.5793 12.8985 5.5793C13.1412 5.5793 13.384 5.48686 13.5691 5.30208C13.9387 4.93298 13.9382 4.33523 13.5678 3.96689L10.1153 0.533279C9.74497 0.16484 9.14502 0.165402 8.77539 0.534591C8.40575 0.903687 8.40631 1.50144 8.7767 1.86978L12.2292 5.30349Z" fill="black"/>
<path d="M36.7219 5.57926C36.9641 5.57926 37.2065 5.4872 37.3914 5.30317L40.8413 1.86947C41.2115 1.50103 41.2119 0.903182 40.8421 0.534275C40.4723 0.165273 39.8725 0.164992 39.5022 0.533525L36.0523 3.96723C35.6821 4.33567 35.6817 4.93351 36.0515 5.30242C36.2366 5.48692 36.4792 5.57926 36.7219 5.57926Z" fill="black"/>
<path d="M6.7198 40.6128C6.35299 40.9846 6.35807 41.5825 6.73128 41.948L6.73401 41.9506C6.91812 42.131 7.15718 42.2208 7.39614 42.2208C7.6414 42.2208 7.88667 42.1262 8.07247 41.9379C8.43929 41.5661 8.4328 40.9669 8.05968 40.6014C7.68656 40.2359 7.08671 40.241 6.7198 40.6128Z" fill="black"/>
<path d="M33.0419 33.0252C33.186 33.0252 33.3322 32.9925 33.4695 32.9236C33.9367 32.6888 34.1244 32.121 33.8888 31.6554C33.6531 31.1899 33.0833 31.0027 32.6162 31.2376L32.6109 31.2402C32.1437 31.4751 31.9587 32.0415 32.1943 32.5071C32.3606 32.8359 32.6951 33.0252 33.0419 33.0252Z" fill="black"/>
</svg>
