<svg width="48" height="48" viewBox="0 0 48 48" fill="none" xmlns="http://www.w3.org/2000/svg">
<g clip-path="url(#clip0_693_12467)">
<path d="M5.19047 23.6222H1.60078C1.10503 23.6222 0.703125 23.2203 0.703125 22.7245V18.3801C0.703125 17.8843 1.10503 17.4824 1.60078 17.4824H5.19047C5.68622 17.4824 6.08813 17.8843 6.08813 18.3801V22.7245C6.08813 23.2203 5.68622 23.6222 5.19047 23.6222Z" fill="#FFEABC"/>
<path d="M5.47149 17.4824H3.32471C3.82046 17.4824 4.22236 17.8843 4.22236 18.3801V22.7245C4.22236 23.2203 3.82046 23.6222 3.32471 23.6222H5.47149C5.96724 23.6222 6.36914 23.2203 6.36914 22.7245V18.3801C6.36914 17.8843 5.96724 17.4824 5.47149 17.4824Z" fill="#FFEABC"/>
<path d="M21.5616 23.6222H17.9719C17.4761 23.6222 17.0742 23.2203 17.0742 22.7245V18.3801C17.0742 17.8843 17.4761 17.4824 17.9719 17.4824H21.5616C22.0573 17.4824 22.4592 17.8843 22.4592 18.3801V22.7245C22.4592 23.2203 22.0573 23.6222 21.5616 23.6222Z" fill="#FFEABC"/>
<path d="M21.8426 17.4824H19.6958C20.1916 17.4824 20.5935 17.8843 20.5935 18.3801V22.7245C20.5935 23.2203 20.1916 23.6222 19.6958 23.6222H21.8426C22.3383 23.6222 22.7402 23.2203 22.7402 22.7245V18.3801C22.7402 17.8843 22.3383 17.4824 21.8426 17.4824Z" fill="#FFEABC"/>
<path d="M13.376 18.1364H9.78633C9.29058 18.1364 8.88867 17.7345 8.88867 17.2387V11.0192C8.88867 10.5235 9.29058 10.1216 9.78633 10.1216H13.376C13.8718 10.1216 14.2737 10.5235 14.2737 11.0192V17.2387C14.2737 17.7345 13.8718 18.1364 13.376 18.1364Z" fill="#F8AB02"/>
<path d="M13.657 10.1216H11.5103C12.006 10.1216 12.4079 10.5235 12.4079 11.0192V17.2387C12.4079 17.7345 12.006 18.1364 11.5103 18.1364H13.657C14.1528 18.1364 14.5547 17.7345 14.5547 17.2387V11.0192C14.5547 10.5235 14.1528 10.1216 13.657 10.1216Z" fill="#F8AB02"/>
<path d="M29.7471 23.71H26.1574C25.6617 23.71 25.2598 23.3081 25.2598 22.8124V17.3952C25.2598 16.8995 25.6617 16.4976 26.1574 16.4976H29.7471C30.2429 16.4976 30.6448 16.8995 30.6448 17.3952V22.8124C30.6448 23.3081 30.2429 23.71 29.7471 23.71Z" fill="#FFEABC"/>
<path d="M30.0281 16.4971H27.8813C28.3771 16.4971 28.779 16.899 28.779 17.3947V22.8119C28.779 23.3076 28.3771 23.7095 27.8813 23.7095H30.0281C30.5239 23.7095 30.9258 23.3076 30.9258 22.8119V17.3947C30.9258 16.899 30.5239 16.4971 30.0281 16.4971Z" fill="#FFEABC"/>
<path d="M37.9322 17.0876H34.3425C33.8467 17.0876 33.4448 16.6856 33.4448 16.1899V11.0373C33.4448 10.5416 33.8467 10.1396 34.3425 10.1396H37.9322C38.4279 10.1396 38.8298 10.5416 38.8298 11.0373V16.1899C38.8298 16.6856 38.4279 17.0876 37.9322 17.0876Z" fill="#FFEABC"/>
<path d="M38.2137 10.1396H36.0669C36.5626 10.1396 36.9646 10.5416 36.9646 11.0373V16.1899C36.9646 16.6856 36.5626 17.0876 36.0669 17.0876H38.2137C38.7094 17.0876 39.1113 16.6856 39.1113 16.1899V11.0373C39.1114 10.5416 38.7095 10.1396 38.2137 10.1396Z" fill="#FFEABC"/>
<path d="M46.1177 17.3745H42.528C42.0323 17.3745 41.6304 16.9726 41.6304 16.4769V2.9001C41.6304 2.40435 42.0323 2.00244 42.528 2.00244H46.1177C46.6135 2.00244 47.0154 2.40435 47.0154 2.9001V16.4769C47.0155 16.9726 46.6136 17.3745 46.1177 17.3745Z" fill="#F8AB02"/>
<path d="M46.3992 2.00244H44.2524C44.7482 2.00244 45.1501 2.40435 45.1501 2.9001V16.4769C45.1501 16.9726 44.7482 17.3745 44.2524 17.3745H46.3992C46.895 17.3745 47.2969 16.9726 47.2969 16.4769V2.9001C47.297 2.40435 46.8951 2.00244 46.3992 2.00244Z" fill="#F8AB02"/>
<path d="M35.2283 47.2966H12.6979C12.2016 47.2966 11.7993 46.8943 11.7993 46.398V36.0246C11.7993 35.5283 12.2016 35.126 12.6979 35.126H35.2283C35.7246 35.126 36.1269 35.5283 36.1269 36.0246V46.3981C36.1269 46.8943 35.7245 47.2966 35.2283 47.2966Z" fill="#FFEABC"/>
<path d="M35.302 35.126H32.937C33.4333 35.126 33.8356 35.5283 33.8356 36.0246V46.3981C33.8356 46.8944 33.4333 47.2967 32.937 47.2967H35.302C35.7983 47.2967 36.2005 46.8944 36.2005 46.3981V36.0246C36.2005 35.5283 35.7982 35.126 35.302 35.126Z" fill="#FFEABC"/>
<path d="M5.47181 16.7792H4.23947V13.2812C4.23947 12.8929 3.92475 12.5781 3.53634 12.5781C3.14794 12.5781 2.83322 12.8929 2.83322 13.2812V16.7792H1.60088C0.718219 16.7792 0 17.4974 0 18.3801V22.7246C0 23.6073 0.718125 24.3254 1.60078 24.3254H2.83322V25.011C2.83322 25.3994 3.14794 25.7141 3.53634 25.7141C3.92475 25.7141 4.23947 25.3994 4.23947 25.011V24.3254H5.47181C6.35447 24.3254 7.07259 23.6073 7.07259 22.7246V18.3801C7.07259 17.4974 6.35447 16.7792 5.47181 16.7792ZM5.66634 22.7246C5.66634 22.8318 5.57906 22.9191 5.47181 22.9191H1.60088C1.49353 22.9191 1.40634 22.8318 1.40634 22.7246V18.3801C1.40634 18.2729 1.49363 18.1856 1.60088 18.1856H5.47181C5.57916 18.1856 5.66634 18.2729 5.66634 18.3801V22.7246Z" fill="black"/>
<path d="M17.9719 24.3253H19.2043V25.0109C19.2043 25.3993 19.519 25.714 19.9074 25.714C20.2958 25.714 20.6106 25.3993 20.6106 25.0109V24.3253H21.8429C22.7256 24.3253 23.4437 23.6073 23.4437 22.7245V18.38C23.4437 17.4973 22.7256 16.7792 21.8429 16.7792H20.6106V13.2812C20.6106 12.8929 20.2958 12.5781 19.9074 12.5781C19.519 12.5781 19.2043 12.8929 19.2043 13.2812V16.7792H17.9719C17.0892 16.7792 16.3711 17.4974 16.3711 18.38V22.7245C16.3711 23.6073 17.0892 24.3253 17.9719 24.3253ZM17.7773 18.38C17.7773 18.2728 17.8646 18.1855 17.9719 18.1855H21.8428C21.9502 18.1855 22.0373 18.2728 22.0373 18.38V22.7245C22.0373 22.8317 21.9501 22.919 21.8428 22.919H17.9719C17.8645 22.919 17.7773 22.8317 17.7773 22.7245V18.38Z" fill="black"/>
<path d="M11.7218 23.0408C12.1102 23.0408 12.4249 22.7259 12.4249 22.3376V18.8396H13.6574C14.54 18.8396 15.2581 18.1215 15.2581 17.2388V11.0194C15.2581 10.1366 14.54 9.4186 13.6574 9.4186H12.4249V5.92041C12.4249 5.5321 12.1102 5.21729 11.7218 5.21729C11.3334 5.21729 11.0187 5.5321 11.0187 5.92041V9.4185H9.78633C8.90367 9.4185 8.18555 10.1366 8.18555 11.0193V12.7696C8.18555 13.1579 8.50027 13.4727 8.88867 13.4727C9.27708 13.4727 9.5918 13.1579 9.5918 12.7696V11.0193C9.5918 10.912 9.67908 10.8248 9.78633 10.8248H13.6573C13.7646 10.8248 13.8518 10.912 13.8518 11.0193V17.2388C13.8518 17.346 13.7645 17.4333 13.6573 17.4333H9.78633C9.67898 17.4333 9.5918 17.346 9.5918 17.2388V15.4883C9.5918 15.1 9.27708 14.7852 8.88867 14.7852C8.50027 14.7852 8.18555 15.1 8.18555 15.4883V17.2388C8.18555 18.1215 8.90367 18.8395 9.78633 18.8395H11.0187V22.3375C11.0187 22.7259 11.3334 23.0408 11.7218 23.0408Z" fill="black"/>
<path d="M26.1574 24.4131H27.3898V26.1257C27.3898 26.5141 27.7045 26.8288 28.0929 26.8288C28.4813 26.8288 28.796 26.5141 28.796 26.1257V24.4131H30.0284C30.911 24.4131 31.6291 23.6949 31.6291 22.8122V17.395C31.6291 16.5123 30.911 15.7942 30.0284 15.7942H28.796V13.7764C28.796 13.3881 28.4813 13.0732 28.0929 13.0732C27.7045 13.0732 27.3898 13.3881 27.3898 13.7764V15.7942H26.1574C25.2748 15.7942 24.5566 16.5124 24.5566 17.395V22.8122C24.5566 23.6949 25.2748 24.4131 26.1574 24.4131ZM25.9629 17.395C25.9629 17.2878 26.0502 17.2005 26.1574 17.2005H30.0283C30.1356 17.2005 30.2228 17.2878 30.2228 17.395V22.8122C30.2228 22.9195 30.1355 23.0068 30.0283 23.0068H26.1574C26.0501 23.0068 25.9629 22.9195 25.9629 22.8122V17.395Z" fill="black"/>
<path d="M38.2135 9.43657H36.9811V8.75098C36.9811 8.36266 36.6664 8.04785 36.2779 8.04785C35.8895 8.04785 35.5748 8.36266 35.5748 8.75098V9.43657H34.3425C33.4598 9.43657 32.7417 10.1547 32.7417 11.0374V16.1899C32.7417 17.0727 33.4598 17.7907 34.3425 17.7907H35.5748V18.8018C35.5748 19.1901 35.8895 19.5049 36.2779 19.5049C36.6664 19.5049 36.9811 19.1901 36.9811 18.8018V17.7907H38.2135C39.0962 17.7907 39.8143 17.0726 39.8143 16.1899V11.0374C39.8143 10.1547 39.0962 9.43657 38.2135 9.43657ZM38.408 16.19C38.408 16.2973 38.3208 16.3846 38.2135 16.3846H34.3426C34.2352 16.3846 34.148 16.2973 34.148 16.19V11.0374C34.148 10.9302 34.2353 10.8429 34.3426 10.8429H38.2135C38.3209 10.8429 38.408 10.9302 38.408 11.0374V16.19Z" fill="black"/>
<path d="M35.3022 34.4233H12.6979C11.8147 34.4233 11.0962 35.1418 11.0962 36.0251V46.3985C11.0962 47.2817 11.8147 48.0002 12.6979 48.0002H21.9361C22.3245 48.0002 22.6393 47.6855 22.6393 47.2971C22.6393 46.9087 22.3245 46.594 21.9361 46.594H12.6979C12.5902 46.594 12.5024 46.5062 12.5024 46.3985V36.0251C12.5024 35.9173 12.5902 35.8296 12.6979 35.8296H35.3022C35.4099 35.8296 35.4976 35.9173 35.4976 36.0251V46.3985C35.4976 46.5062 35.4099 46.594 35.3022 46.594H24.8286C24.4402 46.594 24.1255 46.9087 24.1255 47.2971C24.1255 47.6855 24.4402 48.0002 24.8286 48.0002H35.3022C36.1854 48.0002 36.9039 47.2817 36.9039 46.3985V36.0251C36.9039 35.1418 36.1854 34.4233 35.3022 34.4233Z" fill="black"/>
<path d="M47.2967 10.7519C47.6851 10.7519 47.9998 10.4371 47.9998 10.0488V2.90034C47.9998 2.01769 47.2817 1.29956 46.3991 1.29956H45.1667V0.703125C45.1667 0.314812 44.852 0 44.4636 0C44.0752 0 43.7605 0.314812 43.7605 0.703125V1.29947H42.5281C41.6454 1.29947 40.9272 2.01759 40.9272 2.90025V16.4769C40.9272 17.3596 41.6454 18.0777 42.5281 18.0777H43.7605V21.5515C43.7605 21.9398 44.0752 22.2547 44.4636 22.2547C44.852 22.2547 45.1667 21.9398 45.1667 21.5515V18.0778H46.3991C47.2817 18.0778 47.9998 17.3597 47.9998 16.477V12.7675C47.9998 12.3792 47.6851 12.0644 47.2967 12.0644C46.9083 12.0644 46.5936 12.3792 46.5936 12.7675V16.477C46.5936 16.5843 46.5063 16.6716 46.3991 16.6716H42.5282C42.4209 16.6716 42.3336 16.5843 42.3336 16.477V2.90034C42.3336 2.79309 42.421 2.70581 42.5282 2.70581H46.3991C46.5064 2.70581 46.5936 2.79309 46.5936 2.90034V10.0488C46.5936 10.4371 46.9084 10.7519 47.2967 10.7519Z" fill="black"/>
<path d="M33.8471 30.5312H14.1528C13.7644 30.5312 13.4497 30.846 13.4497 31.2344C13.4497 31.6228 13.7644 31.9375 14.1528 31.9375H33.847C34.2354 31.9375 34.5501 31.6228 34.5501 31.2344C34.5501 30.846 34.2354 30.5312 33.8471 30.5312Z" fill="black"/>
<path d="M33.8471 27.6821H14.1528C13.7644 27.6821 13.4497 27.9968 13.4497 28.3853C13.4497 28.7737 13.7644 29.0884 14.1528 29.0884H33.847C34.2354 29.0884 34.5501 28.7737 34.5501 28.3853C34.5501 27.9968 34.2354 27.6821 33.8471 27.6821Z" fill="black"/>
<path d="M25.8545 37.6304C25.4661 37.6304 25.1514 37.9451 25.1514 38.3335V44.0851C25.1514 44.4275 25.3981 44.7201 25.7356 44.7782C25.7862 44.7868 25.825 44.7934 26.461 44.7934C26.7688 44.7934 27.217 44.7918 27.874 44.7882C28.2623 44.786 28.5753 44.4695 28.5732 44.0811C28.571 43.6941 28.2566 43.3819 27.8701 43.3819C27.8687 43.3819 27.8675 43.3819 27.8661 43.3819C27.4159 43.3845 26.9332 43.3863 26.5575 43.3867V38.3336C26.5576 37.9451 26.2428 37.6304 25.8545 37.6304Z" fill="black"/>
<path d="M30.2637 37.6304C29.8753 37.6304 29.5605 37.9451 29.5605 38.3335V44.0851C29.5605 44.4275 29.8074 44.7202 30.145 44.7782C30.1954 44.7868 30.2343 44.7934 30.8697 44.7934C31.1775 44.7934 31.6258 44.7918 32.2832 44.7882C32.6715 44.786 32.9846 44.4695 32.9824 44.0811C32.9803 43.6941 32.6658 43.3819 32.2794 43.3819C32.278 43.3819 32.2768 43.3819 32.2754 43.3819C31.8251 43.3845 31.3425 43.3863 30.9667 43.3867V38.3336C30.9668 37.9451 30.6521 37.6304 30.2637 37.6304Z" fill="black"/>
<path d="M23.6993 39.063C24.0877 39.063 24.4024 38.7483 24.4024 38.3599C24.4024 37.9715 24.0877 37.6567 23.6993 37.6567H21.2959C20.9075 37.6567 20.5928 37.9715 20.5928 38.3599V44.0637C20.5928 44.4521 20.9075 44.7668 21.2959 44.7668H23.6993C24.0877 44.7668 24.4024 44.4521 24.4024 44.0637C24.4024 43.6753 24.0877 43.3606 23.6993 43.3606H21.999V41.9149H23.5221C23.9105 41.9149 24.2252 41.6001 24.2252 41.2117C24.2252 40.8233 23.9105 40.5086 23.5221 40.5086H21.999V39.063H23.6993Z" fill="black"/>
<path d="M17.7267 43.3867C17.1501 43.3867 16.5949 43.1541 16.2418 42.7643C15.981 42.4765 15.5364 42.4549 15.2485 42.7154C14.9609 42.9762 14.9389 43.4209 15.1996 43.7087C15.8149 44.3875 16.7596 44.7928 17.7266 44.7928C18.9317 44.7928 19.9437 44.0244 20.1327 42.9657C20.2749 42.1697 19.9126 41.1294 18.4698 40.5972C17.76 40.3354 17.0994 40.0502 16.8995 39.9626C16.7345 39.8315 16.74 39.6479 16.7509 39.5715C16.766 39.4669 16.8419 39.2109 17.2203 39.0969C18.0395 38.8502 18.7969 39.448 18.8196 39.4661C19.1169 39.7128 19.5579 39.6736 19.8068 39.3775C20.0566 39.0803 20.0183 38.6368 19.721 38.3869C19.6669 38.3415 18.3787 37.2797 16.8148 37.7505C16.0262 37.9881 15.4685 38.6093 15.359 39.3718C15.2564 40.0869 15.5664 40.7747 16.168 41.1669C16.199 41.1871 16.2316 41.2048 16.2655 41.2199C16.2987 41.2347 17.091 41.5874 17.9832 41.9165C18.2394 42.0111 18.827 42.2784 18.7485 42.7185C18.6899 43.047 18.2916 43.3867 17.7267 43.3867Z" fill="black"/>
</g>
<defs>
<clipPath id="clip0_693_12467">
<rect width="48" height="48" fill="white"/>
</clipPath>
</defs>
</svg>
