<svg width="49" height="49" viewBox="0 0 49 49" fill="none" xmlns="http://www.w3.org/2000/svg">
<path d="M44.0422 13.0485V35.2015C44.0422 36.1807 43.705 37.1198 43.1048 37.8123C42.5046 38.5047 41.6905 38.8937 40.8417 38.8937H38.3373C38.1545 38.887 37.9786 38.8111 37.8369 38.6776C37.6952 38.5442 37.5955 38.3606 37.5532 38.1552C37.4125 37.5725 37.1103 37.0589 36.6927 36.6931C36.2752 36.3272 35.7652 36.1291 35.2409 36.1291C34.7165 36.1291 34.2066 36.3272 33.789 36.6931C33.3714 37.0589 33.0692 37.5725 32.9285 38.1552C32.8862 38.3606 32.7866 38.5442 32.6448 38.6776C32.5031 38.8111 32.3272 38.887 32.1444 38.8937H7.23662C7.17783 38.8952 7.11902 38.8921 7.0606 38.8844C6.24322 38.8352 5.4735 38.4255 4.91059 37.74C4.34767 37.0545 4.03461 36.1457 4.03614 35.2015V13.0485C4.03614 12.0693 4.37333 11.1302 4.97354 10.4377C5.57375 9.74533 6.3878 9.35634 7.23662 9.35634H32.1444C32.3272 9.363 32.5031 9.43892 32.6448 9.57239C32.7866 9.70585 32.8862 9.88943 32.9285 10.0948C33.0692 10.6775 33.3714 11.1911 33.789 11.557C34.2066 11.9228 34.7165 12.1209 35.2409 12.1209C35.7652 12.1209 36.2752 11.9228 36.6927 11.557C37.1103 11.1911 37.4125 10.6775 37.5532 10.0948C37.5955 9.88943 37.6952 9.70585 37.8369 9.57239C37.9786 9.43892 38.1545 9.363 38.3373 9.35634H40.8417C40.9005 9.35481 40.9593 9.35789 41.0177 9.36557C41.8351 9.41482 42.6048 9.82453 43.1677 10.51C43.7307 11.1955 44.0437 12.1043 44.0422 13.0485Z" fill="#FFEABC"/>
<path d="M41.0178 9.36557C40.9594 9.35789 40.9006 9.35481 40.8418 9.35634H38.4414C38.5002 9.35481 38.559 9.35789 38.6174 9.36557C39.4348 9.41482 40.2045 9.82453 40.7674 10.51C41.3304 11.1955 41.6434 12.1043 41.6419 13.0485V35.2015C41.6419 36.1807 41.3047 37.1198 40.7045 37.8123C40.1043 38.5047 39.2902 38.8937 38.4414 38.8937H40.8418C41.6906 38.8937 42.5046 38.5047 43.1049 37.8123C43.7051 37.1198 44.0423 36.1807 44.0423 35.2015V13.0485C44.0438 12.1043 43.7307 11.1955 43.1678 10.51C42.6049 9.82453 41.8352 9.41482 41.0178 9.36557Z" fill="#FFEABC"/>
<path d="M45.4502 28.5092L44.042 29.3307V16.5928L46.9144 23.451C47.2929 24.3474 47.3516 25.3793 47.0778 26.3251C46.8041 27.2709 46.2197 28.0551 45.4502 28.5092Z" fill="#F8AB02"/>
<path d="M4.0359 18.9189V31.6569L1.16347 24.7987C0.784956 23.9023 0.726289 22.8704 1.00006 21.9246C1.27384 20.9788 1.85822 20.1946 2.62769 19.7405L4.0359 18.9189Z" fill="#F8AB02"/>
<path d="M41.0175 9.36563C40.9591 9.35795 40.9003 9.35486 40.8415 9.3564H38.3371C38.1543 9.36305 37.9784 9.43898 37.8367 9.57244C37.695 9.70591 37.5953 9.88949 37.553 10.0948C37.4123 10.6776 37.1101 11.1911 36.6925 11.557C36.275 11.9229 35.765 12.121 35.2407 12.121C34.7163 12.121 34.2064 11.9229 33.7888 11.557C33.3712 11.1911 33.069 10.6776 32.9283 10.0948C32.8861 9.88949 32.7864 9.70591 32.6446 9.57244C32.5029 9.43898 32.3271 9.36305 32.1442 9.3564H20.5024L34.1285 1.4367C34.507 1.21917 34.9193 1.09102 35.3412 1.05977C35.7632 1.02852 36.1863 1.0948 36.5858 1.25471C36.9853 1.41463 37.353 1.66497 37.6675 1.99103C37.982 2.3171 38.2368 2.71234 38.4172 3.15356L41.0175 9.36563Z" fill="#F8AB02"/>
<path d="M38.4173 3.15328C38.0689 2.30689 37.4522 1.64705 36.6944 1.3099C35.9366 0.972746 35.0955 0.984005 34.3447 1.34135C35.0763 1.68752 35.6717 2.33261 36.017 3.15328L38.6134 9.35612H40.8417C40.9005 9.35459 40.9593 9.35767 41.0177 9.36535L38.4173 3.15328Z" fill="#F8AB02"/>
<path d="M27.5756 38.8935L20.6626 42.881C20.4942 42.9844 20.3021 43.0249 20.1128 42.9968C19.9236 42.9686 19.7467 42.8734 19.6064 42.7241C19.2543 42.322 18.802 42.0569 18.3128 41.9659C17.8236 41.8749 17.3219 41.9625 16.878 42.2165C16.4292 42.4715 16.0602 42.8813 15.8222 43.389C15.5842 43.8967 15.489 44.4773 15.5498 45.0502C15.5793 45.2646 15.5495 45.4842 15.4648 45.678C15.3801 45.8718 15.2447 46.03 15.0778 46.1302L13.9496 46.8132C13.5711 47.0307 13.1588 47.1589 12.7369 47.1901C12.3149 47.2214 11.8918 47.1551 11.4923 46.9952C11.0928 46.8353 10.7251 46.5849 10.4106 46.2589C10.0961 45.9328 9.84125 45.5376 9.66094 45.0963L7.06055 38.8843C7.11897 38.892 7.17778 38.895 7.23657 38.8935H27.5756Z" fill="#F8AB02"/>
<path d="M25.1752 38.8936L19.1831 42.3503C19.336 42.4561 19.478 42.5815 19.6064 42.7242C19.7466 42.8734 19.9236 42.9687 20.1128 42.9968C20.302 43.0249 20.4941 42.9845 20.6625 42.8811L27.5756 38.8936H25.1752Z" fill="#F8AB02"/>
<path d="M16.7338 42.3155C16.3947 42.0834 16.0106 41.9528 15.6165 41.9356C15.2225 41.9183 14.8309 42.015 14.4775 42.2167C14.0286 42.4717 13.6597 42.8815 13.4217 43.3892C13.1837 43.897 13.0885 44.4775 13.1493 45.0505C13.1787 45.2648 13.149 45.4845 13.0643 45.6783C12.9795 45.8721 12.8441 46.0303 12.6772 46.1304L11.549 46.8135C11.4786 46.855 11.4042 46.8744 11.333 46.9058C11.7487 47.1106 12.1982 47.2085 12.65 47.1925C13.1019 47.1766 13.5453 47.0472 13.9494 46.8135L15.0776 46.1304C15.2445 46.0303 15.3799 45.8721 15.4646 45.6783C15.5494 45.4845 15.5791 45.2648 15.5496 45.0505C15.4937 44.511 15.576 43.9644 15.7865 43.4783C15.9969 42.9922 16.3263 42.5879 16.7338 42.3155Z" fill="#F8AB02"/>
<path d="M41.5473 8.51542L39.1349 2.75287C38.904 2.1947 38.5782 1.69577 38.1768 1.28572C37.7755 0.875665 37.3068 0.56286 36.7986 0.365884C36.3045 0.171735 35.7817 0.0936813 35.261 0.136326C34.7403 0.17897 34.2323 0.341449 33.7669 0.614182L20.3153 8.43327H7.23652C6.17588 8.43473 5.15905 8.92145 4.40907 9.78665C3.65909 10.6519 3.23719 11.8249 3.23592 13.0485V18.3532L2.27097 18.9153C1.31724 19.4823 0.592951 20.4562 0.252238 21.6298C-0.0884746 22.8035 -0.0187064 24.0842 0.446695 25.1994L3.23592 31.861V35.2015C3.23799 36.2821 3.56867 37.3276 4.17034 38.1558C4.77201 38.984 5.60651 39.5424 6.52841 39.7336L8.94158 45.498C9.17241 46.0558 9.49802 46.5545 9.89908 46.9643C10.3001 47.3742 10.7685 47.687 11.2763 47.8841C11.7727 48.079 12.298 48.1569 12.821 48.1132C13.344 48.0694 13.854 47.9049 14.3208 47.6293L15.441 46.9509C15.7536 46.7626 16.0082 46.4676 16.1701 46.1061C16.3319 45.7446 16.393 45.3343 16.3451 44.9313C16.3029 44.5517 16.3642 44.1664 16.5205 43.8289C16.6768 43.4914 16.9204 43.2185 17.2174 43.0481C17.5143 42.8776 17.85 42.8182 18.1776 42.8779C18.5052 42.9377 18.8086 43.1137 19.0455 43.3815C19.3036 43.6669 19.6329 43.8517 19.9869 43.9098C20.3408 43.9679 20.7017 43.8965 21.0186 43.7055L27.7644 39.8167H32.1435C32.5019 39.8127 32.849 39.6715 33.1302 39.4152C33.4115 39.1589 33.611 38.802 33.6973 38.4007C33.79 38.0104 33.9912 37.6661 34.2701 37.4206C34.5489 37.1751 34.89 37.0422 35.2408 37.0422C35.5915 37.0422 35.9326 37.1751 36.2115 37.4206C36.4903 37.6661 36.6916 38.0104 36.7842 38.4007C36.8705 38.802 37.07 39.1589 37.3513 39.4152C37.6325 39.6715 37.9796 39.8127 38.338 39.8167H40.8416C41.9022 39.8152 42.9191 39.3285 43.6691 38.4633C44.419 37.5981 44.8409 36.4251 44.8422 35.2015V29.8968L45.8072 29.3346C46.7609 28.7677 47.4852 27.7938 47.8259 26.6201C48.1666 25.4465 48.0968 24.1658 47.6314 23.0506L44.8422 16.389V13.0485C44.8402 11.9673 44.5093 10.9213 43.9071 10.0928C43.305 9.2644 42.4698 8.70613 41.5473 8.51542ZM34.4886 2.26181C34.7646 2.09947 35.0661 2.00281 35.375 1.9776C35.6841 1.95239 35.9943 1.99913 36.2873 2.11505C36.5935 2.23472 36.8758 2.42396 37.1175 2.67159C37.3593 2.91923 37.5555 3.22024 37.6947 3.55684L39.7358 8.43327H38.338C37.9796 8.43725 37.6325 8.57849 37.3513 8.83478C37.07 9.09108 36.8705 9.44791 36.7842 9.84921C36.6916 10.2395 36.4903 10.5839 36.2115 10.8294C35.9326 11.0748 35.5915 11.2078 35.2408 11.2078C34.89 11.2078 34.5489 11.0748 34.2701 10.8294C33.9912 10.5839 33.79 10.2395 33.6973 9.84921C33.611 9.44791 33.4115 9.09108 33.1302 8.83478C32.849 8.57849 32.5019 8.43725 32.1435 8.43327H23.871L34.4886 2.26181ZM1.88771 24.4019C1.60232 23.7231 1.55794 22.9425 1.76403 22.2265C1.97012 21.5105 2.4104 20.9156 2.99108 20.5685L3.23592 20.4217V27.6215L1.88771 24.4019ZM20.3025 42.0551C20.283 42.0683 20.2612 42.0764 20.2386 42.0788C20.2161 42.0812 20.1934 42.0778 20.1721 42.0689C19.6976 41.5333 19.0905 41.1811 18.4349 41.0612C17.7792 40.9412 17.1075 41.0595 16.5127 41.3995C15.9179 41.7395 15.4294 42.2844 15.115 42.9589C14.8005 43.6334 14.6757 44.4039 14.7577 45.1639C14.763 45.1909 14.7613 45.2191 14.7526 45.245C14.7438 45.2708 14.7286 45.293 14.7089 45.3088L13.5887 45.9881C13.3126 46.1507 13.011 46.2475 12.7019 46.2727C12.3927 46.2979 12.0823 46.2511 11.7892 46.1349C11.4832 46.0154 11.201 45.8263 10.9594 45.5788C10.7178 45.3313 10.5217 45.0305 10.3826 44.694L8.33909 39.8167H24.1815L20.3025 42.0551ZM43.242 35.2015C43.242 35.9359 42.9891 36.6402 42.5389 37.1595C42.0888 37.6789 41.4782 37.9706 40.8416 37.9706L38.326 37.9125C38.1753 37.2886 37.8847 36.7215 37.4835 36.2685C37.0823 35.8154 36.5847 35.4923 36.0409 35.3316V34.2784C36.0409 34.0336 35.9566 33.7989 35.8065 33.6257C35.6565 33.4526 35.453 33.3554 35.2408 33.3554C35.0285 33.3554 34.825 33.4526 34.675 33.6257C34.5249 33.7989 34.4406 34.0336 34.4406 34.2784V35.3326C33.89 35.4994 33.3875 35.8313 32.984 36.2946C32.5806 36.7579 32.2906 37.3362 32.1435 37.9706H7.23652C6.59991 37.9706 5.98936 37.6789 5.53921 37.1595C5.08905 36.6402 4.83616 35.9359 4.83616 35.2015V13.0485C4.83616 12.3141 5.08905 11.6097 5.53921 11.0904C5.98936 10.5711 6.59991 10.2794 7.23652 10.2794L32.1555 10.3375C32.3062 10.9614 32.5968 11.5284 32.998 11.9815C33.3992 12.4346 33.8968 12.7577 34.4406 12.9183V13.9715C34.4406 14.2163 34.5249 14.4511 34.675 14.6242C34.825 14.7973 35.0285 14.8946 35.2408 14.8946C35.453 14.8946 35.6565 14.7973 35.8065 14.6242C35.9566 14.4511 36.0409 14.2163 36.0409 13.9715V12.9174C36.5915 12.7506 37.094 12.4187 37.4975 11.9554C37.9009 11.492 38.1909 10.9138 38.338 10.2794H40.8416C41.4782 10.2794 42.0888 10.5711 42.5389 11.0904C42.9891 11.6097 43.242 12.3141 43.242 13.0485V35.2015ZM46.1904 23.8481C46.4758 24.5269 46.5202 25.3074 46.3141 26.0235C46.108 26.7395 45.6677 27.3344 45.087 27.6815L44.8422 27.8282V20.6285L46.1904 23.8481Z" fill="black"/>
<path d="M35.2406 27.8174C35.0283 27.8174 34.8248 27.9146 34.6748 28.0877C34.5247 28.2608 34.4404 28.4956 34.4404 28.7404V30.5865C34.4404 30.8313 34.5247 31.0661 34.6748 31.2392C34.8248 31.4123 35.0283 31.5095 35.2406 31.5095C35.4528 31.5095 35.6563 31.4123 35.8063 31.2392C35.9564 31.0661 36.0407 30.8313 36.0407 30.5865V28.7404C36.0407 28.4956 35.9564 28.2608 35.8063 28.0877C35.6563 27.9146 35.4528 27.8174 35.2406 27.8174Z" fill="black"/>
<path d="M35.2406 22.2788C35.0283 22.2788 34.8248 22.3761 34.6748 22.5492C34.5247 22.7223 34.4404 22.957 34.4404 23.2019V25.0479C34.4404 25.2927 34.5247 25.5275 34.6748 25.7006C34.8248 25.8737 35.0283 25.971 35.2406 25.971C35.4528 25.971 35.6563 25.8737 35.8063 25.7006C35.9564 25.5275 36.0407 25.2927 36.0407 25.0479V23.2019C36.0407 22.957 35.9564 22.7223 35.8063 22.5492C35.6563 22.3761 35.4528 22.2788 35.2406 22.2788Z" fill="black"/>
<path d="M35.2406 16.7407C35.0283 16.7407 34.8248 16.838 34.6748 17.0111C34.5247 17.1842 34.4404 17.419 34.4404 17.6638V19.5098C34.4404 19.7547 34.5247 19.9894 34.6748 20.1625C34.8248 20.3356 35.0283 20.4329 35.2406 20.4329C35.4528 20.4329 35.6563 20.3356 35.8063 20.1625C35.9564 19.9894 36.0407 19.7547 36.0407 19.5098V17.6638C36.0407 17.419 35.9564 17.1842 35.8063 17.0111C35.6563 16.838 35.4528 16.7407 35.2406 16.7407Z" fill="black"/>
<path d="M31.2398 18.5869H9.2386C9.02639 18.5869 8.82288 18.6842 8.67283 18.8573C8.52277 19.0304 8.43848 19.2651 8.43848 19.51C8.43848 19.7548 8.52277 19.9895 8.67283 20.1626C8.82288 20.3357 9.02639 20.433 9.2386 20.433H31.2398C31.452 20.433 31.6555 20.3357 31.8056 20.1626C31.9556 19.9895 32.0399 19.7548 32.0399 19.51C32.0399 19.2651 31.9556 19.0304 31.8056 18.8573C31.6555 18.6842 31.452 18.5869 31.2398 18.5869Z" fill="black"/>
<path d="M31.2398 23.2021H9.2386C9.02639 23.2021 8.82288 23.2994 8.67283 23.4725C8.52277 23.6456 8.43848 23.8804 8.43848 24.1252C8.43848 24.37 8.52277 24.6048 8.67283 24.7779C8.82288 24.951 9.02639 25.0482 9.2386 25.0482H31.2398C31.452 25.0482 31.6555 24.951 31.8056 24.7779C31.9556 24.6048 32.0399 24.37 32.0399 24.1252C32.0399 23.8804 31.9556 23.6456 31.8056 23.4725C31.6555 23.2994 31.452 23.2021 31.2398 23.2021Z" fill="black"/>
<path d="M31.2398 27.8174H9.2386C9.02639 27.8174 8.82288 27.9146 8.67283 28.0877C8.52277 28.2608 8.43848 28.4956 8.43848 28.7404C8.43848 28.9852 8.52277 29.22 8.67283 29.3931C8.82288 29.5662 9.02639 29.6635 9.2386 29.6635H31.2398C31.452 29.6635 31.6555 29.5662 31.8056 29.3931C31.9556 29.22 32.0399 28.9852 32.0399 28.7404C32.0399 28.4956 31.9556 28.2608 31.8056 28.0877C31.6555 27.9146 31.452 27.8174 31.2398 27.8174Z" fill="black"/>
</svg>
