<svg width="160" height="257" viewBox="0 0 160 257" fill="none" xmlns="http://www.w3.org/2000/svg">
<g style="mix-blend-mode:multiply">
<path d="M42.2412 213.513H41.4108L41.2963 212.692C40.924 209.953 40.5613 207.566 40.2463 205.457C38.7954 195.797 38.1941 191.807 41.1531 187.159C44.198 182.377 48.4169 179.37 52.4927 176.459C56.7975 173.386 61.2551 170.217 64.3095 164.91C67.2399 159.822 67.0872 154.2 63.9182 150.239C60.1288 145.504 53.0368 144.178 44.9425 146.679C40.1127 148.177 36.9628 149.781 34.6719 150.945C27.9045 154.381 27.4177 153.618 19.1898 140.875C18.3403 139.558 17.4048 138.107 16.3644 136.504L15.9062 135.797L16.5553 135.253C33.5074 121.05 54.2681 116.669 72.0983 123.522C85.1465 128.533 93.928 138.651 95.5984 150.582C97.4979 164.146 89.9382 178.091 74.3224 189.86C64.1664 197.515 64.615 202.727 64.9013 206.182C65.0445 207.872 65.1781 209.466 64.0232 210.726C62.0855 212.835 56.788 213.522 42.2508 213.522L42.2412 213.513ZM52.6168 143.529C57.9811 143.529 62.515 145.419 65.4168 149.046C69.0821 153.637 69.3016 160.08 65.9704 165.864C62.7155 171.524 58.0861 174.827 53.6095 178.015C49.4955 180.945 45.6106 183.713 42.7662 188.18C40.189 192.227 40.7236 195.75 42.1362 205.17C42.4226 207.07 42.7376 209.198 43.0716 211.604C55.6998 211.575 61.1978 210.964 62.6105 209.428C63.1737 208.817 63.1259 207.948 62.9923 206.335C62.6678 202.469 62.1619 196.618 73.1579 188.333C88.201 176.994 95.4934 163.688 93.6989 150.84C92.124 139.615 83.7911 130.061 71.4016 125.298C54.459 118.778 34.7101 122.854 18.4262 136.169C19.2852 137.496 20.0679 138.708 20.7933 139.835C24.7164 145.915 26.8736 149.265 28.4963 150.372C29.7562 151.231 30.768 150.783 33.8033 149.237C36.161 148.034 39.3872 146.392 44.3793 144.846C47.262 143.958 50.03 143.519 52.6168 143.519V143.529Z" fill="white"/>
</g>
<g style="mix-blend-mode:multiply">
<path d="M51.3086 252.877C43.8538 252.877 35.8359 248.161 35.8359 237.815C35.8359 227.468 43.8538 222.791 51.3086 222.791C58.7633 222.791 66.8766 227.955 66.8766 237.815C66.8766 242.454 65.1776 246.357 61.98 249.116C59.1547 251.54 55.3652 252.877 51.3181 252.877H51.3086ZM51.3086 224.7C44.7702 224.7 37.745 228.804 37.745 237.815C37.745 246.825 44.7797 250.968 51.3086 250.968C57.8374 250.968 64.9676 246.854 64.9676 237.815C64.9676 228.776 57.8852 224.7 51.3086 224.7Z" fill="white"/>
</g>
<g style="mix-blend-mode:multiply">
<path d="M42.2425 217.636H37.8136L37.2123 213.246C36.8591 210.64 36.5155 208.359 36.21 206.335L36.1718 206.058C34.6542 195.96 33.8906 190.882 37.68 184.935C37.9663 184.496 38.2527 184.066 38.5486 183.646L40.1044 184.754C39.8276 185.145 39.5508 185.546 39.2931 185.956C35.895 191.302 36.6205 196.141 38.0618 205.772L38.0999 206.049C38.4054 208.082 38.749 210.373 39.1022 212.978L39.4744 215.718H42.2425C57.8965 215.718 63.1463 214.935 65.6472 212.205C66.6112 211.155 67.098 209.924 67.1839 208.339L69.0929 208.444C68.9784 210.468 68.3198 212.129 67.0503 213.494C64.0436 216.768 58.9369 217.617 42.2425 217.617V217.636Z" fill="white"/>
<path d="M64.1364 158.657L62.2369 158.447C62.275 158.123 62.2941 157.808 62.2941 157.493C62.2941 156.109 61.9601 154.83 61.3014 153.694C59.6311 150.802 55.9371 149.284 51.4032 149.589L51.2695 147.68C56.5766 147.318 60.9006 149.189 62.9528 152.73C63.7832 154.162 64.2032 155.765 64.2032 157.493C64.2032 157.875 64.1841 158.266 64.1364 158.657Z" fill="white"/>
<path d="M29.7685 156.844C24.5855 156.844 22.1706 153.102 15.7277 143.118L15.6704 143.032C14.84 141.744 13.9141 140.312 12.9023 138.747L10.4492 134.976L13.895 132.084C22.0847 125.221 30.9903 120.516 40.3636 118.091L40.8409 119.943C31.7444 122.291 23.087 126.872 15.1168 133.554L12.9596 135.358L14.4868 137.716C15.5081 139.281 16.4245 140.713 17.2644 142.001L16.5199 142.603L17.3217 142.087C23.526 151.699 25.6164 154.944 29.759 154.944C31.2289 154.944 32.5653 154.448 34.1307 153.694L34.9611 155.412C33.1666 156.271 31.5917 156.853 29.7685 156.853V156.844Z" fill="white"/>
<path d="M89.1596 181.565L87.6992 180.344C94.5144 172.202 98.1225 163.344 98.1225 154.734C98.1225 152.472 97.8743 150.21 97.3875 147.986L99.2488 147.575C99.7642 149.924 100.022 152.338 100.022 154.734C100.022 163.792 96.2612 173.07 89.1596 181.565Z" fill="white"/>
</g>
<g style="mix-blend-mode:multiply">
<path d="M51.4047 257H51.3188C41.5828 257 31.7227 250.413 31.7227 237.814C31.7227 235.495 32.0663 233.299 32.7344 231.276L34.548 231.877C33.9371 233.71 33.6317 235.705 33.6317 237.814C33.6317 249.154 42.5277 255.09 51.3188 255.09L51.4047 257ZM68.9582 246.815L67.2591 245.946C68.4809 243.551 69.0918 240.811 69.0918 237.814C69.0918 233.891 68.0514 230.464 65.9896 227.629L67.5359 226.513C69.8363 229.691 71.0008 233.49 71.0008 237.824C71.0008 241.126 70.3136 244.152 68.9582 246.815Z" fill="white"/>
</g>
<g style="mix-blend-mode:multiply">
<path d="M122.662 147.547H121.832L121.717 146.726C121.498 145.104 121.278 143.681 121.097 142.431C120.218 136.599 119.856 134.184 121.688 131.301C123.54 128.4 126.07 126.586 128.532 124.839C131.176 122.959 133.668 121.174 135.443 118.101C137.104 115.218 137.027 112.049 135.243 109.816C133.095 107.133 129.038 106.389 124.39 107.83C121.555 108.708 119.703 109.653 118.348 110.341C114.014 112.545 113.508 111.753 108.65 104.222C108.144 103.44 107.59 102.58 106.97 101.626L106.512 100.92L107.161 100.376C117.336 91.8519 129.821 89.2174 140.54 93.3409C148.424 96.3667 153.731 102.495 154.743 109.72C155.889 117.919 151.355 126.338 141.953 133.42C136.092 137.84 136.331 140.694 136.512 142.775C136.598 143.815 136.693 144.894 135.892 145.772C134.632 147.137 131.549 147.557 122.672 147.557L122.662 147.547ZM128.819 105.205C132.121 105.205 134.918 106.379 136.722 108.632C139.003 111.486 139.146 115.476 137.085 119.055C135.109 122.491 132.322 124.477 129.63 126.395C127.215 128.113 124.943 129.736 123.292 132.323C121.841 134.604 122.147 136.656 122.977 142.145C123.13 143.185 123.311 144.34 123.492 145.638C128.542 145.619 133.582 145.447 134.479 144.474C134.708 144.225 134.679 143.777 134.603 142.927C134.412 140.694 134.097 136.943 140.798 131.893C149.617 125.25 153.894 117.471 152.844 109.987C151.927 103.459 147.069 97.9034 139.843 95.1258C130.002 91.346 118.539 93.6559 109.022 101.301C109.461 101.979 109.862 102.6 110.244 103.182C112.544 106.752 113.814 108.718 114.711 109.329C115.255 109.701 115.656 109.548 117.47 108.632C118.882 107.916 120.82 106.933 123.807 105.998C125.554 105.454 127.244 105.186 128.819 105.186V105.205Z" fill="white" fill-opacity="0.4"/>
</g>
<g style="mix-blend-mode:multiply">
<path d="M128.04 170.942C123.277 170.942 118.457 167.735 118.457 161.607C118.457 155.479 123.277 152.301 128.04 152.301C132.803 152.301 137.671 155.498 137.671 161.607C137.671 167.716 132.822 170.942 128.04 170.942ZM128.04 154.2C124.346 154.2 120.366 156.519 120.366 161.597C120.366 166.675 124.346 169.023 128.04 169.023C131.734 169.023 135.762 166.694 135.762 161.597C135.762 156.5 131.753 154.2 128.04 154.2Z" fill="white" fill-opacity="0.4"/>
</g>
<g style="mix-blend-mode:multiply">
<path d="M122.662 151.67H118.233L117.632 147.28C117.412 145.705 117.212 144.321 117.03 143.108C116.104 136.952 115.551 133.267 118.214 129.087C120.495 125.507 123.492 123.369 126.136 121.479L127.053 120.83L128.169 122.377L127.253 123.035C124.743 124.82 121.908 126.844 119.827 130.108C117.546 133.687 118.004 136.723 118.911 142.765C119.102 144.053 119.312 145.437 119.531 147.031L119.903 149.771H122.671C131.529 149.771 135.548 149.427 137.524 147.27C138.984 145.676 138.822 143.824 138.717 142.593C138.545 140.598 138.755 138.689 143.003 135.415L144.167 136.923C140.397 139.834 140.511 141.152 140.616 142.431C140.731 143.805 140.95 146.363 138.927 148.568C136.493 151.212 132.551 151.689 122.671 151.689L122.662 151.67Z" fill="white" fill-opacity="0.4"/>
<path d="M134.211 115.342L132.369 114.836C132.455 114.511 132.503 114.196 132.503 113.891C132.503 113.433 132.398 113.013 132.188 112.66C132.025 112.383 131.796 112.135 131.52 111.934L132.627 110.378C133.133 110.741 133.534 111.18 133.839 111.696C134.211 112.345 134.402 113.08 134.402 113.881C134.402 114.359 134.335 114.845 134.202 115.332L134.211 115.342Z" fill="white" fill-opacity="0.4"/>
<path d="M115.244 115.561C111.045 115.561 109.202 112.707 105.174 106.455L101.051 100.098L104.497 97.2063C112.925 90.143 122.737 86.7068 132.578 87.4036L132.445 89.3126C123.09 88.654 113.774 91.9375 105.728 98.6763L103.58 100.48L106.787 105.425C110.653 111.409 112.094 113.652 115.263 113.652C116.724 113.652 117.946 113.032 119.358 112.316C120.704 111.629 122.384 110.77 125.047 109.949C125.992 109.653 126.908 109.462 127.768 109.376L127.958 111.276C127.223 111.352 126.431 111.514 125.61 111.772C123.1 112.545 121.506 113.366 120.217 114.015C118.728 114.779 117.182 115.561 115.263 115.561H115.244Z" fill="white" fill-opacity="0.4"/>
<path d="M155.752 124.276L154.082 123.35C156.106 119.713 157.136 115.991 157.136 112.278C157.136 110.76 156.965 109.233 156.621 107.754L158.482 107.324C158.855 108.947 159.045 110.617 159.045 112.278C159.045 116.315 157.938 120.353 155.743 124.276H155.752Z" fill="white" fill-opacity="0.4"/>
</g>
<g style="mix-blend-mode:multiply">
<path d="M128.047 175.056C121.241 175.056 114.34 170.436 114.34 161.597C114.34 152.758 121.231 148.167 128.047 148.167C134.862 148.167 141.801 152.873 141.801 161.597C141.801 164.222 141.162 166.589 139.902 168.66L138.269 167.668C139.339 165.911 139.892 163.869 139.892 161.607C139.892 154.123 133.783 150.086 128.047 150.086C122.31 150.086 116.249 154.047 116.249 161.607C116.249 169.166 122.186 173.156 128.047 173.156V175.065V175.056Z" fill="white" fill-opacity="0.4"/>
</g>
<path d="M70.3443 97.3111H69.5139L69.3994 96.4902C69.0176 93.6935 68.6548 91.25 68.3303 89.1024C66.8508 79.2519 66.2399 75.1762 69.2466 70.4418C72.3488 65.5643 76.6537 62.5004 80.8249 59.5319C85.2252 56.3916 89.7782 53.1558 92.8899 47.7342C95.8871 42.5322 95.7343 36.7861 92.489 32.7294C88.6137 27.8901 81.3689 26.5252 73.0933 29.0928C68.1585 30.62 64.9513 32.2522 62.6032 33.4453C55.7117 36.9483 55.2153 36.1656 46.8252 23.1653C45.9566 21.8195 45.002 20.34 43.9425 18.7078L43.4844 18.0014L44.1334 17.4574C61.4292 2.96802 82.6194 -1.5086 100.812 5.47836C114.118 10.5945 123.091 20.9127 124.79 33.0826C126.727 46.9133 119.015 61.1545 103.075 73.1622C92.699 80.9891 93.1572 86.3152 93.4531 89.8373C93.5962 91.5554 93.7394 93.1876 92.5654 94.4667C90.5895 96.6239 85.187 97.3111 70.3539 97.3111H70.3443ZM80.9299 25.9047C86.3992 25.9047 91.0191 27.8328 93.978 31.5363C97.7197 36.2134 97.9393 42.7803 94.5412 48.6792C91.2195 54.4539 86.4947 57.8233 81.9226 61.0782C77.7227 64.0753 73.7519 66.9006 70.8502 71.4632C68.2158 75.5962 68.7598 79.1946 70.2107 88.816C70.5066 90.7632 70.8311 92.9395 71.1748 95.4021C84.0893 95.3735 89.7114 94.7435 91.1527 93.1781C91.7349 92.5481 91.6872 91.6509 91.544 89.9996C91.21 86.0575 90.7041 80.0919 101.92 71.635C117.287 60.0568 124.732 46.4647 122.89 33.3403C121.277 21.8672 112.772 12.1122 100.116 7.25373C82.8007 0.600848 62.6319 4.76248 45.9947 18.3737C46.8729 19.7291 47.6842 20.9795 48.4192 22.1249C52.4281 28.3387 54.6331 31.7558 56.2939 32.8917C57.5825 33.7698 58.6325 33.3117 61.7346 31.7367C64.14 30.515 67.4331 28.8351 72.5302 27.2601C75.4701 26.3533 78.2954 25.9047 80.9299 25.9047Z" fill="white" fill-opacity="0.8"/>
<g style="mix-blend-mode:multiply">
<path d="M79.5984 137.506C72.0005 137.506 63.8203 132.695 63.8203 122.148C63.8203 111.6 72.0005 106.837 79.5984 106.837C87.1963 106.837 95.4719 112.097 95.4719 122.148C95.4719 132.199 87.4922 137.506 79.5984 137.506ZM79.5984 108.737C72.9168 108.737 65.7293 112.937 65.7293 122.138C65.7293 131.339 72.9168 135.587 79.5984 135.587C86.28 135.587 93.5629 131.378 93.5629 122.138C93.5629 112.898 86.3277 108.737 79.5984 108.737Z" fill="white" fill-opacity="0.8"/>
</g>
<g style="mix-blend-mode:multiply">
<path d="M70.3408 101.722H65.6542L65.0146 97.0827C64.6328 94.3051 64.2701 91.8902 63.9551 89.7521C62.3993 79.3958 61.6166 74.1937 65.5205 68.0563C65.616 67.9131 65.7114 67.7604 65.8069 67.6172L67.4009 68.6671L67.1336 69.0776C63.6115 74.6041 64.3656 79.5676 65.8451 89.4658C66.1696 91.6038 66.5323 94.0378 66.9141 96.8154L67.3245 99.803H70.3408C86.3957 99.803 91.7982 98.9822 94.404 96.1473C95.1963 95.2787 95.6926 94.2955 95.9122 93.1215L97.783 93.4747C97.4967 95.0114 96.8476 96.3095 95.8072 97.4359C92.7241 100.786 87.2547 101.712 70.3408 101.712V101.722Z" fill="white" fill-opacity="0.8"/>
<path d="M92.4516 41.416L90.5521 41.1965C90.5903 40.8433 90.619 40.4997 90.619 40.1561C90.619 38.772 90.2849 37.5025 89.6263 36.3667C87.8795 33.3505 83.9374 31.8328 79.0503 32.3291L78.8594 30.4297C84.5292 29.8474 89.149 31.7183 91.2776 35.4122C92.108 36.8439 92.528 38.438 92.528 40.1561C92.528 40.5665 92.4994 40.996 92.4516 41.416Z" fill="white" fill-opacity="0.8"/>
<path d="M57.6051 39.6691C52.2121 39.6691 49.7304 35.832 43.1156 25.5616C42.247 24.2157 41.2925 22.7363 40.233 21.1136L37.6367 17.1238L41.283 14.0694C49.3772 7.28286 58.1778 2.54852 67.427 0L67.9329 1.84219C58.951 4.3239 50.3985 8.9246 42.5143 15.5393L40.1662 17.5056L41.8366 20.0732C42.8961 21.7054 43.8506 23.1849 44.7192 24.5307C51.1049 34.4289 53.2621 37.7601 57.6051 37.7601C58.6932 37.7601 59.7814 37.5024 61.1272 36.9297L61.8718 38.686C60.2777 39.3637 58.9605 39.6596 57.6051 39.6596V39.6691Z" fill="white" fill-opacity="0.8"/>
<path d="M118.101 65.1735L116.641 63.9422C123.809 55.4949 127.598 46.303 127.598 37.3402C127.598 35.0112 127.341 32.6632 126.844 30.3724L128.706 29.9619C129.24 32.3864 129.507 34.8681 129.507 37.3402C129.507 46.7516 125.565 56.3826 118.101 65.1735Z" fill="white" fill-opacity="0.8"/>
</g>
<g style="mix-blend-mode:multiply">
<path d="M79.6992 141.915H79.6037C69.5718 141.915 59.4062 135.119 59.4062 122.138C59.4062 119.752 59.7594 117.48 60.4562 115.399L62.2698 116C61.6398 117.89 61.3248 119.952 61.3248 122.138C61.3248 133.869 70.5263 140.006 79.6133 140.006L79.7087 141.915H79.6992ZM97.7872 131.416L96.0881 130.557C97.3481 128.075 97.9876 125.25 97.9876 122.147C97.9876 118.1 96.909 114.55 94.7805 111.61L96.3268 110.493C98.6939 113.767 99.8966 117.69 99.8966 122.147C99.8966 125.545 99.1903 128.667 97.7967 131.416H97.7872Z" fill="white" fill-opacity="0.8"/>
</g>
<g style="mix-blend-mode:multiply">
<path d="M21.2267 85.2181H20.3963L20.2817 84.3972C20.0813 82.8986 19.8808 81.5814 19.709 80.4265C18.9168 75.1671 18.5541 72.7618 20.2722 70.0701C21.9903 67.3689 24.3384 65.6985 26.6197 64.0758C29.0537 62.3386 31.3636 60.6969 32.9863 57.862C34.504 55.218 34.4371 52.3163 32.8049 50.2832C30.8386 47.8206 27.116 47.1429 22.8398 48.4697C20.2149 49.281 18.5063 50.1496 17.2655 50.7891C13.1993 52.8509 12.7315 52.1159 8.19761 45.1003C7.7299 44.3749 7.21447 43.5826 6.64176 42.695L6.18359 41.9886L6.83266 41.4446C16.2632 33.5413 27.8415 31.0977 37.7875 34.9253C45.1086 37.7411 50.0339 43.4204 50.9788 50.1305C52.0479 57.7475 47.8385 65.5553 39.1142 72.1223C33.7213 76.1885 33.9503 78.8038 34.1126 80.7128C34.1985 81.6959 34.2844 82.7077 33.5208 83.5381C32.3468 84.8172 29.4737 85.2085 21.2362 85.2085L21.2267 85.2181ZM26.9251 45.9021C30.0082 45.9021 32.614 46.9998 34.294 49.0997C36.4225 51.7627 36.5562 55.4853 34.6376 58.8261C32.8049 62.0236 30.2182 63.8563 27.7174 65.6412C25.4934 67.2257 23.3934 68.7243 21.8758 71.1105C20.549 73.2009 20.8353 75.0908 21.5894 80.1496C21.7326 81.0946 21.8853 82.1446 22.0571 83.3186C26.6865 83.2995 31.2968 83.1372 32.0986 82.2686C32.2895 82.0682 32.2608 81.6387 32.194 80.8942C32.0127 78.8133 31.7168 75.3199 37.9497 70.6237C46.0917 64.4958 50.0339 57.3179 49.0698 50.4264C48.2298 44.4131 43.7436 39.2969 37.0907 36.7293C28.0324 33.2454 17.4755 35.3644 8.7035 42.3991C9.09485 43.0004 9.45757 43.5636 9.79165 44.0885C11.9202 47.3816 13.0847 49.1951 13.9056 49.7583C14.3542 50.0637 14.6597 49.9874 16.3873 49.1092C17.695 48.4411 19.4895 47.5343 22.2671 46.6752C23.8898 46.1693 25.4647 45.9212 26.9251 45.9212V45.9021Z" fill="white" fill-opacity="0.6"/>
</g>
<g style="mix-blend-mode:multiply">
<path d="M21.2295 89.1886H16.9342L16.352 84.9315C16.1515 83.4712 15.9606 82.1921 15.7888 81.0563C14.9298 75.3197 14.4048 71.8835 16.9151 67.9414C19.0437 64.5911 21.8404 62.5962 24.3126 60.8399C25.2194 60.1908 26.0784 59.5799 26.8516 58.9404L28.0734 60.4104C27.243 61.0976 26.3553 61.7276 25.4198 62.3957C23.1004 64.047 20.4659 65.9274 18.5283 68.9627C16.3997 72.3035 16.8292 75.1193 17.6692 80.7222C17.8506 81.9058 18.0415 83.1943 18.2419 84.6643L18.5951 87.2701H21.22C29.4383 87.2701 33.1705 86.9455 35.0222 84.9315C36.3967 83.433 36.244 81.6194 36.1485 80.5408C35.9863 78.6223 36.1867 76.9042 40.3389 73.7734C40.8543 73.3821 41.3602 72.9907 41.847 72.5994L43.0592 74.0788C42.5533 74.4893 42.0283 74.8997 41.4938 75.3006C37.8571 78.04 37.9526 79.1759 38.0576 80.3786C38.1626 81.5908 38.3726 84.1107 36.4349 86.2297C34.1345 88.74 30.4501 89.1886 21.2295 89.1886Z" fill="white" fill-opacity="0.6"/>
<path d="M31.8083 55.4378L29.9757 54.8937C30.0711 54.5883 30.1093 54.2924 30.1093 54.006C30.1093 53.6242 30.0234 53.2806 29.8516 52.9752L31.4074 51.8584C31.4456 51.9157 31.4742 51.9729 31.5124 52.0302C31.8465 52.6125 32.0183 53.2806 32.0183 54.006C32.0183 54.4737 31.9419 54.951 31.7988 55.4378H31.8083Z" fill="white" fill-opacity="0.6"/>
<path d="M14.3792 55.7811C10.3702 55.7811 8.64258 53.1085 4.87226 47.2574L4.75772 47.0856C4.31865 46.4079 3.85093 45.6729 3.32595 44.8711L0.949219 41.2154L4.29001 38.4187C11.4775 32.3958 19.7149 29.2173 28.1146 29.2173C29.6609 29.2173 31.2168 29.3318 32.7249 29.5418L32.4481 31.4317C31.0259 31.2313 29.5655 31.1263 28.1146 31.1263C20.1635 31.1263 12.3461 34.1521 5.51178 39.8886L3.46913 41.6067L4.92953 43.8498C5.45451 44.6611 5.93177 45.3961 6.37084 46.0738L6.47584 46.2456C10.3034 52.1826 11.5348 53.8912 14.3792 53.8912C15.7537 53.8912 16.8896 53.3185 18.1972 52.6408C19.4477 52.0108 20.994 51.2186 23.4471 50.455C25.2893 49.8823 27.0169 49.7391 28.4201 50.0159L28.0478 51.8867C26.9692 51.6672 25.547 51.8008 24.0102 52.2781C21.7098 52.994 20.2399 53.7385 19.0563 54.3398C17.6532 55.0557 16.2023 55.7906 14.3697 55.7906L14.3792 55.7811Z" fill="white" fill-opacity="0.6"/>
<path d="M52.607 62.6632L50.8984 61.8042C52.4352 58.7498 53.2084 55.6285 53.2084 52.5169C53.2084 51.1042 53.0461 49.682 52.7216 48.2884L54.5829 47.8589C54.936 49.3956 55.1174 50.961 55.1174 52.5169C55.1174 55.9244 54.2679 59.332 52.5975 62.6537L52.607 62.6632Z" fill="white" fill-opacity="0.6"/>
</g>
<g style="mix-blend-mode:multiply">
<path d="M26.2175 116.984C19.8032 116.984 13.3125 112.632 13.3125 104.308C13.3125 95.9851 19.8032 91.6516 26.2175 91.6516C32.6318 91.6516 39.1702 96.0901 39.1702 104.308C39.1702 108.403 37.4521 111.954 34.3404 114.302L33.195 112.775C35.0563 111.372 37.2707 108.775 37.2707 104.308C37.2707 97.3309 31.5819 93.5606 26.227 93.5606C20.8722 93.5606 15.2311 97.2545 15.2311 104.308C15.2311 111.362 20.7577 115.075 26.227 115.075V116.984H26.2175Z" fill="white" fill-opacity="0.6"/>
</g>
<g style="mix-blend-mode:multiply">
<path d="M26.2077 113.023C21.7692 113.023 17.2734 110.035 17.2734 104.318C17.2734 98.6001 21.7692 95.6316 26.2077 95.6316C30.6461 95.6316 35.1896 98.6192 35.1896 104.318C35.1896 110.016 30.6652 113.023 26.2077 113.023ZM26.2077 97.5406C22.8287 97.5406 19.1825 99.6596 19.1825 104.318C19.1825 108.976 22.8287 111.114 26.2077 111.114C29.5866 111.114 33.2806 108.985 33.2806 104.318C33.2806 102.218 32.5265 100.471 31.1043 99.2492C29.8157 98.1515 28.0785 97.5406 26.2077 97.5406Z" fill="white" fill-opacity="0.6"/>
</g>
</svg>
