<svg width="480" height="480" viewBox="0 0 480 480" fill="none" xmlns="http://www.w3.org/2000/svg">
<path d="M239.777 480C227.659 480 216.267 475.265 207.7 466.666L13.2659 271.526C-4.42196 253.774 -4.42196 224.891 13.2659 207.14L110.842 109.21L114.283 112.663L16.7064 210.593C0.917027 226.439 0.917027 252.225 16.7064 268.073L211.141 463.211C218.789 470.888 228.959 475.115 239.777 475.115C250.594 475.115 260.764 470.888 268.412 463.211L462.848 268.073L466.289 271.526L271.853 466.664C263.285 475.265 251.892 480 239.777 480Z" fill="#8D0000"/>
<path d="M112.569 113.38C111.947 113.38 111.325 113.142 110.849 112.664C109.899 111.711 109.899 110.165 110.849 109.211L111.422 108.636C112.372 107.683 113.913 107.683 114.863 108.636C115.813 109.59 115.813 111.136 114.863 112.089L114.29 112.664C113.815 113.14 113.193 113.38 112.569 113.38Z" fill="#8D0000"/>
<path d="M475.734 230.771C474.655 230.771 473.669 230.046 473.381 228.95C473.251 228.456 473.111 227.96 472.963 227.469C472.571 226.18 473.295 224.814 474.581 224.421C475.868 224.023 477.226 224.754 477.618 226.044C477.787 226.596 477.943 227.15 478.089 227.709C478.43 229.013 477.654 230.349 476.353 230.691C476.146 230.745 475.938 230.771 475.734 230.771ZM448.364 195.035C447.742 195.035 447.12 194.797 446.644 194.319L445.493 193.165C444.541 192.213 444.541 190.666 445.491 189.712C446.441 188.759 447.983 188.759 448.932 189.712L450.083 190.866C451.035 191.818 451.035 193.366 450.085 194.319C449.61 194.797 448.988 195.035 448.364 195.035ZM416.144 162.699C415.522 162.699 414.9 162.461 414.424 161.984L413.274 160.83C412.324 159.876 412.324 158.33 413.274 157.377C414.224 156.423 415.764 156.423 416.714 157.377L417.864 158.531C418.814 159.484 418.814 161.031 417.864 161.984C417.389 162.46 416.766 162.699 416.144 162.699ZM383.924 130.362C383.302 130.362 382.679 130.124 382.204 129.647L381.052 128.494C380.101 127.541 380.101 125.993 381.051 125.04C382.001 124.087 383.543 124.087 384.491 125.04L385.643 126.193C386.594 127.146 386.594 128.694 385.644 129.647C385.17 130.124 384.548 130.362 383.924 130.362ZM351.705 98.0269C351.083 98.0269 350.46 97.7889 349.985 97.3116L348.833 96.1573C347.884 95.204 347.884 93.6563 348.833 92.703C349.783 91.7496 351.324 91.7496 352.274 92.703L353.425 93.8586C354.375 94.8119 354.375 96.3582 353.425 97.3116C352.95 97.7875 352.327 98.0269 351.705 98.0269ZM144.216 81.6218C143.594 81.6218 142.971 81.3838 142.496 80.9065C141.546 79.9531 141.546 78.4069 142.496 77.4535L143.647 76.2979C144.597 75.3446 146.138 75.3446 147.088 76.2979C148.037 77.2513 148.037 78.7975 147.088 79.7509L145.936 80.9065C145.462 81.3825 144.84 81.6218 144.216 81.6218ZM319.485 65.69C318.861 65.69 318.239 65.452 317.763 64.9733L316.613 63.8177C315.663 62.8643 315.663 61.3181 316.615 60.3647C317.565 59.4127 319.105 59.4114 320.055 60.3661L321.205 61.5217C322.155 62.475 322.155 64.0213 321.204 64.9746C320.729 65.452 320.107 65.69 319.485 65.69ZM176.436 49.2849C175.814 49.2849 175.191 49.047 174.716 48.5696C173.766 47.6162 173.766 46.07 174.716 45.1166L175.867 43.961C176.817 43.0077 178.358 43.0077 179.308 43.961C180.258 44.9144 180.258 46.4606 179.308 47.414L178.156 48.5696C177.681 49.047 177.058 49.2849 176.436 49.2849ZM287.265 33.3545C286.642 33.3545 286.02 33.1165 285.544 32.6391L284.393 31.4835C283.443 30.5302 283.443 28.9839 284.393 28.0306C285.343 27.0772 286.884 27.0772 287.833 28.0306L288.985 29.1861C289.935 30.1395 289.935 31.6858 288.985 32.6391C288.511 33.1151 287.887 33.3545 287.265 33.3545ZM208.656 16.9494C208.034 16.9494 207.412 16.7114 206.936 16.2341C205.986 15.2807 205.986 13.7344 206.936 12.7811L208.111 11.6062C209.073 10.6653 210.614 10.6845 211.551 11.6503C212.489 12.616 212.47 14.1623 211.507 15.1032L210.377 16.2327C209.901 16.71 209.279 16.9494 208.656 16.9494ZM251.99 5.31934C251.763 5.31934 251.53 5.28633 251.301 5.21892C250.81 5.0731 250.317 4.93692 249.821 4.81173C248.518 4.47882 247.732 3.14853 248.063 1.84163C248.395 0.534726 249.712 -0.260439 251.023 0.0779802C251.576 0.219676 252.129 0.372378 252.679 0.534709C253.967 0.915774 254.704 2.27498 254.323 3.56812C254.011 4.63153 253.042 5.31934 251.99 5.31934Z" fill="#8D0000"/>
<path d="M464.574 272.241C463.953 272.241 463.333 272.005 462.857 271.529C461.904 270.578 461.902 269.03 462.85 268.076L463.386 267.527C464.315 266.553 465.858 266.52 466.827 267.455C467.796 268.388 467.827 269.934 466.898 270.907L466.299 271.522C465.823 272.002 465.198 272.241 464.574 272.241Z" fill="#8D0000"/>
<path opacity="0.5" d="M124.137 110.328C126.644 118.166 123.495 126.187 117.105 128.247C110.714 130.306 103.502 125.622 100.995 117.784C98.4876 109.947 101.636 101.926 108.026 99.8662C114.417 97.8068 121.63 102.491 124.137 110.328Z" fill="url(#paint0_radial_564_4822)"/>
<path d="M111.747 120.152C117.207 120.152 121.633 115.71 121.633 110.231C121.633 104.751 117.207 100.309 111.747 100.309C106.287 100.309 101.861 104.751 101.861 110.231C101.861 115.71 106.287 120.152 111.747 120.152Z" fill="#8D0000"/>
<path d="M111.748 118.037C116.044 118.037 119.526 114.542 119.526 110.23C119.526 105.919 116.044 102.423 111.748 102.423C107.451 102.423 103.969 105.919 103.969 110.23C103.969 114.542 107.451 118.037 111.748 118.037Z" fill="#F7FDFD"/>
<path opacity="0.5" d="M479.137 268.514C481.644 276.351 478.495 284.372 472.105 286.432C465.714 288.491 458.502 283.807 455.995 275.97C453.488 268.132 456.636 260.111 463.026 258.051C469.417 255.992 476.629 260.678 479.137 268.514Z" fill="url(#paint1_radial_564_4822)"/>
<path d="M466.747 278.339C472.207 278.339 476.633 273.897 476.633 268.417C476.633 262.938 472.207 258.496 466.747 258.496C461.287 258.496 456.861 262.938 456.861 268.417C456.861 273.897 461.287 278.339 466.747 278.339Z" fill="#8D0000"/>
<path d="M466.748 276.224C471.044 276.224 474.526 272.729 474.526 268.417C474.526 264.105 471.044 260.61 466.748 260.61C462.452 260.61 458.969 264.105 458.969 268.417C458.969 272.729 462.452 276.224 466.748 276.224Z" fill="#F7FDFD"/>
<path d="M142 105C142 121.016 129.016 134 113 134C96.9838 134 84 121.016 84 105C84 88.9837 96.9838 76 113 76C129.016 76 142 88.9837 142 105Z" fill="white" stroke="#8D0000" stroke-width="4"/>
<path d="M112.387 112.464V106.632C112.387 105.672 112.363 104.848 112.315 104.16C112.267 103.456 112.195 102.824 112.099 102.264C112.003 101.704 111.883 101.176 111.739 100.68C111.611 100.168 111.467 99.624 111.307 99.048L113.635 98.208C113.843 98.832 114.019 99.44 114.163 100.032C114.323 100.608 114.451 101.216 114.547 101.856C114.643 102.48 114.715 103.168 114.763 103.92C114.811 104.672 114.835 105.536 114.835 106.512V112.464H112.387Z" fill="#8D0000"/>
<defs>
<radialGradient id="paint0_radial_564_4822" cx="0" cy="0" r="1" gradientUnits="userSpaceOnUse" gradientTransform="translate(112.613 114.08) rotate(-17.8562) scale(12.1566 14.898)">
<stop/>
<stop offset="1" stop-color="white"/>
</radialGradient>
<radialGradient id="paint1_radial_564_4822" cx="0" cy="0" r="1" gradientUnits="userSpaceOnUse" gradientTransform="translate(467.624 272.271) rotate(-17.8562) scale(12.1566 14.898)">
<stop/>
<stop offset="1" stop-color="white"/>
</radialGradient>
</defs>
</svg>
