<svg width="94" height="94" viewBox="0 0 94 94" fill="none" xmlns="http://www.w3.org/2000/svg">
<g clip-path="url(#clip0_44_23265)">
<g clip-path="url(#clip1_44_23265)">
<path d="M96.0505 58.2594C102.298 31.0247 85.2846 3.88186 58.0499 -2.36574C30.8151 -8.61333 3.6723 8.40012 -2.5753 35.6349C-8.82289 62.8696 8.19056 90.0124 35.4253 96.26C62.6601 102.508 89.8029 85.4942 96.0505 58.2594Z" fill="#0762AF"/>
<path d="M46.719 67.7266C57.5878 67.7266 66.3987 55.5228 66.3987 40.4688C66.3987 25.4147 57.5878 13.2109 46.719 13.2109C35.8502 13.2109 27.0393 25.4147 27.0393 40.4688C27.0393 55.5228 35.8502 67.7266 46.719 67.7266Z" fill="white"/>
<path d="M46.4067 65.9844C29.938 65.9844 15.2036 69.9297 5.41455 76.1406C10.0681 82.7302 16.2306 88.1109 23.3874 91.8333C30.5443 95.5558 38.4879 97.5121 46.5549 97.5389C54.622 97.5657 62.5784 95.6621 69.7598 91.9872C76.9412 88.3123 83.1393 82.9726 87.8364 76.4141C78.0474 70.0469 63.1255 65.9844 46.4067 65.9844Z" fill="white"/>
<path d="M49.7194 46.9375H43.7194C39.5686 46.9375 36.2037 50.3024 36.2037 54.4531V71.5547C36.2037 75.7054 39.5686 79.0703 43.7194 79.0703H49.7194C53.8701 79.0703 57.235 75.7054 57.235 71.5547V54.4531C57.235 50.3024 53.8701 46.9375 49.7194 46.9375Z" fill="white"/>
<path d="M30.1489 42.0157C30.7348 46.3907 29.7661 50.1797 27.977 50.4844C26.1879 50.7891 24.2661 47.4844 23.6801 43.1172C23.0942 38.75 24.0551 34.961 25.8442 34.6563C27.6332 34.3516 29.5551 37.6172 30.1489 42.0157Z" fill="white"/>
<path d="M63.2965 42.0157C62.7028 46.3907 63.6715 50.1797 65.4606 50.4844C67.2496 50.7891 69.1715 47.4844 69.7653 43.1172C70.359 38.75 69.3825 34.961 67.5934 34.6563C65.8043 34.3516 63.8825 37.6172 63.2965 42.0157Z" fill="white"/>
<path d="M27.7505 39.3984C27.0838 35.0286 26.4224 30.664 25.7661 26.3047C25.5239 24.7422 25.2896 23.0469 25.8677 21.5547C26.4458 20.0625 28.1411 18.8672 29.6489 19.4297C29.0474 16.3984 32.4068 14.1562 35.3286 13.1797C40.2186 11.3879 45.4549 10.7438 50.6333 11.2969C55.8299 11.8793 60.6518 14.2847 64.2427 18.0859C65.3738 19.2757 66.2487 20.685 66.813 22.2265C67.8208 25.2187 67.1802 28.4765 66.5318 31.6015L64.9693 38.9687C64.8966 39.5354 64.6786 40.0737 64.3364 40.5312C63.7271 41.2109 62.6958 41.2578 61.7818 41.2578L32.5005 41.3281C30.6646 41.3281 28.2739 40.875 28.0317 39.0547" fill="white"/>
</g>
</g>
<rect x="1.20312" y="1.42188" width="91.4062" height="91.4062" rx="45.7031" stroke="white" stroke-width="2.34375"/>
<defs>
<clipPath id="clip0_44_23265">
<rect x="0.03125" y="0.25" width="93.75" height="93.75" rx="46.875" fill="white"/>
</clipPath>
<clipPath id="clip1_44_23265">
<rect width="101.195" height="101.195" fill="white" transform="translate(-3.875 -3.65625)"/>
</clipPath>
</defs>
</svg>
