<svg width="29" height="30" viewBox="0 0 29 30" fill="none" xmlns="http://www.w3.org/2000/svg">
<path d="M3.92278 12.5793C3.94737 12.5793 3.97191 12.5773 3.9962 12.5735L10.832 11.4904C10.9086 11.4783 10.981 11.4473 11.0427 11.4003C11.1044 11.3533 11.1535 11.2917 11.1855 11.2211L14.0441 4.91796C14.079 4.84088 14.0925 4.75577 14.083 4.67167C14.0734 4.58757 14.0413 4.50761 13.99 4.44028C13.9387 4.37296 13.8702 4.32078 13.7916 4.28928C13.713 4.25778 13.6274 4.24815 13.5438 4.26139L6.70807 5.34446C6.63146 5.3566 6.55905 5.38756 6.49735 5.43457C6.43565 5.48158 6.38657 5.54318 6.35454 5.61382L3.49595 11.9169C3.46357 11.9883 3.44962 12.0667 3.45536 12.1449C3.46111 12.223 3.48637 12.2985 3.52883 12.3644C3.5713 12.4303 3.62961 12.4845 3.69843 12.522C3.76725 12.5596 3.84439 12.5793 3.92278 12.5793ZM7.34627 10.0915L9.06821 10.8207L5.68581 11.3566L7.34627 10.0915ZM7.63701 8.69139L7.30625 6.19888L11.8542 5.47829L7.63701 8.69139ZM6.77812 9.34578L5.11766 10.6109L6.53212 7.49205L6.77812 9.34578ZM10.5205 10.4176L8.20515 9.43709L12.4224 6.22398L10.5205 10.4176Z" fill="#F8AB02"/>
<path d="M4.23888 2.90973C4.74189 2.526 5.27118 2.17801 5.82286 1.86832L5.36487 1.05029C4.77481 1.38147 4.2087 1.75363 3.67071 2.16403C2.45976 3.08663 1.40378 4.19301 0.616943 5.36354L1.39497 5.88654C2.12522 4.80024 3.10864 3.77087 4.23888 2.90973Z" fill="#F8AB02"/>
<path d="M28.487 16.2582C28.2068 14.2001 27.1788 12.0266 25.5925 10.1381C23.541 7.69585 20.8894 6.12211 18.4623 5.89582C18.3259 5.56662 18.1475 5.25642 17.9316 4.97291L16.2271 2.73576C15.2156 1.4081 13.4757 0.781105 11.3277 0.969989C9.25867 1.15204 7.03874 2.07546 5.07688 3.57023C3.11499 5.06497 1.63544 6.96017 0.910774 8.9067C0.158468 10.9274 0.301234 12.7714 1.31278 14.099L2.2926 15.385C2.0976 15.6521 1.93559 15.9418 1.81011 16.2477L0.745208 18.8508C0.113208 20.3957 0.454328 22.2135 1.70568 23.9694C2.91109 25.6609 4.83212 27.1067 7.1149 28.0406C8.78071 28.7221 10.5 29.0741 12.1025 29.074C12.6804 29.0757 13.2572 29.0268 13.8266 28.928C15.9498 28.5526 17.4672 27.495 18.0992 25.9502L19.1 23.5039C19.2781 23.573 19.4566 23.6362 19.6353 23.6934C20.3426 23.9275 21.0818 24.0509 21.8268 24.0593C22.982 24.0593 24.0018 23.7177 24.8027 23.045L26.9562 21.236C28.2343 20.1625 28.7779 18.3947 28.487 16.2582ZM15.1323 19.5366L16.5675 18.331C17.1985 19.0387 17.9 19.6801 18.6612 20.2455L17.2468 21.4335C16.4743 20.881 15.7652 20.2448 15.1323 19.5366ZM14.5296 18.8185C14.3341 18.5687 14.1484 18.3134 13.9724 18.0526C13.952 18.0172 13.9306 17.9823 13.9077 17.9481L13.9037 17.9508C13.5572 17.429 13.2501 16.882 12.985 16.3145C13.387 16.0663 13.7812 15.7954 14.1675 15.5017C14.2682 15.425 14.3676 15.3471 14.4655 15.2681C14.8853 16.0981 15.3875 16.8837 15.9646 17.6131L14.5296 18.8185ZM13.2163 19.3448C13.1222 19.5749 12.9405 19.7582 12.7112 19.8544C12.4819 19.9505 12.2239 19.9517 11.9938 19.8576L11.9936 19.8575L9.82438 18.9701L10.4043 17.5525C11.0106 17.3403 11.6001 17.0827 12.1677 16.7819C12.4594 17.3993 12.7981 17.9933 13.1809 18.5588C13.2434 18.6794 13.279 18.8122 13.2851 18.9479C13.2912 19.0836 13.2677 19.2191 13.2163 19.3448ZM12.1482 21.2304C12.22 21.4014 12.2394 21.5898 12.204 21.7718C12.1686 21.9538 12.08 22.1213 11.9495 22.2529C11.819 22.3846 11.6523 22.4747 11.4706 22.5116C11.2889 22.5486 11.1003 22.5309 10.9287 22.4606L8.75948 21.5732L9.46942 19.8378L11.6387 20.7252C11.7528 20.7716 11.8566 20.8401 11.9441 20.9268C12.0315 21.0135 12.1009 21.1167 12.1482 21.2304ZM5.47708 15.8978C5.52721 15.8978 5.57779 15.897 5.62847 15.8961L6.59972 17.1708C5.36396 17.0574 4.37908 16.5767 3.76299 15.768L3.68171 15.6614C4.26632 15.823 4.87056 15.9026 5.47708 15.8978ZM7.83451 17.1681C7.81603 17.1697 7.79783 17.1708 7.77943 17.1723L6.73608 15.8029C7.4107 15.7019 8.07411 15.5367 8.71726 15.3094L9.82216 16.7595C9.17656 16.9681 8.51002 17.1051 7.83451 17.1681ZM12.0857 13.5427L13.2216 15.0336C12.4489 15.5859 11.6175 16.0511 10.7427 16.4208L9.62316 14.9515C10.4897 14.5668 11.3149 14.0948 12.0857 13.5427ZM13.9673 14.4655L12.8314 12.9746C13.5682 12.3779 14.2423 11.7077 14.8432 10.9743L15.9627 12.4436C15.374 13.189 14.7048 13.867 13.9673 14.4655ZM16.5336 11.6461L15.4287 10.1959C15.8186 9.63613 16.154 9.04038 16.4304 8.41677L17.4738 9.78615C17.4674 9.8035 17.4615 9.82074 17.455 9.83813C17.215 10.4727 16.906 11.079 16.5336 11.6461ZM17.7855 8.64841L16.8143 7.37378C17.0066 6.74531 17.1045 6.09176 17.1047 5.43453L17.1859 5.54107C17.802 6.34969 18.0041 7.42689 17.7855 8.64841ZM1.78934 9.2338C2.45301 7.45121 3.82232 5.70467 5.64502 4.31593C7.46775 2.92722 9.51507 2.0706 11.4099 1.90386C11.6327 1.88426 11.8497 1.87449 12.0609 1.87456C13.5709 1.87456 14.7711 2.37166 15.4814 3.3039C16.291 4.36651 16.3866 5.89258 15.7506 7.60098C15.0869 9.38357 13.7176 11.1301 11.8949 12.5189C10.0721 13.9076 8.02482 14.7642 6.13002 14.9309C4.31427 15.0907 2.86876 14.5937 2.05902 13.5316L2.05847 13.5309C1.2489 12.4682 1.15331 10.9422 1.78934 9.2338ZM3.01729 16.3362C3.91076 17.5089 5.37228 18.135 7.18156 18.135C7.4206 18.135 7.66564 18.124 7.91667 18.1019C8.36724 18.0613 8.81441 17.9892 9.25491 17.8861L7.89178 21.2183L7.02409 20.8633L6.6691 21.731L7.53681 22.0859L7.18185 22.9536L8.04954 23.3086L8.40451 22.4409L9.27221 22.7959L8.91723 23.6636L9.78493 24.0186L10.1399 23.1509L10.5738 23.3283C10.917 23.4687 11.2942 23.5042 11.6575 23.4303C12.0209 23.3563 12.3542 23.1763 12.6153 22.9129C12.8764 22.6496 13.0535 22.3147 13.1243 21.9507C13.195 21.5866 13.1562 21.2098 13.0128 20.8678C12.9973 20.8309 12.9803 20.7948 12.9627 20.7592C13.2075 20.6746 13.432 20.5401 13.6221 20.3643C13.8122 20.1884 13.9636 19.9749 14.0669 19.7374C14.0803 19.7535 14.0933 19.7698 14.1068 19.7858C15.3182 21.228 16.7495 22.3776 18.2396 23.1219C17.7 24.2883 16.4599 25.0955 14.7283 25.4017C12.8552 25.7329 10.6556 25.4374 8.5348 24.5698C6.4139 23.7021 4.63794 22.3712 3.53405 20.8222C2.47607 19.3376 2.17197 17.8392 2.6778 16.6027C2.73887 16.4547 2.81117 16.3115 2.89406 16.1744L3.01729 16.3362ZM7.74878 25.2531L7.03908 26.9879C6.17144 26.6016 5.34911 26.1206 4.58703 25.5538L5.28645 23.8441C6.0572 24.3962 6.88224 24.8684 7.74878 25.2531ZM8.61681 25.6073C9.50443 25.9404 10.4237 26.1822 11.3604 26.3288L10.6609 28.0386C9.72006 27.9088 8.79642 27.6754 7.90678 27.3429L8.61681 25.6073ZM1.6129 19.2058L1.66361 19.0819C1.83454 19.7165 2.0988 20.3222 2.44773 20.8791L1.841 22.3622C1.31259 21.2394 1.22799 20.1467 1.6129 19.2058ZM2.46915 23.4253C2.45837 23.4102 2.44817 23.3951 2.43755 23.38L3.08939 21.7866C3.51832 22.317 3.99698 22.8052 4.51885 23.2445L3.82854 24.9319C3.32163 24.481 2.86576 23.9758 2.46915 23.4253ZM11.6378 28.1266L12.3283 26.4389C12.6108 26.4597 12.8909 26.4709 13.1674 26.4709C13.5692 26.4713 13.9706 26.4479 14.3696 26.401L13.7177 27.9946C13.6995 27.9979 13.6816 28.0016 13.6634 28.0048C12.9947 28.1194 12.3154 28.1603 11.6378 28.1266ZM14.8565 27.6868L15.4632 26.2036C16.1025 26.0509 16.7155 25.8041 17.2822 25.4713L17.2315 25.5952C16.8466 26.5361 16.0204 27.2562 14.8565 27.6868ZM18.0706 21.9659L19.4666 20.7933C20.0442 21.1561 20.6552 21.4628 21.2913 21.7093L19.9731 22.8165C19.9555 22.811 19.938 22.8059 19.9203 22.8003C19.275 22.5907 18.6547 22.3109 18.0706 21.9659ZM24.1997 22.3271C23.4213 22.981 22.3549 23.2341 21.1244 23.0738L22.3514 22.0431C22.8841 22.1772 23.431 22.2468 23.9803 22.2504C24.0893 22.2504 24.1966 22.2463 24.3031 22.2403L24.1997 22.3271ZM26.3533 20.5182C25.3303 21.3774 23.8105 21.5453 22.0738 20.9913C20.2617 20.4132 18.452 19.1285 16.9782 17.3739C16.2728 16.5401 15.6755 15.6207 15.2002 14.6374C16.6485 13.3073 17.7424 11.7534 18.3336 10.1652C18.7727 8.98597 18.9063 7.86713 18.7409 6.87573C20.8077 7.2015 23.1118 8.64249 24.8746 10.7411C26.3484 12.4957 27.3015 14.4999 27.5581 16.3847C27.8041 18.191 27.3762 19.659 26.3533 20.5182Z" fill="#F8AB02"/>
<path d="M24.0319 12.7782C23.6358 12.7439 23.239 12.8364 22.8987 13.0422C22.5585 13.248 22.2924 13.5565 22.1389 13.9233L21.3577 13.6952L21.2679 12.8866C21.7127 12.7863 22.1058 12.5274 22.3736 12.1582C22.6413 11.789 22.7654 11.3349 22.7225 10.8809C22.6797 10.4268 22.4728 10.004 22.1408 9.69142C21.8087 9.37885 21.3741 9.198 20.9183 9.1827C20.4625 9.1674 20.0167 9.3187 19.6644 9.60829C19.3121 9.89788 19.0774 10.3059 19.0042 10.7561C18.931 11.2062 19.0243 11.6676 19.2667 12.0539C19.5091 12.4402 19.8839 12.7249 20.3211 12.8549L20.4327 13.86L20.2207 14.038C19.8494 13.7734 19.3943 13.6532 18.9408 13.7001C18.4872 13.7469 18.0663 13.9575 17.757 14.2925C17.4476 14.6275 17.271 15.0637 17.2603 15.5196C17.2496 15.9754 17.4054 16.4195 17.6987 16.7687C17.992 17.1178 18.4025 17.348 18.8534 17.4161C19.3042 17.4843 19.7644 17.3856 20.1478 17.1387C20.5311 16.8918 20.8112 16.5136 20.9357 16.075C21.0601 15.6363 21.0203 15.1673 20.8237 14.7559L21.0357 14.5778L22.0064 14.8613C22.0562 15.2905 22.2526 15.6894 22.5625 15.9905C22.8723 16.2917 23.2766 16.4766 23.707 16.5142C23.7625 16.519 23.8177 16.5214 23.8727 16.5214C24.313 16.5218 24.7391 16.3661 25.0755 16.0819C25.3594 15.8434 25.5663 15.526 25.6698 15.17C25.7734 14.8139 25.7691 14.4351 25.6574 14.0815C25.5457 13.7278 25.3317 13.4153 25.0423 13.1833C24.753 12.9513 24.4014 12.8104 24.0319 12.7782ZM20.1367 11.6599C19.9972 11.4938 19.9196 11.2845 19.9171 11.0676C19.9146 10.8507 19.9874 10.6397 20.1231 10.4704C20.2588 10.3012 20.4489 10.1842 20.6612 10.1395C20.8734 10.0948 21.0946 10.125 21.2871 10.225C21.4795 10.3251 21.6313 10.4888 21.7166 10.6882C21.8019 10.8877 21.8154 11.1105 21.7548 11.3188C21.6942 11.527 21.5633 11.7079 21.3843 11.8304C21.2053 11.953 20.9894 12.0097 20.7733 11.9909C20.6506 11.9806 20.5311 11.946 20.4219 11.8892C20.3126 11.8323 20.2157 11.7544 20.1367 11.6599ZM20.0656 15.6462C20.0498 15.8274 19.9817 16.0001 19.8695 16.1432C19.7573 16.2863 19.6059 16.3937 19.4337 16.4523C19.2615 16.5109 19.076 16.5181 18.8998 16.4731C18.7236 16.4281 18.5643 16.3328 18.4413 16.1989C18.3183 16.0649 18.2369 15.8981 18.207 15.7187C18.1772 15.5393 18.2002 15.3551 18.2732 15.1885C18.3462 15.0219 18.4661 14.8802 18.6182 14.7806C18.7704 14.681 18.9482 14.6277 19.1301 14.6274C19.1575 14.6274 19.1852 14.6286 19.2129 14.631C19.3356 14.6417 19.4549 14.6764 19.5641 14.7332C19.6734 14.79 19.7703 14.8677 19.8495 14.962C19.9287 15.0563 19.9886 15.1652 20.0256 15.2826C20.0627 15.4 20.0763 15.5236 20.0656 15.6462ZM24.8035 14.7274C24.7931 14.8502 24.7585 14.9696 24.7017 15.0789C24.6449 15.1882 24.567 15.2851 24.4725 15.364C24.3571 15.4609 24.2201 15.5286 24.073 15.5613C23.9259 15.594 23.7731 15.5908 23.6276 15.5519C23.482 15.513 23.348 15.4396 23.2368 15.3379C23.1257 15.2362 23.0406 15.1093 22.989 14.9677C22.9373 14.8262 22.9205 14.6743 22.9399 14.5249C22.9594 14.3756 23.0146 14.2331 23.1008 14.1095C23.1871 13.986 23.3018 13.885 23.4353 13.8153C23.5688 13.7455 23.7172 13.7089 23.8679 13.7086C23.8954 13.7086 23.923 13.7098 23.9507 13.7122C24.0733 13.7229 24.1927 13.7576 24.3019 13.8144C24.4112 13.8712 24.5081 13.949 24.5873 14.0432C24.6665 14.1375 24.7264 14.2464 24.7634 14.3638C24.8005 14.4812 24.8141 14.6048 24.8035 14.7274Z" fill="#F8AB02"/>
<path d="M26.2809 9.1185C26.4288 9.29451 26.5737 9.4761 26.7118 9.65821L27.4589 9.0919C27.3115 8.89735 27.1566 8.70343 26.9988 8.51552C25.5062 6.73848 23.655 5.38887 21.7864 4.71533L21.4685 5.59727C23.1839 6.21562 24.893 7.46615 26.2809 9.1185Z" fill="#F8AB02"/>
<path d="M20.6917 4.40005C20.3607 4.32858 20.0249 4.28112 19.6869 4.25806L19.6255 5.19355C19.9181 5.21363 20.209 5.25483 20.4957 5.31683L20.6917 4.40005Z" fill="#F8AB02"/>
<path d="M20.6505 25.316L20.5876 25.3169L20.6 26.2543L20.6673 26.2533C20.9677 26.2481 21.2708 26.2335 21.5682 26.21L21.4944 25.2754C21.216 25.2974 20.9322 25.311 20.6505 25.316Z" fill="#F8AB02"/>
<path d="M22.3999 25.1727L22.5375 26.1001C24.1792 25.8565 25.6986 25.3304 26.9315 24.5788L26.4434 23.7783C25.3168 24.4652 23.9186 24.9474 22.3999 25.1727Z" fill="#F8AB02"/>
</svg>
