<svg width="94" height="94" viewBox="0 0 94 94" fill="none" xmlns="http://www.w3.org/2000/svg">
<path fill-rule="evenodd" clip-rule="evenodd" d="M21.7997 2H72.196C77.442 2.02069 82.4672 4.11372 86.1767 7.82304C89.8862 11.5324 91.9793 16.5573 92 21.8031V72.1533C91.9885 77.4059 89.8997 82.4407 86.1895 86.1589C82.4792 89.8772 77.4488 91.977 72.196 92H21.7997C16.5476 91.9758 11.5183 89.8755 7.80896 86.1574C4.09966 82.4393 2.01147 77.4051 2 72.1533V21.8031C2.01955 16.5577 4.11171 11.5327 7.82051 7.82331C11.5293 4.11387 16.5541 2.0207 21.7997 2Z" fill="url(#paint0_linear_44_27709)"/>
<path d="M57.7682 72H36.2318C32.459 71.9943 28.8424 70.493 26.1746 67.8251C23.5069 65.1571 22.0057 61.5403 22 57.7672V36.2292C22.0066 32.4568 23.5082 28.8408 26.1759 26.1737C28.8435 23.5065 32.4596 22.0057 36.2318 22H57.7682C61.5404 22.0057 65.1565 23.5065 67.8241 26.1737C70.4918 28.8408 71.9934 32.4568 72 36.2292V57.7708C71.9934 61.5432 70.4918 65.1592 67.8241 67.8263C65.1565 70.4935 61.5404 71.9943 57.7682 72ZM36.2318 26.2798C33.595 26.2826 31.0671 27.3314 29.2026 29.196C27.3382 31.0606 26.2895 33.5887 26.2866 36.2256V57.7672C26.2866 60.406 27.3341 62.9369 29.1988 64.8038C31.0636 66.6707 33.5932 67.7209 36.2318 67.7238H57.7682C60.405 67.7209 62.9329 66.6722 64.7974 64.8076C66.6618 62.943 67.7105 60.4148 67.7134 57.7779V36.2292C67.7105 33.5923 66.6618 31.0642 64.7974 29.1996C62.9329 27.335 60.405 26.2862 57.7682 26.2834L36.2318 26.2798Z" fill="white"/>
<path d="M47 59.5C44.5276 59.5 42.1107 58.7668 40.055 57.3931C37.9993 56.0195 36.3972 54.067 35.4512 51.7827C34.5052 49.4985 34.2578 46.985 34.7404 44.5601C35.223 42.1352 36.4139 39.908 38.1624 38.1599C39.9109 36.4119 42.1385 35.2217 44.5635 34.7398C46.9885 34.2578 49.5019 34.5059 51.786 35.4525C54.07 36.3991 56.022 38.0018 57.3951 40.0579C58.7682 42.114 59.5007 44.5311 59.5 47.0035C59.4926 50.3161 58.1732 53.4909 55.8305 55.833C53.4878 58.175 50.3126 59.4936 47 59.5ZM47 38.6887C45.3555 38.6887 43.7479 39.1764 42.3806 40.09C41.0132 41.0036 39.9475 42.3022 39.3181 43.8216C38.6888 45.3409 38.5242 47.0127 38.845 48.6256C39.1658 50.2385 39.9577 51.7201 41.1206 52.8829C42.2834 54.0458 43.765 54.8377 45.3779 55.1585C46.9908 55.4793 48.6626 55.3147 50.1819 54.6853C51.7013 54.056 52.9998 52.9903 53.9135 51.6229C54.8271 50.2556 55.3148 48.648 55.3148 47.0035C55.3074 44.8021 54.4285 42.6933 52.8703 41.1383C51.312 39.5834 49.2014 38.7089 47 38.7061V38.6887Z" fill="white"/>
<path d="M63.25 33.8714C63.2507 34.4898 63.068 35.0944 62.7248 35.6089C62.3817 36.1234 61.8937 36.5245 61.3226 36.7614C60.7514 36.9984 60.1228 37.0606 59.5162 36.9401C58.9097 36.8197 58.3526 36.522 57.9153 36.0847C57.478 35.6475 57.1803 35.0903 57.0599 34.4838C56.9394 33.8772 57.0016 33.2486 57.2386 32.6774C57.4755 32.1063 57.8766 31.6183 58.3911 31.2752C58.9056 30.932 59.5102 30.7493 60.1286 30.75C60.9565 30.75 61.7504 31.0789 62.3358 31.6642C62.9211 32.2496 63.25 33.0435 63.25 33.8714Z" fill="white"/>
<defs>
<linearGradient id="paint0_linear_44_27709" x1="47" y1="3.51928" x2="47" y2="89.4417" gradientUnits="userSpaceOnUse">
<stop stop-color="#FEC053"/>
<stop offset="0.33" stop-color="#F2203E"/>
<stop offset="0.65" stop-color="#B729A8"/>
<stop offset="1" stop-color="#5342D6"/>
</linearGradient>
</defs>
</svg>
