<svg width="94" height="94" viewBox="0 0 94 94" fill="none" xmlns="http://www.w3.org/2000/svg">
<path fill-rule="evenodd" clip-rule="evenodd" d="M21.7997 2H72.196C77.442 2.02069 82.4672 4.11372 86.1767 7.82304C89.8862 11.5324 91.9793 16.5573 92 21.8031V72.1533C91.9885 77.4059 89.8997 82.4407 86.1895 86.1589C82.4792 89.8772 77.4488 91.977 72.196 92H21.7997C16.5476 91.9758 11.5183 89.8755 7.80896 86.1574C4.09966 82.4393 2.01147 77.4051 2 72.1533V21.8031C2.01955 16.5577 4.11171 11.5327 7.82051 7.82331C11.5293 4.11387 16.5541 2.0207 21.7997 2Z" fill="#0B66C3"/>
<path fill-rule="evenodd" clip-rule="evenodd" d="M22.98 38.1658H32.9063V72H22.98V38.1658ZM27.8819 21C31.1904 21 33.8864 23.7383 33.8864 27.0953C33.8864 30.4522 31.1886 33.1901 27.8819 33.1901C24.5752 33.1901 22 30.4518 22 27.0953C22 23.7388 24.5735 21 27.8819 21ZM38.7883 38.1658H48.5921V42.8928C50.6751 39.7828 54.1065 37.7928 58.028 37.7928H60.7257C66.9756 37.7928 72 43.0171 72 49.2368V72H62.194V68.89V53.7146C62.0715 49.8585 59.4962 46.8733 55.6991 46.8733C51.9001 46.8733 48.7142 49.8585 48.5917 53.7146V72H38.7878L38.7883 38.1658Z" fill="white"/>
</svg>
