<svg width="94" height="94" viewBox="0 0 94 94" fill="none" xmlns="http://www.w3.org/2000/svg">
<g clip-path="url(#clip0_44_27690)">
<g clip-path="url(#clip1_44_27690)">
<path d="M96.0505 58.0407C102.298 30.8059 85.2846 3.66311 58.0499 -2.58449C30.8151 -8.83208 3.6723 8.18137 -2.5753 35.4161C-8.82289 62.6509 8.19056 89.7937 35.4253 96.0413C62.6601 102.289 89.8029 85.2754 96.0505 58.0407Z" fill="#0762AF"/>
<path fill-rule="evenodd" clip-rule="evenodd" d="M21.7997 2H72.196C77.442 2.02069 82.4672 4.11372 86.1767 7.82304C89.8862 11.5324 91.9793 16.5573 92 21.8031V72.1533C91.9885 77.4059 89.8997 82.4407 86.1895 86.1589C82.4792 89.8772 77.4488 91.977 72.196 92H21.7997C16.5476 91.9758 11.5183 89.8755 7.80896 86.1574C4.09966 82.4393 2.01147 77.4051 2 72.1533V21.8031C2.01955 16.5577 4.11171 11.5327 7.82051 7.82331C11.5293 4.11387 16.5541 2.0207 21.7997 2Z" fill="black"/>
<path d="M68.1602 66.7097L51.8567 43.0251L50.0136 40.3464L38.3524 23.4041L37.3857 22H23.0557L26.5506 27.0788L42.0562 49.6083L43.8993 52.2837L56.358 70.3873L57.3246 71.7901H71.6547L68.1602 66.7097ZM59.0265 68.5471L46.0836 49.7406L44.2405 47.0636L29.2219 25.2435H35.6827L47.8289 42.8916L49.672 45.5686L65.4885 68.5491L59.0265 68.5471Z" fill="white"/>
<path d="M44.2418 47.0641L46.0849 49.7411L43.8998 52.2842L27.1343 71.7886H23L42.0567 49.6084L44.2418 47.0641Z" fill="white"/>
<path d="M69.93 22.0005L51.8576 43.0256L49.6725 45.5671L47.8293 42.89L50.0145 40.3469L62.2565 26.098L65.7957 22.0005H69.93Z" fill="white"/>
</g>
</g>
<rect x="1.20312" y="1.20312" width="91.4062" height="91.4062" rx="45.7031" stroke="white" stroke-width="2.34375"/>
<defs>
<clipPath id="clip0_44_27690">
<rect x="0.03125" y="0.03125" width="93.75" height="93.75" rx="46.875" fill="white"/>
</clipPath>
<clipPath id="clip1_44_27690">
<rect width="101.195" height="101.195" fill="white" transform="translate(-3.875 -3.875)"/>
</clipPath>
</defs>
</svg>
