<svg width="94" height="94" viewBox="0 0 94 94" fill="none" xmlns="http://www.w3.org/2000/svg">
<path fill-rule="evenodd" clip-rule="evenodd" d="M21.7997 2H72.196C77.442 2.02069 82.4672 4.11372 86.1767 7.82304C89.8862 11.5324 91.9793 16.5573 92 21.8031V72.1533C91.9885 77.4059 89.8997 82.4407 86.1895 86.1589C82.4792 89.8772 77.4488 91.977 72.196 92H21.7997C16.5476 91.9758 11.5183 89.8755 7.80896 86.1574C4.09966 82.4393 2.01147 77.4051 2 72.1533V21.8031C2.01955 16.5577 4.11171 11.5327 7.82051 7.82331C11.5293 4.11387 16.5541 2.0207 21.7997 2Z" fill="#EC145A"/>
<g clip-path="url(#clip0_44_27725)">
<path d="M42.8962 18.782L37.3702 17.312C36.1907 16.9986 34.9609 16.9207 33.7512 17.0828C32.5416 17.2449 31.3757 17.6438 30.3204 18.2568C29.265 18.8697 28.3407 19.6847 27.6005 20.655C26.8602 21.6254 26.3185 22.7321 26.0062 23.912L24.6262 29.12C29.1735 23.4684 35.7099 19.7697 42.8962 18.782Z" fill="white"/>
<path d="M18.6681 51.536L17.3181 56.63C17.0047 57.8095 16.9268 59.0393 17.0889 60.249C17.251 61.4586 17.6499 62.6245 18.2629 63.6799C18.8758 64.7352 19.6908 65.6595 20.6611 66.3997C21.6315 67.14 22.7382 67.6817 23.9181 67.994L29.21 69.398C23.5742 64.9822 19.81 58.6042 18.6681 51.536Z" fill="white"/>
<path d="M70.0942 26L64.1782 24.428C67.1641 26.7251 69.6638 29.5926 71.5323 32.8639C73.4007 36.1352 74.6006 39.7451 75.0622 43.484L76.6882 37.364C77.0017 36.1848 77.0799 34.9555 76.9182 33.7461C76.7564 32.5368 76.358 31.3712 75.7456 30.3158C75.1333 29.2605 74.319 28.3362 73.3493 27.5957C72.3796 26.8551 71.2735 26.3129 70.0942 26Z" fill="white"/>
<path d="M50.9722 75.182L56.6362 76.682C57.8157 76.9955 59.0454 77.0733 60.2551 76.9112C61.4648 76.7491 62.6306 76.3501 63.686 75.7372C64.7414 75.1242 65.6656 74.3093 66.4059 73.3389C67.1461 72.3686 67.6879 71.2619 68.0002 70.082L69.5902 64.082C65.0915 70.0932 58.3994 74.0829 50.9722 75.182Z" fill="white"/>
<path d="M47.0001 20.984C41.8547 20.984 36.8247 22.5098 32.5464 25.3685C28.2681 28.2272 24.9336 32.2903 22.9645 37.0441C20.9954 41.7979 20.4802 47.0289 21.484 52.0755C22.4879 57.1221 24.9656 61.7577 28.604 65.3961C32.2424 69.0345 36.8781 71.5123 41.9247 72.5161C46.9713 73.5199 52.2022 73.0048 56.956 71.0357C61.7098 69.0666 65.773 65.732 68.6317 61.4537C71.4903 57.1754 73.0161 52.1455 73.0161 47C73.0169 43.5833 72.3445 40.1999 71.0374 37.0432C69.7302 33.8864 67.814 31.0181 65.398 28.6021C62.982 26.1862 60.1137 24.2699 56.957 22.9628C53.8002 21.6556 50.4168 20.9832 47.0001 20.984ZM32.2641 33.962C32.5421 32.5184 33.2418 31.1895 34.2749 30.1435C35.308 29.0975 36.628 28.3813 38.0681 28.0855C39.5082 27.7896 41.0036 27.9274 42.3654 28.4814C43.7272 29.0354 44.8941 29.9807 45.7187 31.1979C46.5433 32.415 46.9885 33.8493 46.9979 35.3194C47.0074 36.7896 46.5808 38.2295 45.772 39.4572C44.9632 40.6849 43.8085 41.6451 42.454 42.2167C41.0995 42.7882 39.6059 42.9453 38.1622 42.668C36.2261 42.2946 34.5174 41.1679 33.4115 39.5355C32.3056 37.9031 31.8929 35.8985 32.2641 33.962ZM43.0641 56.438C42.787 57.8823 42.0878 59.212 41.0548 60.2588C40.0218 61.3056 38.7016 62.0225 37.2611 62.3188C35.8206 62.6151 34.3246 62.4775 32.9623 61.9234C31.6 61.3693 30.4327 60.4236 29.6081 59.2059C28.7834 57.9882 28.3384 56.5533 28.3294 55.0826C28.3205 53.612 28.7479 52.1717 29.5577 50.9441C30.3674 49.7164 31.5231 48.7565 32.8785 48.1858C34.2339 47.6151 35.7281 47.4593 37.1721 47.738C38.1304 47.9221 39.043 48.2933 39.8577 48.8302C40.6725 49.3672 41.3735 50.0594 41.9206 50.8673C42.4678 51.6752 42.8504 52.583 43.0466 53.5389C43.2428 54.4947 43.2488 55.4798 43.0641 56.438ZM46.2201 50.438C45.578 50.3147 44.9868 50.0037 44.5214 49.5443C44.056 49.085 43.7372 48.4979 43.6055 47.8574C43.4737 47.2169 43.5349 46.5517 43.7812 45.946C44.0275 45.3402 44.448 44.8211 44.9894 44.4544C45.5307 44.0876 46.1687 43.8896 46.8226 43.8854C47.4765 43.8812 48.1169 44.0711 48.6629 44.4309C49.2089 44.7908 49.636 45.3044 49.89 45.907C50.1441 46.5095 50.2137 47.1739 50.0902 47.816C49.9216 48.6709 49.4224 49.4246 48.701 49.9134C47.9797 50.4021 47.0946 50.5864 46.2381 50.426L46.2201 50.438ZM61.7182 60.038C61.4402 61.4816 60.7405 62.8105 59.7074 63.8565C58.6743 64.9025 57.3543 65.6187 55.9142 65.9145C54.4741 66.2104 52.9787 66.0726 51.6169 65.5186C50.2551 64.9646 49.0881 64.0193 48.2636 62.8021C47.439 61.585 46.9938 60.1507 46.9844 58.6806C46.9749 57.2104 47.4015 55.7705 48.2103 54.5428C49.0191 53.3151 50.1737 52.3549 51.5283 51.7833C52.8828 51.2118 54.3764 51.0548 55.8201 51.332C56.7802 51.5142 57.6949 51.8838 58.5119 52.4197C59.329 52.9557 60.0323 53.6475 60.5818 54.4555C61.1313 55.2635 61.5161 56.172 61.7141 57.1288C61.9122 58.0857 61.9197 59.0723 61.7361 60.032L61.7182 60.038ZM56.7982 46.238C55.3545 45.9601 54.0257 45.2603 52.9797 44.2273C51.9337 43.1942 51.2175 41.8741 50.9216 40.4341C50.6257 38.994 50.7636 37.4985 51.3175 36.1368C51.8715 34.775 52.8168 33.608 54.034 32.7834C55.2511 31.9589 56.6855 31.5137 58.1556 31.5042C59.6257 31.4947 61.0656 31.9214 62.2933 32.7302C63.521 33.539 64.4813 34.6936 65.0528 36.0481C65.6243 37.4027 65.7814 38.8962 65.5042 40.34C65.3226 41.2994 64.9539 42.2136 64.419 43.0304C63.8841 43.8472 63.1936 44.5507 62.3868 45.1006C61.58 45.6505 60.6728 46.0361 59.717 46.2354C58.7612 46.4347 57.7754 46.4437 56.8161 46.262L56.7982 46.238Z" fill="white"/>
</g>
<defs>
<clipPath id="clip0_44_27725">
<rect width="60" height="60" fill="white" transform="translate(17 17)"/>
</clipPath>
</defs>
</svg>
