<svg width="125" height="10" viewBox="0 0 125 10" fill="none" xmlns="http://www.w3.org/2000/svg">
<path fill-rule="evenodd" clip-rule="evenodd" d="M124.893 6.67011C124.384 7.70965 120.016 8.14736 106.888 8.51211C94.6375 8.85862 80.3766 9.86167 55.4604 9.31454C36.415 8.89508 12.7007 7.21722 12.7007 6.28711C12.7007 5.61232 13.6253 5.59408 22.4546 6.19592C30.6136 6.74304 34.7971 6.87071 39.9052 7.01661C19.4267 5.59408 15.0583 4.66401 4.14878 3.77038C-2.69277 3.20501 1.30584 1.58186 3.80208 1.746C3.82519 1.746 35.6523 3.78861 38.657 3.67919C38.9344 3.66095 35.9065 3.33268 31.9079 2.94969C20.7442 1.85544 22.8937 0.0317163 31.2607 0.870639C59.4128 3.69744 85.9007 4.57286 106.31 3.35095C112.758 2.96796 113.475 2.96796 113.475 3.44214C113.475 4.28106 111.718 4.91933 108.968 5.047C104.669 5.26585 88.1196 5.88594 80.6308 6.06831C80.053 6.08655 80.3303 6.43301 80.8388 6.46948C83.8898 6.70657 108.113 6.52427 117.635 6.26894C124.639 6.08657 125.147 6.10475 124.893 6.67011Z" fill="#FF0013"/>
</svg>
