<svg width="28" height="27" viewBox="0 0 28 27" fill="none" xmlns="http://www.w3.org/2000/svg">
<g clip-path="url(#clip0_519_23460)">
<g clip-path="url(#clip1_519_23460)">
<path d="M28.1543 16.7066C29.9536 8.86297 25.0538 1.04584 17.2102 -0.753465C9.36656 -2.55277 1.54943 2.3471 -0.249877 10.1907C-2.04918 18.0343 2.85069 25.8514 10.6943 27.6508C18.5379 29.4501 26.355 24.5502 28.1543 16.7066Z" fill="#0762AF"/>
<path d="M13.9451 19.4332C17.0753 19.4332 19.6128 15.9185 19.6128 11.5829C19.6128 7.24734 17.0753 3.73267 13.9451 3.73267C10.8149 3.73267 8.27734 7.24734 8.27734 11.5829C8.27734 15.9185 10.8149 19.4332 13.9451 19.4332Z" fill="white"/>
<path d="M13.8565 18.9314C9.11353 18.9314 4.87003 20.0676 2.05078 21.8564C3.391 23.7542 5.16579 25.3038 7.22698 26.3759C9.28816 27.448 11.5759 28.0114 13.8992 28.0191C16.2225 28.0268 18.514 27.4786 20.5822 26.4202C22.6505 25.3618 24.4355 23.824 25.7883 21.9351C22.969 20.1014 18.6715 18.9314 13.8565 18.9314Z" fill="white"/>
<path d="M14.8105 13.446H13.0825C11.887 13.446 10.918 14.4151 10.918 15.6105V20.5358C10.918 21.7312 11.887 22.7003 13.0825 22.7003H14.8105C16.0059 22.7003 16.975 21.7312 16.975 20.5358V15.6105C16.975 14.4151 16.0059 13.446 14.8105 13.446Z" fill="white"/>
<path d="M9.17417 12.0285C9.34292 13.2885 9.06392 14.3797 8.54867 14.4675C8.03342 14.5552 7.47992 13.6035 7.31117 12.3457C7.14242 11.088 7.41917 9.99674 7.93442 9.90899C8.44967 9.82124 9.00317 10.7617 9.17417 12.0285Z" fill="white"/>
<path d="M18.7202 12.0285C18.5492 13.2885 18.8282 14.3797 19.3435 14.4675C19.8587 14.5552 20.4122 13.6035 20.5832 12.3457C20.7542 11.088 20.473 9.99674 19.9577 9.90899C19.4425 9.82124 18.889 10.7617 18.7202 12.0285Z" fill="white"/>
<path d="M8.48393 11.2748C8.29193 10.0163 8.10142 8.75934 7.91242 7.50384C7.84267 7.05384 7.77518 6.56559 7.94168 6.13584C8.10818 5.70609 8.59643 5.36184 9.03068 5.52384C8.85743 4.65084 9.82493 4.00509 10.6664 3.72384C12.0747 3.20782 13.5828 3.0223 15.0742 3.18159C16.5708 3.34933 17.9595 4.04209 18.9937 5.13684C19.3194 5.47948 19.5714 5.88536 19.7339 6.32934C20.0242 7.19109 19.8397 8.12934 19.6529 9.02934L19.2029 11.1511C19.182 11.3143 19.1192 11.4693 19.0207 11.6011C18.8452 11.7968 18.5482 11.8103 18.2849 11.8103L9.85192 11.8306C9.32317 11.8306 8.63467 11.7001 8.56492 11.1758" fill="white"/>
</g>
</g>
<rect x="0.8375" y="0.3375" width="26.325" height="26.325" rx="13.1625" stroke="white" stroke-width="0.675"/>
<defs>
<clipPath id="clip0_519_23460">
<rect x="0.5" width="27" height="27" rx="13.5" fill="white"/>
</clipPath>
<clipPath id="clip1_519_23460">
<rect width="29.1442" height="29.1442" fill="white" transform="translate(-0.625 -1.125)"/>
</clipPath>
</defs>
</svg>
