<svg width="49" height="40" viewBox="0 0 49 40" fill="none" xmlns="http://www.w3.org/2000/svg">
<path d="M42.5 8H10.5C8.782 8 7.156 7.256 6.03 6.002C7.13 4.774 8.728 4 10.5 4H46.5C47.606 4 48.5 3.104 48.5 2C48.5 0.896 47.606 0 46.5 0H10.5C4.978 0 0.5 4.478 0.5 10V30C0.5 35.522 4.978 40 10.5 40H42.5C45.814 40 48.5 37.314 48.5 34V14C48.5 10.686 45.814 8 42.5 8ZM44.5 34C44.5 35.102 43.604 36 42.5 36H10.5C7.192 36 4.5 33.308 4.5 30V9.996C6.208 11.274 8.308 12 10.5 12H42.5C43.604 12 44.5 12.898 44.5 14V34ZM40.5 24C40.5 25.104 39.604 26 38.5 26C37.396 26 36.5 25.104 36.5 24C36.5 22.896 37.396 22 38.5 22C39.604 22 40.5 22.896 40.5 24Z" fill="#F8AB02"/>
</svg>
