<svg width="36" height="36" viewBox="0 0 36 36" fill="none" xmlns="http://www.w3.org/2000/svg">
<path d="M16.1237 11.1288C16.6941 11.5122 17.5703 12.289 17.8897 13.579H9.95678C7.6453 13.579 5.76417 15.4594 5.76417 17.7717C5.76417 18.617 6.01655 19.4041 6.44828 20.0633C4.67901 20.5548 3.37636 22.1783 3.37636 24.1018C3.37636 26.0252 4.67889 27.6494 6.44814 28.1404C6.01588 28.7997 5.76417 29.5867 5.76417 30.432C5.76417 32.7435 7.64455 34.6246 9.95678 34.6246H28.1234C30.4349 34.6246 32.316 32.7442 32.316 30.432C32.316 28.5077 31.0132 26.884 29.2437 26.3932C29.6758 25.734 29.9275 24.947 29.9275 24.1018C29.9275 23.2565 29.6751 22.4694 29.2434 21.8102C31.0127 21.3186 32.3153 19.6952 32.3153 17.7717C32.3153 15.4602 30.4349 13.579 28.1227 13.579H20.0665V12.63C20.0665 11.443 20.5224 10.3265 21.3521 9.48007C21.8708 9.76112 22.4534 9.91118 23.0597 9.91118C24.0191 9.91118 24.9209 9.53776 25.5992 8.85949L25.5992 8.85946C26.622 7.8359 27.3924 6.63445 27.7627 5.47124C28.2019 4.09472 28.042 2.89191 27.2642 2.1141C26.4871 1.33699 25.2843 1.17713 23.9072 1.61559L23.9071 1.61559C22.7446 1.98591 21.5424 2.75623 20.5195 3.77913C19.8413 4.45742 19.4679 5.3599 19.4679 6.31859C19.4679 6.92438 19.618 7.50767 19.8992 8.02657C19.2272 8.70788 18.7233 9.51146 18.4057 10.3863C18.0919 10.0548 17.7718 9.78686 17.4839 9.57645C17.6955 9.11404 17.808 8.6077 17.808 8.08399C17.808 7.12457 17.4346 6.2228 16.7563 5.54453C15.7327 4.5209 14.5312 3.7513 13.3687 3.38099C11.9922 2.94179 10.7894 3.10169 10.0116 3.8795C9.23453 4.65659 9.07466 5.8594 9.51312 7.23586L9.51315 7.23593C9.88417 8.39832 10.6537 9.6005 11.6766 10.6241L11.6767 10.6242C12.3549 11.3025 13.2574 11.6759 14.2161 11.6759C14.9012 11.6759 15.5571 11.4847 16.1237 11.1288ZM21.9738 5.23338L22.0373 5.16992C22.8129 4.4116 23.7195 3.83349 24.5323 3.57441C24.834 3.47829 25.1061 3.43228 25.3277 3.43228C25.5725 3.43228 25.7322 3.48838 25.8121 3.56835C25.8889 3.64512 25.9439 3.79549 25.948 4.02583C25.9519 4.25174 25.9061 4.5341 25.8061 4.84821C25.5398 5.68351 24.9366 6.61792 24.1471 7.40741C23.8564 7.69811 23.4708 7.85757 23.0604 7.85757C22.6501 7.85757 22.2638 7.69806 21.9739 7.40751L21.9738 7.40741C21.6831 7.1167 21.5236 6.73106 21.5236 6.32076C21.5236 5.91039 21.6831 5.52404 21.9738 5.23338ZM15.7537 8.08543C15.7537 8.49568 15.6005 8.86394 15.3214 9.15194C15.3126 9.16032 15.3026 9.1706 15.2953 9.17801C15.2927 9.18064 15.2905 9.1829 15.2888 9.1846C14.6978 9.76119 13.754 9.76678 13.1573 9.19993L13.1295 9.17208C12.2873 8.32986 11.7648 7.45824 11.5104 6.74548C11.383 6.3887 11.3243 6.07585 11.3236 5.82889C11.3229 5.57763 11.3818 5.4155 11.4644 5.33309L11.4644 5.33302C11.5412 5.25625 11.6916 5.20123 11.9219 5.19721C12.1478 5.19326 12.4302 5.23907 12.7443 5.3391C13.5796 5.60536 14.514 6.20858 15.3035 6.99806C15.5942 7.28874 15.7537 7.67437 15.7537 8.08543ZM9.95606 15.6341H28.1227C29.3016 15.6341 30.261 16.5935 30.261 17.7724C30.261 18.9513 29.3016 19.9107 28.1227 19.9107H9.95606C8.77719 19.9107 7.81778 18.9513 7.81778 17.7724C7.81778 16.5935 8.77719 15.6341 9.95606 15.6341ZM5.4307 24.1026C5.4307 22.9237 6.39011 21.9643 7.56898 21.9643H25.7356C26.9145 21.9643 27.8739 22.9237 27.8739 24.1026C27.8739 25.2814 26.9145 26.2408 25.7356 26.2408H7.56898C6.39011 26.2408 5.4307 25.2814 5.4307 24.1026ZM28.1227 32.571H9.95606C8.77718 32.571 7.81778 31.6116 7.81778 30.4327C7.81778 29.2538 8.77719 28.2944 9.95606 28.2944H28.1227C29.3016 28.2944 30.261 29.2538 30.261 30.4327C30.261 31.6116 29.3016 32.571 28.1227 32.571Z" fill="white" stroke="white" stroke-width="0.249227"/>
</svg>
